<?xml version="1.0" ?>
<svg xmlns="http://www.w3.org/2000/svg" xmlns:ev="http://www.w3.org/2001/xml-events" xmlns:xlink="http://www.w3.org/1999/xlink" baseProfile="full" height="203px" version="1.1" viewBox="-681.5395000000001 -696.5395 8742.079 2946.079" width="600px">
	<defs/>
	<path d="M 314.0,-400.0 L 298.0,-400.0 L 290.0,-400.0 L 282.0,-400.0 L 265.0,-400.0 L 255.0,-400.0 L 244.0,-400.0 L 234.0,-400.0 L 224.0,-400.0 L 224.0,-304.0 L 224.0,-214.0 L 224.0,-125.0 L 224.0,-33.0 L 224.0,-28.0 L 224.0,-22.0 L 224.0,-15.0 L 222.0,-12.0 L 219.0,-7.0 L 213.0,-4.0 L 209.0,0.0 L 204.0,0.0 L 204.0,0.0 L 204.0,0.0 L 198.0,0.0 L 193.0,-3.0 L 187.0,-7.0 L 186.0,-11.0 L 183.0,-27.0 L 179.0,-42.0 L 176.0,-58.0 L 176.0,-73.0 L 176.0,-133.0 L 176.0,-189.0 L 176.0,-247.0 L 176.0,-307.0 L 176.0,-328.0 L 176.0,-352.0 L 176.0,-374.0 L 176.0,-394.0 L 164.0,-396.0 L 154.0,-398.0 L 144.0,-400.0 L 137.0,-400.0 L 118.0,-400.0 L 102.0,-400.0 L 86.0,-400.0 L 61.0,-404.0 L 59.0,-405.0 L 55.0,-411.0 L 52.0,-416.0 L 50.0,-420.0 L 55.0,-435.0 L 62.0,-441.0 L 69.0,-448.0 L 80.0,-448.0 L 125.0,-448.0 L 158.0,-448.0 L 190.0,-448.0 L 226.0,-448.0 L 245.0,-448.0 L 266.0,-448.0 L 286.0,-448.0 L 311.0,-448.0 L 319.0,-447.0 L 326.0,-446.0 L 333.0,-445.0 L 340.0,-443.0 L 349.0,-442.0 L 350.0,-433.0 L 350.0,-432.0 L 350.0,-431.0 L 350.0,-424.0 L 348.0,-415.0 L 338.0,-403.0 L 333.0,-401.0 L 327.0,-400.0 L 314.0,-400.0 M 438.0,-319.0 L 438.0,-289.0 L 438.0,-259.0 L 438.0,-229.0 L 438.0,-199.0 L 449.0,-213.0 L 460.0,-225.0 L 470.0,-237.0 L 499.0,-243.0 L 512.0,-246.0 L 522.0,-243.0 L 533.0,-238.0 L 540.0,-226.0 L 547.0,-213.0 L 554.0,-200.0 L 561.0,-186.0 L 562.0,-172.0 L 566.0,-133.0 L 566.0,-96.0 L 566.0,-57.0 L 566.0,-19.0 L 566.0,-19.0 L 566.0,-18.0 L 566.0,-13.0 L 562.0,-6.0 L 558.0,0.0 L 555.0,0.0 L 548.0,0.0 L 541.0,-3.0 L 533.0,-5.0 L 531.0,-10.0 L 526.0,-20.0 L 523.0,-32.0 L 521.0,-43.0 L 520.0,-55.0 L 518.0,-78.0 L 518.0,-102.0 L 518.0,-127.0 L 518.0,-151.0 L 516.0,-166.0 L 513.0,-178.0 L 510.0,-192.0 L 498.0,-201.0 L 473.0,-184.0 L 458.0,-156.0 L 443.0,-127.0 L 439.0,-84.0 L 438.0,-69.0 L 438.0,-54.0 L 438.0,-38.0 L 438.0,-24.0 L 438.0,-13.0 L 433.0,-6.0 L 427.0,0.0 L 419.0,0.0 L 417.0,0.0 L 416.0,0.0 L 406.0,0.0 L 400.0,-5.0 L 391.0,-10.0 L 390.0,-22.0 L 390.0,-27.0 L 390.0,-33.0 L 390.0,-35.0 L 390.0,-37.0 L 390.0,-44.0 L 390.0,-51.0 L 390.0,-104.0 L 390.0,-159.0 L 390.0,-212.0 L 390.0,-266.0 L 390.0,-294.0 L 390.0,-327.0 L 390.0,-360.0 L 390.0,-389.0 L 390.0,-401.0 L 390.0,-414.0 L 391.0,-428.0 L 391.0,-442.0 L 394.0,-447.0 L 400.0,-448.0 L 400.0,-448.0 L 401.0,-448.0 L 408.0,-448.0 L 418.0,-443.0 L 438.0,-417.0 L 438.0,-384.0 L 438.0,-350.0 L 438.0,-319.0 M 606.0,-290.0 L 606.0,-289.0 L 606.0,-288.0 L 606.0,-279.0 L 612.0,-272.0 L 619.0,-264.0 L 629.0,-264.0 L 637.0,-264.0 L 645.0,-272.0 L 652.0,-279.0 L 653.0,-288.0 L 653.0,-288.0 L 653.0,-289.0 L 653.0,-298.0 L 646.0,-305.0 L 639.0,-312.0 L 628.0,-312.0 L 628.0,-312.0 L 627.0,-312.0 L 619.0,-312.0 L 613.0,-306.0 L 607.0,-300.0 L 606.0,-290.0 M 620.0,-223.0 L 613.0,-217.0 L 611.0,-208.0 L 608.0,-200.0 L 607.0,-193.0 L 607.0,-149.0 L 607.0,-110.0 L 607.0,-90.0 L 607.0,-67.0 L 607.0,-49.0 L 607.0,-29.0 L 607.0,-6.0 L 626.0,-2.0 L 633.0,0.0 L 639.0,0.0 L 647.0,0.0 L 653.0,-4.0 L 655.0,-8.0 L 655.0,-23.0 L 655.0,-38.0 L 655.0,-56.0 L 655.0,-79.0 L 655.0,-99.0 L 655.0,-120.0 L 655.0,-124.0 L 655.0,-136.0 L 658.0,-164.0 L 659.0,-171.0 L 659.0,-178.0 L 659.0,-195.0 L 653.0,-209.0 L 648.0,-215.0 L 641.0,-220.0 L 634.0,-223.0 L 625.0,-223.0 L 624.0,-223.0 L 620.0,-223.0 M 812.0,-215.0 L 796.0,-217.0 L 782.0,-214.0 L 769.0,-212.0 L 757.0,-201.0 L 752.0,-197.0 L 749.0,-188.0 L 746.0,-181.0 L 747.0,-174.0 L 747.0,-170.0 L 753.0,-164.0 L 759.0,-160.0 L 764.0,-159.0 L 778.0,-155.0 L 791.0,-154.0 L 805.0,-152.0 L 818.0,-150.0 L 846.0,-145.0 L 862.0,-128.0 L 878.0,-112.0 L 881.0,-87.0 L 882.0,-81.0 L 882.0,-75.0 L 882.0,-62.0 L 879.0,-51.0 L 873.0,-36.0 L 857.0,-23.0 L 845.0,-12.0 L 832.0,-8.0 L 818.0,-2.0 L 804.0,0.0 L 797.0,0.0 L 791.0,0.0 L 771.0,0.0 L 754.0,-6.0 L 730.0,-14.0 L 716.0,-29.0 L 712.0,-32.0 L 710.0,-35.0 L 706.0,-39.0 L 706.0,-47.0 L 714.0,-64.0 L 730.0,-64.0 L 746.0,-64.0 L 759.0,-53.0 L 776.0,-45.0 L 791.0,-43.0 L 806.0,-41.0 L 822.0,-51.0 L 841.0,-63.0 L 842.0,-76.0 L 842.0,-88.0 L 827.0,-104.0 L 819.0,-108.0 L 811.0,-111.0 L 803.0,-113.0 L 794.0,-115.0 L 782.0,-118.0 L 769.0,-118.0 L 756.0,-118.0 L 743.0,-122.0 L 714.0,-133.0 L 703.0,-162.0 L 699.0,-173.0 L 699.0,-184.0 L 699.0,-201.0 L 710.0,-217.0 L 717.0,-227.0 L 727.0,-233.0 L 736.0,-241.0 L 748.0,-246.0 L 771.0,-256.0 L 798.0,-256.0 L 801.0,-256.0 L 805.0,-256.0 L 828.0,-256.0 L 847.0,-247.0 L 852.0,-245.0 L 857.0,-238.0 L 861.0,-231.0 L 861.0,-224.0 L 860.0,-210.0 L 841.0,-211.0 L 823.0,-213.0 L 812.0,-215.0 M 1082.0,-290.0 L 1082.0,-289.0 L 1082.0,-288.0 L 1082.0,-279.0 L 1088.0,-272.0 L 1095.0,-264.0 L 1105.0,-264.0 L 1113.0,-264.0 L 1121.0,-272.0 L 1128.0,-279.0 L 1129.0,-288.0 L 1129.0,-288.0 L 1129.0,-289.0 L 1129.0,-298.0 L 1122.0,-305.0 L 1115.0,-312.0 L 1104.0,-312.0 L 1104.0,-312.0 L 1103.0,-312.0 L 1095.0,-312.0 L 1089.0,-306.0 L 1083.0,-300.0 L 1082.0,-290.0 M 1096.0,-223.0 L 1089.0,-217.0 L 1087.0,-208.0 L 1084.0,-200.0 L 1083.0,-193.0 L 1083.0,-149.0 L 1083.0,-110.0 L 1083.0,-90.0 L 1083.0,-67.0 L 1083.0,-49.0 L 1083.0,-29.0 L 1083.0,-6.0 L 1102.0,-2.0 L 1109.0,0.0 L 1115.0,0.0 L 1123.0,0.0 L 1129.0,-4.0 L 1131.0,-8.0 L 1131.0,-23.0 L 1131.0,-38.0 L 1131.0,-56.0 L 1131.0,-79.0 L 1131.0,-99.0 L 1131.0,-120.0 L 1131.0,-124.0 L 1131.0,-136.0 L 1134.0,-164.0 L 1135.0,-171.0 L 1135.0,-178.0 L 1135.0,-195.0 L 1129.0,-209.0 L 1124.0,-215.0 L 1117.0,-220.0 L 1110.0,-223.0 L 1101.0,-223.0 L 1100.0,-223.0 L 1096.0,-223.0 M 1288.0,-215.0 L 1272.0,-217.0 L 1258.0,-214.0 L 1245.0,-212.0 L 1233.0,-201.0 L 1228.0,-197.0 L 1225.0,-188.0 L 1222.0,-181.0 L 1223.0,-174.0 L 1223.0,-170.0 L 1229.0,-164.0 L 1235.0,-160.0 L 1240.0,-159.0 L 1254.0,-155.0 L 1267.0,-154.0 L 1281.0,-152.0 L 1294.0,-150.0 L 1322.0,-145.0 L 1338.0,-128.0 L 1354.0,-112.0 L 1357.0,-87.0 L 1358.0,-81.0 L 1358.0,-75.0 L 1358.0,-62.0 L 1355.0,-51.0 L 1349.0,-36.0 L 1333.0,-23.0 L 1321.0,-12.0 L 1308.0,-8.0 L 1294.0,-2.0 L 1280.0,0.0 L 1273.0,0.0 L 1267.0,0.0 L 1247.0,0.0 L 1230.0,-6.0 L 1206.0,-14.0 L 1192.0,-29.0 L 1188.0,-32.0 L 1186.0,-35.0 L 1182.0,-39.0 L 1182.0,-47.0 L 1190.0,-64.0 L 1206.0,-64.0 L 1222.0,-64.0 L 1235.0,-53.0 L 1252.0,-45.0 L 1267.0,-43.0 L 1282.0,-41.0 L 1298.0,-51.0 L 1317.0,-63.0 L 1318.0,-76.0 L 1318.0,-88.0 L 1303.0,-104.0 L 1295.0,-108.0 L 1287.0,-111.0 L 1279.0,-113.0 L 1270.0,-115.0 L 1258.0,-118.0 L 1245.0,-118.0 L 1232.0,-118.0 L 1219.0,-122.0 L 1190.0,-133.0 L 1179.0,-162.0 L 1175.0,-173.0 L 1175.0,-184.0 L 1175.0,-201.0 L 1186.0,-217.0 L 1193.0,-227.0 L 1203.0,-233.0 L 1212.0,-241.0 L 1224.0,-246.0 L 1247.0,-256.0 L 1274.0,-256.0 L 1277.0,-256.0 L 1281.0,-256.0 L 1304.0,-256.0 L 1323.0,-247.0 L 1328.0,-245.0 L 1333.0,-238.0 L 1337.0,-231.0 L 1337.0,-224.0 L 1336.0,-210.0 L 1317.0,-211.0 L 1299.0,-213.0 L 1288.0,-215.0 M 1645.0,-55.0 L 1668.0,-46.0 L 1690.0,-48.0 L 1713.0,-51.0 L 1735.0,-61.0 L 1748.0,-67.0 L 1754.0,-78.0 L 1760.0,-89.0 L 1761.0,-105.0 L 1763.0,-136.0 L 1747.0,-163.0 L 1733.0,-190.0 L 1706.0,-201.0 L 1687.0,-209.0 L 1668.0,-218.0 L 1648.0,-225.0 L 1629.0,-232.0 L 1599.0,-243.0 L 1584.0,-268.0 L 1570.0,-295.0 L 1561.0,-325.0 L 1558.0,-336.0 L 1558.0,-346.0 L 1558.0,-351.0 L 1559.0,-356.0 L 1562.0,-373.0 L 1570.0,-388.0 L 1578.0,-404.0 L 1592.0,-416.0 L 1606.0,-429.0 L 1622.0,-437.0 L 1648.0,-448.0 L 1676.0,-448.0 L 1682.0,-448.0 L 1687.0,-448.0 L 1722.0,-445.0 L 1746.0,-422.0 L 1747.0,-420.0 L 1748.0,-418.0 L 1749.0,-415.0 L 1751.0,-412.0 L 1746.0,-399.0 L 1738.0,-396.0 L 1730.0,-394.0 L 1719.0,-395.0 L 1704.0,-398.0 L 1689.0,-399.0 L 1673.0,-400.0 L 1659.0,-400.0 L 1652.0,-400.0 L 1645.0,-398.0 L 1638.0,-396.0 L 1632.0,-392.0 L 1619.0,-383.0 L 1608.0,-373.0 L 1598.0,-362.0 L 1601.0,-343.0 L 1603.0,-324.0 L 1610.0,-307.0 L 1617.0,-289.0 L 1635.0,-281.0 L 1654.0,-272.0 L 1673.0,-265.0 L 1693.0,-256.0 L 1712.0,-249.0 L 1735.0,-242.0 L 1752.0,-226.0 L 1769.0,-211.0 L 1781.0,-189.0 L 1802.0,-157.0 L 1802.0,-116.0 L 1802.0,-113.0 L 1802.0,-109.0 L 1802.0,-64.0 L 1777.0,-36.0 L 1773.0,-31.0 L 1767.0,-27.0 L 1763.0,-22.0 L 1757.0,-19.0 L 1722.0,0.0 L 1687.0,0.0 L 1677.0,0.0 L 1667.0,-1.0 L 1624.0,-9.0 L 1582.0,-34.0 L 1569.0,-42.0 L 1569.0,-53.0 L 1568.0,-64.0 L 1579.0,-83.0 L 1596.0,-76.0 L 1612.0,-69.0 L 1629.0,-63.0 L 1645.0,-55.0 M 2004.0,-61.0 L 2012.0,-66.0 L 2019.0,-74.0 L 2028.0,-80.0 L 2036.0,-85.0 L 2045.0,-90.0 L 2052.0,-85.0 L 2060.0,-80.0 L 2066.0,-66.0 L 2044.0,-34.0 L 2022.0,-17.0 L 2003.0,0.0 L 1971.0,0.0 L 1968.0,0.0 L 1965.0,0.0 L 1926.0,0.0 L 1896.0,-15.0 L 1867.0,-29.0 L 1849.0,-76.0 L 1842.0,-95.0 L 1842.0,-115.0 L 1842.0,-117.0 L 1842.0,-119.0 L 1842.0,-141.0 L 1848.0,-162.0 L 1858.0,-192.0 L 1881.0,-215.0 L 1903.0,-237.0 L 1930.0,-248.0 L 1945.0,-254.0 L 1960.0,-255.0 L 1966.0,-256.0 L 1971.0,-256.0 L 1981.0,-256.0 L 1990.0,-254.0 L 2008.0,-250.0 L 2020.0,-242.0 L 2033.0,-232.0 L 2036.0,-213.0 L 2040.0,-195.0 L 2038.0,-177.0 L 2035.0,-160.0 L 2022.0,-145.0 L 1997.0,-115.0 L 1966.0,-103.0 L 1935.0,-89.0 L 1894.0,-95.0 L 1910.0,-55.0 L 1942.0,-47.0 L 1974.0,-40.0 L 2004.0,-61.0 M 1890.0,-135.0 L 1904.0,-132.0 L 1917.0,-132.0 L 1929.0,-132.0 L 1940.0,-135.0 L 1964.0,-141.0 L 1983.0,-156.0 L 1992.0,-163.0 L 1998.0,-176.0 L 1999.0,-181.0 L 1999.0,-186.0 L 1999.0,-194.0 L 1992.0,-204.0 L 1981.0,-208.0 L 1970.0,-208.0 L 1966.0,-208.0 L 1961.0,-208.0 L 1945.0,-206.0 L 1930.0,-198.0 L 1909.0,-188.0 L 1895.0,-170.0 L 1887.0,-158.0 L 1887.0,-148.0 L 1887.0,-142.0 L 1890.0,-135.0 M 2277.0,-51.0 L 2267.0,-41.0 L 2257.0,-34.0 L 2247.0,-25.0 L 2236.0,-16.0 L 2214.0,0.0 L 2196.0,0.0 L 2194.0,0.0 L 2192.0,0.0 L 2170.0,-2.0 L 2148.0,-22.0 L 2139.0,-31.0 L 2131.0,-40.0 L 2123.0,-49.0 L 2116.0,-58.0 L 2111.0,-65.0 L 2109.0,-86.0 L 2106.0,-102.0 L 2106.0,-111.0 L 2106.0,-113.0 L 2106.0,-114.0 L 2106.0,-162.0 L 2119.0,-185.0 L 2130.0,-208.0 L 2166.0,-237.0 L 2184.0,-251.0 L 2205.0,-255.0 L 2210.0,-256.0 L 2217.0,-256.0 L 2231.0,-256.0 L 2244.0,-249.0 L 2264.0,-239.0 L 2279.0,-221.0 L 2296.0,-205.0 L 2297.0,-177.0 L 2297.0,-163.0 L 2299.0,-149.0 L 2301.0,-135.0 L 2302.0,-120.0 L 2302.0,-98.0 L 2311.0,-78.0 L 2318.0,-57.0 L 2335.0,-42.0 L 2339.0,-39.0 L 2339.0,-31.0 L 2340.0,-23.0 L 2342.0,-17.0 L 2327.0,-8.0 L 2316.0,-14.0 L 2306.0,-19.0 L 2297.0,-29.0 L 2292.0,-35.0 L 2287.0,-40.0 L 2283.0,-47.0 L 2277.0,-51.0 M 2256.0,-179.0 L 2254.0,-196.0 L 2247.0,-203.0 L 2242.0,-208.0 L 2231.0,-208.0 L 2228.0,-208.0 L 2224.0,-208.0 L 2216.0,-207.0 L 2206.0,-204.0 L 2197.0,-202.0 L 2191.0,-198.0 L 2169.0,-179.0 L 2161.0,-157.0 L 2154.0,-140.0 L 2154.0,-109.0 L 2154.0,-104.0 L 2154.0,-99.0 L 2154.0,-81.0 L 2165.0,-71.0 L 2176.0,-59.0 L 2188.0,-52.0 L 2195.0,-48.0 L 2202.0,-48.0 L 2207.0,-48.0 L 2212.0,-50.0 L 2226.0,-55.0 L 2234.0,-62.0 L 2254.0,-80.0 L 2257.0,-98.0 L 2259.0,-115.0 L 2259.0,-133.0 L 2259.0,-150.0 L 2258.0,-161.0 L 2257.0,-172.0 L 2256.0,-179.0 M 2542.0,-69.0 L 2542.0,-96.0 L 2542.0,-117.0 L 2542.0,-138.0 L 2536.0,-165.0 L 2533.0,-175.0 L 2528.0,-190.0 L 2523.0,-207.0 L 2509.0,-210.0 L 2490.0,-205.0 L 2479.0,-200.0 L 2467.0,-194.0 L 2461.0,-187.0 L 2447.0,-174.0 L 2442.0,-157.0 L 2439.0,-140.0 L 2434.0,-121.0 L 2429.0,-103.0 L 2428.0,-83.0 L 2428.0,-64.0 L 2427.0,-45.0 L 2427.0,-38.0 L 2427.0,-31.0 L 2428.0,-24.0 L 2426.0,-18.0 L 2424.0,-13.0 L 2419.0,-7.0 L 2415.0,-1.0 L 2410.0,0.0 L 2405.0,0.0 L 2398.0,-4.0 L 2392.0,-8.0 L 2388.0,-12.0 L 2384.0,-16.0 L 2383.0,-22.0 L 2382.0,-28.0 L 2382.0,-33.0 L 2382.0,-78.0 L 2382.0,-123.0 L 2382.0,-128.0 L 2382.0,-132.0 L 2382.0,-181.0 L 2382.0,-229.0 L 2403.0,-240.0 L 2409.0,-230.0 L 2415.0,-218.0 L 2423.0,-211.0 L 2437.0,-220.0 L 2449.0,-230.0 L 2463.0,-239.0 L 2477.0,-246.0 L 2496.0,-256.0 L 2515.0,-256.0 L 2521.0,-256.0 L 2528.0,-254.0 L 2551.0,-249.0 L 2566.0,-221.0 L 2590.0,-171.0 L 2590.0,-123.0 L 2590.0,-114.0 L 2590.0,-103.0 L 2590.0,-64.0 L 2581.0,-20.0 L 2581.0,-17.0 L 2577.0,-7.0 L 2573.0,2.0 L 2566.0,3.0 L 2543.0,2.0 L 2541.0,-12.0 L 2538.0,-27.0 L 2542.0,-69.0 M 2651.0,-53.0 L 2653.0,-58.0 L 2659.0,-61.0 L 2666.0,-64.0 L 2671.0,-64.0 L 2674.0,-64.0 L 2678.0,-60.0 L 2682.0,-55.0 L 2684.0,-50.0 L 2687.0,-40.0 L 2687.0,-28.0 L 2687.0,-9.0 L 2678.0,12.0 L 2664.0,47.0 L 2635.0,65.0 L 2630.0,43.0 L 2630.0,24.0 L 2630.0,12.0 L 2632.0,2.0 L 2636.0,-28.0 L 2651.0,-53.0 M 3058.0,-51.0 L 3048.0,-41.0 L 3038.0,-34.0 L 3028.0,-25.0 L 3017.0,-16.0 L 2995.0,0.0 L 2977.0,0.0 L 2975.0,0.0 L 2973.0,0.0 L 2951.0,-2.0 L 2929.0,-22.0 L 2920.0,-31.0 L 2912.0,-40.0 L 2904.0,-49.0 L 2897.0,-58.0 L 2892.0,-65.0 L 2890.0,-86.0 L 2887.0,-102.0 L 2887.0,-111.0 L 2887.0,-113.0 L 2887.0,-114.0 L 2887.0,-162.0 L 2900.0,-185.0 L 2911.0,-208.0 L 2947.0,-237.0 L 2965.0,-251.0 L 2986.0,-255.0 L 2991.0,-256.0 L 2998.0,-256.0 L 3012.0,-256.0 L 3025.0,-249.0 L 3045.0,-239.0 L 3060.0,-221.0 L 3077.0,-205.0 L 3078.0,-177.0 L 3078.0,-163.0 L 3080.0,-149.0 L 3082.0,-135.0 L 3083.0,-120.0 L 3083.0,-98.0 L 3092.0,-78.0 L 3099.0,-57.0 L 3116.0,-42.0 L 3120.0,-39.0 L 3120.0,-31.0 L 3121.0,-23.0 L 3123.0,-17.0 L 3108.0,-8.0 L 3097.0,-14.0 L 3087.0,-19.0 L 3078.0,-29.0 L 3073.0,-35.0 L 3068.0,-40.0 L 3064.0,-47.0 L 3058.0,-51.0 M 3037.0,-179.0 L 3035.0,-196.0 L 3028.0,-203.0 L 3023.0,-208.0 L 3012.0,-208.0 L 3009.0,-208.0 L 3005.0,-208.0 L 2997.0,-207.0 L 2987.0,-204.0 L 2978.0,-202.0 L 2972.0,-198.0 L 2950.0,-179.0 L 2942.0,-157.0 L 2935.0,-140.0 L 2935.0,-109.0 L 2935.0,-104.0 L 2935.0,-99.0 L 2935.0,-81.0 L 2946.0,-71.0 L 2957.0,-59.0 L 2969.0,-52.0 L 2976.0,-48.0 L 2983.0,-48.0 L 2988.0,-48.0 L 2993.0,-50.0 L 3007.0,-55.0 L 3015.0,-62.0 L 3035.0,-80.0 L 3038.0,-98.0 L 3040.0,-115.0 L 3040.0,-133.0 L 3040.0,-150.0 L 3039.0,-161.0 L 3038.0,-172.0 L 3037.0,-179.0 M 3323.0,-69.0 L 3323.0,-96.0 L 3323.0,-117.0 L 3323.0,-138.0 L 3317.0,-165.0 L 3314.0,-175.0 L 3309.0,-190.0 L 3304.0,-207.0 L 3290.0,-210.0 L 3271.0,-205.0 L 3260.0,-200.0 L 3248.0,-194.0 L 3242.0,-187.0 L 3228.0,-174.0 L 3223.0,-157.0 L 3220.0,-140.0 L 3215.0,-121.0 L 3210.0,-103.0 L 3209.0,-83.0 L 3209.0,-64.0 L 3208.0,-45.0 L 3208.0,-38.0 L 3208.0,-31.0 L 3209.0,-24.0 L 3207.0,-18.0 L 3205.0,-13.0 L 3200.0,-7.0 L 3196.0,-1.0 L 3191.0,0.0 L 3186.0,0.0 L 3179.0,-4.0 L 3173.0,-8.0 L 3169.0,-12.0 L 3165.0,-16.0 L 3164.0,-22.0 L 3163.0,-28.0 L 3163.0,-33.0 L 3163.0,-78.0 L 3163.0,-123.0 L 3163.0,-128.0 L 3163.0,-132.0 L 3163.0,-181.0 L 3163.0,-229.0 L 3184.0,-240.0 L 3190.0,-230.0 L 3196.0,-218.0 L 3204.0,-211.0 L 3218.0,-220.0 L 3230.0,-230.0 L 3244.0,-239.0 L 3258.0,-246.0 L 3277.0,-256.0 L 3296.0,-256.0 L 3302.0,-256.0 L 3309.0,-254.0 L 3332.0,-249.0 L 3347.0,-221.0 L 3371.0,-171.0 L 3371.0,-123.0 L 3371.0,-114.0 L 3371.0,-103.0 L 3371.0,-64.0 L 3362.0,-20.0 L 3362.0,-17.0 L 3358.0,-7.0 L 3354.0,2.0 L 3347.0,3.0 L 3324.0,2.0 L 3322.0,-12.0 L 3319.0,-27.0 L 3323.0,-69.0 M 3593.0,-44.0 L 3586.0,-35.0 L 3578.0,-31.0 L 3570.0,-26.0 L 3554.0,-11.0 L 3523.0,0.0 L 3490.0,0.0 L 3483.0,0.0 L 3476.0,0.0 L 3436.0,-3.0 L 3418.0,-48.0 L 3411.0,-72.0 L 3411.0,-105.0 L 3411.0,-114.0 L 3411.0,-124.0 L 3411.0,-170.0 L 3439.0,-211.0 L 3456.0,-234.0 L 3478.0,-250.0 L 3502.0,-265.0 L 3533.0,-258.0 L 3541.0,-256.0 L 3549.0,-256.0 L 3559.0,-256.0 L 3571.0,-253.0 L 3571.0,-281.0 L 3571.0,-304.0 L 3571.0,-327.0 L 3571.0,-353.0 L 3571.0,-372.0 L 3571.0,-387.0 L 3571.0,-402.0 L 3571.0,-422.0 L 3571.0,-429.0 L 3574.0,-436.0 L 3576.0,-444.0 L 3589.0,-448.0 L 3603.0,-448.0 L 3604.0,-443.0 L 3606.0,-440.0 L 3609.0,-432.0 L 3615.0,-407.0 L 3615.0,-391.0 L 3615.0,-374.0 L 3616.0,-351.0 L 3619.0,-318.0 L 3619.0,-284.0 L 3619.0,-251.0 L 3619.0,-217.0 L 3619.0,-200.0 L 3619.0,-181.0 L 3619.0,-162.0 L 3619.0,-142.0 L 3619.0,-106.0 L 3625.0,-70.0 L 3633.0,-33.0 L 3651.0,-6.0 L 3634.0,-1.0 L 3622.0,-5.0 L 3610.0,-9.0 L 3593.0,-44.0 M 3565.0,-140.0 L 3566.0,-147.0 L 3566.0,-153.0 L 3565.0,-168.0 L 3561.0,-178.0 L 3556.0,-194.0 L 3545.0,-201.0 L 3535.0,-206.0 L 3522.0,-206.0 L 3521.0,-206.0 L 3521.0,-206.0 L 3508.0,-206.0 L 3498.0,-202.0 L 3490.0,-200.0 L 3481.0,-189.0 L 3472.0,-179.0 L 3469.0,-168.0 L 3459.0,-134.0 L 3456.0,-102.0 L 3456.0,-99.0 L 3456.0,-97.0 L 3456.0,-67.0 L 3481.0,-51.0 L 3491.0,-48.0 L 3499.0,-48.0 L 3512.0,-48.0 L 3522.0,-56.0 L 3538.0,-69.0 L 3548.0,-89.0 L 3554.0,-101.0 L 3558.0,-114.0 L 3561.0,-128.0 L 3565.0,-140.0 M 4011.0,-69.0 L 4011.0,-96.0 L 4011.0,-117.0 L 4011.0,-138.0 L 4005.0,-165.0 L 4002.0,-175.0 L 3997.0,-190.0 L 3992.0,-207.0 L 3978.0,-210.0 L 3959.0,-205.0 L 3948.0,-200.0 L 3936.0,-194.0 L 3930.0,-187.0 L 3916.0,-174.0 L 3911.0,-157.0 L 3908.0,-140.0 L 3903.0,-121.0 L 3898.0,-103.0 L 3897.0,-83.0 L 3897.0,-64.0 L 3896.0,-45.0 L 3896.0,-38.0 L 3896.0,-31.0 L 3897.0,-24.0 L 3895.0,-18.0 L 3893.0,-13.0 L 3888.0,-7.0 L 3884.0,-1.0 L 3879.0,0.0 L 3874.0,0.0 L 3867.0,-4.0 L 3861.0,-8.0 L 3857.0,-12.0 L 3853.0,-16.0 L 3852.0,-22.0 L 3851.0,-28.0 L 3851.0,-33.0 L 3851.0,-78.0 L 3851.0,-123.0 L 3851.0,-128.0 L 3851.0,-132.0 L 3851.0,-181.0 L 3851.0,-229.0 L 3872.0,-240.0 L 3878.0,-230.0 L 3884.0,-218.0 L 3892.0,-211.0 L 3906.0,-220.0 L 3918.0,-230.0 L 3932.0,-239.0 L 3946.0,-246.0 L 3965.0,-256.0 L 3984.0,-256.0 L 3990.0,-256.0 L 3997.0,-254.0 L 4020.0,-249.0 L 4035.0,-221.0 L 4059.0,-171.0 L 4059.0,-123.0 L 4059.0,-114.0 L 4059.0,-103.0 L 4059.0,-64.0 L 4050.0,-20.0 L 4050.0,-17.0 L 4046.0,-7.0 L 4042.0,2.0 L 4035.0,3.0 L 4012.0,2.0 L 4010.0,-12.0 L 4007.0,-27.0 L 4011.0,-69.0 M 4289.0,-51.0 L 4275.0,-22.0 L 4252.0,-10.0 L 4232.0,0.0 L 4205.0,0.0 L 4202.0,0.0 L 4198.0,0.0 L 4167.0,0.0 L 4146.0,-15.0 L 4125.0,-31.0 L 4112.0,-60.0 L 4103.0,-77.0 L 4101.0,-97.0 L 4099.0,-108.0 L 4099.0,-119.0 L 4099.0,-128.0 L 4100.0,-136.0 L 4104.0,-173.0 L 4126.0,-205.0 L 4148.0,-237.0 L 4186.0,-251.0 L 4198.0,-256.0 L 4210.0,-256.0 L 4214.0,-256.0 L 4219.0,-256.0 L 4235.0,-254.0 L 4249.0,-243.0 L 4280.0,-221.0 L 4294.0,-192.0 L 4308.0,-163.0 L 4308.0,-119.0 L 4308.0,-97.0 L 4302.0,-82.0 L 4296.0,-67.0 L 4289.0,-51.0 M 4258.0,-168.0 L 4249.0,-188.0 L 4234.0,-200.0 L 4222.0,-208.0 L 4209.0,-208.0 L 4206.0,-208.0 L 4203.0,-207.0 L 4183.0,-204.0 L 4168.0,-193.0 L 4152.0,-183.0 L 4146.0,-161.0 L 4144.0,-151.0 L 4142.0,-143.0 L 4139.0,-133.0 L 4139.0,-124.0 L 4139.0,-122.0 L 4139.0,-120.0 L 4139.0,-90.0 L 4157.0,-70.0 L 4176.0,-48.0 L 4207.0,-48.0 L 4207.0,-48.0 L 4207.0,-48.0 L 4233.0,-48.0 L 4250.0,-66.0 L 4267.0,-83.0 L 4267.0,-123.0 L 4266.0,-138.0 L 4264.0,-148.0 L 4262.0,-158.0 L 4258.0,-168.0 M 4436.0,-74.0 L 4443.0,-86.0 L 4450.0,-98.0 L 4457.0,-108.0 L 4464.0,-120.0 L 4482.0,-151.0 L 4490.0,-151.0 L 4499.0,-151.0 L 4517.0,-122.0 L 4523.0,-114.0 L 4529.0,-105.0 L 4536.0,-96.0 L 4544.0,-84.0 L 4549.0,-95.0 L 4553.0,-103.0 L 4557.0,-111.0 L 4560.0,-120.0 L 4569.0,-146.0 L 4577.0,-171.0 L 4585.0,-195.0 L 4594.0,-222.0 L 4598.0,-233.0 L 4604.0,-243.0 L 4610.0,-253.0 L 4626.0,-251.0 L 4634.0,-237.0 L 4634.0,-225.0 L 4634.0,-224.0 L 4634.0,-222.0 L 4632.0,-210.0 L 4629.0,-195.0 L 4617.0,-151.0 L 4604.0,-106.0 L 4590.0,-62.0 L 4577.0,-19.0 L 4576.0,-14.0 L 4572.0,-10.0 L 4569.0,-6.0 L 4565.0,-1.0 L 4547.0,-7.0 L 4537.0,-20.0 L 4527.0,-34.0 L 4517.0,-49.0 L 4512.0,-57.0 L 4506.0,-64.0 L 4499.0,-72.0 L 4491.0,-78.0 L 4482.0,-62.0 L 4471.0,-46.0 L 4461.0,-31.0 L 4450.0,-16.0 L 4438.0,0.0 L 4424.0,0.0 L 4422.0,0.0 L 4421.0,0.0 L 4405.0,-2.0 L 4400.0,-22.0 L 4389.0,-69.0 L 4374.0,-122.0 L 4360.0,-177.0 L 4350.0,-223.0 L 4349.0,-227.0 L 4348.0,-241.0 L 4348.0,-243.0 L 4348.0,-244.0 L 4349.0,-256.0 L 4361.0,-256.0 L 4361.0,-256.0 L 4361.0,-256.0 L 4374.0,-256.0 L 4385.0,-227.0 L 4395.0,-197.0 L 4405.0,-160.0 L 4412.0,-136.0 L 4420.0,-113.0 L 4427.0,-89.0 L 4436.0,-74.0 M 4834.0,-290.0 L 4834.0,-289.0 L 4834.0,-288.0 L 4834.0,-279.0 L 4840.0,-272.0 L 4847.0,-264.0 L 4857.0,-264.0 L 4865.0,-264.0 L 4873.0,-272.0 L 4880.0,-279.0 L 4881.0,-288.0 L 4881.0,-288.0 L 4881.0,-289.0 L 4881.0,-298.0 L 4874.0,-305.0 L 4867.0,-312.0 L 4856.0,-312.0 L 4856.0,-312.0 L 4855.0,-312.0 L 4847.0,-312.0 L 4841.0,-306.0 L 4835.0,-300.0 L 4834.0,-290.0 M 4848.0,-223.0 L 4841.0,-217.0 L 4839.0,-208.0 L 4836.0,-200.0 L 4835.0,-193.0 L 4835.0,-149.0 L 4835.0,-110.0 L 4835.0,-90.0 L 4835.0,-67.0 L 4835.0,-49.0 L 4835.0,-29.0 L 4835.0,-6.0 L 4854.0,-2.0 L 4861.0,0.0 L 4867.0,0.0 L 4875.0,0.0 L 4881.0,-4.0 L 4883.0,-8.0 L 4883.0,-23.0 L 4883.0,-38.0 L 4883.0,-56.0 L 4883.0,-79.0 L 4883.0,-99.0 L 4883.0,-120.0 L 4883.0,-124.0 L 4883.0,-136.0 L 4886.0,-164.0 L 4887.0,-171.0 L 4887.0,-178.0 L 4887.0,-195.0 L 4881.0,-209.0 L 4876.0,-215.0 L 4869.0,-220.0 L 4862.0,-223.0 L 4853.0,-223.0 L 4852.0,-223.0 L 4848.0,-223.0 M 5085.0,-87.0 L 5099.0,-83.0 L 5099.0,-67.0 L 5099.0,-66.0 L 5099.0,-64.0 L 5099.0,-49.0 L 5092.0,-34.0 L 5087.0,-23.0 L 5078.0,-15.0 L 5069.0,-6.0 L 5059.0,-3.0 L 5051.0,0.0 L 5042.0,0.0 L 5027.0,0.0 L 5014.0,-7.0 L 4992.0,-19.0 L 4985.0,-42.0 L 4979.0,-56.0 L 4978.0,-70.0 L 4975.0,-85.0 L 4974.0,-99.0 L 4973.0,-106.0 L 4973.0,-114.0 L 4973.0,-121.0 L 4974.0,-128.0 L 4974.0,-151.0 L 4974.0,-165.0 L 4974.0,-180.0 L 4974.0,-192.0 L 4973.0,-205.0 L 4960.0,-204.0 L 4948.0,-201.0 L 4930.0,-210.0 L 4930.0,-210.0 L 4928.0,-209.0 L 4927.0,-209.0 L 4927.0,-209.0 L 4927.0,-209.0 L 4929.0,-210.0 L 4929.0,-218.0 L 4931.0,-223.0 L 4934.0,-228.0 L 4938.0,-231.0 L 4945.0,-236.0 L 4955.0,-238.0 L 4966.0,-240.0 L 4974.0,-246.0 L 4975.0,-254.0 L 4977.0,-264.0 L 4980.0,-274.0 L 4981.0,-285.0 L 4983.0,-294.0 L 4984.0,-308.0 L 4986.0,-322.0 L 5001.0,-324.0 L 5020.0,-317.0 L 5021.0,-301.0 L 5022.0,-286.0 L 5022.0,-270.0 L 5021.0,-261.0 L 5022.0,-254.0 L 5023.0,-246.0 L 5028.0,-240.0 L 5040.0,-237.0 L 5052.0,-235.0 L 5065.0,-232.0 L 5077.0,-228.0 L 5089.0,-211.0 L 5083.0,-201.0 L 5077.0,-192.0 L 5054.0,-192.0 L 5048.0,-192.0 L 5043.0,-192.0 L 5037.0,-192.0 L 5030.0,-192.0 L 5022.0,-160.0 L 5022.0,-131.0 L 5022.0,-102.0 L 5025.0,-73.0 L 5025.0,-65.0 L 5028.0,-54.0 L 5030.0,-44.0 L 5042.0,-39.0 L 5049.0,-40.0 L 5054.0,-44.0 L 5058.0,-47.0 L 5061.0,-52.0 L 5067.0,-60.0 L 5071.0,-70.0 L 5074.0,-81.0 L 5085.0,-87.0 M 5180.0,-338.0 L 5175.0,-341.0 L 5170.0,-343.0 L 5164.0,-346.0 L 5160.0,-349.0 L 5143.0,-366.0 L 5140.0,-388.0 L 5139.0,-393.0 L 5139.0,-398.0 L 5139.0,-415.0 L 5148.0,-432.0 L 5151.0,-439.0 L 5158.0,-445.0 L 5161.0,-448.0 L 5166.0,-448.0 L 5169.0,-448.0 L 5173.0,-446.0 L 5182.0,-443.0 L 5186.0,-436.0 L 5191.0,-429.0 L 5188.0,-419.0 L 5185.0,-409.0 L 5180.0,-400.0 L 5176.0,-390.0 L 5170.0,-378.0 L 5172.0,-372.0 L 5176.0,-362.0 L 5179.0,-352.0 L 5182.0,-341.0 L 5182.0,-340.0 L 5181.0,-340.0 L 5180.0,-338.0 L 5180.0,-338.0 M 5344.0,-215.0 L 5328.0,-217.0 L 5314.0,-214.0 L 5301.0,-212.0 L 5289.0,-201.0 L 5284.0,-197.0 L 5281.0,-188.0 L 5278.0,-181.0 L 5279.0,-174.0 L 5279.0,-170.0 L 5285.0,-164.0 L 5291.0,-160.0 L 5296.0,-159.0 L 5310.0,-155.0 L 5323.0,-154.0 L 5337.0,-152.0 L 5350.0,-150.0 L 5378.0,-145.0 L 5394.0,-128.0 L 5410.0,-112.0 L 5413.0,-87.0 L 5414.0,-81.0 L 5414.0,-75.0 L 5414.0,-62.0 L 5411.0,-51.0 L 5405.0,-36.0 L 5389.0,-23.0 L 5377.0,-12.0 L 5364.0,-8.0 L 5350.0,-2.0 L 5336.0,0.0 L 5329.0,0.0 L 5323.0,0.0 L 5303.0,0.0 L 5286.0,-6.0 L 5262.0,-14.0 L 5248.0,-29.0 L 5244.0,-32.0 L 5242.0,-35.0 L 5238.0,-39.0 L 5238.0,-47.0 L 5246.0,-64.0 L 5262.0,-64.0 L 5278.0,-64.0 L 5291.0,-53.0 L 5308.0,-45.0 L 5323.0,-43.0 L 5338.0,-41.0 L 5354.0,-51.0 L 5373.0,-63.0 L 5374.0,-76.0 L 5374.0,-88.0 L 5359.0,-104.0 L 5351.0,-108.0 L 5343.0,-111.0 L 5335.0,-113.0 L 5326.0,-115.0 L 5314.0,-118.0 L 5301.0,-118.0 L 5288.0,-118.0 L 5275.0,-122.0 L 5246.0,-133.0 L 5235.0,-162.0 L 5231.0,-173.0 L 5231.0,-184.0 L 5231.0,-201.0 L 5242.0,-217.0 L 5249.0,-227.0 L 5259.0,-233.0 L 5268.0,-241.0 L 5280.0,-246.0 L 5303.0,-256.0 L 5330.0,-256.0 L 5333.0,-256.0 L 5337.0,-256.0 L 5360.0,-256.0 L 5379.0,-247.0 L 5384.0,-245.0 L 5389.0,-238.0 L 5393.0,-231.0 L 5393.0,-224.0 L 5392.0,-210.0 L 5373.0,-211.0 L 5355.0,-213.0 L 5344.0,-215.0 M 5772.0,-87.0 L 5786.0,-83.0 L 5786.0,-67.0 L 5786.0,-66.0 L 5786.0,-64.0 L 5786.0,-49.0 L 5779.0,-34.0 L 5774.0,-23.0 L 5765.0,-15.0 L 5756.0,-6.0 L 5746.0,-3.0 L 5738.0,0.0 L 5729.0,0.0 L 5714.0,0.0 L 5701.0,-7.0 L 5679.0,-19.0 L 5672.0,-42.0 L 5666.0,-56.0 L 5665.0,-70.0 L 5662.0,-85.0 L 5661.0,-99.0 L 5660.0,-106.0 L 5660.0,-114.0 L 5660.0,-121.0 L 5661.0,-128.0 L 5661.0,-151.0 L 5661.0,-165.0 L 5661.0,-180.0 L 5661.0,-192.0 L 5660.0,-205.0 L 5647.0,-204.0 L 5635.0,-201.0 L 5617.0,-210.0 L 5617.0,-210.0 L 5615.0,-209.0 L 5614.0,-209.0 L 5614.0,-209.0 L 5614.0,-209.0 L 5616.0,-210.0 L 5616.0,-218.0 L 5618.0,-223.0 L 5621.0,-228.0 L 5625.0,-231.0 L 5632.0,-236.0 L 5642.0,-238.0 L 5653.0,-240.0 L 5661.0,-246.0 L 5662.0,-254.0 L 5664.0,-264.0 L 5667.0,-274.0 L 5668.0,-285.0 L 5670.0,-294.0 L 5671.0,-308.0 L 5673.0,-322.0 L 5688.0,-324.0 L 5707.0,-317.0 L 5708.0,-301.0 L 5709.0,-286.0 L 5709.0,-270.0 L 5708.0,-261.0 L 5709.0,-254.0 L 5710.0,-246.0 L 5715.0,-240.0 L 5727.0,-237.0 L 5739.0,-235.0 L 5752.0,-232.0 L 5764.0,-228.0 L 5776.0,-211.0 L 5770.0,-201.0 L 5764.0,-192.0 L 5741.0,-192.0 L 5735.0,-192.0 L 5730.0,-192.0 L 5724.0,-192.0 L 5717.0,-192.0 L 5709.0,-160.0 L 5709.0,-131.0 L 5709.0,-102.0 L 5712.0,-73.0 L 5712.0,-65.0 L 5715.0,-54.0 L 5717.0,-44.0 L 5729.0,-39.0 L 5736.0,-40.0 L 5741.0,-44.0 L 5745.0,-47.0 L 5748.0,-52.0 L 5754.0,-60.0 L 5758.0,-70.0 L 5761.0,-81.0 L 5772.0,-87.0 M 5874.0,-319.0 L 5874.0,-289.0 L 5874.0,-259.0 L 5874.0,-229.0 L 5874.0,-199.0 L 5885.0,-213.0 L 5896.0,-225.0 L 5906.0,-237.0 L 5935.0,-243.0 L 5948.0,-246.0 L 5958.0,-243.0 L 5969.0,-238.0 L 5976.0,-226.0 L 5983.0,-213.0 L 5990.0,-200.0 L 5997.0,-186.0 L 5998.0,-172.0 L 6002.0,-133.0 L 6002.0,-96.0 L 6002.0,-57.0 L 6002.0,-19.0 L 6002.0,-19.0 L 6002.0,-18.0 L 6002.0,-13.0 L 5998.0,-6.0 L 5994.0,0.0 L 5991.0,0.0 L 5984.0,0.0 L 5977.0,-3.0 L 5969.0,-5.0 L 5967.0,-10.0 L 5962.0,-20.0 L 5959.0,-32.0 L 5957.0,-43.0 L 5956.0,-55.0 L 5954.0,-78.0 L 5954.0,-102.0 L 5954.0,-127.0 L 5954.0,-151.0 L 5952.0,-166.0 L 5949.0,-178.0 L 5946.0,-192.0 L 5934.0,-201.0 L 5909.0,-184.0 L 5894.0,-156.0 L 5879.0,-127.0 L 5875.0,-84.0 L 5874.0,-69.0 L 5874.0,-54.0 L 5874.0,-38.0 L 5874.0,-24.0 L 5874.0,-13.0 L 5869.0,-6.0 L 5863.0,0.0 L 5855.0,0.0 L 5853.0,0.0 L 5852.0,0.0 L 5842.0,0.0 L 5836.0,-5.0 L 5827.0,-10.0 L 5826.0,-22.0 L 5826.0,-27.0 L 5826.0,-33.0 L 5826.0,-35.0 L 5826.0,-37.0 L 5826.0,-44.0 L 5826.0,-51.0 L 5826.0,-104.0 L 5826.0,-159.0 L 5826.0,-212.0 L 5826.0,-266.0 L 5826.0,-294.0 L 5826.0,-327.0 L 5826.0,-360.0 L 5826.0,-389.0 L 5826.0,-401.0 L 5826.0,-414.0 L 5827.0,-428.0 L 5827.0,-442.0 L 5830.0,-447.0 L 5836.0,-448.0 L 5836.0,-448.0 L 5837.0,-448.0 L 5844.0,-448.0 L 5854.0,-443.0 L 5874.0,-417.0 L 5874.0,-384.0 L 5874.0,-350.0 L 5874.0,-319.0 M 6204.0,-61.0 L 6212.0,-66.0 L 6219.0,-74.0 L 6228.0,-80.0 L 6236.0,-85.0 L 6245.0,-90.0 L 6252.0,-85.0 L 6260.0,-80.0 L 6266.0,-66.0 L 6244.0,-34.0 L 6222.0,-17.0 L 6203.0,0.0 L 6171.0,0.0 L 6168.0,0.0 L 6165.0,0.0 L 6126.0,0.0 L 6096.0,-15.0 L 6067.0,-29.0 L 6049.0,-76.0 L 6042.0,-95.0 L 6042.0,-115.0 L 6042.0,-117.0 L 6042.0,-119.0 L 6042.0,-141.0 L 6048.0,-162.0 L 6058.0,-192.0 L 6081.0,-215.0 L 6103.0,-237.0 L 6130.0,-248.0 L 6145.0,-254.0 L 6160.0,-255.0 L 6166.0,-256.0 L 6171.0,-256.0 L 6181.0,-256.0 L 6190.0,-254.0 L 6208.0,-250.0 L 6220.0,-242.0 L 6233.0,-232.0 L 6236.0,-213.0 L 6240.0,-195.0 L 6238.0,-177.0 L 6235.0,-160.0 L 6222.0,-145.0 L 6197.0,-115.0 L 6166.0,-103.0 L 6135.0,-89.0 L 6094.0,-95.0 L 6110.0,-55.0 L 6142.0,-47.0 L 6174.0,-40.0 L 6204.0,-61.0 M 6090.0,-135.0 L 6104.0,-132.0 L 6117.0,-132.0 L 6129.0,-132.0 L 6140.0,-135.0 L 6164.0,-141.0 L 6183.0,-156.0 L 6192.0,-163.0 L 6198.0,-176.0 L 6199.0,-181.0 L 6199.0,-186.0 L 6199.0,-194.0 L 6192.0,-204.0 L 6181.0,-208.0 L 6170.0,-208.0 L 6166.0,-208.0 L 6161.0,-208.0 L 6145.0,-206.0 L 6130.0,-198.0 L 6109.0,-188.0 L 6095.0,-170.0 L 6087.0,-158.0 L 6087.0,-148.0 L 6087.0,-142.0 L 6090.0,-135.0 M 6626.0,-69.0 L 6626.0,-96.0 L 6626.0,-117.0 L 6626.0,-138.0 L 6620.0,-165.0 L 6617.0,-175.0 L 6612.0,-190.0 L 6607.0,-207.0 L 6593.0,-210.0 L 6574.0,-205.0 L 6563.0,-200.0 L 6551.0,-194.0 L 6545.0,-187.0 L 6531.0,-174.0 L 6526.0,-157.0 L 6523.0,-140.0 L 6518.0,-121.0 L 6513.0,-103.0 L 6512.0,-83.0 L 6512.0,-64.0 L 6511.0,-45.0 L 6511.0,-38.0 L 6511.0,-31.0 L 6512.0,-24.0 L 6510.0,-18.0 L 6508.0,-13.0 L 6503.0,-7.0 L 6499.0,-1.0 L 6494.0,0.0 L 6489.0,0.0 L 6482.0,-4.0 L 6476.0,-8.0 L 6472.0,-12.0 L 6468.0,-16.0 L 6467.0,-22.0 L 6466.0,-28.0 L 6466.0,-33.0 L 6466.0,-78.0 L 6466.0,-123.0 L 6466.0,-128.0 L 6466.0,-132.0 L 6466.0,-181.0 L 6466.0,-229.0 L 6487.0,-240.0 L 6493.0,-230.0 L 6499.0,-218.0 L 6507.0,-211.0 L 6521.0,-220.0 L 6533.0,-230.0 L 6547.0,-239.0 L 6561.0,-246.0 L 6580.0,-256.0 L 6599.0,-256.0 L 6605.0,-256.0 L 6612.0,-254.0 L 6635.0,-249.0 L 6650.0,-221.0 L 6674.0,-171.0 L 6674.0,-123.0 L 6674.0,-114.0 L 6674.0,-103.0 L 6674.0,-64.0 L 6665.0,-20.0 L 6665.0,-17.0 L 6661.0,-7.0 L 6657.0,2.0 L 6650.0,3.0 L 6627.0,2.0 L 6625.0,-12.0 L 6622.0,-27.0 L 6626.0,-69.0 M 6876.0,-61.0 L 6884.0,-66.0 L 6891.0,-74.0 L 6900.0,-80.0 L 6908.0,-85.0 L 6917.0,-90.0 L 6924.0,-85.0 L 6932.0,-80.0 L 6938.0,-66.0 L 6916.0,-34.0 L 6894.0,-17.0 L 6875.0,0.0 L 6843.0,0.0 L 6840.0,0.0 L 6837.0,0.0 L 6798.0,0.0 L 6768.0,-15.0 L 6739.0,-29.0 L 6721.0,-76.0 L 6714.0,-95.0 L 6714.0,-115.0 L 6714.0,-117.0 L 6714.0,-119.0 L 6714.0,-141.0 L 6720.0,-162.0 L 6730.0,-192.0 L 6753.0,-215.0 L 6775.0,-237.0 L 6802.0,-248.0 L 6817.0,-254.0 L 6832.0,-255.0 L 6838.0,-256.0 L 6843.0,-256.0 L 6853.0,-256.0 L 6862.0,-254.0 L 6880.0,-250.0 L 6892.0,-242.0 L 6905.0,-232.0 L 6908.0,-213.0 L 6912.0,-195.0 L 6910.0,-177.0 L 6907.0,-160.0 L 6894.0,-145.0 L 6869.0,-115.0 L 6838.0,-103.0 L 6807.0,-89.0 L 6766.0,-95.0 L 6782.0,-55.0 L 6814.0,-47.0 L 6846.0,-40.0 L 6876.0,-61.0 M 6762.0,-135.0 L 6776.0,-132.0 L 6789.0,-132.0 L 6801.0,-132.0 L 6812.0,-135.0 L 6836.0,-141.0 L 6855.0,-156.0 L 6864.0,-163.0 L 6870.0,-176.0 L 6871.0,-181.0 L 6871.0,-186.0 L 6871.0,-194.0 L 6864.0,-204.0 L 6853.0,-208.0 L 6842.0,-208.0 L 6838.0,-208.0 L 6833.0,-208.0 L 6817.0,-206.0 L 6802.0,-198.0 L 6781.0,-188.0 L 6767.0,-170.0 L 6759.0,-158.0 L 6759.0,-148.0 L 6759.0,-142.0 L 6762.0,-135.0 M 7066.0,-74.0 L 7073.0,-86.0 L 7080.0,-98.0 L 7087.0,-108.0 L 7094.0,-120.0 L 7112.0,-151.0 L 7120.0,-151.0 L 7129.0,-151.0 L 7147.0,-122.0 L 7153.0,-114.0 L 7159.0,-105.0 L 7166.0,-96.0 L 7174.0,-84.0 L 7179.0,-95.0 L 7183.0,-103.0 L 7187.0,-111.0 L 7190.0,-120.0 L 7199.0,-146.0 L 7207.0,-171.0 L 7215.0,-195.0 L 7224.0,-222.0 L 7228.0,-233.0 L 7234.0,-243.0 L 7240.0,-253.0 L 7256.0,-251.0 L 7264.0,-237.0 L 7264.0,-225.0 L 7264.0,-224.0 L 7264.0,-222.0 L 7262.0,-210.0 L 7259.0,-195.0 L 7247.0,-151.0 L 7234.0,-106.0 L 7220.0,-62.0 L 7207.0,-19.0 L 7206.0,-14.0 L 7202.0,-10.0 L 7199.0,-6.0 L 7195.0,-1.0 L 7177.0,-7.0 L 7167.0,-20.0 L 7157.0,-34.0 L 7147.0,-49.0 L 7142.0,-57.0 L 7136.0,-64.0 L 7129.0,-72.0 L 7121.0,-78.0 L 7112.0,-62.0 L 7101.0,-46.0 L 7091.0,-31.0 L 7080.0,-16.0 L 7068.0,0.0 L 7054.0,0.0 L 7052.0,0.0 L 7051.0,0.0 L 7035.0,-2.0 L 7030.0,-22.0 L 7019.0,-69.0 L 7004.0,-122.0 L 6990.0,-177.0 L 6980.0,-223.0 L 6979.0,-227.0 L 6978.0,-241.0 L 6978.0,-243.0 L 6978.0,-244.0 L 6979.0,-256.0 L 6991.0,-256.0 L 6991.0,-256.0 L 6991.0,-256.0 L 7004.0,-256.0 L 7015.0,-227.0 L 7025.0,-197.0 L 7035.0,-160.0 L 7042.0,-136.0 L 7050.0,-113.0 L 7057.0,-89.0 L 7066.0,-74.0 M 208.0,913.0 L 222.0,917.0 L 222.0,933.0 L 222.0,934.0 L 222.0,936.0 L 222.0,951.0 L 215.0,966.0 L 210.0,977.0 L 201.0,985.0 L 192.0,994.0 L 182.0,997.0 L 174.0,1000.0 L 165.0,1000.0 L 150.0,1000.0 L 137.0,993.0 L 115.0,981.0 L 108.0,958.0 L 102.0,944.0 L 101.0,930.0 L 98.0,915.0 L 97.0,901.0 L 96.0,894.0 L 96.0,886.0 L 96.0,879.0 L 97.0,872.0 L 97.0,849.0 L 97.0,835.0 L 97.0,820.0 L 97.0,808.0 L 96.0,795.0 L 83.0,796.0 L 71.0,799.0 L 53.0,790.0 L 53.0,790.0 L 51.0,791.0 L 50.0,791.0 L 50.0,791.0 L 50.0,791.0 L 52.0,790.0 L 52.0,782.0 L 54.0,777.0 L 57.0,772.0 L 61.0,769.0 L 68.0,764.0 L 78.0,762.0 L 89.0,760.0 L 97.0,754.0 L 98.0,746.0 L 100.0,736.0 L 103.0,726.0 L 104.0,715.0 L 106.0,706.0 L 107.0,692.0 L 109.0,678.0 L 124.0,676.0 L 143.0,683.0 L 144.0,699.0 L 145.0,714.0 L 145.0,730.0 L 144.0,739.0 L 145.0,746.0 L 146.0,754.0 L 151.0,760.0 L 163.0,763.0 L 175.0,765.0 L 188.0,768.0 L 200.0,772.0 L 212.0,789.0 L 206.0,799.0 L 200.0,808.0 L 177.0,808.0 L 171.0,808.0 L 166.0,808.0 L 160.0,808.0 L 153.0,808.0 L 145.0,840.0 L 145.0,869.0 L 145.0,898.0 L 148.0,927.0 L 148.0,935.0 L 151.0,946.0 L 153.0,956.0 L 165.0,961.0 L 172.0,960.0 L 177.0,956.0 L 181.0,953.0 L 184.0,948.0 L 190.0,940.0 L 194.0,930.0 L 197.0,919.0 L 208.0,913.0 M 424.0,939.0 L 432.0,934.0 L 439.0,926.0 L 448.0,920.0 L 456.0,915.0 L 465.0,910.0 L 472.0,915.0 L 480.0,920.0 L 486.0,934.0 L 464.0,966.0 L 442.0,983.0 L 423.0,1000.0 L 391.0,1000.0 L 388.0,1000.0 L 385.0,1000.0 L 346.0,1000.0 L 316.0,985.0 L 287.0,971.0 L 269.0,924.0 L 262.0,905.0 L 262.0,885.0 L 262.0,883.0 L 262.0,881.0 L 262.0,859.0 L 268.0,838.0 L 278.0,808.0 L 301.0,785.0 L 323.0,763.0 L 350.0,752.0 L 365.0,746.0 L 380.0,745.0 L 386.0,744.0 L 391.0,744.0 L 401.0,744.0 L 410.0,746.0 L 428.0,750.0 L 440.0,758.0 L 453.0,768.0 L 456.0,787.0 L 460.0,805.0 L 458.0,823.0 L 455.0,840.0 L 442.0,855.0 L 417.0,885.0 L 386.0,897.0 L 355.0,911.0 L 314.0,905.0 L 330.0,945.0 L 362.0,953.0 L 394.0,960.0 L 424.0,939.0 M 310.0,865.0 L 324.0,868.0 L 337.0,868.0 L 349.0,868.0 L 360.0,865.0 L 384.0,859.0 L 403.0,844.0 L 412.0,837.0 L 418.0,824.0 L 419.0,819.0 L 419.0,814.0 L 419.0,806.0 L 412.0,796.0 L 401.0,792.0 L 390.0,792.0 L 386.0,792.0 L 381.0,792.0 L 365.0,794.0 L 350.0,802.0 L 329.0,812.0 L 315.0,830.0 L 307.0,842.0 L 307.0,852.0 L 307.0,858.0 L 310.0,865.0 M 639.0,785.0 L 623.0,783.0 L 609.0,786.0 L 596.0,788.0 L 584.0,799.0 L 579.0,803.0 L 576.0,812.0 L 573.0,819.0 L 574.0,826.0 L 574.0,830.0 L 580.0,836.0 L 586.0,840.0 L 591.0,841.0 L 605.0,845.0 L 618.0,846.0 L 632.0,848.0 L 645.0,850.0 L 673.0,855.0 L 689.0,872.0 L 705.0,888.0 L 708.0,913.0 L 709.0,919.0 L 709.0,925.0 L 709.0,938.0 L 706.0,949.0 L 700.0,964.0 L 684.0,977.0 L 672.0,988.0 L 659.0,992.0 L 645.0,998.0 L 631.0,1000.0 L 624.0,1000.0 L 618.0,1000.0 L 598.0,1000.0 L 581.0,994.0 L 557.0,986.0 L 543.0,971.0 L 539.0,968.0 L 537.0,965.0 L 533.0,961.0 L 533.0,953.0 L 541.0,936.0 L 557.0,936.0 L 573.0,936.0 L 586.0,947.0 L 603.0,955.0 L 618.0,957.0 L 633.0,959.0 L 649.0,949.0 L 668.0,937.0 L 669.0,924.0 L 669.0,912.0 L 654.0,896.0 L 646.0,892.0 L 638.0,889.0 L 630.0,887.0 L 621.0,885.0 L 609.0,882.0 L 596.0,882.0 L 583.0,882.0 L 570.0,878.0 L 541.0,867.0 L 530.0,838.0 L 526.0,827.0 L 526.0,816.0 L 526.0,799.0 L 537.0,783.0 L 544.0,773.0 L 554.0,767.0 L 563.0,759.0 L 575.0,754.0 L 598.0,744.0 L 625.0,744.0 L 628.0,744.0 L 632.0,744.0 L 655.0,744.0 L 674.0,753.0 L 679.0,755.0 L 684.0,762.0 L 688.0,769.0 L 688.0,776.0 L 687.0,790.0 L 668.0,789.0 L 650.0,787.0 L 639.0,785.0 M 907.0,913.0 L 921.0,917.0 L 921.0,933.0 L 921.0,934.0 L 921.0,936.0 L 921.0,951.0 L 914.0,966.0 L 909.0,977.0 L 900.0,985.0 L 891.0,994.0 L 881.0,997.0 L 873.0,1000.0 L 864.0,1000.0 L 849.0,1000.0 L 836.0,993.0 L 814.0,981.0 L 807.0,958.0 L 801.0,944.0 L 800.0,930.0 L 797.0,915.0 L 796.0,901.0 L 795.0,894.0 L 795.0,886.0 L 795.0,879.0 L 796.0,872.0 L 796.0,849.0 L 796.0,835.0 L 796.0,820.0 L 796.0,808.0 L 795.0,795.0 L 782.0,796.0 L 770.0,799.0 L 752.0,790.0 L 752.0,790.0 L 750.0,791.0 L 749.0,791.0 L 749.0,791.0 L 749.0,791.0 L 751.0,790.0 L 751.0,782.0 L 753.0,777.0 L 756.0,772.0 L 760.0,769.0 L 767.0,764.0 L 777.0,762.0 L 788.0,760.0 L 796.0,754.0 L 797.0,746.0 L 799.0,736.0 L 802.0,726.0 L 803.0,715.0 L 805.0,706.0 L 806.0,692.0 L 808.0,678.0 L 823.0,676.0 L 842.0,683.0 L 843.0,699.0 L 844.0,714.0 L 844.0,730.0 L 843.0,739.0 L 844.0,746.0 L 845.0,754.0 L 850.0,760.0 L 862.0,763.0 L 874.0,765.0 L 887.0,768.0 L 899.0,772.0 L 911.0,789.0 L 905.0,799.0 L 899.0,808.0 L 876.0,808.0 L 870.0,808.0 L 865.0,808.0 L 859.0,808.0 L 852.0,808.0 L 844.0,840.0 L 844.0,869.0 L 844.0,898.0 L 847.0,927.0 L 847.0,935.0 L 850.0,946.0 L 852.0,956.0 L 864.0,961.0 L 871.0,960.0 L 876.0,956.0 L 880.0,953.0 L 883.0,948.0 L 889.0,940.0 L 893.0,930.0 L 896.0,919.0 L 907.0,913.0 M 961.0,710.0 L 961.0,711.0 L 961.0,712.0 L 961.0,721.0 L 967.0,728.0 L 974.0,736.0 L 984.0,736.0 L 992.0,736.0 L 1000.0,728.0 L 1007.0,721.0 L 1008.0,712.0 L 1008.0,712.0 L 1008.0,711.0 L 1008.0,702.0 L 1001.0,695.0 L 994.0,688.0 L 983.0,688.0 L 983.0,688.0 L 982.0,688.0 L 974.0,688.0 L 968.0,694.0 L 962.0,700.0 L 961.0,710.0 M 975.0,777.0 L 968.0,783.0 L 966.0,792.0 L 963.0,800.0 L 962.0,807.0 L 962.0,851.0 L 962.0,890.0 L 962.0,910.0 L 962.0,933.0 L 962.0,951.0 L 962.0,971.0 L 962.0,994.0 L 981.0,998.0 L 988.0,1000.0 L 994.0,1000.0 L 1002.0,1000.0 L 1008.0,996.0 L 1010.0,992.0 L 1010.0,977.0 L 1010.0,962.0 L 1010.0,944.0 L 1010.0,921.0 L 1010.0,901.0 L 1010.0,880.0 L 1010.0,876.0 L 1010.0,864.0 L 1013.0,836.0 L 1014.0,829.0 L 1014.0,822.0 L 1014.0,805.0 L 1008.0,791.0 L 1003.0,785.0 L 996.0,780.0 L 989.0,777.0 L 980.0,777.0 L 979.0,777.0 L 975.0,777.0 M 1214.0,931.0 L 1214.0,904.0 L 1214.0,883.0 L 1214.0,862.0 L 1208.0,835.0 L 1205.0,825.0 L 1200.0,810.0 L 1195.0,793.0 L 1181.0,790.0 L 1162.0,795.0 L 1151.0,800.0 L 1139.0,806.0 L 1133.0,813.0 L 1119.0,826.0 L 1114.0,843.0 L 1111.0,860.0 L 1106.0,879.0 L 1101.0,897.0 L 1100.0,917.0 L 1100.0,936.0 L 1099.0,955.0 L 1099.0,962.0 L 1099.0,969.0 L 1100.0,976.0 L 1098.0,982.0 L 1096.0,987.0 L 1091.0,993.0 L 1087.0,999.0 L 1082.0,1000.0 L 1077.0,1000.0 L 1070.0,996.0 L 1064.0,992.0 L 1060.0,988.0 L 1056.0,984.0 L 1055.0,978.0 L 1054.0,972.0 L 1054.0,967.0 L 1054.0,922.0 L 1054.0,877.0 L 1054.0,872.0 L 1054.0,868.0 L 1054.0,819.0 L 1054.0,771.0 L 1075.0,760.0 L 1081.0,770.0 L 1087.0,782.0 L 1095.0,789.0 L 1109.0,780.0 L 1121.0,770.0 L 1135.0,761.0 L 1149.0,754.0 L 1168.0,744.0 L 1187.0,744.0 L 1193.0,744.0 L 1200.0,746.0 L 1223.0,751.0 L 1238.0,779.0 L 1262.0,829.0 L 1262.0,877.0 L 1262.0,886.0 L 1262.0,897.0 L 1262.0,936.0 L 1253.0,980.0 L 1253.0,983.0 L 1249.0,993.0 L 1245.0,1002.0 L 1238.0,1003.0 L 1215.0,1002.0 L 1213.0,988.0 L 1210.0,973.0 L 1214.0,931.0 M 1502.0,1066.0 L 1502.0,1075.0 L 1499.0,1087.0 L 1496.0,1101.0 L 1495.0,1110.0 L 1481.0,1172.0 L 1438.0,1187.0 L 1425.0,1192.0 L 1410.0,1192.0 L 1382.0,1192.0 L 1349.0,1174.0 L 1338.0,1168.0 L 1329.0,1156.0 L 1320.0,1145.0 L 1314.0,1132.0 L 1311.0,1124.0 L 1311.0,1112.0 L 1310.0,1100.0 L 1319.0,1089.0 L 1324.0,1086.0 L 1333.0,1095.0 L 1341.0,1105.0 L 1350.0,1114.0 L 1356.0,1122.0 L 1362.0,1128.0 L 1368.0,1133.0 L 1374.0,1136.0 L 1403.0,1145.0 L 1419.0,1135.0 L 1434.0,1124.0 L 1443.0,1093.0 L 1449.0,1071.0 L 1450.0,1054.0 L 1451.0,1037.0 L 1451.0,1018.0 L 1450.0,1001.0 L 1450.0,994.0 L 1451.0,987.0 L 1450.0,975.0 L 1437.0,978.0 L 1421.0,981.0 L 1405.0,984.0 L 1394.0,984.0 L 1355.0,984.0 L 1335.0,966.0 L 1315.0,947.0 L 1305.0,899.0 L 1302.0,884.0 L 1302.0,869.0 L 1302.0,856.0 L 1304.0,845.0 L 1309.0,818.0 L 1320.0,795.0 L 1334.0,762.0 L 1360.0,751.0 L 1378.0,744.0 L 1402.0,744.0 L 1414.0,744.0 L 1428.0,746.0 L 1445.0,750.0 L 1461.0,760.0 L 1478.0,770.0 L 1500.0,782.0 L 1502.0,810.0 L 1502.0,830.0 L 1502.0,853.0 L 1502.0,870.0 L 1502.0,898.0 L 1502.0,922.0 L 1502.0,926.0 L 1502.0,931.0 L 1502.0,958.0 L 1502.0,989.0 L 1502.0,1005.0 L 1502.0,1023.0 L 1502.0,1042.0 L 1502.0,1066.0 M 1358.0,822.0 L 1351.0,840.0 L 1350.0,863.0 L 1349.0,870.0 L 1349.0,876.0 L 1349.0,892.0 L 1352.0,906.0 L 1355.0,916.0 L 1358.0,925.0 L 1362.0,933.0 L 1367.0,936.0 L 1378.0,936.0 L 1403.0,936.0 L 1411.0,936.0 L 1417.0,936.0 L 1434.0,936.0 L 1446.0,928.0 L 1454.0,896.0 L 1454.0,865.0 L 1454.0,835.0 L 1448.0,805.0 L 1416.0,792.0 L 1397.0,792.0 L 1392.0,792.0 L 1389.0,793.0 L 1369.0,796.0 L 1358.0,822.0 M 1773.0,744.0 L 1786.0,744.0 L 1798.0,744.0 L 1823.0,744.0 L 1838.0,754.0 L 1860.0,770.0 L 1869.0,815.0 L 1873.0,834.0 L 1876.0,855.0 L 1878.0,873.0 L 1878.0,892.0 L 1878.0,894.0 L 1878.0,895.0 L 1878.0,942.0 L 1856.0,968.0 L 1834.0,996.0 L 1793.0,1000.0 L 1785.0,1000.0 L 1775.0,1000.0 L 1766.0,1000.0 L 1755.0,1000.0 L 1750.0,1018.0 L 1750.0,1039.0 L 1750.0,1062.0 L 1750.0,1085.0 L 1750.0,1127.0 L 1750.0,1163.0 L 1750.0,1200.0 L 1733.0,1207.0 L 1712.0,1204.0 L 1707.0,1178.0 L 1702.0,1153.0 L 1702.0,1136.0 L 1702.0,1087.0 L 1702.0,1038.0 L 1702.0,989.0 L 1702.0,940.0 L 1702.0,914.0 L 1702.0,887.0 L 1702.0,861.0 L 1702.0,834.0 L 1702.0,832.0 L 1702.0,830.0 L 1702.0,816.0 L 1702.0,801.0 L 1704.0,784.0 L 1708.0,768.0 L 1726.0,753.0 L 1741.0,749.0 L 1757.0,744.0 L 1773.0,744.0 M 1825.0,843.0 L 1825.0,840.0 L 1825.0,838.0 L 1824.0,835.0 L 1823.0,833.0 L 1820.0,810.0 L 1811.0,800.0 L 1802.0,792.0 L 1790.0,792.0 L 1788.0,792.0 L 1786.0,792.0 L 1765.0,795.0 L 1754.0,807.0 L 1744.0,820.0 L 1742.0,841.0 L 1741.0,854.0 L 1741.0,868.0 L 1741.0,882.0 L 1742.0,896.0 L 1744.0,926.0 L 1752.0,952.0 L 1768.0,957.0 L 1781.0,957.0 L 1805.0,957.0 L 1818.0,937.0 L 1830.0,918.0 L 1830.0,888.0 L 1830.0,868.0 L 1825.0,843.0 M 1966.0,681.0 L 1966.0,711.0 L 1966.0,741.0 L 1966.0,771.0 L 1966.0,801.0 L 1977.0,787.0 L 1988.0,775.0 L 1998.0,763.0 L 2027.0,757.0 L 2040.0,754.0 L 2050.0,757.0 L 2061.0,762.0 L 2068.0,774.0 L 2075.0,787.0 L 2082.0,800.0 L 2089.0,814.0 L 2090.0,828.0 L 2094.0,867.0 L 2094.0,904.0 L 2094.0,943.0 L 2094.0,981.0 L 2094.0,981.0 L 2094.0,982.0 L 2094.0,987.0 L 2090.0,994.0 L 2086.0,1000.0 L 2083.0,1000.0 L 2076.0,1000.0 L 2069.0,997.0 L 2061.0,995.0 L 2059.0,990.0 L 2054.0,980.0 L 2051.0,968.0 L 2049.0,957.0 L 2048.0,945.0 L 2046.0,922.0 L 2046.0,898.0 L 2046.0,873.0 L 2046.0,849.0 L 2044.0,834.0 L 2041.0,822.0 L 2038.0,808.0 L 2026.0,799.0 L 2001.0,816.0 L 1986.0,844.0 L 1971.0,873.0 L 1967.0,916.0 L 1966.0,931.0 L 1966.0,946.0 L 1966.0,962.0 L 1966.0,976.0 L 1966.0,987.0 L 1961.0,994.0 L 1955.0,1000.0 L 1947.0,1000.0 L 1945.0,1000.0 L 1944.0,1000.0 L 1934.0,1000.0 L 1928.0,995.0 L 1919.0,990.0 L 1918.0,978.0 L 1918.0,973.0 L 1918.0,967.0 L 1918.0,965.0 L 1918.0,963.0 L 1918.0,956.0 L 1918.0,949.0 L 1918.0,896.0 L 1918.0,841.0 L 1918.0,788.0 L 1918.0,734.0 L 1918.0,706.0 L 1918.0,673.0 L 1918.0,640.0 L 1918.0,611.0 L 1918.0,599.0 L 1918.0,586.0 L 1919.0,572.0 L 1919.0,558.0 L 1922.0,553.0 L 1928.0,552.0 L 1928.0,552.0 L 1929.0,552.0 L 1936.0,552.0 L 1946.0,557.0 L 1966.0,583.0 L 1966.0,616.0 L 1966.0,650.0 L 1966.0,681.0 M 2305.0,949.0 L 2295.0,959.0 L 2285.0,966.0 L 2275.0,975.0 L 2264.0,984.0 L 2242.0,1000.0 L 2224.0,1000.0 L 2222.0,1000.0 L 2220.0,1000.0 L 2198.0,998.0 L 2176.0,978.0 L 2167.0,969.0 L 2159.0,960.0 L 2151.0,951.0 L 2144.0,942.0 L 2139.0,935.0 L 2137.0,914.0 L 2134.0,898.0 L 2134.0,889.0 L 2134.0,887.0 L 2134.0,886.0 L 2134.0,838.0 L 2147.0,815.0 L 2158.0,792.0 L 2194.0,763.0 L 2212.0,749.0 L 2233.0,745.0 L 2238.0,744.0 L 2245.0,744.0 L 2259.0,744.0 L 2272.0,751.0 L 2292.0,761.0 L 2307.0,779.0 L 2324.0,795.0 L 2325.0,823.0 L 2325.0,837.0 L 2327.0,851.0 L 2329.0,865.0 L 2330.0,880.0 L 2330.0,902.0 L 2339.0,922.0 L 2346.0,943.0 L 2363.0,958.0 L 2367.0,961.0 L 2367.0,969.0 L 2368.0,977.0 L 2370.0,983.0 L 2355.0,992.0 L 2344.0,986.0 L 2334.0,981.0 L 2325.0,971.0 L 2320.0,965.0 L 2315.0,960.0 L 2311.0,953.0 L 2305.0,949.0 M 2284.0,821.0 L 2282.0,804.0 L 2275.0,797.0 L 2270.0,792.0 L 2259.0,792.0 L 2256.0,792.0 L 2252.0,792.0 L 2244.0,793.0 L 2234.0,796.0 L 2225.0,798.0 L 2219.0,802.0 L 2197.0,821.0 L 2189.0,843.0 L 2182.0,860.0 L 2182.0,891.0 L 2182.0,896.0 L 2182.0,901.0 L 2182.0,919.0 L 2193.0,929.0 L 2204.0,941.0 L 2216.0,948.0 L 2223.0,952.0 L 2230.0,952.0 L 2235.0,952.0 L 2240.0,950.0 L 2254.0,945.0 L 2262.0,938.0 L 2282.0,920.0 L 2285.0,902.0 L 2287.0,885.0 L 2287.0,867.0 L 2287.0,850.0 L 2286.0,839.0 L 2285.0,828.0 L 2284.0,821.0 M 2523.0,785.0 L 2507.0,783.0 L 2493.0,786.0 L 2480.0,788.0 L 2468.0,799.0 L 2463.0,803.0 L 2460.0,812.0 L 2457.0,819.0 L 2458.0,826.0 L 2458.0,830.0 L 2464.0,836.0 L 2470.0,840.0 L 2475.0,841.0 L 2489.0,845.0 L 2502.0,846.0 L 2516.0,848.0 L 2529.0,850.0 L 2557.0,855.0 L 2573.0,872.0 L 2589.0,888.0 L 2592.0,913.0 L 2593.0,919.0 L 2593.0,925.0 L 2593.0,938.0 L 2590.0,949.0 L 2584.0,964.0 L 2568.0,977.0 L 2556.0,988.0 L 2543.0,992.0 L 2529.0,998.0 L 2515.0,1000.0 L 2508.0,1000.0 L 2502.0,1000.0 L 2482.0,1000.0 L 2465.0,994.0 L 2441.0,986.0 L 2427.0,971.0 L 2423.0,968.0 L 2421.0,965.0 L 2417.0,961.0 L 2417.0,953.0 L 2425.0,936.0 L 2441.0,936.0 L 2457.0,936.0 L 2470.0,947.0 L 2487.0,955.0 L 2502.0,957.0 L 2517.0,959.0 L 2533.0,949.0 L 2552.0,937.0 L 2553.0,924.0 L 2553.0,912.0 L 2538.0,896.0 L 2530.0,892.0 L 2522.0,889.0 L 2514.0,887.0 L 2505.0,885.0 L 2493.0,882.0 L 2480.0,882.0 L 2467.0,882.0 L 2454.0,878.0 L 2425.0,867.0 L 2414.0,838.0 L 2410.0,827.0 L 2410.0,816.0 L 2410.0,799.0 L 2421.0,783.0 L 2428.0,773.0 L 2438.0,767.0 L 2447.0,759.0 L 2459.0,754.0 L 2482.0,744.0 L 2509.0,744.0 L 2512.0,744.0 L 2516.0,744.0 L 2539.0,744.0 L 2558.0,753.0 L 2563.0,755.0 L 2568.0,762.0 L 2572.0,769.0 L 2572.0,776.0 L 2571.0,790.0 L 2552.0,789.0 L 2534.0,787.0 L 2523.0,785.0 M 2795.0,939.0 L 2803.0,934.0 L 2810.0,926.0 L 2819.0,920.0 L 2827.0,915.0 L 2836.0,910.0 L 2843.0,915.0 L 2851.0,920.0 L 2857.0,934.0 L 2835.0,966.0 L 2813.0,983.0 L 2794.0,1000.0 L 2762.0,1000.0 L 2759.0,1000.0 L 2756.0,1000.0 L 2717.0,1000.0 L 2687.0,985.0 L 2658.0,971.0 L 2640.0,924.0 L 2633.0,905.0 L 2633.0,885.0 L 2633.0,883.0 L 2633.0,881.0 L 2633.0,859.0 L 2639.0,838.0 L 2649.0,808.0 L 2672.0,785.0 L 2694.0,763.0 L 2721.0,752.0 L 2736.0,746.0 L 2751.0,745.0 L 2757.0,744.0 L 2762.0,744.0 L 2772.0,744.0 L 2781.0,746.0 L 2799.0,750.0 L 2811.0,758.0 L 2824.0,768.0 L 2827.0,787.0 L 2831.0,805.0 L 2829.0,823.0 L 2826.0,840.0 L 2813.0,855.0 L 2788.0,885.0 L 2757.0,897.0 L 2726.0,911.0 L 2685.0,905.0 L 2701.0,945.0 L 2733.0,953.0 L 2765.0,960.0 L 2795.0,939.0 M 2681.0,865.0 L 2695.0,868.0 L 2708.0,868.0 L 2720.0,868.0 L 2731.0,865.0 L 2755.0,859.0 L 2774.0,844.0 L 2783.0,837.0 L 2789.0,824.0 L 2790.0,819.0 L 2790.0,814.0 L 2790.0,806.0 L 2783.0,796.0 L 2772.0,792.0 L 2761.0,792.0 L 2757.0,792.0 L 2752.0,792.0 L 2736.0,794.0 L 2721.0,802.0 L 2700.0,812.0 L 2686.0,830.0 L 2678.0,842.0 L 2678.0,852.0 L 2678.0,858.0 L 2681.0,865.0 M 2956.0,945.0 L 2962.0,954.0 L 2963.0,965.0 L 2963.0,967.0 L 2962.0,968.0 L 2961.0,981.0 L 2952.0,988.0 L 2944.0,995.0 L 2933.0,997.0 L 2922.0,1000.0 L 2912.0,1000.0 L 2908.0,1001.0 L 2902.0,993.0 L 2897.0,985.0 L 2897.0,980.0 L 2897.0,980.0 L 2897.0,979.0 L 2901.0,962.0 L 2901.0,950.0 L 2901.0,939.0 L 2922.0,925.0 L 2941.0,927.0 L 2946.0,932.0 L 2951.0,936.0 L 2956.0,945.0 M 3211.0,592.0 L 3211.0,684.0 L 3211.0,778.0 L 3211.0,870.0 L 3211.0,962.0 L 3211.0,974.0 L 3210.0,985.0 L 3208.0,996.0 L 3191.0,1000.0 L 3189.0,1000.0 L 3187.0,1000.0 L 3181.0,1000.0 L 3174.0,991.0 L 3166.0,981.0 L 3165.0,964.0 L 3163.0,947.0 L 3163.0,930.0 L 3163.0,927.0 L 3163.0,924.0 L 3163.0,904.0 L 3163.0,885.0 L 3163.0,829.0 L 3163.0,774.0 L 3163.0,718.0 L 3163.0,662.0 L 3163.0,638.0 L 3163.0,617.0 L 3165.0,595.0 L 3168.0,572.0 L 3169.0,567.0 L 3170.0,560.0 L 3171.0,555.0 L 3179.0,547.0 L 3208.0,550.0 L 3210.0,564.0 L 3211.0,576.0 L 3211.0,589.0 L 3211.0,590.0 L 3211.0,592.0 M 3459.0,681.0 L 3459.0,711.0 L 3459.0,741.0 L 3459.0,771.0 L 3459.0,801.0 L 3470.0,787.0 L 3481.0,775.0 L 3491.0,763.0 L 3520.0,757.0 L 3533.0,754.0 L 3543.0,757.0 L 3554.0,762.0 L 3561.0,774.0 L 3568.0,787.0 L 3575.0,800.0 L 3582.0,814.0 L 3583.0,828.0 L 3587.0,867.0 L 3587.0,904.0 L 3587.0,943.0 L 3587.0,981.0 L 3587.0,981.0 L 3587.0,982.0 L 3587.0,987.0 L 3583.0,994.0 L 3579.0,1000.0 L 3576.0,1000.0 L 3569.0,1000.0 L 3562.0,997.0 L 3554.0,995.0 L 3552.0,990.0 L 3547.0,980.0 L 3544.0,968.0 L 3542.0,957.0 L 3541.0,945.0 L 3539.0,922.0 L 3539.0,898.0 L 3539.0,873.0 L 3539.0,849.0 L 3537.0,834.0 L 3534.0,822.0 L 3531.0,808.0 L 3519.0,799.0 L 3494.0,816.0 L 3479.0,844.0 L 3464.0,873.0 L 3460.0,916.0 L 3459.0,931.0 L 3459.0,946.0 L 3459.0,962.0 L 3459.0,976.0 L 3459.0,987.0 L 3454.0,994.0 L 3448.0,1000.0 L 3440.0,1000.0 L 3438.0,1000.0 L 3437.0,1000.0 L 3427.0,1000.0 L 3421.0,995.0 L 3412.0,990.0 L 3411.0,978.0 L 3411.0,973.0 L 3411.0,967.0 L 3411.0,965.0 L 3411.0,963.0 L 3411.0,956.0 L 3411.0,949.0 L 3411.0,896.0 L 3411.0,841.0 L 3411.0,788.0 L 3411.0,734.0 L 3411.0,706.0 L 3411.0,673.0 L 3411.0,640.0 L 3411.0,611.0 L 3411.0,599.0 L 3411.0,586.0 L 3412.0,572.0 L 3412.0,558.0 L 3415.0,553.0 L 3421.0,552.0 L 3421.0,552.0 L 3422.0,552.0 L 3429.0,552.0 L 3439.0,557.0 L 3459.0,583.0 L 3459.0,616.0 L 3459.0,650.0 L 3459.0,681.0 M 3817.0,949.0 L 3803.0,978.0 L 3780.0,990.0 L 3760.0,1000.0 L 3733.0,1000.0 L 3730.0,1000.0 L 3726.0,1000.0 L 3695.0,1000.0 L 3674.0,985.0 L 3653.0,969.0 L 3640.0,940.0 L 3631.0,923.0 L 3629.0,903.0 L 3627.0,892.0 L 3627.0,881.0 L 3627.0,872.0 L 3628.0,864.0 L 3632.0,827.0 L 3654.0,795.0 L 3676.0,763.0 L 3714.0,749.0 L 3726.0,744.0 L 3738.0,744.0 L 3742.0,744.0 L 3747.0,744.0 L 3763.0,746.0 L 3777.0,757.0 L 3808.0,779.0 L 3822.0,808.0 L 3836.0,837.0 L 3836.0,881.0 L 3836.0,903.0 L 3830.0,918.0 L 3824.0,933.0 L 3817.0,949.0 M 3786.0,832.0 L 3777.0,812.0 L 3762.0,800.0 L 3750.0,792.0 L 3737.0,792.0 L 3734.0,792.0 L 3731.0,793.0 L 3711.0,796.0 L 3696.0,807.0 L 3680.0,817.0 L 3674.0,839.0 L 3672.0,849.0 L 3670.0,857.0 L 3667.0,867.0 L 3667.0,876.0 L 3667.0,878.0 L 3667.0,880.0 L 3667.0,910.0 L 3685.0,930.0 L 3704.0,952.0 L 3735.0,952.0 L 3735.0,952.0 L 3735.0,952.0 L 3761.0,952.0 L 3778.0,934.0 L 3795.0,917.0 L 3795.0,877.0 L 3794.0,862.0 L 3792.0,852.0 L 3790.0,842.0 L 3786.0,832.0 M 3947.0,744.0 L 3960.0,744.0 L 3972.0,744.0 L 3997.0,744.0 L 4012.0,754.0 L 4034.0,770.0 L 4043.0,815.0 L 4047.0,834.0 L 4050.0,855.0 L 4052.0,873.0 L 4052.0,892.0 L 4052.0,894.0 L 4052.0,895.0 L 4052.0,942.0 L 4030.0,968.0 L 4008.0,996.0 L 3967.0,1000.0 L 3959.0,1000.0 L 3949.0,1000.0 L 3940.0,1000.0 L 3929.0,1000.0 L 3924.0,1018.0 L 3924.0,1039.0 L 3924.0,1062.0 L 3924.0,1085.0 L 3924.0,1127.0 L 3924.0,1163.0 L 3924.0,1200.0 L 3907.0,1207.0 L 3886.0,1204.0 L 3881.0,1178.0 L 3876.0,1153.0 L 3876.0,1136.0 L 3876.0,1087.0 L 3876.0,1038.0 L 3876.0,989.0 L 3876.0,940.0 L 3876.0,914.0 L 3876.0,887.0 L 3876.0,861.0 L 3876.0,834.0 L 3876.0,832.0 L 3876.0,830.0 L 3876.0,816.0 L 3876.0,801.0 L 3878.0,784.0 L 3882.0,768.0 L 3900.0,753.0 L 3915.0,749.0 L 3931.0,744.0 L 3947.0,744.0 M 3999.0,843.0 L 3999.0,840.0 L 3999.0,838.0 L 3998.0,835.0 L 3997.0,833.0 L 3994.0,810.0 L 3985.0,800.0 L 3976.0,792.0 L 3964.0,792.0 L 3962.0,792.0 L 3960.0,792.0 L 3939.0,795.0 L 3928.0,807.0 L 3918.0,820.0 L 3916.0,841.0 L 3915.0,854.0 L 3915.0,868.0 L 3915.0,882.0 L 3916.0,896.0 L 3918.0,926.0 L 3926.0,952.0 L 3942.0,957.0 L 3955.0,957.0 L 3979.0,957.0 L 3992.0,937.0 L 4004.0,918.0 L 4004.0,888.0 L 4004.0,868.0 L 3999.0,843.0 M 4254.0,939.0 L 4262.0,934.0 L 4269.0,926.0 L 4278.0,920.0 L 4286.0,915.0 L 4295.0,910.0 L 4302.0,915.0 L 4310.0,920.0 L 4316.0,934.0 L 4294.0,966.0 L 4272.0,983.0 L 4253.0,1000.0 L 4221.0,1000.0 L 4218.0,1000.0 L 4215.0,1000.0 L 4176.0,1000.0 L 4146.0,985.0 L 4117.0,971.0 L 4099.0,924.0 L 4092.0,905.0 L 4092.0,885.0 L 4092.0,883.0 L 4092.0,881.0 L 4092.0,859.0 L 4098.0,838.0 L 4108.0,808.0 L 4131.0,785.0 L 4153.0,763.0 L 4180.0,752.0 L 4195.0,746.0 L 4210.0,745.0 L 4216.0,744.0 L 4221.0,744.0 L 4231.0,744.0 L 4240.0,746.0 L 4258.0,750.0 L 4270.0,758.0 L 4283.0,768.0 L 4286.0,787.0 L 4290.0,805.0 L 4288.0,823.0 L 4285.0,840.0 L 4272.0,855.0 L 4247.0,885.0 L 4216.0,897.0 L 4185.0,911.0 L 4144.0,905.0 L 4160.0,945.0 L 4192.0,953.0 L 4224.0,960.0 L 4254.0,939.0 M 4140.0,865.0 L 4154.0,868.0 L 4167.0,868.0 L 4179.0,868.0 L 4190.0,865.0 L 4214.0,859.0 L 4233.0,844.0 L 4242.0,837.0 L 4248.0,824.0 L 4249.0,819.0 L 4249.0,814.0 L 4249.0,806.0 L 4242.0,796.0 L 4231.0,792.0 L 4220.0,792.0 L 4216.0,792.0 L 4211.0,792.0 L 4195.0,794.0 L 4180.0,802.0 L 4159.0,812.0 L 4145.0,830.0 L 4137.0,842.0 L 4137.0,852.0 L 4137.0,858.0 L 4140.0,865.0 M 4606.0,1008.0 L 4579.0,1013.0 L 4564.0,1011.0 L 4548.0,1008.0 L 4535.0,987.0 L 4531.0,979.0 L 4525.0,969.0 L 4520.0,959.0 L 4519.0,949.0 L 4516.0,922.0 L 4516.0,878.0 L 4516.0,834.0 L 4516.0,807.0 L 4516.0,807.0 L 4516.0,806.0 L 4516.0,801.0 L 4518.0,793.0 L 4520.0,784.0 L 4531.0,778.0 L 4546.0,781.0 L 4552.0,790.0 L 4558.0,801.0 L 4560.0,808.0 L 4564.0,821.0 L 4564.0,843.0 L 4564.0,865.0 L 4564.0,886.0 L 4564.0,897.0 L 4564.0,907.0 L 4564.0,917.0 L 4566.0,924.0 L 4567.0,935.0 L 4573.0,950.0 L 4579.0,966.0 L 4604.0,962.0 L 4619.0,953.0 L 4625.0,947.0 L 4631.0,941.0 L 4634.0,922.0 L 4634.0,922.0 L 4636.0,915.0 L 4636.0,907.0 L 4638.0,897.0 L 4639.0,881.0 L 4638.0,858.0 L 4636.0,836.0 L 4637.0,814.0 L 4638.0,804.0 L 4639.0,793.0 L 4641.0,784.0 L 4644.0,776.0 L 4648.0,771.0 L 4653.0,770.0 L 4654.0,770.0 L 4654.0,770.0 L 4657.0,770.0 L 4660.0,773.0 L 4669.0,781.0 L 4673.0,807.0 L 4676.0,832.0 L 4676.0,842.0 L 4676.0,895.0 L 4676.0,957.0 L 4676.0,980.0 L 4676.0,1003.0 L 4676.0,1039.0 L 4676.0,1073.0 L 4676.0,1105.0 L 4670.0,1119.0 L 4664.0,1132.0 L 4649.0,1160.0 L 4641.0,1175.0 L 4619.0,1184.0 L 4598.0,1192.0 L 4576.0,1192.0 L 4574.0,1192.0 L 4572.0,1192.0 L 4559.0,1192.0 L 4548.0,1189.0 L 4536.0,1186.0 L 4528.0,1178.0 L 4518.0,1168.0 L 4519.0,1157.0 L 4521.0,1145.0 L 4531.0,1132.0 L 4540.0,1131.0 L 4544.0,1134.0 L 4548.0,1137.0 L 4554.0,1139.0 L 4586.0,1149.0 L 4600.0,1142.0 L 4614.0,1135.0 L 4628.0,1101.0 L 4637.0,1078.0 L 4641.0,1064.0 L 4644.0,1050.0 L 4643.0,1030.0 L 4642.0,1022.0 L 4642.0,1012.0 L 4640.0,1002.0 L 4639.0,988.0 L 4631.0,995.0 L 4624.0,999.0 L 4617.0,1003.0 L 4606.0,1008.0 M 4906.0,949.0 L 4892.0,978.0 L 4869.0,990.0 L 4849.0,1000.0 L 4822.0,1000.0 L 4819.0,1000.0 L 4815.0,1000.0 L 4784.0,1000.0 L 4763.0,985.0 L 4742.0,969.0 L 4729.0,940.0 L 4720.0,923.0 L 4718.0,903.0 L 4716.0,892.0 L 4716.0,881.0 L 4716.0,872.0 L 4717.0,864.0 L 4721.0,827.0 L 4743.0,795.0 L 4765.0,763.0 L 4803.0,749.0 L 4815.0,744.0 L 4827.0,744.0 L 4831.0,744.0 L 4836.0,744.0 L 4852.0,746.0 L 4866.0,757.0 L 4897.0,779.0 L 4911.0,808.0 L 4925.0,837.0 L 4925.0,881.0 L 4925.0,903.0 L 4919.0,918.0 L 4913.0,933.0 L 4906.0,949.0 M 4875.0,832.0 L 4866.0,812.0 L 4851.0,800.0 L 4839.0,792.0 L 4826.0,792.0 L 4823.0,792.0 L 4820.0,793.0 L 4800.0,796.0 L 4785.0,807.0 L 4769.0,817.0 L 4763.0,839.0 L 4761.0,849.0 L 4759.0,857.0 L 4756.0,867.0 L 4756.0,876.0 L 4756.0,878.0 L 4756.0,880.0 L 4756.0,910.0 L 4774.0,930.0 L 4793.0,952.0 L 4824.0,952.0 L 4824.0,952.0 L 4824.0,952.0 L 4850.0,952.0 L 4867.0,934.0 L 4884.0,917.0 L 4884.0,877.0 L 4883.0,862.0 L 4881.0,852.0 L 4879.0,842.0 L 4875.0,832.0 M 5086.0,966.0 L 5077.0,980.0 L 5067.0,992.0 L 5056.0,1003.0 L 5037.0,998.0 L 5017.0,992.0 L 5001.0,980.0 L 4985.0,968.0 L 4981.0,944.0 L 4976.0,915.0 L 4972.0,885.0 L 4969.0,855.0 L 4966.0,826.0 L 4965.0,816.0 L 4965.0,810.0 L 4965.0,806.0 L 4965.0,804.0 L 4966.0,798.0 L 4967.0,782.0 L 4967.0,777.0 L 4968.0,770.0 L 4969.0,763.0 L 4977.0,758.0 L 4996.0,769.0 L 4999.0,780.0 L 5003.0,790.0 L 5004.0,808.0 L 5007.0,835.0 L 5009.0,858.0 L 5010.0,881.0 L 5013.0,909.0 L 5015.0,927.0 L 5019.0,931.0 L 5023.0,937.0 L 5043.0,950.0 L 5072.0,930.0 L 5082.0,909.0 L 5091.0,887.0 L 5095.0,863.0 L 5096.0,850.0 L 5097.0,836.0 L 5098.0,822.0 L 5101.0,807.0 L 5102.0,798.0 L 5103.0,789.0 L 5104.0,780.0 L 5107.0,772.0 L 5108.0,767.0 L 5114.0,763.0 L 5119.0,759.0 L 5123.0,758.0 L 5126.0,758.0 L 5132.0,762.0 L 5137.0,766.0 L 5137.0,770.0 L 5140.0,782.0 L 5140.0,789.0 L 5140.0,796.0 L 5140.0,809.0 L 5140.0,839.0 L 5140.0,864.0 L 5140.0,890.0 L 5143.0,919.0 L 5145.0,938.0 L 5151.0,956.0 L 5157.0,975.0 L 5161.0,993.0 L 5148.0,1000.0 L 5138.0,1000.0 L 5132.0,1000.0 L 5127.0,997.0 L 5116.0,989.0 L 5099.0,947.0 L 5095.0,953.0 L 5092.0,957.0 L 5088.0,962.0 L 5086.0,966.0 M 5532.0,949.0 L 5522.0,959.0 L 5512.0,966.0 L 5502.0,975.0 L 5491.0,984.0 L 5469.0,1000.0 L 5451.0,1000.0 L 5449.0,1000.0 L 5447.0,1000.0 L 5425.0,998.0 L 5403.0,978.0 L 5394.0,969.0 L 5386.0,960.0 L 5378.0,951.0 L 5371.0,942.0 L 5366.0,935.0 L 5364.0,914.0 L 5361.0,898.0 L 5361.0,889.0 L 5361.0,887.0 L 5361.0,886.0 L 5361.0,838.0 L 5374.0,815.0 L 5385.0,792.0 L 5421.0,763.0 L 5439.0,749.0 L 5460.0,745.0 L 5465.0,744.0 L 5472.0,744.0 L 5486.0,744.0 L 5499.0,751.0 L 5519.0,761.0 L 5534.0,779.0 L 5551.0,795.0 L 5552.0,823.0 L 5552.0,837.0 L 5554.0,851.0 L 5556.0,865.0 L 5557.0,880.0 L 5557.0,902.0 L 5566.0,922.0 L 5573.0,943.0 L 5590.0,958.0 L 5594.0,961.0 L 5594.0,969.0 L 5595.0,977.0 L 5597.0,983.0 L 5582.0,992.0 L 5571.0,986.0 L 5561.0,981.0 L 5552.0,971.0 L 5547.0,965.0 L 5542.0,960.0 L 5538.0,953.0 L 5532.0,949.0 M 5511.0,821.0 L 5509.0,804.0 L 5502.0,797.0 L 5497.0,792.0 L 5486.0,792.0 L 5483.0,792.0 L 5479.0,792.0 L 5471.0,793.0 L 5461.0,796.0 L 5452.0,798.0 L 5446.0,802.0 L 5424.0,821.0 L 5416.0,843.0 L 5409.0,860.0 L 5409.0,891.0 L 5409.0,896.0 L 5409.0,901.0 L 5409.0,919.0 L 5420.0,929.0 L 5431.0,941.0 L 5443.0,948.0 L 5450.0,952.0 L 5457.0,952.0 L 5462.0,952.0 L 5467.0,950.0 L 5481.0,945.0 L 5489.0,938.0 L 5509.0,920.0 L 5512.0,902.0 L 5514.0,885.0 L 5514.0,867.0 L 5514.0,850.0 L 5513.0,839.0 L 5512.0,828.0 L 5511.0,821.0 M 5649.0,956.0 L 5644.0,913.0 L 5644.0,871.0 L 5644.0,828.0 L 5644.0,785.0 L 5644.0,774.0 L 5637.0,759.0 L 5637.0,756.0 L 5637.0,755.0 L 5637.0,743.0 L 5643.0,737.0 L 5664.0,741.0 L 5667.0,756.0 L 5669.0,772.0 L 5676.0,786.0 L 5684.0,776.0 L 5694.0,769.0 L 5704.0,761.0 L 5716.0,755.0 L 5739.0,744.0 L 5762.0,744.0 L 5785.0,744.0 L 5795.0,756.0 L 5795.0,775.0 L 5778.0,780.0 L 5761.0,784.0 L 5742.0,792.0 L 5721.0,803.0 L 5714.0,814.0 L 5707.0,825.0 L 5703.0,846.0 L 5698.0,871.0 L 5696.0,895.0 L 5693.0,921.0 L 5691.0,945.0 L 5689.0,959.0 L 5687.0,972.0 L 5686.0,985.0 L 5670.0,994.0 L 5657.0,988.0 L 5653.0,977.0 L 5649.0,967.0 L 5649.0,956.0 M 5997.0,939.0 L 6005.0,934.0 L 6012.0,926.0 L 6021.0,920.0 L 6029.0,915.0 L 6038.0,910.0 L 6045.0,915.0 L 6053.0,920.0 L 6059.0,934.0 L 6037.0,966.0 L 6015.0,983.0 L 5996.0,1000.0 L 5964.0,1000.0 L 5961.0,1000.0 L 5958.0,1000.0 L 5919.0,1000.0 L 5889.0,985.0 L 5860.0,971.0 L 5842.0,924.0 L 5835.0,905.0 L 5835.0,885.0 L 5835.0,883.0 L 5835.0,881.0 L 5835.0,859.0 L 5841.0,838.0 L 5851.0,808.0 L 5874.0,785.0 L 5896.0,763.0 L 5923.0,752.0 L 5938.0,746.0 L 5953.0,745.0 L 5959.0,744.0 L 5964.0,744.0 L 5974.0,744.0 L 5983.0,746.0 L 6001.0,750.0 L 6013.0,758.0 L 6026.0,768.0 L 6029.0,787.0 L 6033.0,805.0 L 6031.0,823.0 L 6028.0,840.0 L 6015.0,855.0 L 5990.0,885.0 L 5959.0,897.0 L 5928.0,911.0 L 5887.0,905.0 L 5903.0,945.0 L 5935.0,953.0 L 5967.0,960.0 L 5997.0,939.0 M 5883.0,865.0 L 5897.0,868.0 L 5910.0,868.0 L 5922.0,868.0 L 5933.0,865.0 L 5957.0,859.0 L 5976.0,844.0 L 5985.0,837.0 L 5991.0,824.0 L 5992.0,819.0 L 5992.0,814.0 L 5992.0,806.0 L 5985.0,796.0 L 5974.0,792.0 L 5963.0,792.0 L 5959.0,792.0 L 5954.0,792.0 L 5938.0,794.0 L 5923.0,802.0 L 5902.0,812.0 L 5888.0,830.0 L 5880.0,842.0 L 5880.0,852.0 L 5880.0,858.0 L 5883.0,865.0 M 6441.0,956.0 L 6434.0,965.0 L 6426.0,969.0 L 6418.0,974.0 L 6402.0,989.0 L 6371.0,1000.0 L 6338.0,1000.0 L 6331.0,1000.0 L 6324.0,1000.0 L 6284.0,997.0 L 6266.0,952.0 L 6259.0,928.0 L 6259.0,895.0 L 6259.0,886.0 L 6259.0,876.0 L 6259.0,830.0 L 6287.0,789.0 L 6304.0,766.0 L 6326.0,750.0 L 6350.0,735.0 L 6381.0,742.0 L 6389.0,744.0 L 6397.0,744.0 L 6407.0,744.0 L 6419.0,747.0 L 6419.0,719.0 L 6419.0,696.0 L 6419.0,673.0 L 6419.0,647.0 L 6419.0,628.0 L 6419.0,613.0 L 6419.0,598.0 L 6419.0,578.0 L 6419.0,571.0 L 6422.0,564.0 L 6424.0,556.0 L 6437.0,552.0 L 6451.0,552.0 L 6452.0,557.0 L 6454.0,560.0 L 6457.0,568.0 L 6463.0,593.0 L 6463.0,609.0 L 6463.0,626.0 L 6464.0,649.0 L 6467.0,682.0 L 6467.0,716.0 L 6467.0,749.0 L 6467.0,783.0 L 6467.0,800.0 L 6467.0,819.0 L 6467.0,838.0 L 6467.0,858.0 L 6467.0,894.0 L 6473.0,930.0 L 6481.0,967.0 L 6499.0,994.0 L 6482.0,999.0 L 6470.0,995.0 L 6458.0,991.0 L 6441.0,956.0 M 6413.0,860.0 L 6414.0,853.0 L 6414.0,847.0 L 6413.0,832.0 L 6409.0,822.0 L 6404.0,806.0 L 6393.0,799.0 L 6383.0,794.0 L 6370.0,794.0 L 6369.0,794.0 L 6369.0,794.0 L 6356.0,794.0 L 6346.0,798.0 L 6338.0,800.0 L 6329.0,811.0 L 6320.0,821.0 L 6317.0,832.0 L 6307.0,866.0 L 6304.0,898.0 L 6304.0,901.0 L 6304.0,903.0 L 6304.0,933.0 L 6329.0,949.0 L 6339.0,952.0 L 6347.0,952.0 L 6360.0,952.0 L 6370.0,944.0 L 6386.0,931.0 L 6396.0,911.0 L 6402.0,899.0 L 6406.0,886.0 L 6409.0,872.0 L 6413.0,860.0 M 6729.0,949.0 L 6715.0,978.0 L 6692.0,990.0 L 6672.0,1000.0 L 6645.0,1000.0 L 6642.0,1000.0 L 6638.0,1000.0 L 6607.0,1000.0 L 6586.0,985.0 L 6565.0,969.0 L 6552.0,940.0 L 6543.0,923.0 L 6541.0,903.0 L 6539.0,892.0 L 6539.0,881.0 L 6539.0,872.0 L 6540.0,864.0 L 6544.0,827.0 L 6566.0,795.0 L 6588.0,763.0 L 6626.0,749.0 L 6638.0,744.0 L 6650.0,744.0 L 6654.0,744.0 L 6659.0,744.0 L 6675.0,746.0 L 6689.0,757.0 L 6720.0,779.0 L 6734.0,808.0 L 6748.0,837.0 L 6748.0,881.0 L 6748.0,903.0 L 6742.0,918.0 L 6736.0,933.0 L 6729.0,949.0 M 6698.0,832.0 L 6689.0,812.0 L 6674.0,800.0 L 6662.0,792.0 L 6649.0,792.0 L 6646.0,792.0 L 6643.0,793.0 L 6623.0,796.0 L 6608.0,807.0 L 6592.0,817.0 L 6586.0,839.0 L 6584.0,849.0 L 6582.0,857.0 L 6579.0,867.0 L 6579.0,876.0 L 6579.0,878.0 L 6579.0,880.0 L 6579.0,910.0 L 6597.0,930.0 L 6616.0,952.0 L 6647.0,952.0 L 6647.0,952.0 L 6647.0,952.0 L 6673.0,952.0 L 6690.0,934.0 L 6707.0,917.0 L 6707.0,877.0 L 6706.0,862.0 L 6704.0,852.0 L 6702.0,842.0 L 6698.0,832.0 M 6788.0,710.0 L 6788.0,711.0 L 6788.0,712.0 L 6788.0,721.0 L 6794.0,728.0 L 6801.0,736.0 L 6811.0,736.0 L 6819.0,736.0 L 6827.0,728.0 L 6834.0,721.0 L 6835.0,712.0 L 6835.0,712.0 L 6835.0,711.0 L 6835.0,702.0 L 6828.0,695.0 L 6821.0,688.0 L 6810.0,688.0 L 6810.0,688.0 L 6809.0,688.0 L 6801.0,688.0 L 6795.0,694.0 L 6789.0,700.0 L 6788.0,710.0 M 6802.0,777.0 L 6795.0,783.0 L 6793.0,792.0 L 6790.0,800.0 L 6789.0,807.0 L 6789.0,851.0 L 6789.0,890.0 L 6789.0,910.0 L 6789.0,933.0 L 6789.0,951.0 L 6789.0,971.0 L 6789.0,994.0 L 6808.0,998.0 L 6815.0,1000.0 L 6821.0,1000.0 L 6829.0,1000.0 L 6835.0,996.0 L 6837.0,992.0 L 6837.0,977.0 L 6837.0,962.0 L 6837.0,944.0 L 6837.0,921.0 L 6837.0,901.0 L 6837.0,880.0 L 6837.0,876.0 L 6837.0,864.0 L 6840.0,836.0 L 6841.0,829.0 L 6841.0,822.0 L 6841.0,805.0 L 6835.0,791.0 L 6830.0,785.0 L 6823.0,780.0 L 6816.0,777.0 L 6807.0,777.0 L 6806.0,777.0 L 6802.0,777.0 M 7041.0,931.0 L 7041.0,904.0 L 7041.0,883.0 L 7041.0,862.0 L 7035.0,835.0 L 7032.0,825.0 L 7027.0,810.0 L 7022.0,793.0 L 7008.0,790.0 L 6989.0,795.0 L 6978.0,800.0 L 6966.0,806.0 L 6960.0,813.0 L 6946.0,826.0 L 6941.0,843.0 L 6938.0,860.0 L 6933.0,879.0 L 6928.0,897.0 L 6927.0,917.0 L 6927.0,936.0 L 6926.0,955.0 L 6926.0,962.0 L 6926.0,969.0 L 6927.0,976.0 L 6925.0,982.0 L 6923.0,987.0 L 6918.0,993.0 L 6914.0,999.0 L 6909.0,1000.0 L 6904.0,1000.0 L 6897.0,996.0 L 6891.0,992.0 L 6887.0,988.0 L 6883.0,984.0 L 6882.0,978.0 L 6881.0,972.0 L 6881.0,967.0 L 6881.0,922.0 L 6881.0,877.0 L 6881.0,872.0 L 6881.0,868.0 L 6881.0,819.0 L 6881.0,771.0 L 6902.0,760.0 L 6908.0,770.0 L 6914.0,782.0 L 6922.0,789.0 L 6936.0,780.0 L 6948.0,770.0 L 6962.0,761.0 L 6976.0,754.0 L 6995.0,744.0 L 7014.0,744.0 L 7020.0,744.0 L 7027.0,746.0 L 7050.0,751.0 L 7065.0,779.0 L 7089.0,829.0 L 7089.0,877.0 L 7089.0,886.0 L 7089.0,897.0 L 7089.0,936.0 L 7080.0,980.0 L 7080.0,983.0 L 7076.0,993.0 L 7072.0,1002.0 L 7065.0,1003.0 L 7042.0,1002.0 L 7040.0,988.0 L 7037.0,973.0 L 7041.0,931.0 M 7329.0,1066.0 L 7329.0,1075.0 L 7326.0,1087.0 L 7323.0,1101.0 L 7322.0,1110.0 L 7308.0,1172.0 L 7265.0,1187.0 L 7252.0,1192.0 L 7237.0,1192.0 L 7209.0,1192.0 L 7176.0,1174.0 L 7165.0,1168.0 L 7156.0,1156.0 L 7147.0,1145.0 L 7141.0,1132.0 L 7138.0,1124.0 L 7138.0,1112.0 L 7137.0,1100.0 L 7146.0,1089.0 L 7151.0,1086.0 L 7160.0,1095.0 L 7168.0,1105.0 L 7177.0,1114.0 L 7183.0,1122.0 L 7189.0,1128.0 L 7195.0,1133.0 L 7201.0,1136.0 L 7230.0,1145.0 L 7246.0,1135.0 L 7261.0,1124.0 L 7270.0,1093.0 L 7276.0,1071.0 L 7277.0,1054.0 L 7278.0,1037.0 L 7278.0,1018.0 L 7277.0,1001.0 L 7277.0,994.0 L 7278.0,987.0 L 7277.0,975.0 L 7264.0,978.0 L 7248.0,981.0 L 7232.0,984.0 L 7221.0,984.0 L 7182.0,984.0 L 7162.0,966.0 L 7142.0,947.0 L 7132.0,899.0 L 7129.0,884.0 L 7129.0,869.0 L 7129.0,856.0 L 7131.0,845.0 L 7136.0,818.0 L 7147.0,795.0 L 7161.0,762.0 L 7187.0,751.0 L 7205.0,744.0 L 7229.0,744.0 L 7241.0,744.0 L 7255.0,746.0 L 7272.0,750.0 L 7288.0,760.0 L 7305.0,770.0 L 7327.0,782.0 L 7329.0,810.0 L 7329.0,830.0 L 7329.0,853.0 L 7329.0,870.0 L 7329.0,898.0 L 7329.0,922.0 L 7329.0,926.0 L 7329.0,931.0 L 7329.0,958.0 L 7329.0,989.0 L 7329.0,1005.0 L 7329.0,1023.0 L 7329.0,1042.0 L 7329.0,1066.0 M 7185.0,822.0 L 7178.0,840.0 L 7177.0,863.0 L 7176.0,870.0 L 7176.0,876.0 L 7176.0,892.0 L 7179.0,906.0 L 7182.0,916.0 L 7185.0,925.0 L 7189.0,933.0 L 7194.0,936.0 L 7205.0,936.0 L 7230.0,936.0 L 7238.0,936.0 L 7244.0,936.0 L 7261.0,936.0 L 7273.0,928.0 L 7281.0,896.0 L 7281.0,865.0 L 7281.0,835.0 L 7275.0,805.0 L 7243.0,792.0 L 7224.0,792.0 L 7219.0,792.0 L 7216.0,793.0 L 7196.0,796.0 L 7185.0,822.0 M 138.0,1926.0 L 145.0,1914.0 L 152.0,1902.0 L 159.0,1892.0 L 166.0,1880.0 L 184.0,1849.0 L 192.0,1849.0 L 201.0,1849.0 L 219.0,1878.0 L 225.0,1886.0 L 231.0,1895.0 L 238.0,1904.0 L 246.0,1916.0 L 251.0,1905.0 L 255.0,1897.0 L 259.0,1889.0 L 262.0,1880.0 L 271.0,1854.0 L 279.0,1829.0 L 287.0,1805.0 L 296.0,1778.0 L 300.0,1767.0 L 306.0,1757.0 L 312.0,1747.0 L 328.0,1749.0 L 336.0,1763.0 L 336.0,1775.0 L 336.0,1776.0 L 336.0,1778.0 L 334.0,1790.0 L 331.0,1805.0 L 319.0,1849.0 L 306.0,1894.0 L 292.0,1938.0 L 279.0,1981.0 L 278.0,1986.0 L 274.0,1990.0 L 271.0,1994.0 L 267.0,1999.0 L 249.0,1993.0 L 239.0,1980.0 L 229.0,1966.0 L 219.0,1951.0 L 214.0,1943.0 L 208.0,1936.0 L 201.0,1928.0 L 193.0,1922.0 L 184.0,1938.0 L 173.0,1954.0 L 163.0,1969.0 L 152.0,1984.0 L 140.0,2000.0 L 126.0,2000.0 L 124.0,2000.0 L 123.0,2000.0 L 107.0,1998.0 L 102.0,1978.0 L 91.0,1931.0 L 76.0,1878.0 L 62.0,1823.0 L 52.0,1777.0 L 51.0,1773.0 L 50.0,1759.0 L 50.0,1757.0 L 50.0,1756.0 L 51.0,1744.0 L 63.0,1744.0 L 63.0,1744.0 L 63.0,1744.0 L 76.0,1744.0 L 87.0,1773.0 L 97.0,1803.0 L 107.0,1840.0 L 114.0,1864.0 L 122.0,1887.0 L 129.0,1911.0 L 138.0,1926.0 M 538.0,1939.0 L 546.0,1934.0 L 553.0,1926.0 L 562.0,1920.0 L 570.0,1915.0 L 579.0,1910.0 L 586.0,1915.0 L 594.0,1920.0 L 600.0,1934.0 L 578.0,1966.0 L 556.0,1983.0 L 537.0,2000.0 L 505.0,2000.0 L 502.0,2000.0 L 499.0,2000.0 L 460.0,2000.0 L 430.0,1985.0 L 401.0,1971.0 L 383.0,1924.0 L 376.0,1905.0 L 376.0,1885.0 L 376.0,1883.0 L 376.0,1881.0 L 376.0,1859.0 L 382.0,1838.0 L 392.0,1808.0 L 415.0,1785.0 L 437.0,1763.0 L 464.0,1752.0 L 479.0,1746.0 L 494.0,1745.0 L 500.0,1744.0 L 505.0,1744.0 L 515.0,1744.0 L 524.0,1746.0 L 542.0,1750.0 L 554.0,1758.0 L 567.0,1768.0 L 570.0,1787.0 L 574.0,1805.0 L 572.0,1823.0 L 569.0,1840.0 L 556.0,1855.0 L 531.0,1885.0 L 500.0,1897.0 L 469.0,1911.0 L 428.0,1905.0 L 444.0,1945.0 L 476.0,1953.0 L 508.0,1960.0 L 538.0,1939.0 M 424.0,1865.0 L 438.0,1868.0 L 451.0,1868.0 L 463.0,1868.0 L 474.0,1865.0 L 498.0,1859.0 L 517.0,1844.0 L 526.0,1837.0 L 532.0,1824.0 L 533.0,1819.0 L 533.0,1814.0 L 533.0,1806.0 L 526.0,1796.0 L 515.0,1792.0 L 504.0,1792.0 L 500.0,1792.0 L 495.0,1792.0 L 479.0,1794.0 L 464.0,1802.0 L 443.0,1812.0 L 429.0,1830.0 L 421.0,1842.0 L 421.0,1852.0 L 421.0,1858.0 L 424.0,1865.0 M 688.0,1590.0 L 688.0,1622.0 L 688.0,1653.0 L 688.0,1684.0 L 688.0,1715.0 L 688.0,1746.0 L 688.0,1776.0 L 688.0,1806.0 L 688.0,1837.0 L 688.0,1870.0 L 688.0,1904.0 L 688.0,1922.0 L 688.0,1939.0 L 688.0,1956.0 L 688.0,1971.0 L 688.0,1980.0 L 686.0,1989.0 L 685.0,1999.0 L 669.0,2000.0 L 655.0,2000.0 L 648.0,1993.0 L 640.0,1985.0 L 640.0,1973.0 L 640.0,1929.0 L 640.0,1887.0 L 640.0,1860.0 L 640.0,1835.0 L 640.0,1817.0 L 640.0,1799.0 L 640.0,1751.0 L 640.0,1701.0 L 640.0,1653.0 L 640.0,1604.0 L 640.0,1597.0 L 642.0,1585.0 L 642.0,1573.0 L 647.0,1564.0 L 649.0,1559.0 L 655.0,1555.0 L 660.0,1552.0 L 669.0,1552.0 L 684.0,1558.0 L 685.0,1569.0 L 688.0,1580.0 L 688.0,1590.0 M 776.0,1590.0 L 776.0,1622.0 L 776.0,1653.0 L 776.0,1684.0 L 776.0,1715.0 L 776.0,1746.0 L 776.0,1776.0 L 776.0,1806.0 L 776.0,1837.0 L 776.0,1870.0 L 776.0,1904.0 L 776.0,1922.0 L 776.0,1939.0 L 776.0,1956.0 L 776.0,1971.0 L 776.0,1980.0 L 774.0,1989.0 L 773.0,1999.0 L 757.0,2000.0 L 743.0,2000.0 L 736.0,1993.0 L 728.0,1985.0 L 728.0,1973.0 L 728.0,1929.0 L 728.0,1887.0 L 728.0,1860.0 L 728.0,1835.0 L 728.0,1817.0 L 728.0,1799.0 L 728.0,1751.0 L 728.0,1701.0 L 728.0,1653.0 L 728.0,1604.0 L 728.0,1597.0 L 730.0,1585.0 L 730.0,1573.0 L 735.0,1564.0 L 737.0,1559.0 L 743.0,1555.0 L 748.0,1552.0 L 757.0,1552.0 L 772.0,1558.0 L 773.0,1569.0 L 776.0,1580.0 L 776.0,1590.0 M 875.0,1945.0 L 881.0,1954.0 L 882.0,1965.0 L 882.0,1967.0 L 881.0,1968.0 L 880.0,1981.0 L 871.0,1988.0 L 863.0,1995.0 L 852.0,1997.0 L 841.0,2000.0 L 831.0,2000.0 L 827.0,2001.0 L 821.0,1993.0 L 816.0,1985.0 L 816.0,1980.0 L 816.0,1980.0 L 816.0,1979.0 L 820.0,1962.0 L 820.0,1950.0 L 820.0,1939.0 L 841.0,1925.0 L 860.0,1927.0 L 865.0,1932.0 L 870.0,1936.0 L 875.0,1945.0" fill="none" stroke="#000000" stroke-width="7.279"/>
</svg>
