<?xml version="1.0" ?>
<svg xmlns="http://www.w3.org/2000/svg" xmlns:ev="http://www.w3.org/2001/xml-events" xmlns:xlink="http://www.w3.org/1999/xlink" baseProfile="full" height="367px" version="1.1" viewBox="-691.8910000000001 -966.8910000000001 8865.782 5421.782" width="600px">
	<defs/>
	<path d="M 50.0,-448.0 L 106.0,-448.0 L 106.0,-256.0 L 313.0,-256.0 L 313.0,-448.0 L 370.0,-448.0 L 370.0,0.0 L 313.0,0.0 L 313.0,-192.0 L 106.0,-192.0 L 106.0,0.0 L 50.0,0.0 L 50.0,-448.0 M 702.0,-168.0 L 702.0,-128.0 L 464.0,-128.0 L 467.0,-97.0 L 525.0,-64.0 L 577.0,-64.0 L 606.0,-64.0 L 662.0,-64.0 L 690.0,-64.0 L 690.0,0.0 L 662.0,0.0 L 604.0,0.0 L 573.0,0.0 L 498.0,0.0 L 410.0,-85.0 L 410.0,-157.0 L 410.0,-232.0 L 494.0,-320.0 L 564.0,-320.0 L 628.0,-320.0 L 702.0,-238.0 L 702.0,-168.0 M 650.0,-192.0 L 649.0,-221.0 L 603.0,-256.0 L 565.0,-256.0 L 521.0,-256.0 L 469.0,-222.0 L 465.0,-191.0 L 650.0,-192.0 M 742.0,-512.0 L 794.0,-512.0 L 794.0,0.0 L 742.0,0.0 L 742.0,-512.0 M 834.0,-512.0 L 886.0,-512.0 L 886.0,0.0 L 834.0,0.0 L 834.0,-512.0 M 1070.0,-256.0 L 1028.0,-256.0 L 980.0,-205.0 L 980.0,-160.0 L 980.0,-115.0 L 1028.0,-64.0 L 1070.0,-64.0 L 1112.0,-64.0 L 1160.0,-116.0 L 1160.0,-160.0 L 1160.0,-204.0 L 1112.0,-256.0 L 1070.0,-256.0 M 1070.0,-320.0 L 1138.0,-320.0 L 1215.0,-235.0 L 1215.0,-160.0 L 1215.0,-85.0 L 1138.0,0.0 L 1070.0,0.0 L 1003.0,0.0 L 926.0,-85.0 L 926.0,-160.0 L 926.0,-235.0 L 1003.0,-320.0 L 1070.0,-320.0 M 1279.0,-64.0 L 1338.0,-64.0 L 1338.0,-19.0 L 1292.0,64.0 L 1255.0,64.0 L 1279.0,-19.0 L 1279.0,-64.0 M 1538.0,-320.0 L 1590.0,-320.0 L 1590.0,0.0 L 1538.0,0.0 L 1538.0,-320.0 M 1538.0,-448.0 L 1590.0,-448.0 L 1590.0,-384.0 L 1538.0,-384.0 L 1538.0,-448.0 M 1720.0,-384.0 L 1720.0,-320.0 L 1827.0,-320.0 L 1827.0,-256.0 L 1720.0,-256.0 L 1720.0,-114.0 L 1720.0,-82.0 L 1741.0,-64.0 L 1774.0,-64.0 L 1827.0,-64.0 L 1827.0,0.0 L 1774.0,0.0 L 1714.0,0.0 L 1668.0,-49.0 L 1668.0,-114.0 L 1668.0,-256.0 L 1630.0,-256.0 L 1630.0,-320.0 L 1668.0,-320.0 L 1668.0,-384.0 L 1720.0,-384.0 M 1890.0,-448.0 L 1949.0,-448.0 L 1949.0,-407.0 L 1903.0,-320.0 L 1867.0,-320.0 L 1890.0,-407.0 L 1890.0,-448.0 M 2213.0,-320.0 L 2213.0,-256.0 L 2191.0,-256.0 L 2144.0,-256.0 L 2119.0,-256.0 L 2080.0,-256.0 L 2042.0,-238.0 L 2042.0,-220.0 L 2042.0,-206.0 L 2069.0,-190.0 L 2111.0,-183.0 L 2128.0,-179.0 L 2183.0,-168.0 L 2230.0,-127.0 L 2230.0,-90.0 L 2230.0,-49.0 L 2160.0,0.0 L 2100.0,0.0 L 2074.0,0.0 L 2019.0,0.0 L 1989.0,0.0 L 1989.0,-64.0 L 2018.0,-64.0 L 2074.0,-64.0 L 2101.0,-64.0 L 2138.0,-64.0 L 2177.0,-82.0 L 2177.0,-98.0 L 2177.0,-113.0 L 2148.0,-129.0 L 2100.0,-136.0 L 2082.0,-140.0 L 2034.0,-150.0 L 1991.0,-192.0 L 1991.0,-228.0 L 1991.0,-272.0 L 2054.0,-320.0 L 2112.0,-320.0 L 2141.0,-320.0 L 2192.0,-320.0 L 2213.0,-320.0 M 2430.0,-448.0 L 2786.0,-448.0 L 2786.0,-384.0 L 2636.0,-384.0 L 2636.0,0.0 L 2579.0,0.0 L 2579.0,-384.0 L 2430.0,-384.0 L 2430.0,-448.0 M 2826.0,-137.0 L 2826.0,-320.0 L 2878.0,-320.0 L 2878.0,-139.0 L 2878.0,-102.0 L 2913.0,-64.0 L 2948.0,-64.0 L 2989.0,-64.0 L 3038.0,-110.0 L 3038.0,-149.0 L 3038.0,-320.0 L 3090.0,-320.0 L 3090.0,0.0 L 3038.0,0.0 L 3038.0,-64.0 L 3019.0,-32.0 L 2969.0,0.0 L 2937.0,0.0 L 2882.0,0.0 L 2826.0,-70.0 L 2826.0,-137.0 M 3422.0,-168.0 L 3422.0,-128.0 L 3184.0,-128.0 L 3187.0,-97.0 L 3245.0,-64.0 L 3297.0,-64.0 L 3326.0,-64.0 L 3382.0,-64.0 L 3410.0,-64.0 L 3410.0,0.0 L 3382.0,0.0 L 3324.0,0.0 L 3293.0,0.0 L 3218.0,0.0 L 3130.0,-85.0 L 3130.0,-157.0 L 3130.0,-232.0 L 3214.0,-320.0 L 3284.0,-320.0 L 3348.0,-320.0 L 3422.0,-238.0 L 3422.0,-168.0 M 3370.0,-192.0 L 3369.0,-221.0 L 3323.0,-256.0 L 3285.0,-256.0 L 3241.0,-256.0 L 3189.0,-222.0 L 3185.0,-191.0 L 3370.0,-192.0 M 3686.0,-320.0 L 3686.0,-256.0 L 3664.0,-256.0 L 3617.0,-256.0 L 3592.0,-256.0 L 3553.0,-256.0 L 3515.0,-238.0 L 3515.0,-220.0 L 3515.0,-206.0 L 3542.0,-190.0 L 3584.0,-183.0 L 3601.0,-179.0 L 3656.0,-168.0 L 3703.0,-127.0 L 3703.0,-90.0 L 3703.0,-49.0 L 3633.0,0.0 L 3573.0,0.0 L 3547.0,0.0 L 3492.0,0.0 L 3462.0,0.0 L 3462.0,-64.0 L 3491.0,-64.0 L 3547.0,-64.0 L 3574.0,-64.0 L 3611.0,-64.0 L 3650.0,-82.0 L 3650.0,-98.0 L 3650.0,-113.0 L 3621.0,-129.0 L 3573.0,-136.0 L 3555.0,-140.0 L 3507.0,-150.0 L 3464.0,-192.0 L 3464.0,-228.0 L 3464.0,-272.0 L 3527.0,-320.0 L 3585.0,-320.0 L 3614.0,-320.0 L 3665.0,-320.0 L 3686.0,-320.0 M 3973.0,-256.0 L 3973.0,-512.0 L 4024.0,-512.0 L 4024.0,0.0 L 3973.0,0.0 L 3973.0,-64.0 L 3957.0,-32.0 L 3907.0,0.0 L 3872.0,0.0 L 3815.0,0.0 L 3743.0,-88.0 L 3743.0,-160.0 L 3743.0,-232.0 L 3815.0,-320.0 L 3872.0,-320.0 L 3907.0,-320.0 L 3957.0,-288.0 L 3973.0,-256.0 M 3796.0,-160.0 L 3796.0,-115.0 L 3843.0,-64.0 L 3884.0,-64.0 L 3926.0,-64.0 L 3973.0,-115.0 L 3973.0,-160.0 L 3973.0,-205.0 L 3926.0,-256.0 L 3884.0,-256.0 L 3843.0,-256.0 L 3796.0,-205.0 L 3796.0,-160.0 M 4226.0,-128.0 L 4163.0,-128.0 L 4115.0,-113.0 L 4115.0,-95.0 L 4115.0,-81.0 L 4151.0,-64.0 L 4183.0,-64.0 L 4226.0,-64.0 L 4278.0,-95.0 L 4278.0,-121.0 L 4278.0,-128.0 L 4226.0,-128.0 M 4330.0,-162.0 L 4330.0,0.0 L 4278.0,0.0 L 4278.0,-64.0 L 4260.0,-31.0 L 4208.0,0.0 L 4169.0,0.0 L 4121.0,0.0 L 4064.0,-50.0 L 4064.0,-93.0 L 4064.0,-142.0 L 4135.0,-192.0 L 4205.0,-192.0 L 4278.0,-192.0 L 4278.0,-198.0 L 4278.0,-226.0 L 4231.0,-256.0 L 4189.0,-256.0 L 4162.0,-256.0 L 4111.0,-256.0 L 4087.0,-256.0 L 4087.0,-320.0 L 4115.0,-320.0 L 4169.0,-320.0 L 4194.0,-320.0 L 4263.0,-320.0 L 4330.0,-242.0 L 4330.0,-162.0 M 4538.0,18.0 L 4516.0,86.0 L 4475.0,128.0 L 4440.0,128.0 L 4399.0,128.0 L 4399.0,64.0 L 4429.0,64.0 L 4450.0,64.0 L 4474.0,47.0 L 4488.0,16.0 L 4498.0,-8.0 L 4370.0,-320.0 L 4425.0,-320.0 L 4523.0,-70.0 L 4622.0,-320.0 L 4677.0,-320.0 L 4538.0,18.0 M 4877.0,-448.0 L 4961.0,-448.0 L 5068.0,-124.0 L 5176.0,-448.0 L 5261.0,-448.0 L 5261.0,0.0 L 5205.0,0.0 L 5205.0,-390.0 L 5097.0,-64.0 L 5040.0,-64.0 L 4932.0,-390.0 L 4932.0,0.0 L 4877.0,0.0 L 4877.0,-448.0 M 5463.0,-128.0 L 5400.0,-128.0 L 5352.0,-113.0 L 5352.0,-95.0 L 5352.0,-81.0 L 5388.0,-64.0 L 5420.0,-64.0 L 5463.0,-64.0 L 5515.0,-95.0 L 5515.0,-121.0 L 5515.0,-128.0 L 5463.0,-128.0 M 5567.0,-162.0 L 5567.0,0.0 L 5515.0,0.0 L 5515.0,-64.0 L 5497.0,-31.0 L 5445.0,0.0 L 5406.0,0.0 L 5358.0,0.0 L 5301.0,-50.0 L 5301.0,-93.0 L 5301.0,-142.0 L 5372.0,-192.0 L 5442.0,-192.0 L 5515.0,-192.0 L 5515.0,-198.0 L 5515.0,-226.0 L 5468.0,-256.0 L 5426.0,-256.0 L 5399.0,-256.0 L 5348.0,-256.0 L 5324.0,-256.0 L 5324.0,-320.0 L 5352.0,-320.0 L 5406.0,-320.0 L 5431.0,-320.0 L 5500.0,-320.0 L 5567.0,-242.0 L 5567.0,-162.0 M 5792.0,-256.0 L 5783.0,-256.0 L 5763.0,-256.0 L 5750.0,-256.0 L 5706.0,-256.0 L 5659.0,-206.0 L 5659.0,-160.0 L 5659.0,0.0 L 5607.0,0.0 L 5607.0,-320.0 L 5659.0,-320.0 L 5659.0,-256.0 L 5675.0,-288.0 L 5728.0,-320.0 L 5765.0,-320.0 L 5771.0,-320.0 L 5784.0,-320.0 L 5792.0,-320.0 L 5792.0,-256.0 M 6081.0,-320.0 L 6081.0,-256.0 L 6059.0,-256.0 L 6015.0,-256.0 L 5992.0,-256.0 L 5942.0,-256.0 L 5886.0,-206.0 L 5886.0,-160.0 L 5886.0,-114.0 L 5942.0,-64.0 L 5992.0,-64.0 L 6015.0,-64.0 L 6059.0,-64.0 L 6081.0,-64.0 L 6081.0,0.0 L 6059.0,0.0 L 6013.0,0.0 L 5987.0,0.0 L 5916.0,0.0 L 5832.0,-87.0 L 5832.0,-160.0 L 5832.0,-235.0 L 5917.0,-320.0 L 5990.0,-320.0 L 6014.0,-320.0 L 6060.0,-320.0 L 6081.0,-320.0 M 6385.0,-183.0 L 6385.0,0.0 L 6333.0,0.0 L 6333.0,-181.0 L 6333.0,-219.0 L 6298.0,-256.0 L 6263.0,-256.0 L 6221.0,-256.0 L 6173.0,-210.0 L 6173.0,-171.0 L 6173.0,0.0 L 6121.0,0.0 L 6121.0,-512.0 L 6173.0,-512.0 L 6173.0,-256.0 L 6192.0,-288.0 L 6242.0,-320.0 L 6275.0,-320.0 L 6329.0,-320.0 L 6385.0,-250.0 L 6385.0,-183.0 M 6775.0,-390.0 L 6631.0,-128.0 L 6775.0,-128.0 L 6775.0,-390.0 M 6760.0,-448.0 L 6831.0,-448.0 L 6831.0,-128.0 L 6891.0,-128.0 L 6891.0,-64.0 L 6831.0,-64.0 L 6831.0,0.0 L 6775.0,0.0 L 6775.0,-64.0 L 6585.0,-64.0 L 6585.0,-130.0 L 6760.0,-448.0 M 7021.0,-384.0 L 7021.0,-320.0 L 7128.0,-320.0 L 7128.0,-256.0 L 7021.0,-256.0 L 7021.0,-114.0 L 7021.0,-82.0 L 7042.0,-64.0 L 7075.0,-64.0 L 7128.0,-64.0 L 7128.0,0.0 L 7075.0,0.0 L 7015.0,0.0 L 6969.0,-49.0 L 6969.0,-114.0 L 6969.0,-256.0 L 6931.0,-256.0 L 6931.0,-320.0 L 6969.0,-320.0 L 6969.0,-384.0 L 7021.0,-384.0 M 7432.0,-183.0 L 7432.0,0.0 L 7380.0,0.0 L 7380.0,-181.0 L 7380.0,-219.0 L 7345.0,-256.0 L 7310.0,-256.0 L 7268.0,-256.0 L 7220.0,-210.0 L 7220.0,-171.0 L 7220.0,0.0 L 7168.0,0.0 L 7168.0,-512.0 L 7220.0,-512.0 L 7220.0,-256.0 L 7239.0,-288.0 L 7289.0,-320.0 L 7322.0,-320.0 L 7376.0,-320.0 L 7432.0,-250.0 L 7432.0,-183.0 M 212.0,872.0 L 149.0,872.0 L 101.0,887.0 L 101.0,905.0 L 101.0,919.0 L 137.0,936.0 L 169.0,936.0 L 212.0,936.0 L 264.0,905.0 L 264.0,879.0 L 264.0,872.0 L 212.0,872.0 M 316.0,838.0 L 316.0,1000.0 L 264.0,1000.0 L 264.0,936.0 L 246.0,969.0 L 194.0,1000.0 L 155.0,1000.0 L 107.0,1000.0 L 50.0,950.0 L 50.0,907.0 L 50.0,858.0 L 121.0,808.0 L 191.0,808.0 L 264.0,808.0 L 264.0,802.0 L 264.0,774.0 L 217.0,744.0 L 175.0,744.0 L 148.0,744.0 L 97.0,744.0 L 73.0,744.0 L 73.0,680.0 L 101.0,680.0 L 155.0,680.0 L 180.0,680.0 L 249.0,680.0 L 316.0,758.0 L 316.0,838.0 M 620.0,817.0 L 620.0,1000.0 L 568.0,1000.0 L 568.0,819.0 L 568.0,781.0 L 533.0,744.0 L 498.0,744.0 L 456.0,744.0 L 408.0,790.0 L 408.0,829.0 L 408.0,1000.0 L 356.0,1000.0 L 356.0,680.0 L 408.0,680.0 L 408.0,744.0 L 427.0,712.0 L 477.0,680.0 L 510.0,680.0 L 564.0,680.0 L 620.0,750.0 L 620.0,817.0 M 890.0,744.0 L 890.0,488.0 L 941.0,488.0 L 941.0,1000.0 L 890.0,1000.0 L 890.0,936.0 L 874.0,968.0 L 824.0,1000.0 L 789.0,1000.0 L 732.0,1000.0 L 660.0,912.0 L 660.0,840.0 L 660.0,768.0 L 732.0,680.0 L 789.0,680.0 L 824.0,680.0 L 874.0,712.0 L 890.0,744.0 M 713.0,840.0 L 713.0,885.0 L 760.0,936.0 L 801.0,936.0 L 843.0,936.0 L 890.0,885.0 L 890.0,840.0 L 890.0,795.0 L 843.0,744.0 L 801.0,744.0 L 760.0,744.0 L 713.0,795.0 L 713.0,840.0 M 1405.0,817.0 L 1405.0,1000.0 L 1353.0,1000.0 L 1353.0,819.0 L 1353.0,781.0 L 1318.0,744.0 L 1283.0,744.0 L 1241.0,744.0 L 1193.0,790.0 L 1193.0,829.0 L 1193.0,1000.0 L 1141.0,1000.0 L 1141.0,680.0 L 1193.0,680.0 L 1193.0,744.0 L 1212.0,712.0 L 1262.0,680.0 L 1295.0,680.0 L 1349.0,680.0 L 1405.0,750.0 L 1405.0,817.0 M 1589.0,744.0 L 1547.0,744.0 L 1499.0,795.0 L 1499.0,840.0 L 1499.0,885.0 L 1547.0,936.0 L 1589.0,936.0 L 1631.0,936.0 L 1679.0,884.0 L 1679.0,840.0 L 1679.0,796.0 L 1631.0,744.0 L 1589.0,744.0 M 1589.0,680.0 L 1657.0,680.0 L 1734.0,765.0 L 1734.0,840.0 L 1734.0,915.0 L 1657.0,1000.0 L 1589.0,1000.0 L 1522.0,1000.0 L 1445.0,915.0 L 1445.0,840.0 L 1445.0,765.0 L 1522.0,680.0 L 1589.0,680.0 M 1774.0,680.0 L 1826.0,680.0 L 1891.0,930.0 L 1955.0,680.0 L 2016.0,680.0 L 2081.0,930.0 L 2145.0,680.0 L 2197.0,680.0 L 2115.0,1000.0 L 2053.0,1000.0 L 1986.0,738.0 L 1918.0,1000.0 L 1857.0,1000.0 L 1774.0,680.0 M 2397.0,680.0 L 2449.0,680.0 L 2449.0,1000.0 L 2397.0,1000.0 L 2397.0,680.0 M 2397.0,552.0 L 2449.0,552.0 L 2449.0,616.0 L 2397.0,616.0 L 2397.0,552.0 M 2579.0,616.0 L 2579.0,680.0 L 2686.0,680.0 L 2686.0,744.0 L 2579.0,744.0 L 2579.0,886.0 L 2579.0,918.0 L 2600.0,936.0 L 2633.0,936.0 L 2686.0,936.0 L 2686.0,1000.0 L 2633.0,1000.0 L 2573.0,1000.0 L 2527.0,951.0 L 2527.0,886.0 L 2527.0,744.0 L 2489.0,744.0 L 2489.0,680.0 L 2527.0,680.0 L 2527.0,616.0 L 2579.0,616.0 M 2749.0,552.0 L 2808.0,552.0 L 2808.0,593.0 L 2762.0,680.0 L 2726.0,680.0 L 2749.0,593.0 L 2749.0,552.0 M 3072.0,680.0 L 3072.0,744.0 L 3050.0,744.0 L 3003.0,744.0 L 2978.0,744.0 L 2939.0,744.0 L 2901.0,762.0 L 2901.0,780.0 L 2901.0,794.0 L 2928.0,810.0 L 2970.0,817.0 L 2987.0,821.0 L 3042.0,832.0 L 3089.0,873.0 L 3089.0,910.0 L 3089.0,951.0 L 3019.0,1000.0 L 2959.0,1000.0 L 2933.0,1000.0 L 2878.0,1000.0 L 2848.0,1000.0 L 2848.0,936.0 L 2877.0,936.0 L 2933.0,936.0 L 2960.0,936.0 L 2997.0,936.0 L 3036.0,918.0 L 3036.0,902.0 L 3036.0,887.0 L 3007.0,871.0 L 2959.0,864.0 L 2941.0,860.0 L 2893.0,850.0 L 2850.0,808.0 L 2850.0,772.0 L 2850.0,728.0 L 2913.0,680.0 L 2971.0,680.0 L 3000.0,680.0 L 3051.0,680.0 L 3072.0,680.0 M 3316.0,1000.0 L 3316.0,936.0 L 3337.0,936.0 L 3381.0,936.0 L 3402.0,936.0 L 3458.0,936.0 L 3518.0,839.0 L 3522.0,740.0 L 3506.0,773.0 L 3456.0,808.0 L 3425.0,808.0 L 3362.0,808.0 L 3289.0,740.0 L 3289.0,680.0 L 3289.0,622.0 L 3366.0,552.0 L 3429.0,552.0 L 3502.0,552.0 L 3579.0,667.0 L 3579.0,776.0 L 3579.0,878.0 L 3485.0,1000.0 L 3405.0,1000.0 L 3384.0,1000.0 L 3340.0,1000.0 L 3316.0,1000.0 M 3429.0,744.0 L 3467.0,744.0 L 3512.0,710.0 L 3512.0,680.0 L 3512.0,650.0 L 3467.0,616.0 L 3429.0,616.0 L 3391.0,616.0 L 3346.0,650.0 L 3346.0,680.0 L 3346.0,710.0 L 3391.0,744.0 L 3429.0,744.0 M 3619.0,936.0 L 3678.0,936.0 L 3678.0,1000.0 L 3619.0,1000.0 L 3619.0,936.0 M 3619.0,680.0 L 3678.0,680.0 L 3678.0,744.0 L 3619.0,744.0 L 3619.0,680.0 M 3726.0,936.0 L 3819.0,936.0 L 3819.0,616.0 L 3718.0,616.0 L 3718.0,552.0 L 3819.0,552.0 L 3876.0,552.0 L 3876.0,936.0 L 3968.0,936.0 L 3968.0,1000.0 L 3726.0,1000.0 L 3726.0,936.0 M 4026.0,552.0 L 4249.0,552.0 L 4249.0,616.0 L 4078.0,616.0 L 4078.0,755.0 L 4090.0,749.0 L 4115.0,744.0 L 4128.0,744.0 L 4198.0,744.0 L 4280.0,813.0 L 4280.0,872.0 L 4280.0,933.0 L 4196.0,1000.0 L 4119.0,1000.0 L 4092.0,1000.0 L 4037.0,1000.0 L 4008.0,1000.0 L 4008.0,936.0 L 4033.0,936.0 L 4087.0,936.0 L 4117.0,936.0 L 4166.0,936.0 L 4223.0,902.0 L 4223.0,872.0 L 4223.0,842.0 L 4166.0,808.0 L 4118.0,808.0 L 4095.0,808.0 L 4050.0,808.0 L 4026.0,808.0 L 4026.0,552.0 M 4536.0,616.0 L 4536.0,744.0 L 4608.0,744.0 L 4648.0,744.0 L 4691.0,711.0 L 4691.0,680.0 L 4691.0,649.0 L 4648.0,616.0 L 4608.0,616.0 L 4536.0,616.0 M 4480.0,552.0 L 4608.0,552.0 L 4679.0,552.0 L 4751.0,617.0 L 4751.0,680.0 L 4751.0,743.0 L 4679.0,808.0 L 4608.0,808.0 L 4536.0,808.0 L 4536.0,1000.0 L 4480.0,1000.0 L 4480.0,552.0 M 4791.0,552.0 L 4875.0,552.0 L 4982.0,876.0 L 5090.0,552.0 L 5175.0,552.0 L 5175.0,1000.0 L 5119.0,1000.0 L 5119.0,610.0 L 5011.0,936.0 L 4954.0,936.0 L 4846.0,610.0 L 4846.0,1000.0 L 4791.0,1000.0 L 4791.0,552.0 M 5215.0,936.0 L 5274.0,936.0 L 5274.0,1000.0 L 5215.0,1000.0 L 5215.0,936.0 M 5474.0,552.0 L 5830.0,552.0 L 5830.0,616.0 L 5680.0,616.0 L 5680.0,1000.0 L 5623.0,1000.0 L 5623.0,616.0 L 5474.0,616.0 L 5474.0,552.0 M 6134.0,817.0 L 6134.0,1000.0 L 6082.0,1000.0 L 6082.0,819.0 L 6082.0,781.0 L 6047.0,744.0 L 6012.0,744.0 L 5970.0,744.0 L 5922.0,790.0 L 5922.0,829.0 L 5922.0,1000.0 L 5870.0,1000.0 L 5870.0,488.0 L 5922.0,488.0 L 5922.0,744.0 L 5941.0,712.0 L 5991.0,680.0 L 6024.0,680.0 L 6078.0,680.0 L 6134.0,750.0 L 6134.0,817.0 M 6174.0,680.0 L 6226.0,680.0 L 6226.0,1000.0 L 6174.0,1000.0 L 6174.0,680.0 M 6174.0,552.0 L 6226.0,552.0 L 6226.0,616.0 L 6174.0,616.0 L 6174.0,552.0 M 6490.0,680.0 L 6490.0,744.0 L 6468.0,744.0 L 6421.0,744.0 L 6396.0,744.0 L 6357.0,744.0 L 6319.0,762.0 L 6319.0,780.0 L 6319.0,794.0 L 6346.0,810.0 L 6388.0,817.0 L 6405.0,821.0 L 6460.0,832.0 L 6507.0,873.0 L 6507.0,910.0 L 6507.0,951.0 L 6437.0,1000.0 L 6377.0,1000.0 L 6351.0,1000.0 L 6296.0,1000.0 L 6266.0,1000.0 L 6266.0,936.0 L 6295.0,936.0 L 6351.0,936.0 L 6378.0,936.0 L 6415.0,936.0 L 6454.0,918.0 L 6454.0,902.0 L 6454.0,887.0 L 6425.0,871.0 L 6377.0,864.0 L 6359.0,860.0 L 6311.0,850.0 L 6268.0,808.0 L 6268.0,772.0 L 6268.0,728.0 L 6331.0,680.0 L 6389.0,680.0 L 6418.0,680.0 L 6469.0,680.0 L 6490.0,680.0 M 6707.0,680.0 L 6759.0,680.0 L 6759.0,1000.0 L 6707.0,1000.0 L 6707.0,680.0 M 6707.0,552.0 L 6759.0,552.0 L 6759.0,616.0 L 6707.0,616.0 L 6707.0,552.0 M 7023.0,680.0 L 7023.0,744.0 L 7001.0,744.0 L 6954.0,744.0 L 6929.0,744.0 L 6890.0,744.0 L 6852.0,762.0 L 6852.0,780.0 L 6852.0,794.0 L 6879.0,810.0 L 6921.0,817.0 L 6938.0,821.0 L 6993.0,832.0 L 7040.0,873.0 L 7040.0,910.0 L 7040.0,951.0 L 6970.0,1000.0 L 6910.0,1000.0 L 6884.0,1000.0 L 6829.0,1000.0 L 6799.0,1000.0 L 6799.0,936.0 L 6828.0,936.0 L 6884.0,936.0 L 6911.0,936.0 L 6948.0,936.0 L 6987.0,918.0 L 6987.0,902.0 L 6987.0,887.0 L 6958.0,871.0 L 6910.0,864.0 L 6892.0,860.0 L 6844.0,850.0 L 6801.0,808.0 L 6801.0,772.0 L 6801.0,728.0 L 6864.0,680.0 L 6922.0,680.0 L 6951.0,680.0 L 7002.0,680.0 L 7023.0,680.0 M 320.0,1616.0 L 320.0,1680.0 L 288.0,1648.0 L 230.0,1616.0 L 204.0,1616.0 L 157.0,1616.0 L 107.0,1653.0 L 107.0,1687.0 L 107.0,1715.0 L 140.0,1744.0 L 187.0,1753.0 L 222.0,1758.0 L 286.0,1770.0 L 346.0,1829.0 L 346.0,1879.0 L 346.0,1939.0 L 264.0,2000.0 L 185.0,2000.0 L 155.0,2000.0 L 88.0,1968.0 L 52.0,1936.0 L 52.0,1872.0 L 87.0,1904.0 L 153.0,1936.0 L 185.0,1936.0 L 233.0,1936.0 L 286.0,1900.0 L 286.0,1866.0 L 286.0,1836.0 L 248.0,1803.0 L 205.0,1795.0 L 170.0,1791.0 L 107.0,1778.0 L 50.0,1723.0 L 50.0,1674.0 L 50.0,1617.0 L 128.0,1552.0 L 197.0,1552.0 L 227.0,1552.0 L 288.0,1584.0 L 320.0,1616.0 M 678.0,1832.0 L 678.0,1872.0 L 440.0,1872.0 L 443.0,1903.0 L 501.0,1936.0 L 553.0,1936.0 L 582.0,1936.0 L 638.0,1936.0 L 666.0,1936.0 L 666.0,2000.0 L 638.0,2000.0 L 580.0,2000.0 L 549.0,2000.0 L 474.0,2000.0 L 386.0,1915.0 L 386.0,1843.0 L 386.0,1768.0 L 470.0,1680.0 L 540.0,1680.0 L 604.0,1680.0 L 678.0,1762.0 L 678.0,1832.0 M 626.0,1808.0 L 625.0,1779.0 L 579.0,1744.0 L 541.0,1744.0 L 497.0,1744.0 L 445.0,1778.0 L 441.0,1809.0 L 626.0,1808.0 M 880.0,1872.0 L 817.0,1872.0 L 769.0,1887.0 L 769.0,1905.0 L 769.0,1919.0 L 805.0,1936.0 L 837.0,1936.0 L 880.0,1936.0 L 932.0,1905.0 L 932.0,1879.0 L 932.0,1872.0 L 880.0,1872.0 M 984.0,1838.0 L 984.0,2000.0 L 932.0,2000.0 L 932.0,1936.0 L 914.0,1969.0 L 862.0,2000.0 L 823.0,2000.0 L 775.0,2000.0 L 718.0,1950.0 L 718.0,1907.0 L 718.0,1858.0 L 789.0,1808.0 L 859.0,1808.0 L 932.0,1808.0 L 932.0,1802.0 L 932.0,1774.0 L 885.0,1744.0 L 843.0,1744.0 L 816.0,1744.0 L 765.0,1744.0 L 741.0,1744.0 L 741.0,1680.0 L 769.0,1680.0 L 823.0,1680.0 L 848.0,1680.0 L 917.0,1680.0 L 984.0,1758.0 L 984.0,1838.0 M 1288.0,1817.0 L 1288.0,2000.0 L 1236.0,2000.0 L 1236.0,1819.0 L 1236.0,1781.0 L 1201.0,1744.0 L 1166.0,1744.0 L 1124.0,1744.0 L 1076.0,1790.0 L 1076.0,1829.0 L 1076.0,2000.0 L 1024.0,2000.0 L 1024.0,1680.0 L 1076.0,1680.0 L 1076.0,1744.0 L 1095.0,1712.0 L 1145.0,1680.0 L 1178.0,1680.0 L 1232.0,1680.0 L 1288.0,1750.0 L 1288.0,1817.0 M 1650.0,1872.0 L 1587.0,1872.0 L 1539.0,1887.0 L 1539.0,1905.0 L 1539.0,1919.0 L 1575.0,1936.0 L 1607.0,1936.0 L 1650.0,1936.0 L 1702.0,1905.0 L 1702.0,1879.0 L 1702.0,1872.0 L 1650.0,1872.0 M 1754.0,1838.0 L 1754.0,2000.0 L 1702.0,2000.0 L 1702.0,1936.0 L 1684.0,1969.0 L 1632.0,2000.0 L 1593.0,2000.0 L 1545.0,2000.0 L 1488.0,1950.0 L 1488.0,1907.0 L 1488.0,1858.0 L 1559.0,1808.0 L 1629.0,1808.0 L 1702.0,1808.0 L 1702.0,1802.0 L 1702.0,1774.0 L 1655.0,1744.0 L 1613.0,1744.0 L 1586.0,1744.0 L 1535.0,1744.0 L 1511.0,1744.0 L 1511.0,1680.0 L 1539.0,1680.0 L 1593.0,1680.0 L 1618.0,1680.0 L 1687.0,1680.0 L 1754.0,1758.0 L 1754.0,1838.0 M 2058.0,1817.0 L 2058.0,2000.0 L 2006.0,2000.0 L 2006.0,1819.0 L 2006.0,1781.0 L 1971.0,1744.0 L 1936.0,1744.0 L 1894.0,1744.0 L 1846.0,1790.0 L 1846.0,1829.0 L 1846.0,2000.0 L 1794.0,2000.0 L 1794.0,1680.0 L 1846.0,1680.0 L 1846.0,1744.0 L 1865.0,1712.0 L 1915.0,1680.0 L 1948.0,1680.0 L 2002.0,1680.0 L 2058.0,1750.0 L 2058.0,1817.0 M 2328.0,1744.0 L 2328.0,1488.0 L 2379.0,1488.0 L 2379.0,2000.0 L 2328.0,2000.0 L 2328.0,1936.0 L 2312.0,1968.0 L 2262.0,2000.0 L 2227.0,2000.0 L 2170.0,2000.0 L 2098.0,1912.0 L 2098.0,1840.0 L 2098.0,1768.0 L 2170.0,1680.0 L 2227.0,1680.0 L 2262.0,1680.0 L 2312.0,1712.0 L 2328.0,1744.0 M 2151.0,1840.0 L 2151.0,1885.0 L 2198.0,1936.0 L 2239.0,1936.0 L 2281.0,1936.0 L 2328.0,1885.0 L 2328.0,1840.0 L 2328.0,1795.0 L 2281.0,1744.0 L 2239.0,1744.0 L 2198.0,1744.0 L 2151.0,1795.0 L 2151.0,1840.0 M 2669.0,1616.0 L 2669.0,1680.0 L 2776.0,1680.0 L 2776.0,1744.0 L 2669.0,1744.0 L 2669.0,1886.0 L 2669.0,1918.0 L 2690.0,1936.0 L 2723.0,1936.0 L 2776.0,1936.0 L 2776.0,2000.0 L 2723.0,2000.0 L 2663.0,2000.0 L 2617.0,1951.0 L 2617.0,1886.0 L 2617.0,1744.0 L 2579.0,1744.0 L 2579.0,1680.0 L 2617.0,1680.0 L 2617.0,1616.0 L 2669.0,1616.0 M 2960.0,1744.0 L 2918.0,1744.0 L 2870.0,1795.0 L 2870.0,1840.0 L 2870.0,1885.0 L 2918.0,1936.0 L 2960.0,1936.0 L 3002.0,1936.0 L 3050.0,1884.0 L 3050.0,1840.0 L 3050.0,1796.0 L 3002.0,1744.0 L 2960.0,1744.0 M 2960.0,1680.0 L 3028.0,1680.0 L 3105.0,1765.0 L 3105.0,1840.0 L 3105.0,1915.0 L 3028.0,2000.0 L 2960.0,2000.0 L 2893.0,2000.0 L 2816.0,1915.0 L 2816.0,1840.0 L 2816.0,1765.0 L 2893.0,1680.0 L 2960.0,1680.0 M 3393.0,1755.0 L 3412.0,1717.0 L 3466.0,1680.0 L 3503.0,1680.0 L 3552.0,1680.0 L 3605.0,1751.0 L 3605.0,1817.0 L 3605.0,2000.0 L 3553.0,2000.0 L 3553.0,1819.0 L 3553.0,1781.0 L 3521.0,1744.0 L 3488.0,1744.0 L 3448.0,1744.0 L 3401.0,1790.0 L 3401.0,1829.0 L 3401.0,2000.0 L 3349.0,2000.0 L 3349.0,1819.0 L 3349.0,1781.0 L 3317.0,1744.0 L 3283.0,1744.0 L 3244.0,1744.0 L 3197.0,1790.0 L 3197.0,1829.0 L 3197.0,2000.0 L 3145.0,2000.0 L 3145.0,1680.0 L 3197.0,1680.0 L 3197.0,1744.0 L 3215.0,1711.0 L 3264.0,1680.0 L 3299.0,1680.0 L 3333.0,1680.0 L 3381.0,1718.0 L 3393.0,1755.0 M 3789.0,1744.0 L 3747.0,1744.0 L 3699.0,1795.0 L 3699.0,1840.0 L 3699.0,1885.0 L 3747.0,1936.0 L 3789.0,1936.0 L 3831.0,1936.0 L 3879.0,1884.0 L 3879.0,1840.0 L 3879.0,1796.0 L 3831.0,1744.0 L 3789.0,1744.0 M 3789.0,1680.0 L 3857.0,1680.0 L 3934.0,1765.0 L 3934.0,1840.0 L 3934.0,1915.0 L 3857.0,2000.0 L 3789.0,2000.0 L 3722.0,2000.0 L 3645.0,1915.0 L 3645.0,1840.0 L 3645.0,1765.0 L 3722.0,1680.0 L 3789.0,1680.0 M 4159.0,1744.0 L 4150.0,1744.0 L 4130.0,1744.0 L 4117.0,1744.0 L 4073.0,1744.0 L 4026.0,1794.0 L 4026.0,1840.0 L 4026.0,2000.0 L 3974.0,2000.0 L 3974.0,1680.0 L 4026.0,1680.0 L 4026.0,1744.0 L 4042.0,1712.0 L 4095.0,1680.0 L 4132.0,1680.0 L 4138.0,1680.0 L 4151.0,1680.0 L 4159.0,1680.0 L 4159.0,1744.0 M 4384.0,1744.0 L 4375.0,1744.0 L 4355.0,1744.0 L 4342.0,1744.0 L 4298.0,1744.0 L 4251.0,1794.0 L 4251.0,1840.0 L 4251.0,2000.0 L 4199.0,2000.0 L 4199.0,1680.0 L 4251.0,1680.0 L 4251.0,1744.0 L 4267.0,1712.0 L 4320.0,1680.0 L 4357.0,1680.0 L 4363.0,1680.0 L 4376.0,1680.0 L 4384.0,1680.0 L 4384.0,1744.0 M 4568.0,1744.0 L 4526.0,1744.0 L 4478.0,1795.0 L 4478.0,1840.0 L 4478.0,1885.0 L 4526.0,1936.0 L 4568.0,1936.0 L 4610.0,1936.0 L 4658.0,1884.0 L 4658.0,1840.0 L 4658.0,1796.0 L 4610.0,1744.0 L 4568.0,1744.0 M 4568.0,1680.0 L 4636.0,1680.0 L 4713.0,1765.0 L 4713.0,1840.0 L 4713.0,1915.0 L 4636.0,2000.0 L 4568.0,2000.0 L 4501.0,2000.0 L 4424.0,1915.0 L 4424.0,1840.0 L 4424.0,1765.0 L 4501.0,1680.0 L 4568.0,1680.0 M 4753.0,1680.0 L 4805.0,1680.0 L 4870.0,1930.0 L 4934.0,1680.0 L 4995.0,1680.0 L 5060.0,1930.0 L 5124.0,1680.0 L 5176.0,1680.0 L 5094.0,2000.0 L 5032.0,2000.0 L 4965.0,1738.0 L 4897.0,2000.0 L 4836.0,2000.0 L 4753.0,1680.0 M 5376.0,1680.0 L 5428.0,1680.0 L 5493.0,1930.0 L 5557.0,1680.0 L 5618.0,1680.0 L 5683.0,1930.0 L 5747.0,1680.0 L 5799.0,1680.0 L 5717.0,2000.0 L 5655.0,2000.0 L 5588.0,1738.0 L 5520.0,2000.0 L 5459.0,2000.0 L 5376.0,1680.0 M 5839.0,1680.0 L 5891.0,1680.0 L 5891.0,2000.0 L 5839.0,2000.0 L 5839.0,1680.0 M 5839.0,1552.0 L 5891.0,1552.0 L 5891.0,1616.0 L 5839.0,1616.0 L 5839.0,1552.0 M 5931.0,1488.0 L 5983.0,1488.0 L 5983.0,2000.0 L 5931.0,2000.0 L 5931.0,1488.0 M 6023.0,1488.0 L 6075.0,1488.0 L 6075.0,2000.0 L 6023.0,2000.0 L 6023.0,1488.0 M 6503.0,1840.0 L 6503.0,1795.0 L 6456.0,1744.0 L 6415.0,1744.0 L 6374.0,1744.0 L 6327.0,1795.0 L 6327.0,1840.0 L 6327.0,1885.0 L 6374.0,1936.0 L 6415.0,1936.0 L 6456.0,1936.0 L 6503.0,1885.0 L 6503.0,1840.0 M 6327.0,1744.0 L 6343.0,1712.0 L 6393.0,1680.0 L 6428.0,1680.0 L 6485.0,1680.0 L 6557.0,1768.0 L 6557.0,1840.0 L 6557.0,1912.0 L 6485.0,2000.0 L 6428.0,2000.0 L 6393.0,2000.0 L 6343.0,1968.0 L 6327.0,1936.0 L 6327.0,2000.0 L 6275.0,2000.0 L 6275.0,1488.0 L 6327.0,1488.0 L 6327.0,1744.0 M 6889.0,1832.0 L 6889.0,1872.0 L 6651.0,1872.0 L 6654.0,1903.0 L 6712.0,1936.0 L 6764.0,1936.0 L 6793.0,1936.0 L 6849.0,1936.0 L 6877.0,1936.0 L 6877.0,2000.0 L 6849.0,2000.0 L 6791.0,2000.0 L 6760.0,2000.0 L 6685.0,2000.0 L 6597.0,1915.0 L 6597.0,1843.0 L 6597.0,1768.0 L 6681.0,1680.0 L 6751.0,1680.0 L 6815.0,1680.0 L 6889.0,1762.0 L 6889.0,1832.0 M 6837.0,1808.0 L 6836.0,1779.0 L 6790.0,1744.0 L 6752.0,1744.0 L 6708.0,1744.0 L 6656.0,1778.0 L 6652.0,1809.0 L 6837.0,1808.0 M 194.0,2744.0 L 152.0,2744.0 L 104.0,2795.0 L 104.0,2840.0 L 104.0,2885.0 L 152.0,2936.0 L 194.0,2936.0 L 236.0,2936.0 L 284.0,2884.0 L 284.0,2840.0 L 284.0,2796.0 L 236.0,2744.0 L 194.0,2744.0 M 194.0,2680.0 L 262.0,2680.0 L 339.0,2765.0 L 339.0,2840.0 L 339.0,2915.0 L 262.0,3000.0 L 194.0,3000.0 L 127.0,3000.0 L 50.0,2915.0 L 50.0,2840.0 L 50.0,2765.0 L 127.0,2680.0 L 194.0,2680.0 M 379.0,2863.0 L 379.0,2680.0 L 431.0,2680.0 L 431.0,2861.0 L 431.0,2898.0 L 466.0,2936.0 L 501.0,2936.0 L 542.0,2936.0 L 591.0,2890.0 L 591.0,2851.0 L 591.0,2680.0 L 643.0,2680.0 L 643.0,3000.0 L 591.0,3000.0 L 591.0,2936.0 L 572.0,2968.0 L 522.0,3000.0 L 490.0,3000.0 L 435.0,3000.0 L 379.0,2930.0 L 379.0,2863.0 M 868.0,2744.0 L 859.0,2744.0 L 839.0,2744.0 L 826.0,2744.0 L 782.0,2744.0 L 735.0,2794.0 L 735.0,2840.0 L 735.0,3000.0 L 683.0,3000.0 L 683.0,2680.0 L 735.0,2680.0 L 735.0,2744.0 L 751.0,2712.0 L 804.0,2680.0 L 841.0,2680.0 L 847.0,2680.0 L 860.0,2680.0 L 868.0,2680.0 L 868.0,2744.0 M 1298.0,2744.0 L 1298.0,2488.0 L 1349.0,2488.0 L 1349.0,3000.0 L 1298.0,3000.0 L 1298.0,2936.0 L 1282.0,2968.0 L 1232.0,3000.0 L 1197.0,3000.0 L 1140.0,3000.0 L 1068.0,2912.0 L 1068.0,2840.0 L 1068.0,2768.0 L 1140.0,2680.0 L 1197.0,2680.0 L 1232.0,2680.0 L 1282.0,2712.0 L 1298.0,2744.0 M 1121.0,2840.0 L 1121.0,2885.0 L 1168.0,2936.0 L 1209.0,2936.0 L 1251.0,2936.0 L 1298.0,2885.0 L 1298.0,2840.0 L 1298.0,2795.0 L 1251.0,2744.0 L 1209.0,2744.0 L 1168.0,2744.0 L 1121.0,2795.0 L 1121.0,2840.0 M 1681.0,2832.0 L 1681.0,2872.0 L 1443.0,2872.0 L 1446.0,2903.0 L 1504.0,2936.0 L 1556.0,2936.0 L 1585.0,2936.0 L 1641.0,2936.0 L 1669.0,2936.0 L 1669.0,3000.0 L 1641.0,3000.0 L 1583.0,3000.0 L 1552.0,3000.0 L 1477.0,3000.0 L 1389.0,2915.0 L 1389.0,2843.0 L 1389.0,2768.0 L 1473.0,2680.0 L 1543.0,2680.0 L 1607.0,2680.0 L 1681.0,2762.0 L 1681.0,2832.0 M 1629.0,2808.0 L 1628.0,2779.0 L 1582.0,2744.0 L 1544.0,2744.0 L 1500.0,2744.0 L 1448.0,2778.0 L 1444.0,2809.0 L 1629.0,2808.0 M 1969.0,2755.0 L 1988.0,2717.0 L 2042.0,2680.0 L 2079.0,2680.0 L 2128.0,2680.0 L 2181.0,2751.0 L 2181.0,2817.0 L 2181.0,3000.0 L 2129.0,3000.0 L 2129.0,2819.0 L 2129.0,2781.0 L 2097.0,2744.0 L 2064.0,2744.0 L 2024.0,2744.0 L 1977.0,2790.0 L 1977.0,2829.0 L 1977.0,3000.0 L 1925.0,3000.0 L 1925.0,2819.0 L 1925.0,2781.0 L 1893.0,2744.0 L 1859.0,2744.0 L 1820.0,2744.0 L 1773.0,2790.0 L 1773.0,2829.0 L 1773.0,3000.0 L 1721.0,3000.0 L 1721.0,2680.0 L 1773.0,2680.0 L 1773.0,2744.0 L 1791.0,2711.0 L 1840.0,2680.0 L 1875.0,2680.0 L 1909.0,2680.0 L 1957.0,2718.0 L 1969.0,2755.0 M 2365.0,2744.0 L 2323.0,2744.0 L 2275.0,2795.0 L 2275.0,2840.0 L 2275.0,2885.0 L 2323.0,2936.0 L 2365.0,2936.0 L 2407.0,2936.0 L 2455.0,2884.0 L 2455.0,2840.0 L 2455.0,2796.0 L 2407.0,2744.0 L 2365.0,2744.0 M 2365.0,2680.0 L 2433.0,2680.0 L 2510.0,2765.0 L 2510.0,2840.0 L 2510.0,2915.0 L 2433.0,3000.0 L 2365.0,3000.0 L 2298.0,3000.0 L 2221.0,2915.0 L 2221.0,2840.0 L 2221.0,2765.0 L 2298.0,2680.0 L 2365.0,2680.0 M 2940.0,2744.0 L 2940.0,2488.0 L 2991.0,2488.0 L 2991.0,3000.0 L 2940.0,3000.0 L 2940.0,2936.0 L 2924.0,2968.0 L 2874.0,3000.0 L 2839.0,3000.0 L 2782.0,3000.0 L 2710.0,2912.0 L 2710.0,2840.0 L 2710.0,2768.0 L 2782.0,2680.0 L 2839.0,2680.0 L 2874.0,2680.0 L 2924.0,2712.0 L 2940.0,2744.0 M 2763.0,2840.0 L 2763.0,2885.0 L 2810.0,2936.0 L 2851.0,2936.0 L 2893.0,2936.0 L 2940.0,2885.0 L 2940.0,2840.0 L 2940.0,2795.0 L 2893.0,2744.0 L 2851.0,2744.0 L 2810.0,2744.0 L 2763.0,2795.0 L 2763.0,2840.0 M 3193.0,2872.0 L 3130.0,2872.0 L 3082.0,2887.0 L 3082.0,2905.0 L 3082.0,2919.0 L 3118.0,2936.0 L 3150.0,2936.0 L 3193.0,2936.0 L 3245.0,2905.0 L 3245.0,2879.0 L 3245.0,2872.0 L 3193.0,2872.0 M 3297.0,2838.0 L 3297.0,3000.0 L 3245.0,3000.0 L 3245.0,2936.0 L 3227.0,2969.0 L 3175.0,3000.0 L 3136.0,3000.0 L 3088.0,3000.0 L 3031.0,2950.0 L 3031.0,2907.0 L 3031.0,2858.0 L 3102.0,2808.0 L 3172.0,2808.0 L 3245.0,2808.0 L 3245.0,2802.0 L 3245.0,2774.0 L 3198.0,2744.0 L 3156.0,2744.0 L 3129.0,2744.0 L 3078.0,2744.0 L 3054.0,2744.0 L 3054.0,2680.0 L 3082.0,2680.0 L 3136.0,2680.0 L 3161.0,2680.0 L 3230.0,2680.0 L 3297.0,2758.0 L 3297.0,2838.0 M 3505.0,3018.0 L 3483.0,3086.0 L 3442.0,3128.0 L 3407.0,3128.0 L 3366.0,3128.0 L 3366.0,3064.0 L 3396.0,3064.0 L 3417.0,3064.0 L 3441.0,3047.0 L 3455.0,3016.0 L 3465.0,2992.0 L 3337.0,2680.0 L 3392.0,2680.0 L 3490.0,2930.0 L 3589.0,2680.0 L 3644.0,2680.0 L 3505.0,3018.0 M 3684.0,2936.0 L 3743.0,2936.0 L 3743.0,3000.0 L 3684.0,3000.0 L 3684.0,2936.0 M 3943.0,2552.0 L 3999.0,2552.0 L 3999.0,3000.0 L 3943.0,3000.0 L 3943.0,2552.0 M 4129.0,2616.0 L 4129.0,2680.0 L 4236.0,2680.0 L 4236.0,2744.0 L 4129.0,2744.0 L 4129.0,2886.0 L 4129.0,2918.0 L 4150.0,2936.0 L 4183.0,2936.0 L 4236.0,2936.0 L 4236.0,3000.0 L 4183.0,3000.0 L 4123.0,3000.0 L 4077.0,2951.0 L 4077.0,2886.0 L 4077.0,2744.0 L 4039.0,2744.0 L 4039.0,2680.0 L 4077.0,2680.0 L 4077.0,2616.0 L 4129.0,2616.0 M 4700.0,2817.0 L 4700.0,3000.0 L 4648.0,3000.0 L 4648.0,2819.0 L 4648.0,2781.0 L 4613.0,2744.0 L 4578.0,2744.0 L 4536.0,2744.0 L 4488.0,2790.0 L 4488.0,2829.0 L 4488.0,3000.0 L 4436.0,3000.0 L 4436.0,2488.0 L 4488.0,2488.0 L 4488.0,2744.0 L 4507.0,2712.0 L 4557.0,2680.0 L 4590.0,2680.0 L 4644.0,2680.0 L 4700.0,2750.0 L 4700.0,2817.0 M 4902.0,2872.0 L 4839.0,2872.0 L 4791.0,2887.0 L 4791.0,2905.0 L 4791.0,2919.0 L 4827.0,2936.0 L 4859.0,2936.0 L 4902.0,2936.0 L 4954.0,2905.0 L 4954.0,2879.0 L 4954.0,2872.0 L 4902.0,2872.0 M 5006.0,2838.0 L 5006.0,3000.0 L 4954.0,3000.0 L 4954.0,2936.0 L 4936.0,2969.0 L 4884.0,3000.0 L 4845.0,3000.0 L 4797.0,3000.0 L 4740.0,2950.0 L 4740.0,2907.0 L 4740.0,2858.0 L 4811.0,2808.0 L 4881.0,2808.0 L 4954.0,2808.0 L 4954.0,2802.0 L 4954.0,2774.0 L 4907.0,2744.0 L 4865.0,2744.0 L 4838.0,2744.0 L 4787.0,2744.0 L 4763.0,2744.0 L 4763.0,2680.0 L 4791.0,2680.0 L 4845.0,2680.0 L 4870.0,2680.0 L 4939.0,2680.0 L 5006.0,2758.0 L 5006.0,2838.0 M 5270.0,2680.0 L 5270.0,2744.0 L 5248.0,2744.0 L 5201.0,2744.0 L 5176.0,2744.0 L 5137.0,2744.0 L 5099.0,2762.0 L 5099.0,2780.0 L 5099.0,2794.0 L 5126.0,2810.0 L 5168.0,2817.0 L 5185.0,2821.0 L 5240.0,2832.0 L 5287.0,2873.0 L 5287.0,2910.0 L 5287.0,2951.0 L 5217.0,3000.0 L 5157.0,3000.0 L 5131.0,3000.0 L 5076.0,3000.0 L 5046.0,3000.0 L 5046.0,2936.0 L 5075.0,2936.0 L 5131.0,2936.0 L 5158.0,2936.0 L 5195.0,2936.0 L 5234.0,2918.0 L 5234.0,2902.0 L 5234.0,2887.0 L 5205.0,2871.0 L 5157.0,2864.0 L 5139.0,2860.0 L 5091.0,2850.0 L 5048.0,2808.0 L 5048.0,2772.0 L 5048.0,2728.0 L 5111.0,2680.0 L 5169.0,2680.0 L 5198.0,2680.0 L 5249.0,2680.0 L 5270.0,2680.0 M 5577.0,2616.0 L 5577.0,2680.0 L 5684.0,2680.0 L 5684.0,2744.0 L 5577.0,2744.0 L 5577.0,2886.0 L 5577.0,2918.0 L 5598.0,2936.0 L 5631.0,2936.0 L 5684.0,2936.0 L 5684.0,3000.0 L 5631.0,3000.0 L 5571.0,3000.0 L 5525.0,2951.0 L 5525.0,2886.0 L 5525.0,2744.0 L 5487.0,2744.0 L 5487.0,2680.0 L 5525.0,2680.0 L 5525.0,2616.0 L 5577.0,2616.0 M 5868.0,2744.0 L 5826.0,2744.0 L 5778.0,2795.0 L 5778.0,2840.0 L 5778.0,2885.0 L 5826.0,2936.0 L 5868.0,2936.0 L 5910.0,2936.0 L 5958.0,2884.0 L 5958.0,2840.0 L 5958.0,2796.0 L 5910.0,2744.0 L 5868.0,2744.0 M 5868.0,2680.0 L 5936.0,2680.0 L 6013.0,2765.0 L 6013.0,2840.0 L 6013.0,2915.0 L 5936.0,3000.0 L 5868.0,3000.0 L 5801.0,3000.0 L 5724.0,2915.0 L 5724.0,2840.0 L 5724.0,2765.0 L 5801.0,2680.0 L 5868.0,2680.0 M 6441.0,2840.0 L 6441.0,2795.0 L 6394.0,2744.0 L 6353.0,2744.0 L 6312.0,2744.0 L 6265.0,2795.0 L 6265.0,2840.0 L 6265.0,2885.0 L 6312.0,2936.0 L 6353.0,2936.0 L 6394.0,2936.0 L 6441.0,2885.0 L 6441.0,2840.0 M 6265.0,2744.0 L 6281.0,2712.0 L 6331.0,2680.0 L 6366.0,2680.0 L 6423.0,2680.0 L 6495.0,2768.0 L 6495.0,2840.0 L 6495.0,2912.0 L 6423.0,3000.0 L 6366.0,3000.0 L 6331.0,3000.0 L 6281.0,2968.0 L 6265.0,2936.0 L 6265.0,3000.0 L 6213.0,3000.0 L 6213.0,2488.0 L 6265.0,2488.0 L 6265.0,2744.0 M 6827.0,2832.0 L 6827.0,2872.0 L 6589.0,2872.0 L 6592.0,2903.0 L 6650.0,2936.0 L 6702.0,2936.0 L 6731.0,2936.0 L 6787.0,2936.0 L 6815.0,2936.0 L 6815.0,3000.0 L 6787.0,3000.0 L 6729.0,3000.0 L 6698.0,3000.0 L 6623.0,3000.0 L 6535.0,2915.0 L 6535.0,2843.0 L 6535.0,2768.0 L 6619.0,2680.0 L 6689.0,2680.0 L 6753.0,2680.0 L 6827.0,2762.0 L 6827.0,2832.0 M 6775.0,2808.0 L 6774.0,2779.0 L 6728.0,2744.0 L 6690.0,2744.0 L 6646.0,2744.0 L 6594.0,2778.0 L 6590.0,2809.0 L 6775.0,2808.0 M 140.0,3616.0 L 140.0,3680.0 L 247.0,3680.0 L 247.0,3744.0 L 140.0,3744.0 L 140.0,3886.0 L 140.0,3918.0 L 161.0,3936.0 L 194.0,3936.0 L 247.0,3936.0 L 247.0,4000.0 L 194.0,4000.0 L 134.0,4000.0 L 88.0,3951.0 L 88.0,3886.0 L 88.0,3744.0 L 50.0,3744.0 L 50.0,3680.0 L 88.0,3680.0 L 88.0,3616.0 L 140.0,3616.0 M 472.0,3744.0 L 463.0,3744.0 L 443.0,3744.0 L 430.0,3744.0 L 386.0,3744.0 L 339.0,3794.0 L 339.0,3840.0 L 339.0,4000.0 L 287.0,4000.0 L 287.0,3680.0 L 339.0,3680.0 L 339.0,3744.0 L 355.0,3712.0 L 408.0,3680.0 L 445.0,3680.0 L 451.0,3680.0 L 464.0,3680.0 L 472.0,3680.0 L 472.0,3744.0 M 512.0,3863.0 L 512.0,3680.0 L 564.0,3680.0 L 564.0,3861.0 L 564.0,3898.0 L 599.0,3936.0 L 634.0,3936.0 L 675.0,3936.0 L 724.0,3890.0 L 724.0,3851.0 L 724.0,3680.0 L 776.0,3680.0 L 776.0,4000.0 L 724.0,4000.0 L 724.0,3936.0 L 705.0,3968.0 L 655.0,4000.0 L 623.0,4000.0 L 568.0,4000.0 L 512.0,3930.0 L 512.0,3863.0 M 1108.0,3832.0 L 1108.0,3872.0 L 870.0,3872.0 L 873.0,3903.0 L 931.0,3936.0 L 983.0,3936.0 L 1012.0,3936.0 L 1068.0,3936.0 L 1096.0,3936.0 L 1096.0,4000.0 L 1068.0,4000.0 L 1010.0,4000.0 L 979.0,4000.0 L 904.0,4000.0 L 816.0,3915.0 L 816.0,3843.0 L 816.0,3768.0 L 900.0,3680.0 L 970.0,3680.0 L 1034.0,3680.0 L 1108.0,3762.0 L 1108.0,3832.0 M 1056.0,3808.0 L 1055.0,3779.0 L 1009.0,3744.0 L 971.0,3744.0 L 927.0,3744.0 L 875.0,3778.0 L 871.0,3809.0 L 1056.0,3808.0 M 1148.0,3936.0 L 1207.0,3936.0 L 1207.0,4000.0 L 1148.0,4000.0 L 1148.0,3936.0" fill="none" stroke="#000000" stroke-width="7.382000000000001"/>
</svg>
