<?xml version="1.0" ?>
<svg xmlns="http://www.w3.org/2000/svg" xmlns:ev="http://www.w3.org/2001/xml-events" xmlns:xlink="http://www.w3.org/1999/xlink" baseProfile="full" height="286px" version="1.1" viewBox="-719.9305 -879.8305 9200.861 4375.661" width="600px">
	<defs/>
	<path d="M 50.0,-448.0 L 106.0,-448.0 L 106.0,-256.0 L 313.0,-256.0 L 313.0,-448.0 L 370.0,-448.0 L 370.0,0.0 L 313.0,0.0 L 313.0,-192.0 L 106.0,-192.0 L 106.0,0.0 L 50.0,0.0 L 50.0,-448.0 M 702.0,-168.0 L 702.0,-128.0 L 464.0,-128.0 L 467.0,-97.0 L 525.0,-64.0 L 577.0,-64.0 L 606.0,-64.0 L 662.0,-64.0 L 690.0,-64.0 L 690.0,0.0 L 662.0,0.0 L 604.0,0.0 L 573.0,0.0 L 498.0,0.0 L 410.0,-85.0 L 410.0,-157.0 L 410.0,-232.0 L 494.0,-320.0 L 564.0,-320.0 L 628.0,-320.0 L 702.0,-238.0 L 702.0,-168.0 M 650.0,-192.0 L 649.0,-221.0 L 603.0,-256.0 L 565.0,-256.0 L 521.0,-256.0 L 469.0,-222.0 L 465.0,-191.0 L 650.0,-192.0 M 742.0,-512.0 L 794.0,-512.0 L 794.0,0.0 L 742.0,0.0 L 742.0,-512.0 M 834.0,-512.0 L 886.0,-512.0 L 886.0,0.0 L 834.0,0.0 L 834.0,-512.0 M 1070.0,-256.0 L 1028.0,-256.0 L 980.0,-205.0 L 980.0,-160.0 L 980.0,-115.0 L 1028.0,-64.0 L 1070.0,-64.0 L 1112.0,-64.0 L 1160.0,-116.0 L 1160.0,-160.0 L 1160.0,-204.0 L 1112.0,-256.0 L 1070.0,-256.0 M 1070.0,-320.0 L 1138.0,-320.0 L 1215.0,-235.0 L 1215.0,-160.0 L 1215.0,-85.0 L 1138.0,0.0 L 1070.0,0.0 L 1003.0,0.0 L 926.0,-85.0 L 926.0,-160.0 L 926.0,-235.0 L 1003.0,-320.0 L 1070.0,-320.0 M 1279.0,-64.0 L 1338.0,-64.0 L 1338.0,-19.0 L 1292.0,64.0 L 1255.0,64.0 L 1279.0,-19.0 L 1279.0,-64.0 M 1628.0,-384.0 L 1628.0,-320.0 L 1735.0,-320.0 L 1735.0,-256.0 L 1628.0,-256.0 L 1628.0,-114.0 L 1628.0,-82.0 L 1649.0,-64.0 L 1682.0,-64.0 L 1735.0,-64.0 L 1735.0,0.0 L 1682.0,0.0 L 1622.0,0.0 L 1576.0,-49.0 L 1576.0,-114.0 L 1576.0,-256.0 L 1538.0,-256.0 L 1538.0,-320.0 L 1576.0,-320.0 L 1576.0,-384.0 L 1628.0,-384.0 M 2039.0,-183.0 L 2039.0,0.0 L 1987.0,0.0 L 1987.0,-181.0 L 1987.0,-219.0 L 1952.0,-256.0 L 1917.0,-256.0 L 1875.0,-256.0 L 1827.0,-210.0 L 1827.0,-171.0 L 1827.0,0.0 L 1775.0,0.0 L 1775.0,-512.0 L 1827.0,-512.0 L 1827.0,-256.0 L 1846.0,-288.0 L 1896.0,-320.0 L 1929.0,-320.0 L 1983.0,-320.0 L 2039.0,-250.0 L 2039.0,-183.0 M 2079.0,-320.0 L 2131.0,-320.0 L 2131.0,0.0 L 2079.0,0.0 L 2079.0,-320.0 M 2079.0,-448.0 L 2131.0,-448.0 L 2131.0,-384.0 L 2079.0,-384.0 L 2079.0,-448.0 M 2395.0,-320.0 L 2395.0,-256.0 L 2373.0,-256.0 L 2326.0,-256.0 L 2301.0,-256.0 L 2262.0,-256.0 L 2224.0,-238.0 L 2224.0,-220.0 L 2224.0,-206.0 L 2251.0,-190.0 L 2293.0,-183.0 L 2310.0,-179.0 L 2365.0,-168.0 L 2412.0,-127.0 L 2412.0,-90.0 L 2412.0,-49.0 L 2342.0,0.0 L 2282.0,0.0 L 2256.0,0.0 L 2201.0,0.0 L 2171.0,0.0 L 2171.0,-64.0 L 2200.0,-64.0 L 2256.0,-64.0 L 2283.0,-64.0 L 2320.0,-64.0 L 2359.0,-82.0 L 2359.0,-98.0 L 2359.0,-113.0 L 2330.0,-129.0 L 2282.0,-136.0 L 2264.0,-140.0 L 2216.0,-150.0 L 2173.0,-192.0 L 2173.0,-228.0 L 2173.0,-272.0 L 2236.0,-320.0 L 2294.0,-320.0 L 2323.0,-320.0 L 2374.0,-320.0 L 2395.0,-320.0 M 2612.0,-320.0 L 2664.0,-320.0 L 2664.0,0.0 L 2612.0,0.0 L 2612.0,-320.0 M 2612.0,-448.0 L 2664.0,-448.0 L 2664.0,-384.0 L 2612.0,-384.0 L 2612.0,-448.0 M 2928.0,-320.0 L 2928.0,-256.0 L 2906.0,-256.0 L 2859.0,-256.0 L 2834.0,-256.0 L 2795.0,-256.0 L 2757.0,-238.0 L 2757.0,-220.0 L 2757.0,-206.0 L 2784.0,-190.0 L 2826.0,-183.0 L 2843.0,-179.0 L 2898.0,-168.0 L 2945.0,-127.0 L 2945.0,-90.0 L 2945.0,-49.0 L 2875.0,0.0 L 2815.0,0.0 L 2789.0,0.0 L 2734.0,0.0 L 2704.0,0.0 L 2704.0,-64.0 L 2733.0,-64.0 L 2789.0,-64.0 L 2816.0,-64.0 L 2853.0,-64.0 L 2892.0,-82.0 L 2892.0,-98.0 L 2892.0,-113.0 L 2863.0,-129.0 L 2815.0,-136.0 L 2797.0,-140.0 L 2749.0,-150.0 L 2706.0,-192.0 L 2706.0,-228.0 L 2706.0,-272.0 L 2769.0,-320.0 L 2827.0,-320.0 L 2856.0,-320.0 L 2907.0,-320.0 L 2928.0,-320.0 M 3415.0,-384.0 L 3415.0,-320.0 L 3383.0,-352.0 L 3325.0,-384.0 L 3299.0,-384.0 L 3252.0,-384.0 L 3202.0,-347.0 L 3202.0,-313.0 L 3202.0,-285.0 L 3235.0,-256.0 L 3282.0,-247.0 L 3317.0,-242.0 L 3381.0,-230.0 L 3441.0,-171.0 L 3441.0,-121.0 L 3441.0,-61.0 L 3359.0,0.0 L 3280.0,0.0 L 3250.0,0.0 L 3183.0,-32.0 L 3147.0,-64.0 L 3147.0,-128.0 L 3182.0,-96.0 L 3248.0,-64.0 L 3280.0,-64.0 L 3328.0,-64.0 L 3381.0,-100.0 L 3381.0,-134.0 L 3381.0,-164.0 L 3343.0,-197.0 L 3300.0,-205.0 L 3265.0,-209.0 L 3202.0,-222.0 L 3145.0,-277.0 L 3145.0,-326.0 L 3145.0,-383.0 L 3223.0,-448.0 L 3292.0,-448.0 L 3322.0,-448.0 L 3383.0,-416.0 L 3415.0,-384.0 M 3773.0,-168.0 L 3773.0,-128.0 L 3535.0,-128.0 L 3538.0,-97.0 L 3596.0,-64.0 L 3648.0,-64.0 L 3677.0,-64.0 L 3733.0,-64.0 L 3761.0,-64.0 L 3761.0,0.0 L 3733.0,0.0 L 3675.0,0.0 L 3644.0,0.0 L 3569.0,0.0 L 3481.0,-85.0 L 3481.0,-157.0 L 3481.0,-232.0 L 3565.0,-320.0 L 3635.0,-320.0 L 3699.0,-320.0 L 3773.0,-238.0 L 3773.0,-168.0 M 3721.0,-192.0 L 3720.0,-221.0 L 3674.0,-256.0 L 3636.0,-256.0 L 3592.0,-256.0 L 3540.0,-222.0 L 3536.0,-191.0 L 3721.0,-192.0 M 3975.0,-128.0 L 3912.0,-128.0 L 3864.0,-113.0 L 3864.0,-95.0 L 3864.0,-81.0 L 3900.0,-64.0 L 3932.0,-64.0 L 3975.0,-64.0 L 4027.0,-95.0 L 4027.0,-121.0 L 4027.0,-128.0 L 3975.0,-128.0 M 4079.0,-162.0 L 4079.0,0.0 L 4027.0,0.0 L 4027.0,-64.0 L 4009.0,-31.0 L 3957.0,0.0 L 3918.0,0.0 L 3870.0,0.0 L 3813.0,-50.0 L 3813.0,-93.0 L 3813.0,-142.0 L 3884.0,-192.0 L 3954.0,-192.0 L 4027.0,-192.0 L 4027.0,-198.0 L 4027.0,-226.0 L 3980.0,-256.0 L 3938.0,-256.0 L 3911.0,-256.0 L 3860.0,-256.0 L 3836.0,-256.0 L 3836.0,-320.0 L 3864.0,-320.0 L 3918.0,-320.0 L 3943.0,-320.0 L 4012.0,-320.0 L 4079.0,-242.0 L 4079.0,-162.0 M 4383.0,-183.0 L 4383.0,0.0 L 4331.0,0.0 L 4331.0,-181.0 L 4331.0,-219.0 L 4296.0,-256.0 L 4261.0,-256.0 L 4219.0,-256.0 L 4171.0,-210.0 L 4171.0,-171.0 L 4171.0,0.0 L 4119.0,0.0 L 4119.0,-320.0 L 4171.0,-320.0 L 4171.0,-256.0 L 4190.0,-288.0 L 4240.0,-320.0 L 4273.0,-320.0 L 4327.0,-320.0 L 4383.0,-250.0 L 4383.0,-183.0 M 4447.0,-64.0 L 4506.0,-64.0 L 4506.0,-19.0 L 4460.0,64.0 L 4423.0,64.0 L 4447.0,-19.0 L 4447.0,-64.0 M 4868.0,-128.0 L 4805.0,-128.0 L 4757.0,-113.0 L 4757.0,-95.0 L 4757.0,-81.0 L 4793.0,-64.0 L 4825.0,-64.0 L 4868.0,-64.0 L 4920.0,-95.0 L 4920.0,-121.0 L 4920.0,-128.0 L 4868.0,-128.0 M 4972.0,-162.0 L 4972.0,0.0 L 4920.0,0.0 L 4920.0,-64.0 L 4902.0,-31.0 L 4850.0,0.0 L 4811.0,0.0 L 4763.0,0.0 L 4706.0,-50.0 L 4706.0,-93.0 L 4706.0,-142.0 L 4777.0,-192.0 L 4847.0,-192.0 L 4920.0,-192.0 L 4920.0,-198.0 L 4920.0,-226.0 L 4873.0,-256.0 L 4831.0,-256.0 L 4804.0,-256.0 L 4753.0,-256.0 L 4729.0,-256.0 L 4729.0,-320.0 L 4757.0,-320.0 L 4811.0,-320.0 L 4836.0,-320.0 L 4905.0,-320.0 L 4972.0,-242.0 L 4972.0,-162.0 M 5276.0,-183.0 L 5276.0,0.0 L 5224.0,0.0 L 5224.0,-181.0 L 5224.0,-219.0 L 5189.0,-256.0 L 5154.0,-256.0 L 5112.0,-256.0 L 5064.0,-210.0 L 5064.0,-171.0 L 5064.0,0.0 L 5012.0,0.0 L 5012.0,-320.0 L 5064.0,-320.0 L 5064.0,-256.0 L 5083.0,-288.0 L 5133.0,-320.0 L 5166.0,-320.0 L 5220.0,-320.0 L 5276.0,-250.0 L 5276.0,-183.0 M 5546.0,-256.0 L 5546.0,-512.0 L 5597.0,-512.0 L 5597.0,0.0 L 5546.0,0.0 L 5546.0,-64.0 L 5530.0,-32.0 L 5480.0,0.0 L 5445.0,0.0 L 5388.0,0.0 L 5316.0,-88.0 L 5316.0,-160.0 L 5316.0,-232.0 L 5388.0,-320.0 L 5445.0,-320.0 L 5480.0,-320.0 L 5530.0,-288.0 L 5546.0,-256.0 M 5369.0,-160.0 L 5369.0,-115.0 L 5416.0,-64.0 L 5457.0,-64.0 L 5499.0,-64.0 L 5546.0,-115.0 L 5546.0,-160.0 L 5546.0,-205.0 L 5499.0,-256.0 L 5457.0,-256.0 L 5416.0,-256.0 L 5369.0,-205.0 L 5369.0,-160.0 M 6061.0,-183.0 L 6061.0,0.0 L 6009.0,0.0 L 6009.0,-181.0 L 6009.0,-219.0 L 5974.0,-256.0 L 5939.0,-256.0 L 5897.0,-256.0 L 5849.0,-210.0 L 5849.0,-171.0 L 5849.0,0.0 L 5797.0,0.0 L 5797.0,-320.0 L 5849.0,-320.0 L 5849.0,-256.0 L 5868.0,-288.0 L 5918.0,-320.0 L 5951.0,-320.0 L 6005.0,-320.0 L 6061.0,-250.0 L 6061.0,-183.0 M 6245.0,-256.0 L 6203.0,-256.0 L 6155.0,-205.0 L 6155.0,-160.0 L 6155.0,-115.0 L 6203.0,-64.0 L 6245.0,-64.0 L 6287.0,-64.0 L 6335.0,-116.0 L 6335.0,-160.0 L 6335.0,-204.0 L 6287.0,-256.0 L 6245.0,-256.0 M 6245.0,-320.0 L 6313.0,-320.0 L 6390.0,-235.0 L 6390.0,-160.0 L 6390.0,-85.0 L 6313.0,0.0 L 6245.0,0.0 L 6178.0,0.0 L 6101.0,-85.0 L 6101.0,-160.0 L 6101.0,-235.0 L 6178.0,-320.0 L 6245.0,-320.0 M 6430.0,-320.0 L 6482.0,-320.0 L 6547.0,-70.0 L 6611.0,-320.0 L 6672.0,-320.0 L 6737.0,-70.0 L 6801.0,-320.0 L 6853.0,-320.0 L 6771.0,0.0 L 6709.0,0.0 L 6642.0,-262.0 L 6574.0,0.0 L 6513.0,0.0 L 6430.0,-320.0 M 7053.0,-320.0 L 7105.0,-320.0 L 7105.0,0.0 L 7053.0,0.0 L 7053.0,-320.0 M 7053.0,-448.0 L 7105.0,-448.0 L 7105.0,-384.0 L 7053.0,-384.0 L 7053.0,-448.0 M 7235.0,-384.0 L 7235.0,-320.0 L 7342.0,-320.0 L 7342.0,-256.0 L 7235.0,-256.0 L 7235.0,-114.0 L 7235.0,-82.0 L 7256.0,-64.0 L 7289.0,-64.0 L 7342.0,-64.0 L 7342.0,0.0 L 7289.0,0.0 L 7229.0,0.0 L 7183.0,-49.0 L 7183.0,-114.0 L 7183.0,-256.0 L 7145.0,-256.0 L 7145.0,-320.0 L 7183.0,-320.0 L 7183.0,-384.0 L 7235.0,-384.0 M 7430.0,-448.0 L 7430.0,-320.0 L 7382.0,-320.0 L 7382.0,-448.0 L 7430.0,-448.0 M 7694.0,-320.0 L 7694.0,-256.0 L 7672.0,-256.0 L 7625.0,-256.0 L 7600.0,-256.0 L 7561.0,-256.0 L 7523.0,-238.0 L 7523.0,-220.0 L 7523.0,-206.0 L 7550.0,-190.0 L 7592.0,-183.0 L 7609.0,-179.0 L 7664.0,-168.0 L 7711.0,-127.0 L 7711.0,-90.0 L 7711.0,-49.0 L 7641.0,0.0 L 7581.0,0.0 L 7555.0,0.0 L 7500.0,0.0 L 7470.0,0.0 L 7470.0,-64.0 L 7499.0,-64.0 L 7555.0,-64.0 L 7582.0,-64.0 L 7619.0,-64.0 L 7658.0,-82.0 L 7658.0,-98.0 L 7658.0,-113.0 L 7629.0,-129.0 L 7581.0,-136.0 L 7563.0,-140.0 L 7515.0,-150.0 L 7472.0,-192.0 L 7472.0,-228.0 L 7472.0,-272.0 L 7535.0,-320.0 L 7593.0,-320.0 L 7622.0,-320.0 L 7673.0,-320.0 L 7694.0,-320.0 M 50.0,552.0 L 134.0,552.0 L 241.0,876.0 L 349.0,552.0 L 434.0,552.0 L 434.0,1000.0 L 378.0,1000.0 L 378.0,610.0 L 270.0,936.0 L 213.0,936.0 L 105.0,610.0 L 105.0,1000.0 L 50.0,1000.0 L 50.0,552.0 M 636.0,872.0 L 573.0,872.0 L 525.0,887.0 L 525.0,905.0 L 525.0,919.0 L 561.0,936.0 L 593.0,936.0 L 636.0,936.0 L 688.0,905.0 L 688.0,879.0 L 688.0,872.0 L 636.0,872.0 M 740.0,838.0 L 740.0,1000.0 L 688.0,1000.0 L 688.0,936.0 L 670.0,969.0 L 618.0,1000.0 L 579.0,1000.0 L 531.0,1000.0 L 474.0,950.0 L 474.0,907.0 L 474.0,858.0 L 545.0,808.0 L 615.0,808.0 L 688.0,808.0 L 688.0,802.0 L 688.0,774.0 L 641.0,744.0 L 599.0,744.0 L 572.0,744.0 L 521.0,744.0 L 497.0,744.0 L 497.0,680.0 L 525.0,680.0 L 579.0,680.0 L 604.0,680.0 L 673.0,680.0 L 740.0,758.0 L 740.0,838.0 M 965.0,744.0 L 956.0,744.0 L 936.0,744.0 L 923.0,744.0 L 879.0,744.0 L 832.0,794.0 L 832.0,840.0 L 832.0,1000.0 L 780.0,1000.0 L 780.0,680.0 L 832.0,680.0 L 832.0,744.0 L 848.0,712.0 L 901.0,680.0 L 938.0,680.0 L 944.0,680.0 L 957.0,680.0 L 965.0,680.0 L 965.0,744.0 M 1254.0,680.0 L 1254.0,744.0 L 1232.0,744.0 L 1188.0,744.0 L 1165.0,744.0 L 1115.0,744.0 L 1059.0,794.0 L 1059.0,840.0 L 1059.0,886.0 L 1115.0,936.0 L 1165.0,936.0 L 1188.0,936.0 L 1232.0,936.0 L 1254.0,936.0 L 1254.0,1000.0 L 1232.0,1000.0 L 1186.0,1000.0 L 1160.0,1000.0 L 1089.0,1000.0 L 1005.0,913.0 L 1005.0,840.0 L 1005.0,765.0 L 1090.0,680.0 L 1163.0,680.0 L 1187.0,680.0 L 1233.0,680.0 L 1254.0,680.0 M 1558.0,817.0 L 1558.0,1000.0 L 1506.0,1000.0 L 1506.0,819.0 L 1506.0,781.0 L 1471.0,744.0 L 1436.0,744.0 L 1394.0,744.0 L 1346.0,790.0 L 1346.0,829.0 L 1346.0,1000.0 L 1294.0,1000.0 L 1294.0,488.0 L 1346.0,488.0 L 1346.0,744.0 L 1365.0,712.0 L 1415.0,680.0 L 1448.0,680.0 L 1502.0,680.0 L 1558.0,750.0 L 1558.0,817.0 M 1948.0,610.0 L 1804.0,872.0 L 1948.0,872.0 L 1948.0,610.0 M 1933.0,552.0 L 2004.0,552.0 L 2004.0,872.0 L 2064.0,872.0 L 2064.0,936.0 L 2004.0,936.0 L 2004.0,1000.0 L 1948.0,1000.0 L 1948.0,936.0 L 1758.0,936.0 L 1758.0,870.0 L 1933.0,552.0 M 2194.0,616.0 L 2194.0,680.0 L 2301.0,680.0 L 2301.0,744.0 L 2194.0,744.0 L 2194.0,886.0 L 2194.0,918.0 L 2215.0,936.0 L 2248.0,936.0 L 2301.0,936.0 L 2301.0,1000.0 L 2248.0,1000.0 L 2188.0,1000.0 L 2142.0,951.0 L 2142.0,886.0 L 2142.0,744.0 L 2104.0,744.0 L 2104.0,680.0 L 2142.0,680.0 L 2142.0,616.0 L 2194.0,616.0 M 2605.0,817.0 L 2605.0,1000.0 L 2553.0,1000.0 L 2553.0,819.0 L 2553.0,781.0 L 2518.0,744.0 L 2483.0,744.0 L 2441.0,744.0 L 2393.0,790.0 L 2393.0,829.0 L 2393.0,1000.0 L 2341.0,1000.0 L 2341.0,488.0 L 2393.0,488.0 L 2393.0,744.0 L 2412.0,712.0 L 2462.0,680.0 L 2495.0,680.0 L 2549.0,680.0 L 2605.0,750.0 L 2605.0,817.0 M 2669.0,936.0 L 2728.0,936.0 L 2728.0,981.0 L 2682.0,1064.0 L 2645.0,1064.0 L 2669.0,981.0 L 2669.0,936.0 M 2955.0,1000.0 L 2955.0,936.0 L 2976.0,936.0 L 3020.0,936.0 L 3041.0,936.0 L 3097.0,936.0 L 3157.0,839.0 L 3161.0,740.0 L 3145.0,773.0 L 3095.0,808.0 L 3064.0,808.0 L 3001.0,808.0 L 2928.0,740.0 L 2928.0,680.0 L 2928.0,622.0 L 3005.0,552.0 L 3068.0,552.0 L 3141.0,552.0 L 3218.0,667.0 L 3218.0,776.0 L 3218.0,878.0 L 3124.0,1000.0 L 3044.0,1000.0 L 3023.0,1000.0 L 2979.0,1000.0 L 2955.0,1000.0 M 3068.0,744.0 L 3106.0,744.0 L 3151.0,710.0 L 3151.0,680.0 L 3151.0,650.0 L 3106.0,616.0 L 3068.0,616.0 L 3030.0,616.0 L 2985.0,650.0 L 2985.0,680.0 L 2985.0,710.0 L 3030.0,744.0 L 3068.0,744.0 M 3258.0,936.0 L 3317.0,936.0 L 3317.0,1000.0 L 3258.0,1000.0 L 3258.0,936.0 M 3258.0,680.0 L 3317.0,680.0 L 3317.0,744.0 L 3258.0,744.0 L 3258.0,680.0 M 3426.0,936.0 L 3624.0,936.0 L 3624.0,1000.0 L 3357.0,1000.0 L 3357.0,936.0 L 3389.0,904.0 L 3501.0,795.0 L 3515.0,779.0 L 3542.0,750.0 L 3564.0,709.0 L 3564.0,689.0 L 3564.0,657.0 L 3517.0,616.0 L 3480.0,616.0 L 3453.0,616.0 L 3394.0,648.0 L 3360.0,680.0 L 3360.0,616.0 L 3394.0,584.0 L 3454.0,552.0 L 3479.0,552.0 L 3544.0,552.0 L 3622.0,618.0 L 3622.0,673.0 L 3622.0,699.0 L 3603.0,746.0 L 3577.0,778.0 L 3570.0,786.0 L 3495.0,865.0 L 3426.0,936.0 M 3854.0,773.0 L 3894.0,781.0 L 3940.0,835.0 L 3940.0,874.0 L 3940.0,934.0 L 3855.0,1000.0 L 3776.0,1000.0 L 3750.0,1000.0 L 3694.0,968.0 L 3664.0,936.0 L 3664.0,872.0 L 3688.0,904.0 L 3744.0,936.0 L 3775.0,936.0 L 3828.0,936.0 L 3884.0,903.0 L 3884.0,871.0 L 3884.0,841.0 L 3832.0,808.0 L 3785.0,808.0 L 3736.0,808.0 L 3736.0,744.0 L 3788.0,744.0 L 3830.0,744.0 L 3874.0,712.0 L 3874.0,681.0 L 3874.0,650.0 L 3828.0,616.0 L 3785.0,616.0 L 3762.0,616.0 L 3709.0,647.0 L 3677.0,680.0 L 3677.0,616.0 L 3709.0,584.0 L 3766.0,552.0 L 3791.0,552.0 L 3856.0,552.0 L 3931.0,617.0 L 3931.0,672.0 L 3931.0,710.0 L 3891.0,763.0 L 3854.0,773.0 M 4196.0,616.0 L 4196.0,744.0 L 4268.0,744.0 L 4308.0,744.0 L 4351.0,711.0 L 4351.0,680.0 L 4351.0,649.0 L 4308.0,616.0 L 4268.0,616.0 L 4196.0,616.0 M 4140.0,552.0 L 4268.0,552.0 L 4339.0,552.0 L 4411.0,617.0 L 4411.0,680.0 L 4411.0,743.0 L 4339.0,808.0 L 4268.0,808.0 L 4196.0,808.0 L 4196.0,1000.0 L 4140.0,1000.0 L 4140.0,552.0 M 4451.0,552.0 L 4535.0,552.0 L 4642.0,876.0 L 4750.0,552.0 L 4835.0,552.0 L 4835.0,1000.0 L 4779.0,1000.0 L 4779.0,610.0 L 4671.0,936.0 L 4614.0,936.0 L 4506.0,610.0 L 4506.0,1000.0 L 4451.0,1000.0 L 4451.0,552.0 M 4899.0,936.0 L 4958.0,936.0 L 4958.0,981.0 L 4912.0,1064.0 L 4875.0,1064.0 L 4899.0,981.0 L 4899.0,936.0 M 5320.0,872.0 L 5257.0,872.0 L 5209.0,887.0 L 5209.0,905.0 L 5209.0,919.0 L 5245.0,936.0 L 5277.0,936.0 L 5320.0,936.0 L 5372.0,905.0 L 5372.0,879.0 L 5372.0,872.0 L 5320.0,872.0 M 5424.0,838.0 L 5424.0,1000.0 L 5372.0,1000.0 L 5372.0,936.0 L 5354.0,969.0 L 5302.0,1000.0 L 5263.0,1000.0 L 5215.0,1000.0 L 5158.0,950.0 L 5158.0,907.0 L 5158.0,858.0 L 5229.0,808.0 L 5299.0,808.0 L 5372.0,808.0 L 5372.0,802.0 L 5372.0,774.0 L 5325.0,744.0 L 5283.0,744.0 L 5256.0,744.0 L 5205.0,744.0 L 5181.0,744.0 L 5181.0,680.0 L 5209.0,680.0 L 5263.0,680.0 L 5288.0,680.0 L 5357.0,680.0 L 5424.0,758.0 L 5424.0,838.0 M 5728.0,817.0 L 5728.0,1000.0 L 5676.0,1000.0 L 5676.0,819.0 L 5676.0,781.0 L 5641.0,744.0 L 5606.0,744.0 L 5564.0,744.0 L 5516.0,790.0 L 5516.0,829.0 L 5516.0,1000.0 L 5464.0,1000.0 L 5464.0,680.0 L 5516.0,680.0 L 5516.0,744.0 L 5535.0,712.0 L 5585.0,680.0 L 5618.0,680.0 L 5672.0,680.0 L 5728.0,750.0 L 5728.0,817.0 M 5998.0,744.0 L 5998.0,488.0 L 6049.0,488.0 L 6049.0,1000.0 L 5998.0,1000.0 L 5998.0,936.0 L 5982.0,968.0 L 5932.0,1000.0 L 5897.0,1000.0 L 5840.0,1000.0 L 5768.0,912.0 L 5768.0,840.0 L 5768.0,768.0 L 5840.0,680.0 L 5897.0,680.0 L 5932.0,680.0 L 5982.0,712.0 L 5998.0,744.0 M 5821.0,840.0 L 5821.0,885.0 L 5868.0,936.0 L 5909.0,936.0 L 5951.0,936.0 L 5998.0,885.0 L 5998.0,840.0 L 5998.0,795.0 L 5951.0,744.0 L 5909.0,744.0 L 5868.0,744.0 L 5821.0,795.0 L 5821.0,840.0 M 6249.0,552.0 L 6305.0,552.0 L 6305.0,1000.0 L 6249.0,1000.0 L 6249.0,552.0 M 6393.0,552.0 L 6393.0,680.0 L 6345.0,680.0 L 6345.0,552.0 L 6393.0,552.0 M 6681.0,755.0 L 6700.0,717.0 L 6754.0,680.0 L 6791.0,680.0 L 6840.0,680.0 L 6893.0,751.0 L 6893.0,817.0 L 6893.0,1000.0 L 6841.0,1000.0 L 6841.0,819.0 L 6841.0,781.0 L 6809.0,744.0 L 6776.0,744.0 L 6736.0,744.0 L 6689.0,790.0 L 6689.0,829.0 L 6689.0,1000.0 L 6637.0,1000.0 L 6637.0,819.0 L 6637.0,781.0 L 6605.0,744.0 L 6571.0,744.0 L 6532.0,744.0 L 6485.0,790.0 L 6485.0,829.0 L 6485.0,1000.0 L 6433.0,1000.0 L 6433.0,680.0 L 6485.0,680.0 L 6485.0,744.0 L 6503.0,711.0 L 6552.0,680.0 L 6587.0,680.0 L 6621.0,680.0 L 6669.0,718.0 L 6681.0,755.0 M 280.0,1840.0 L 280.0,1794.0 L 233.0,1744.0 L 191.0,1744.0 L 150.0,1744.0 L 103.0,1794.0 L 103.0,1840.0 L 103.0,1886.0 L 150.0,1936.0 L 191.0,1936.0 L 233.0,1936.0 L 280.0,1886.0 L 280.0,1840.0 M 331.0,1942.0 L 331.0,2036.0 L 260.0,2128.0 L 186.0,2128.0 L 159.0,2128.0 L 111.0,2128.0 L 88.0,2128.0 L 88.0,2064.0 L 111.0,2064.0 L 155.0,2064.0 L 178.0,2064.0 L 229.0,2064.0 L 280.0,2010.0 L 280.0,1956.0 L 280.0,1936.0 L 264.0,1968.0 L 214.0,2000.0 L 179.0,2000.0 L 121.0,2000.0 L 50.0,1912.0 L 50.0,1840.0 L 50.0,1768.0 L 121.0,1680.0 L 179.0,1680.0 L 214.0,1680.0 L 264.0,1712.0 L 280.0,1744.0 L 280.0,1680.0 L 331.0,1680.0 L 331.0,1942.0 M 515.0,1744.0 L 473.0,1744.0 L 425.0,1795.0 L 425.0,1840.0 L 425.0,1885.0 L 473.0,1936.0 L 515.0,1936.0 L 557.0,1936.0 L 605.0,1884.0 L 605.0,1840.0 L 605.0,1796.0 L 557.0,1744.0 L 515.0,1744.0 M 515.0,1680.0 L 583.0,1680.0 L 660.0,1765.0 L 660.0,1840.0 L 660.0,1915.0 L 583.0,2000.0 L 515.0,2000.0 L 448.0,2000.0 L 371.0,1915.0 L 371.0,1840.0 L 371.0,1765.0 L 448.0,1680.0 L 515.0,1680.0 M 700.0,1680.0 L 752.0,1680.0 L 752.0,2000.0 L 700.0,2000.0 L 700.0,1680.0 M 700.0,1552.0 L 752.0,1552.0 L 752.0,1616.0 L 700.0,1616.0 L 700.0,1552.0 M 1056.0,1817.0 L 1056.0,2000.0 L 1004.0,2000.0 L 1004.0,1819.0 L 1004.0,1781.0 L 969.0,1744.0 L 934.0,1744.0 L 892.0,1744.0 L 844.0,1790.0 L 844.0,1829.0 L 844.0,2000.0 L 792.0,2000.0 L 792.0,1680.0 L 844.0,1680.0 L 844.0,1744.0 L 863.0,1712.0 L 913.0,1680.0 L 946.0,1680.0 L 1000.0,1680.0 L 1056.0,1750.0 L 1056.0,1817.0 M 1326.0,1840.0 L 1326.0,1794.0 L 1279.0,1744.0 L 1237.0,1744.0 L 1196.0,1744.0 L 1149.0,1794.0 L 1149.0,1840.0 L 1149.0,1886.0 L 1196.0,1936.0 L 1237.0,1936.0 L 1279.0,1936.0 L 1326.0,1886.0 L 1326.0,1840.0 M 1377.0,1942.0 L 1377.0,2036.0 L 1306.0,2128.0 L 1232.0,2128.0 L 1205.0,2128.0 L 1157.0,2128.0 L 1134.0,2128.0 L 1134.0,2064.0 L 1157.0,2064.0 L 1201.0,2064.0 L 1224.0,2064.0 L 1275.0,2064.0 L 1326.0,2010.0 L 1326.0,1956.0 L 1326.0,1936.0 L 1310.0,1968.0 L 1260.0,2000.0 L 1225.0,2000.0 L 1167.0,2000.0 L 1096.0,1912.0 L 1096.0,1840.0 L 1096.0,1768.0 L 1167.0,1680.0 L 1225.0,1680.0 L 1260.0,1680.0 L 1310.0,1712.0 L 1326.0,1744.0 L 1326.0,1680.0 L 1377.0,1680.0 L 1377.0,1942.0 M 1667.0,1616.0 L 1667.0,1680.0 L 1774.0,1680.0 L 1774.0,1744.0 L 1667.0,1744.0 L 1667.0,1886.0 L 1667.0,1918.0 L 1688.0,1936.0 L 1721.0,1936.0 L 1774.0,1936.0 L 1774.0,2000.0 L 1721.0,2000.0 L 1661.0,2000.0 L 1615.0,1951.0 L 1615.0,1886.0 L 1615.0,1744.0 L 1577.0,1744.0 L 1577.0,1680.0 L 1615.0,1680.0 L 1615.0,1616.0 L 1667.0,1616.0 M 1958.0,1744.0 L 1916.0,1744.0 L 1868.0,1795.0 L 1868.0,1840.0 L 1868.0,1885.0 L 1916.0,1936.0 L 1958.0,1936.0 L 2000.0,1936.0 L 2048.0,1884.0 L 2048.0,1840.0 L 2048.0,1796.0 L 2000.0,1744.0 L 1958.0,1744.0 M 1958.0,1680.0 L 2026.0,1680.0 L 2103.0,1765.0 L 2103.0,1840.0 L 2103.0,1915.0 L 2026.0,2000.0 L 1958.0,2000.0 L 1891.0,2000.0 L 1814.0,1915.0 L 1814.0,1840.0 L 1814.0,1765.0 L 1891.0,1680.0 L 1958.0,1680.0 M 2551.0,1755.0 L 2570.0,1717.0 L 2624.0,1680.0 L 2661.0,1680.0 L 2710.0,1680.0 L 2763.0,1751.0 L 2763.0,1817.0 L 2763.0,2000.0 L 2711.0,2000.0 L 2711.0,1819.0 L 2711.0,1781.0 L 2679.0,1744.0 L 2646.0,1744.0 L 2606.0,1744.0 L 2559.0,1790.0 L 2559.0,1829.0 L 2559.0,2000.0 L 2507.0,2000.0 L 2507.0,1819.0 L 2507.0,1781.0 L 2475.0,1744.0 L 2441.0,1744.0 L 2402.0,1744.0 L 2355.0,1790.0 L 2355.0,1829.0 L 2355.0,2000.0 L 2303.0,2000.0 L 2303.0,1680.0 L 2355.0,1680.0 L 2355.0,1744.0 L 2373.0,1711.0 L 2422.0,1680.0 L 2457.0,1680.0 L 2491.0,1680.0 L 2539.0,1718.0 L 2551.0,1755.0 M 3095.0,1832.0 L 3095.0,1872.0 L 2857.0,1872.0 L 2860.0,1903.0 L 2918.0,1936.0 L 2970.0,1936.0 L 2999.0,1936.0 L 3055.0,1936.0 L 3083.0,1936.0 L 3083.0,2000.0 L 3055.0,2000.0 L 2997.0,2000.0 L 2966.0,2000.0 L 2891.0,2000.0 L 2803.0,1915.0 L 2803.0,1843.0 L 2803.0,1768.0 L 2887.0,1680.0 L 2957.0,1680.0 L 3021.0,1680.0 L 3095.0,1762.0 L 3095.0,1832.0 M 3043.0,1808.0 L 3042.0,1779.0 L 2996.0,1744.0 L 2958.0,1744.0 L 2914.0,1744.0 L 2862.0,1778.0 L 2858.0,1809.0 L 3043.0,1808.0 M 3427.0,1832.0 L 3427.0,1872.0 L 3189.0,1872.0 L 3192.0,1903.0 L 3250.0,1936.0 L 3302.0,1936.0 L 3331.0,1936.0 L 3387.0,1936.0 L 3415.0,1936.0 L 3415.0,2000.0 L 3387.0,2000.0 L 3329.0,2000.0 L 3298.0,2000.0 L 3223.0,2000.0 L 3135.0,1915.0 L 3135.0,1843.0 L 3135.0,1768.0 L 3219.0,1680.0 L 3289.0,1680.0 L 3353.0,1680.0 L 3427.0,1762.0 L 3427.0,1832.0 M 3375.0,1808.0 L 3374.0,1779.0 L 3328.0,1744.0 L 3290.0,1744.0 L 3246.0,1744.0 L 3194.0,1778.0 L 3190.0,1809.0 L 3375.0,1808.0 M 3557.0,1616.0 L 3557.0,1680.0 L 3664.0,1680.0 L 3664.0,1744.0 L 3557.0,1744.0 L 3557.0,1886.0 L 3557.0,1918.0 L 3578.0,1936.0 L 3611.0,1936.0 L 3664.0,1936.0 L 3664.0,2000.0 L 3611.0,2000.0 L 3551.0,2000.0 L 3505.0,1951.0 L 3505.0,1886.0 L 3505.0,1744.0 L 3467.0,1744.0 L 3467.0,1680.0 L 3505.0,1680.0 L 3505.0,1616.0 L 3557.0,1616.0 M 3864.0,1680.0 L 3916.0,1680.0 L 3981.0,1930.0 L 4045.0,1680.0 L 4106.0,1680.0 L 4171.0,1930.0 L 4235.0,1680.0 L 4287.0,1680.0 L 4205.0,2000.0 L 4143.0,2000.0 L 4076.0,1738.0 L 4008.0,2000.0 L 3947.0,2000.0 L 3864.0,1680.0 M 4327.0,1680.0 L 4379.0,1680.0 L 4379.0,2000.0 L 4327.0,2000.0 L 4327.0,1680.0 M 4327.0,1552.0 L 4379.0,1552.0 L 4379.0,1616.0 L 4327.0,1616.0 L 4327.0,1552.0 M 4509.0,1616.0 L 4509.0,1680.0 L 4616.0,1680.0 L 4616.0,1744.0 L 4509.0,1744.0 L 4509.0,1886.0 L 4509.0,1918.0 L 4530.0,1936.0 L 4563.0,1936.0 L 4616.0,1936.0 L 4616.0,2000.0 L 4563.0,2000.0 L 4503.0,2000.0 L 4457.0,1951.0 L 4457.0,1886.0 L 4457.0,1744.0 L 4419.0,1744.0 L 4419.0,1680.0 L 4457.0,1680.0 L 4457.0,1616.0 L 4509.0,1616.0 M 4920.0,1817.0 L 4920.0,2000.0 L 4868.0,2000.0 L 4868.0,1819.0 L 4868.0,1781.0 L 4833.0,1744.0 L 4798.0,1744.0 L 4756.0,1744.0 L 4708.0,1790.0 L 4708.0,1829.0 L 4708.0,2000.0 L 4656.0,2000.0 L 4656.0,1488.0 L 4708.0,1488.0 L 4708.0,1744.0 L 4727.0,1712.0 L 4777.0,1680.0 L 4810.0,1680.0 L 4864.0,1680.0 L 4920.0,1750.0 L 4920.0,1817.0 M 5120.0,1552.0 L 5204.0,1552.0 L 5311.0,1876.0 L 5419.0,1552.0 L 5504.0,1552.0 L 5504.0,2000.0 L 5448.0,2000.0 L 5448.0,1610.0 L 5340.0,1936.0 L 5283.0,1936.0 L 5175.0,1610.0 L 5175.0,2000.0 L 5120.0,2000.0 L 5120.0,1552.0 M 5544.0,1680.0 L 5596.0,1680.0 L 5596.0,2000.0 L 5544.0,2000.0 L 5544.0,1680.0 M 5544.0,1552.0 L 5596.0,1552.0 L 5596.0,1616.0 L 5544.0,1616.0 L 5544.0,1552.0 M 5885.0,1680.0 L 5885.0,1744.0 L 5863.0,1744.0 L 5819.0,1744.0 L 5796.0,1744.0 L 5746.0,1744.0 L 5690.0,1794.0 L 5690.0,1840.0 L 5690.0,1886.0 L 5746.0,1936.0 L 5796.0,1936.0 L 5819.0,1936.0 L 5863.0,1936.0 L 5885.0,1936.0 L 5885.0,2000.0 L 5863.0,2000.0 L 5817.0,2000.0 L 5791.0,2000.0 L 5720.0,2000.0 L 5636.0,1913.0 L 5636.0,1840.0 L 5636.0,1765.0 L 5721.0,1680.0 L 5794.0,1680.0 L 5818.0,1680.0 L 5864.0,1680.0 L 5885.0,1680.0 M 6189.0,1817.0 L 6189.0,2000.0 L 6137.0,2000.0 L 6137.0,1819.0 L 6137.0,1781.0 L 6102.0,1744.0 L 6067.0,1744.0 L 6025.0,1744.0 L 5977.0,1790.0 L 5977.0,1829.0 L 5977.0,2000.0 L 5925.0,2000.0 L 5925.0,1488.0 L 5977.0,1488.0 L 5977.0,1744.0 L 5996.0,1712.0 L 6046.0,1680.0 L 6079.0,1680.0 L 6133.0,1680.0 L 6189.0,1750.0 L 6189.0,1817.0 M 6391.0,1872.0 L 6328.0,1872.0 L 6280.0,1887.0 L 6280.0,1905.0 L 6280.0,1919.0 L 6316.0,1936.0 L 6348.0,1936.0 L 6391.0,1936.0 L 6443.0,1905.0 L 6443.0,1879.0 L 6443.0,1872.0 L 6391.0,1872.0 M 6495.0,1838.0 L 6495.0,2000.0 L 6443.0,2000.0 L 6443.0,1936.0 L 6425.0,1969.0 L 6373.0,2000.0 L 6334.0,2000.0 L 6286.0,2000.0 L 6229.0,1950.0 L 6229.0,1907.0 L 6229.0,1858.0 L 6300.0,1808.0 L 6370.0,1808.0 L 6443.0,1808.0 L 6443.0,1802.0 L 6443.0,1774.0 L 6396.0,1744.0 L 6354.0,1744.0 L 6327.0,1744.0 L 6276.0,1744.0 L 6252.0,1744.0 L 6252.0,1680.0 L 6280.0,1680.0 L 6334.0,1680.0 L 6359.0,1680.0 L 6428.0,1680.0 L 6495.0,1758.0 L 6495.0,1838.0 M 6827.0,1832.0 L 6827.0,1872.0 L 6589.0,1872.0 L 6592.0,1903.0 L 6650.0,1936.0 L 6702.0,1936.0 L 6731.0,1936.0 L 6787.0,1936.0 L 6815.0,1936.0 L 6815.0,2000.0 L 6787.0,2000.0 L 6729.0,2000.0 L 6698.0,2000.0 L 6623.0,2000.0 L 6535.0,1915.0 L 6535.0,1843.0 L 6535.0,1768.0 L 6619.0,1680.0 L 6689.0,1680.0 L 6753.0,1680.0 L 6827.0,1762.0 L 6827.0,1832.0 M 6775.0,1808.0 L 6774.0,1779.0 L 6728.0,1744.0 L 6690.0,1744.0 L 6646.0,1744.0 L 6594.0,1778.0 L 6590.0,1809.0 L 6775.0,1808.0 M 6867.0,1488.0 L 6919.0,1488.0 L 6919.0,2000.0 L 6867.0,2000.0 L 6867.0,1488.0 M 389.0,2616.0 L 389.0,2680.0 L 360.0,2648.0 L 295.0,2616.0 L 259.0,2616.0 L 187.0,2616.0 L 110.0,2698.0 L 110.0,2776.0 L 110.0,2854.0 L 187.0,2936.0 L 259.0,2936.0 L 295.0,2936.0 L 360.0,2904.0 L 389.0,2872.0 L 389.0,2936.0 L 359.0,2968.0 L 292.0,3000.0 L 255.0,3000.0 L 160.0,3000.0 L 50.0,2880.0 L 50.0,2776.0 L 50.0,2672.0 L 160.0,2552.0 L 255.0,2552.0 L 293.0,2552.0 L 360.0,2584.0 L 389.0,2616.0 M 693.0,2817.0 L 693.0,3000.0 L 641.0,3000.0 L 641.0,2819.0 L 641.0,2781.0 L 606.0,2744.0 L 571.0,2744.0 L 529.0,2744.0 L 481.0,2790.0 L 481.0,2829.0 L 481.0,3000.0 L 429.0,3000.0 L 429.0,2488.0 L 481.0,2488.0 L 481.0,2744.0 L 500.0,2712.0 L 550.0,2680.0 L 583.0,2680.0 L 637.0,2680.0 L 693.0,2750.0 L 693.0,2817.0 M 1025.0,2832.0 L 1025.0,2872.0 L 787.0,2872.0 L 790.0,2903.0 L 848.0,2936.0 L 900.0,2936.0 L 929.0,2936.0 L 985.0,2936.0 L 1013.0,2936.0 L 1013.0,3000.0 L 985.0,3000.0 L 927.0,3000.0 L 896.0,3000.0 L 821.0,3000.0 L 733.0,2915.0 L 733.0,2843.0 L 733.0,2768.0 L 817.0,2680.0 L 887.0,2680.0 L 951.0,2680.0 L 1025.0,2762.0 L 1025.0,2832.0 M 973.0,2808.0 L 972.0,2779.0 L 926.0,2744.0 L 888.0,2744.0 L 844.0,2744.0 L 792.0,2778.0 L 788.0,2809.0 L 973.0,2808.0 M 1329.0,2817.0 L 1329.0,3000.0 L 1277.0,3000.0 L 1277.0,2819.0 L 1277.0,2781.0 L 1242.0,2744.0 L 1207.0,2744.0 L 1165.0,2744.0 L 1117.0,2790.0 L 1117.0,2829.0 L 1117.0,3000.0 L 1065.0,3000.0 L 1065.0,2680.0 L 1117.0,2680.0 L 1117.0,2744.0 L 1136.0,2712.0 L 1186.0,2680.0 L 1219.0,2680.0 L 1273.0,2680.0 L 1329.0,2750.0 L 1329.0,2817.0 M 1369.0,2936.0 L 1428.0,2936.0 L 1428.0,3000.0 L 1369.0,3000.0 L 1369.0,2936.0 M 1939.0,2916.0 L 1939.0,2808.0 L 1846.0,2808.0 L 1846.0,2744.0 L 1995.0,2744.0 L 1995.0,2935.0 L 1962.0,2967.0 L 1883.0,3000.0 L 1838.0,3000.0 L 1739.0,3000.0 L 1628.0,2882.0 L 1628.0,2776.0 L 1628.0,2670.0 L 1739.0,2552.0 L 1838.0,2552.0 L 1879.0,2552.0 L 1953.0,2584.0 L 1984.0,2616.0 L 1984.0,2680.0 L 1952.0,2648.0 L 1882.0,2616.0 L 1842.0,2616.0 L 1765.0,2616.0 L 1688.0,2696.0 L 1688.0,2776.0 L 1688.0,2856.0 L 1765.0,2936.0 L 1843.0,2936.0 L 1873.0,2936.0 L 1920.0,2926.0 L 1939.0,2916.0 M 2179.0,2744.0 L 2137.0,2744.0 L 2089.0,2795.0 L 2089.0,2840.0 L 2089.0,2885.0 L 2137.0,2936.0 L 2179.0,2936.0 L 2221.0,2936.0 L 2269.0,2884.0 L 2269.0,2840.0 L 2269.0,2796.0 L 2221.0,2744.0 L 2179.0,2744.0 M 2179.0,2680.0 L 2247.0,2680.0 L 2324.0,2765.0 L 2324.0,2840.0 L 2324.0,2915.0 L 2247.0,3000.0 L 2179.0,3000.0 L 2112.0,3000.0 L 2035.0,2915.0 L 2035.0,2840.0 L 2035.0,2765.0 L 2112.0,2680.0 L 2179.0,2680.0 M 2508.0,2744.0 L 2466.0,2744.0 L 2418.0,2795.0 L 2418.0,2840.0 L 2418.0,2885.0 L 2466.0,2936.0 L 2508.0,2936.0 L 2550.0,2936.0 L 2598.0,2884.0 L 2598.0,2840.0 L 2598.0,2796.0 L 2550.0,2744.0 L 2508.0,2744.0 M 2508.0,2680.0 L 2576.0,2680.0 L 2653.0,2765.0 L 2653.0,2840.0 L 2653.0,2915.0 L 2576.0,3000.0 L 2508.0,3000.0 L 2441.0,3000.0 L 2364.0,2915.0 L 2364.0,2840.0 L 2364.0,2765.0 L 2441.0,2680.0 L 2508.0,2680.0 M 2923.0,2744.0 L 2923.0,2488.0 L 2974.0,2488.0 L 2974.0,3000.0 L 2923.0,3000.0 L 2923.0,2936.0 L 2907.0,2968.0 L 2857.0,3000.0 L 2822.0,3000.0 L 2765.0,3000.0 L 2693.0,2912.0 L 2693.0,2840.0 L 2693.0,2768.0 L 2765.0,2680.0 L 2822.0,2680.0 L 2857.0,2680.0 L 2907.0,2712.0 L 2923.0,2744.0 M 2746.0,2840.0 L 2746.0,2885.0 L 2793.0,2936.0 L 2834.0,2936.0 L 2876.0,2936.0 L 2923.0,2885.0 L 2923.0,2840.0 L 2923.0,2795.0 L 2876.0,2744.0 L 2834.0,2744.0 L 2793.0,2744.0 L 2746.0,2795.0 L 2746.0,2840.0 M 3264.0,2616.0 L 3264.0,2680.0 L 3371.0,2680.0 L 3371.0,2744.0 L 3264.0,2744.0 L 3264.0,2886.0 L 3264.0,2918.0 L 3285.0,2936.0 L 3318.0,2936.0 L 3371.0,2936.0 L 3371.0,3000.0 L 3318.0,3000.0 L 3258.0,3000.0 L 3212.0,2951.0 L 3212.0,2886.0 L 3212.0,2744.0 L 3174.0,2744.0 L 3174.0,2680.0 L 3212.0,2680.0 L 3212.0,2616.0 L 3264.0,2616.0 M 3555.0,2744.0 L 3513.0,2744.0 L 3465.0,2795.0 L 3465.0,2840.0 L 3465.0,2885.0 L 3513.0,2936.0 L 3555.0,2936.0 L 3597.0,2936.0 L 3645.0,2884.0 L 3645.0,2840.0 L 3645.0,2796.0 L 3597.0,2744.0 L 3555.0,2744.0 M 3555.0,2680.0 L 3623.0,2680.0 L 3700.0,2765.0 L 3700.0,2840.0 L 3700.0,2915.0 L 3623.0,3000.0 L 3555.0,3000.0 L 3488.0,3000.0 L 3411.0,2915.0 L 3411.0,2840.0 L 3411.0,2765.0 L 3488.0,2680.0 L 3555.0,2680.0 M 4124.0,2680.0 L 4124.0,2744.0 L 4102.0,2744.0 L 4055.0,2744.0 L 4030.0,2744.0 L 3991.0,2744.0 L 3953.0,2762.0 L 3953.0,2780.0 L 3953.0,2794.0 L 3980.0,2810.0 L 4022.0,2817.0 L 4039.0,2821.0 L 4094.0,2832.0 L 4141.0,2873.0 L 4141.0,2910.0 L 4141.0,2951.0 L 4071.0,3000.0 L 4011.0,3000.0 L 3985.0,3000.0 L 3930.0,3000.0 L 3900.0,3000.0 L 3900.0,2936.0 L 3929.0,2936.0 L 3985.0,2936.0 L 4012.0,2936.0 L 4049.0,2936.0 L 4088.0,2918.0 L 4088.0,2902.0 L 4088.0,2887.0 L 4059.0,2871.0 L 4011.0,2864.0 L 3993.0,2860.0 L 3945.0,2850.0 L 3902.0,2808.0 L 3902.0,2772.0 L 3902.0,2728.0 L 3965.0,2680.0 L 4023.0,2680.0 L 4052.0,2680.0 L 4103.0,2680.0 L 4124.0,2680.0 M 4473.0,2832.0 L 4473.0,2872.0 L 4235.0,2872.0 L 4238.0,2903.0 L 4296.0,2936.0 L 4348.0,2936.0 L 4377.0,2936.0 L 4433.0,2936.0 L 4461.0,2936.0 L 4461.0,3000.0 L 4433.0,3000.0 L 4375.0,3000.0 L 4344.0,3000.0 L 4269.0,3000.0 L 4181.0,2915.0 L 4181.0,2843.0 L 4181.0,2768.0 L 4265.0,2680.0 L 4335.0,2680.0 L 4399.0,2680.0 L 4473.0,2762.0 L 4473.0,2832.0 M 4421.0,2808.0 L 4420.0,2779.0 L 4374.0,2744.0 L 4336.0,2744.0 L 4292.0,2744.0 L 4240.0,2778.0 L 4236.0,2809.0 L 4421.0,2808.0 M 4805.0,2832.0 L 4805.0,2872.0 L 4567.0,2872.0 L 4570.0,2903.0 L 4628.0,2936.0 L 4680.0,2936.0 L 4709.0,2936.0 L 4765.0,2936.0 L 4793.0,2936.0 L 4793.0,3000.0 L 4765.0,3000.0 L 4707.0,3000.0 L 4676.0,3000.0 L 4601.0,3000.0 L 4513.0,2915.0 L 4513.0,2843.0 L 4513.0,2768.0 L 4597.0,2680.0 L 4667.0,2680.0 L 4731.0,2680.0 L 4805.0,2762.0 L 4805.0,2832.0 M 4753.0,2808.0 L 4752.0,2779.0 L 4706.0,2744.0 L 4668.0,2744.0 L 4624.0,2744.0 L 4572.0,2778.0 L 4568.0,2809.0 L 4753.0,2808.0 M 5173.0,3018.0 L 5151.0,3086.0 L 5110.0,3128.0 L 5075.0,3128.0 L 5034.0,3128.0 L 5034.0,3064.0 L 5064.0,3064.0 L 5085.0,3064.0 L 5109.0,3047.0 L 5123.0,3016.0 L 5133.0,2992.0 L 5005.0,2680.0 L 5060.0,2680.0 L 5158.0,2930.0 L 5257.0,2680.0 L 5312.0,2680.0 L 5173.0,3018.0 M 5496.0,2744.0 L 5454.0,2744.0 L 5406.0,2795.0 L 5406.0,2840.0 L 5406.0,2885.0 L 5454.0,2936.0 L 5496.0,2936.0 L 5538.0,2936.0 L 5586.0,2884.0 L 5586.0,2840.0 L 5586.0,2796.0 L 5538.0,2744.0 L 5496.0,2744.0 M 5496.0,2680.0 L 5564.0,2680.0 L 5641.0,2765.0 L 5641.0,2840.0 L 5641.0,2915.0 L 5564.0,3000.0 L 5496.0,3000.0 L 5429.0,3000.0 L 5352.0,2915.0 L 5352.0,2840.0 L 5352.0,2765.0 L 5429.0,2680.0 L 5496.0,2680.0 M 5681.0,2863.0 L 5681.0,2680.0 L 5733.0,2680.0 L 5733.0,2861.0 L 5733.0,2898.0 L 5768.0,2936.0 L 5803.0,2936.0 L 5844.0,2936.0 L 5893.0,2890.0 L 5893.0,2851.0 L 5893.0,2680.0 L 5945.0,2680.0 L 5945.0,3000.0 L 5893.0,3000.0 L 5893.0,2936.0 L 5874.0,2968.0 L 5824.0,3000.0 L 5792.0,3000.0 L 5737.0,3000.0 L 5681.0,2930.0 L 5681.0,2863.0 M 5985.0,2936.0 L 6044.0,2936.0 L 6044.0,3000.0 L 5985.0,3000.0 L 5985.0,2936.0" fill="none" stroke="#000000" stroke-width="7.6610000000000005"/>
</svg>
