<?xml version="1.0" ?>
<svg xmlns="http://www.w3.org/2000/svg" xmlns:ev="http://www.w3.org/2001/xml-events" xmlns:xlink="http://www.w3.org/1999/xlink" baseProfile="full" height="136px" version="1.1" viewBox="-680.4340000000001 -615.634 8728.868 1975.268" width="600px">
	<defs/>
	<path d="M 137.0,-55.0 L 160.0,-46.0 L 182.0,-48.0 L 205.0,-51.0 L 227.0,-61.0 L 240.0,-67.0 L 246.0,-78.0 L 252.0,-89.0 L 253.0,-105.0 L 255.0,-136.0 L 239.0,-163.0 L 225.0,-190.0 L 198.0,-201.0 L 179.0,-209.0 L 160.0,-218.0 L 140.0,-225.0 L 121.0,-232.0 L 91.0,-243.0 L 76.0,-268.0 L 62.0,-295.0 L 53.0,-325.0 L 50.0,-336.0 L 50.0,-346.0 L 50.0,-351.0 L 51.0,-356.0 L 54.0,-373.0 L 62.0,-388.0 L 70.0,-404.0 L 84.0,-416.0 L 98.0,-429.0 L 114.0,-437.0 L 140.0,-448.0 L 168.0,-448.0 L 174.0,-448.0 L 179.0,-448.0 L 214.0,-445.0 L 238.0,-422.0 L 239.0,-420.0 L 240.0,-418.0 L 241.0,-415.0 L 243.0,-412.0 L 238.0,-399.0 L 230.0,-396.0 L 222.0,-394.0 L 211.0,-395.0 L 196.0,-398.0 L 181.0,-399.0 L 165.0,-400.0 L 151.0,-400.0 L 144.0,-400.0 L 137.0,-398.0 L 130.0,-396.0 L 124.0,-392.0 L 111.0,-383.0 L 100.0,-373.0 L 90.0,-362.0 L 93.0,-343.0 L 95.0,-324.0 L 102.0,-307.0 L 109.0,-289.0 L 127.0,-281.0 L 146.0,-272.0 L 165.0,-265.0 L 185.0,-256.0 L 204.0,-249.0 L 227.0,-242.0 L 244.0,-226.0 L 261.0,-211.0 L 273.0,-189.0 L 294.0,-157.0 L 294.0,-116.0 L 294.0,-113.0 L 294.0,-109.0 L 294.0,-64.0 L 269.0,-36.0 L 265.0,-31.0 L 259.0,-27.0 L 255.0,-22.0 L 249.0,-19.0 L 214.0,0.0 L 179.0,0.0 L 169.0,0.0 L 159.0,-1.0 L 116.0,-9.0 L 74.0,-34.0 L 61.0,-42.0 L 61.0,-53.0 L 60.0,-64.0 L 71.0,-83.0 L 88.0,-76.0 L 104.0,-69.0 L 121.0,-63.0 L 137.0,-55.0 M 455.0,-34.0 L 446.0,-20.0 L 436.0,-8.0 L 425.0,3.0 L 406.0,-2.0 L 386.0,-8.0 L 370.0,-20.0 L 354.0,-32.0 L 350.0,-56.0 L 345.0,-85.0 L 341.0,-115.0 L 338.0,-145.0 L 335.0,-174.0 L 334.0,-184.0 L 334.0,-190.0 L 334.0,-194.0 L 334.0,-196.0 L 335.0,-202.0 L 336.0,-218.0 L 336.0,-223.0 L 337.0,-230.0 L 338.0,-237.0 L 346.0,-242.0 L 365.0,-231.0 L 368.0,-220.0 L 372.0,-210.0 L 373.0,-192.0 L 376.0,-165.0 L 378.0,-142.0 L 379.0,-119.0 L 382.0,-91.0 L 384.0,-73.0 L 388.0,-69.0 L 392.0,-63.0 L 412.0,-50.0 L 441.0,-70.0 L 451.0,-91.0 L 460.0,-113.0 L 464.0,-137.0 L 465.0,-150.0 L 466.0,-164.0 L 467.0,-178.0 L 470.0,-193.0 L 471.0,-202.0 L 472.0,-211.0 L 473.0,-220.0 L 476.0,-228.0 L 477.0,-233.0 L 483.0,-237.0 L 488.0,-241.0 L 492.0,-242.0 L 495.0,-242.0 L 501.0,-238.0 L 506.0,-234.0 L 506.0,-230.0 L 509.0,-218.0 L 509.0,-211.0 L 509.0,-204.0 L 509.0,-191.0 L 509.0,-161.0 L 509.0,-136.0 L 509.0,-110.0 L 512.0,-81.0 L 514.0,-62.0 L 520.0,-44.0 L 526.0,-25.0 L 530.0,-7.0 L 517.0,0.0 L 507.0,0.0 L 501.0,0.0 L 496.0,-3.0 L 485.0,-11.0 L 468.0,-53.0 L 464.0,-47.0 L 461.0,-43.0 L 457.0,-38.0 L 455.0,-34.0 M 582.0,-44.0 L 577.0,-87.0 L 577.0,-129.0 L 577.0,-172.0 L 577.0,-215.0 L 577.0,-226.0 L 570.0,-241.0 L 570.0,-244.0 L 570.0,-245.0 L 570.0,-257.0 L 576.0,-263.0 L 597.0,-259.0 L 600.0,-244.0 L 602.0,-228.0 L 609.0,-214.0 L 617.0,-224.0 L 627.0,-231.0 L 637.0,-239.0 L 649.0,-245.0 L 672.0,-256.0 L 695.0,-256.0 L 718.0,-256.0 L 728.0,-244.0 L 728.0,-225.0 L 711.0,-220.0 L 694.0,-216.0 L 675.0,-208.0 L 654.0,-197.0 L 647.0,-186.0 L 640.0,-175.0 L 636.0,-154.0 L 631.0,-129.0 L 629.0,-105.0 L 626.0,-79.0 L 624.0,-55.0 L 622.0,-41.0 L 620.0,-28.0 L 619.0,-15.0 L 603.0,-6.0 L 590.0,-12.0 L 586.0,-23.0 L 582.0,-33.0 L 582.0,-44.0 M 930.0,-61.0 L 938.0,-66.0 L 945.0,-74.0 L 954.0,-80.0 L 962.0,-85.0 L 971.0,-90.0 L 978.0,-85.0 L 986.0,-80.0 L 992.0,-66.0 L 970.0,-34.0 L 948.0,-17.0 L 929.0,0.0 L 897.0,0.0 L 894.0,0.0 L 891.0,0.0 L 852.0,0.0 L 822.0,-15.0 L 793.0,-29.0 L 775.0,-76.0 L 768.0,-95.0 L 768.0,-115.0 L 768.0,-117.0 L 768.0,-119.0 L 768.0,-141.0 L 774.0,-162.0 L 784.0,-192.0 L 807.0,-215.0 L 829.0,-237.0 L 856.0,-248.0 L 871.0,-254.0 L 886.0,-255.0 L 892.0,-256.0 L 897.0,-256.0 L 907.0,-256.0 L 916.0,-254.0 L 934.0,-250.0 L 946.0,-242.0 L 959.0,-232.0 L 962.0,-213.0 L 966.0,-195.0 L 964.0,-177.0 L 961.0,-160.0 L 948.0,-145.0 L 923.0,-115.0 L 892.0,-103.0 L 861.0,-89.0 L 820.0,-95.0 L 836.0,-55.0 L 868.0,-47.0 L 900.0,-40.0 L 930.0,-61.0 M 816.0,-135.0 L 830.0,-132.0 L 843.0,-132.0 L 855.0,-132.0 L 866.0,-135.0 L 890.0,-141.0 L 909.0,-156.0 L 918.0,-163.0 L 924.0,-176.0 L 925.0,-181.0 L 925.0,-186.0 L 925.0,-194.0 L 918.0,-204.0 L 907.0,-208.0 L 896.0,-208.0 L 892.0,-208.0 L 887.0,-208.0 L 871.0,-206.0 L 856.0,-198.0 L 835.0,-188.0 L 821.0,-170.0 L 813.0,-158.0 L 813.0,-148.0 L 813.0,-142.0 L 816.0,-135.0 M 1084.0,-150.0 L 1090.0,-212.0 L 1090.0,-268.0 L 1090.0,-322.0 L 1094.0,-384.0 L 1095.0,-390.0 L 1095.0,-396.0 L 1095.0,-402.0 L 1094.0,-410.0 L 1093.0,-426.0 L 1091.0,-440.0 L 1083.0,-444.0 L 1077.0,-446.0 L 1071.0,-448.0 L 1064.0,-448.0 L 1051.0,-441.0 L 1048.0,-433.0 L 1045.0,-425.0 L 1043.0,-405.0 L 1042.0,-394.0 L 1042.0,-386.0 L 1042.0,-385.0 L 1042.0,-383.0 L 1042.0,-377.0 L 1042.0,-369.0 L 1042.0,-318.0 L 1042.0,-267.0 L 1042.0,-218.0 L 1042.0,-167.0 L 1043.0,-150.0 L 1043.0,-127.0 L 1045.0,-104.0 L 1061.0,-100.0 L 1075.0,-107.0 L 1078.0,-121.0 L 1082.0,-136.0 L 1084.0,-150.0 M 1042.0,-42.0 L 1036.0,-38.0 L 1033.0,-26.0 L 1032.0,-21.0 L 1032.0,-18.0 L 1032.0,-11.0 L 1035.0,-9.0 L 1044.0,0.0 L 1052.0,0.0 L 1055.0,0.0 L 1057.0,-1.0 L 1070.0,-4.0 L 1083.0,-5.0 L 1084.0,-10.0 L 1084.0,-14.0 L 1085.0,-19.0 L 1085.0,-23.0 L 1086.0,-25.0 L 1086.0,-28.0 L 1086.0,-29.0 L 1085.0,-31.0 L 1085.0,-35.0 L 1085.0,-41.0 L 1072.0,-43.0 L 1062.0,-46.0 L 1059.0,-48.0 L 1056.0,-48.0 L 1049.0,-48.0 L 1042.0,-42.0 M 1497.0,-263.0 L 1497.0,-306.0 L 1497.0,-354.0 L 1497.0,-402.0 L 1497.0,-443.0 L 1509.0,-448.0 L 1518.0,-443.0 L 1526.0,-439.0 L 1528.0,-428.0 L 1530.0,-414.0 L 1530.0,-396.0 L 1530.0,-381.0 L 1531.0,-366.0 L 1535.0,-319.0 L 1535.0,-272.0 L 1535.0,-236.0 L 1535.0,-200.0 L 1535.0,-115.0 L 1535.0,-33.0 L 1534.0,-21.0 L 1529.0,-11.0 L 1523.0,0.0 L 1500.0,0.0 L 1487.0,-32.0 L 1487.0,-67.0 L 1487.0,-100.0 L 1487.0,-135.0 L 1489.0,-153.0 L 1490.0,-171.0 L 1491.0,-188.0 L 1490.0,-207.0 L 1457.0,-207.0 L 1422.0,-207.0 L 1389.0,-207.0 L 1352.0,-207.0 L 1343.0,-183.0 L 1343.0,-156.0 L 1343.0,-130.0 L 1343.0,-103.0 L 1343.0,-86.0 L 1343.0,-67.0 L 1343.0,-50.0 L 1343.0,-31.0 L 1342.0,-24.0 L 1342.0,-18.0 L 1340.0,-10.0 L 1338.0,-4.0 L 1334.0,0.0 L 1328.0,4.0 L 1320.0,8.0 L 1315.0,9.0 L 1314.0,9.0 L 1313.0,9.0 L 1311.0,9.0 L 1307.0,6.0 L 1302.0,1.0 L 1301.0,-2.0 L 1299.0,-13.0 L 1297.0,-23.0 L 1295.0,-34.0 L 1295.0,-44.0 L 1295.0,-45.0 L 1295.0,-46.0 L 1295.0,-127.0 L 1295.0,-210.0 L 1295.0,-294.0 L 1295.0,-375.0 L 1295.0,-390.0 L 1297.0,-405.0 L 1299.0,-421.0 L 1304.0,-436.0 L 1307.0,-448.0 L 1317.0,-448.0 L 1318.0,-448.0 L 1320.0,-448.0 L 1329.0,-448.0 L 1336.0,-437.0 L 1339.0,-430.0 L 1341.0,-421.0 L 1342.0,-412.0 L 1343.0,-404.0 L 1343.0,-374.0 L 1343.0,-342.0 L 1343.0,-309.0 L 1343.0,-279.0 L 1343.0,-274.0 L 1343.0,-269.0 L 1344.0,-263.0 L 1344.0,-257.0 L 1383.0,-252.0 L 1420.0,-256.0 L 1457.0,-260.0 L 1497.0,-263.0 M 1737.0,-61.0 L 1745.0,-66.0 L 1752.0,-74.0 L 1761.0,-80.0 L 1769.0,-85.0 L 1778.0,-90.0 L 1785.0,-85.0 L 1793.0,-80.0 L 1799.0,-66.0 L 1777.0,-34.0 L 1755.0,-17.0 L 1736.0,0.0 L 1704.0,0.0 L 1701.0,0.0 L 1698.0,0.0 L 1659.0,0.0 L 1629.0,-15.0 L 1600.0,-29.0 L 1582.0,-76.0 L 1575.0,-95.0 L 1575.0,-115.0 L 1575.0,-117.0 L 1575.0,-119.0 L 1575.0,-141.0 L 1581.0,-162.0 L 1591.0,-192.0 L 1614.0,-215.0 L 1636.0,-237.0 L 1663.0,-248.0 L 1678.0,-254.0 L 1693.0,-255.0 L 1699.0,-256.0 L 1704.0,-256.0 L 1714.0,-256.0 L 1723.0,-254.0 L 1741.0,-250.0 L 1753.0,-242.0 L 1766.0,-232.0 L 1769.0,-213.0 L 1773.0,-195.0 L 1771.0,-177.0 L 1768.0,-160.0 L 1755.0,-145.0 L 1730.0,-115.0 L 1699.0,-103.0 L 1668.0,-89.0 L 1627.0,-95.0 L 1643.0,-55.0 L 1675.0,-47.0 L 1707.0,-40.0 L 1737.0,-61.0 M 1623.0,-135.0 L 1637.0,-132.0 L 1650.0,-132.0 L 1662.0,-132.0 L 1673.0,-135.0 L 1697.0,-141.0 L 1716.0,-156.0 L 1725.0,-163.0 L 1731.0,-176.0 L 1732.0,-181.0 L 1732.0,-186.0 L 1732.0,-194.0 L 1725.0,-204.0 L 1714.0,-208.0 L 1703.0,-208.0 L 1699.0,-208.0 L 1694.0,-208.0 L 1678.0,-206.0 L 1663.0,-198.0 L 1642.0,-188.0 L 1628.0,-170.0 L 1620.0,-158.0 L 1620.0,-148.0 L 1620.0,-142.0 L 1623.0,-135.0 M 1851.0,-44.0 L 1846.0,-87.0 L 1846.0,-129.0 L 1846.0,-172.0 L 1846.0,-215.0 L 1846.0,-226.0 L 1839.0,-241.0 L 1839.0,-244.0 L 1839.0,-245.0 L 1839.0,-257.0 L 1845.0,-263.0 L 1866.0,-259.0 L 1869.0,-244.0 L 1871.0,-228.0 L 1878.0,-214.0 L 1886.0,-224.0 L 1896.0,-231.0 L 1906.0,-239.0 L 1918.0,-245.0 L 1941.0,-256.0 L 1964.0,-256.0 L 1987.0,-256.0 L 1997.0,-244.0 L 1997.0,-225.0 L 1980.0,-220.0 L 1963.0,-216.0 L 1944.0,-208.0 L 1923.0,-197.0 L 1916.0,-186.0 L 1909.0,-175.0 L 1905.0,-154.0 L 1900.0,-129.0 L 1898.0,-105.0 L 1895.0,-79.0 L 1893.0,-55.0 L 1891.0,-41.0 L 1889.0,-28.0 L 1888.0,-15.0 L 1872.0,-6.0 L 1859.0,-12.0 L 1855.0,-23.0 L 1851.0,-33.0 L 1851.0,-44.0 M 2199.0,-61.0 L 2207.0,-66.0 L 2214.0,-74.0 L 2223.0,-80.0 L 2231.0,-85.0 L 2240.0,-90.0 L 2247.0,-85.0 L 2255.0,-80.0 L 2261.0,-66.0 L 2239.0,-34.0 L 2217.0,-17.0 L 2198.0,0.0 L 2166.0,0.0 L 2163.0,0.0 L 2160.0,0.0 L 2121.0,0.0 L 2091.0,-15.0 L 2062.0,-29.0 L 2044.0,-76.0 L 2037.0,-95.0 L 2037.0,-115.0 L 2037.0,-117.0 L 2037.0,-119.0 L 2037.0,-141.0 L 2043.0,-162.0 L 2053.0,-192.0 L 2076.0,-215.0 L 2098.0,-237.0 L 2125.0,-248.0 L 2140.0,-254.0 L 2155.0,-255.0 L 2161.0,-256.0 L 2166.0,-256.0 L 2176.0,-256.0 L 2185.0,-254.0 L 2203.0,-250.0 L 2215.0,-242.0 L 2228.0,-232.0 L 2231.0,-213.0 L 2235.0,-195.0 L 2233.0,-177.0 L 2230.0,-160.0 L 2217.0,-145.0 L 2192.0,-115.0 L 2161.0,-103.0 L 2130.0,-89.0 L 2089.0,-95.0 L 2105.0,-55.0 L 2137.0,-47.0 L 2169.0,-40.0 L 2199.0,-61.0 M 2085.0,-135.0 L 2099.0,-132.0 L 2112.0,-132.0 L 2124.0,-132.0 L 2135.0,-135.0 L 2159.0,-141.0 L 2178.0,-156.0 L 2187.0,-163.0 L 2193.0,-176.0 L 2194.0,-181.0 L 2194.0,-186.0 L 2194.0,-194.0 L 2187.0,-204.0 L 2176.0,-208.0 L 2165.0,-208.0 L 2161.0,-208.0 L 2156.0,-208.0 L 2140.0,-206.0 L 2125.0,-198.0 L 2104.0,-188.0 L 2090.0,-170.0 L 2082.0,-158.0 L 2082.0,-148.0 L 2082.0,-142.0 L 2085.0,-135.0 M 2461.0,-290.0 L 2461.0,-289.0 L 2461.0,-288.0 L 2461.0,-279.0 L 2467.0,-272.0 L 2474.0,-264.0 L 2484.0,-264.0 L 2492.0,-264.0 L 2500.0,-272.0 L 2507.0,-279.0 L 2508.0,-288.0 L 2508.0,-288.0 L 2508.0,-289.0 L 2508.0,-298.0 L 2501.0,-305.0 L 2494.0,-312.0 L 2483.0,-312.0 L 2483.0,-312.0 L 2482.0,-312.0 L 2474.0,-312.0 L 2468.0,-306.0 L 2462.0,-300.0 L 2461.0,-290.0 M 2475.0,-223.0 L 2468.0,-217.0 L 2466.0,-208.0 L 2463.0,-200.0 L 2462.0,-193.0 L 2462.0,-149.0 L 2462.0,-110.0 L 2462.0,-90.0 L 2462.0,-67.0 L 2462.0,-49.0 L 2462.0,-29.0 L 2462.0,-6.0 L 2481.0,-2.0 L 2488.0,0.0 L 2494.0,0.0 L 2502.0,0.0 L 2508.0,-4.0 L 2510.0,-8.0 L 2510.0,-23.0 L 2510.0,-38.0 L 2510.0,-56.0 L 2510.0,-79.0 L 2510.0,-99.0 L 2510.0,-120.0 L 2510.0,-124.0 L 2510.0,-136.0 L 2513.0,-164.0 L 2514.0,-171.0 L 2514.0,-178.0 L 2514.0,-195.0 L 2508.0,-209.0 L 2503.0,-215.0 L 2496.0,-220.0 L 2489.0,-223.0 L 2480.0,-223.0 L 2479.0,-223.0 L 2475.0,-223.0 M 2667.0,-215.0 L 2651.0,-217.0 L 2637.0,-214.0 L 2624.0,-212.0 L 2612.0,-201.0 L 2607.0,-197.0 L 2604.0,-188.0 L 2601.0,-181.0 L 2602.0,-174.0 L 2602.0,-170.0 L 2608.0,-164.0 L 2614.0,-160.0 L 2619.0,-159.0 L 2633.0,-155.0 L 2646.0,-154.0 L 2660.0,-152.0 L 2673.0,-150.0 L 2701.0,-145.0 L 2717.0,-128.0 L 2733.0,-112.0 L 2736.0,-87.0 L 2737.0,-81.0 L 2737.0,-75.0 L 2737.0,-62.0 L 2734.0,-51.0 L 2728.0,-36.0 L 2712.0,-23.0 L 2700.0,-12.0 L 2687.0,-8.0 L 2673.0,-2.0 L 2659.0,0.0 L 2652.0,0.0 L 2646.0,0.0 L 2626.0,0.0 L 2609.0,-6.0 L 2585.0,-14.0 L 2571.0,-29.0 L 2567.0,-32.0 L 2565.0,-35.0 L 2561.0,-39.0 L 2561.0,-47.0 L 2569.0,-64.0 L 2585.0,-64.0 L 2601.0,-64.0 L 2614.0,-53.0 L 2631.0,-45.0 L 2646.0,-43.0 L 2661.0,-41.0 L 2677.0,-51.0 L 2696.0,-63.0 L 2697.0,-76.0 L 2697.0,-88.0 L 2682.0,-104.0 L 2674.0,-108.0 L 2666.0,-111.0 L 2658.0,-113.0 L 2649.0,-115.0 L 2637.0,-118.0 L 2624.0,-118.0 L 2611.0,-118.0 L 2598.0,-122.0 L 2569.0,-133.0 L 2558.0,-162.0 L 2554.0,-173.0 L 2554.0,-184.0 L 2554.0,-201.0 L 2565.0,-217.0 L 2572.0,-227.0 L 2582.0,-233.0 L 2591.0,-241.0 L 2603.0,-246.0 L 2626.0,-256.0 L 2653.0,-256.0 L 2656.0,-256.0 L 2660.0,-256.0 L 2683.0,-256.0 L 2702.0,-247.0 L 2707.0,-245.0 L 2712.0,-238.0 L 2716.0,-231.0 L 2716.0,-224.0 L 2715.0,-210.0 L 2696.0,-211.0 L 2678.0,-213.0 L 2667.0,-215.0 M 3027.0,8.0 L 3000.0,13.0 L 2985.0,11.0 L 2969.0,8.0 L 2956.0,-13.0 L 2952.0,-21.0 L 2946.0,-31.0 L 2941.0,-41.0 L 2940.0,-51.0 L 2937.0,-78.0 L 2937.0,-122.0 L 2937.0,-166.0 L 2937.0,-193.0 L 2937.0,-193.0 L 2937.0,-194.0 L 2937.0,-199.0 L 2939.0,-207.0 L 2941.0,-216.0 L 2952.0,-222.0 L 2967.0,-219.0 L 2973.0,-210.0 L 2979.0,-199.0 L 2981.0,-192.0 L 2985.0,-179.0 L 2985.0,-157.0 L 2985.0,-135.0 L 2985.0,-114.0 L 2985.0,-103.0 L 2985.0,-93.0 L 2985.0,-83.0 L 2987.0,-76.0 L 2988.0,-65.0 L 2994.0,-50.0 L 3000.0,-34.0 L 3025.0,-38.0 L 3040.0,-47.0 L 3046.0,-53.0 L 3052.0,-59.0 L 3055.0,-78.0 L 3055.0,-78.0 L 3057.0,-85.0 L 3057.0,-93.0 L 3059.0,-103.0 L 3060.0,-119.0 L 3059.0,-142.0 L 3057.0,-164.0 L 3058.0,-186.0 L 3059.0,-196.0 L 3060.0,-207.0 L 3062.0,-216.0 L 3065.0,-224.0 L 3069.0,-229.0 L 3074.0,-230.0 L 3075.0,-230.0 L 3075.0,-230.0 L 3078.0,-230.0 L 3081.0,-227.0 L 3090.0,-219.0 L 3094.0,-193.0 L 3097.0,-168.0 L 3097.0,-158.0 L 3097.0,-105.0 L 3097.0,-43.0 L 3097.0,-20.0 L 3097.0,3.0 L 3097.0,39.0 L 3097.0,73.0 L 3097.0,105.0 L 3091.0,119.0 L 3085.0,132.0 L 3070.0,160.0 L 3062.0,175.0 L 3040.0,184.0 L 3019.0,192.0 L 2997.0,192.0 L 2995.0,192.0 L 2993.0,192.0 L 2980.0,192.0 L 2969.0,189.0 L 2957.0,186.0 L 2949.0,178.0 L 2939.0,168.0 L 2940.0,157.0 L 2942.0,145.0 L 2952.0,132.0 L 2961.0,131.0 L 2965.0,134.0 L 2969.0,137.0 L 2975.0,139.0 L 3007.0,149.0 L 3021.0,142.0 L 3035.0,135.0 L 3049.0,101.0 L 3058.0,78.0 L 3062.0,64.0 L 3065.0,50.0 L 3064.0,30.0 L 3063.0,22.0 L 3063.0,12.0 L 3061.0,2.0 L 3060.0,-12.0 L 3052.0,-5.0 L 3045.0,-1.0 L 3038.0,3.0 L 3027.0,8.0 M 3327.0,-51.0 L 3313.0,-22.0 L 3290.0,-10.0 L 3270.0,0.0 L 3243.0,0.0 L 3240.0,0.0 L 3236.0,0.0 L 3205.0,0.0 L 3184.0,-15.0 L 3163.0,-31.0 L 3150.0,-60.0 L 3141.0,-77.0 L 3139.0,-97.0 L 3137.0,-108.0 L 3137.0,-119.0 L 3137.0,-128.0 L 3138.0,-136.0 L 3142.0,-173.0 L 3164.0,-205.0 L 3186.0,-237.0 L 3224.0,-251.0 L 3236.0,-256.0 L 3248.0,-256.0 L 3252.0,-256.0 L 3257.0,-256.0 L 3273.0,-254.0 L 3287.0,-243.0 L 3318.0,-221.0 L 3332.0,-192.0 L 3346.0,-163.0 L 3346.0,-119.0 L 3346.0,-97.0 L 3340.0,-82.0 L 3334.0,-67.0 L 3327.0,-51.0 M 3296.0,-168.0 L 3287.0,-188.0 L 3272.0,-200.0 L 3260.0,-208.0 L 3247.0,-208.0 L 3244.0,-208.0 L 3241.0,-207.0 L 3221.0,-204.0 L 3206.0,-193.0 L 3190.0,-183.0 L 3184.0,-161.0 L 3182.0,-151.0 L 3180.0,-143.0 L 3177.0,-133.0 L 3177.0,-124.0 L 3177.0,-122.0 L 3177.0,-120.0 L 3177.0,-90.0 L 3195.0,-70.0 L 3214.0,-48.0 L 3245.0,-48.0 L 3245.0,-48.0 L 3245.0,-48.0 L 3271.0,-48.0 L 3288.0,-66.0 L 3305.0,-83.0 L 3305.0,-123.0 L 3304.0,-138.0 L 3302.0,-148.0 L 3300.0,-158.0 L 3296.0,-168.0 M 3507.0,-34.0 L 3498.0,-20.0 L 3488.0,-8.0 L 3477.0,3.0 L 3458.0,-2.0 L 3438.0,-8.0 L 3422.0,-20.0 L 3406.0,-32.0 L 3402.0,-56.0 L 3397.0,-85.0 L 3393.0,-115.0 L 3390.0,-145.0 L 3387.0,-174.0 L 3386.0,-184.0 L 3386.0,-190.0 L 3386.0,-194.0 L 3386.0,-196.0 L 3387.0,-202.0 L 3388.0,-218.0 L 3388.0,-223.0 L 3389.0,-230.0 L 3390.0,-237.0 L 3398.0,-242.0 L 3417.0,-231.0 L 3420.0,-220.0 L 3424.0,-210.0 L 3425.0,-192.0 L 3428.0,-165.0 L 3430.0,-142.0 L 3431.0,-119.0 L 3434.0,-91.0 L 3436.0,-73.0 L 3440.0,-69.0 L 3444.0,-63.0 L 3464.0,-50.0 L 3493.0,-70.0 L 3503.0,-91.0 L 3512.0,-113.0 L 3516.0,-137.0 L 3517.0,-150.0 L 3518.0,-164.0 L 3519.0,-178.0 L 3522.0,-193.0 L 3523.0,-202.0 L 3524.0,-211.0 L 3525.0,-220.0 L 3528.0,-228.0 L 3529.0,-233.0 L 3535.0,-237.0 L 3540.0,-241.0 L 3544.0,-242.0 L 3547.0,-242.0 L 3553.0,-238.0 L 3558.0,-234.0 L 3558.0,-230.0 L 3561.0,-218.0 L 3561.0,-211.0 L 3561.0,-204.0 L 3561.0,-191.0 L 3561.0,-161.0 L 3561.0,-136.0 L 3561.0,-110.0 L 3564.0,-81.0 L 3566.0,-62.0 L 3572.0,-44.0 L 3578.0,-25.0 L 3582.0,-7.0 L 3569.0,0.0 L 3559.0,0.0 L 3553.0,0.0 L 3548.0,-3.0 L 3537.0,-11.0 L 3520.0,-53.0 L 3516.0,-47.0 L 3513.0,-43.0 L 3509.0,-38.0 L 3507.0,-34.0 M 3634.0,-44.0 L 3629.0,-87.0 L 3629.0,-129.0 L 3629.0,-172.0 L 3629.0,-215.0 L 3629.0,-226.0 L 3622.0,-241.0 L 3622.0,-244.0 L 3622.0,-245.0 L 3622.0,-257.0 L 3628.0,-263.0 L 3649.0,-259.0 L 3652.0,-244.0 L 3654.0,-228.0 L 3661.0,-214.0 L 3669.0,-224.0 L 3679.0,-231.0 L 3689.0,-239.0 L 3701.0,-245.0 L 3724.0,-256.0 L 3747.0,-256.0 L 3770.0,-256.0 L 3780.0,-244.0 L 3780.0,-225.0 L 3763.0,-220.0 L 3746.0,-216.0 L 3727.0,-208.0 L 3706.0,-197.0 L 3699.0,-186.0 L 3692.0,-175.0 L 3688.0,-154.0 L 3683.0,-129.0 L 3681.0,-105.0 L 3678.0,-79.0 L 3676.0,-55.0 L 3674.0,-41.0 L 3672.0,-28.0 L 3671.0,-15.0 L 3655.0,-6.0 L 3642.0,-12.0 L 3638.0,-23.0 L 3634.0,-33.0 L 3634.0,-44.0 M 4138.0,-87.0 L 4152.0,-83.0 L 4152.0,-67.0 L 4152.0,-66.0 L 4152.0,-64.0 L 4152.0,-49.0 L 4145.0,-34.0 L 4140.0,-23.0 L 4131.0,-15.0 L 4122.0,-6.0 L 4112.0,-3.0 L 4104.0,0.0 L 4095.0,0.0 L 4080.0,0.0 L 4067.0,-7.0 L 4045.0,-19.0 L 4038.0,-42.0 L 4032.0,-56.0 L 4031.0,-70.0 L 4028.0,-85.0 L 4027.0,-99.0 L 4026.0,-106.0 L 4026.0,-114.0 L 4026.0,-121.0 L 4027.0,-128.0 L 4027.0,-151.0 L 4027.0,-165.0 L 4027.0,-180.0 L 4027.0,-192.0 L 4026.0,-205.0 L 4013.0,-204.0 L 4001.0,-201.0 L 3983.0,-210.0 L 3983.0,-210.0 L 3981.0,-209.0 L 3980.0,-209.0 L 3980.0,-209.0 L 3980.0,-209.0 L 3982.0,-210.0 L 3982.0,-218.0 L 3984.0,-223.0 L 3987.0,-228.0 L 3991.0,-231.0 L 3998.0,-236.0 L 4008.0,-238.0 L 4019.0,-240.0 L 4027.0,-246.0 L 4028.0,-254.0 L 4030.0,-264.0 L 4033.0,-274.0 L 4034.0,-285.0 L 4036.0,-294.0 L 4037.0,-308.0 L 4039.0,-322.0 L 4054.0,-324.0 L 4073.0,-317.0 L 4074.0,-301.0 L 4075.0,-286.0 L 4075.0,-270.0 L 4074.0,-261.0 L 4075.0,-254.0 L 4076.0,-246.0 L 4081.0,-240.0 L 4093.0,-237.0 L 4105.0,-235.0 L 4118.0,-232.0 L 4130.0,-228.0 L 4142.0,-211.0 L 4136.0,-201.0 L 4130.0,-192.0 L 4107.0,-192.0 L 4101.0,-192.0 L 4096.0,-192.0 L 4090.0,-192.0 L 4083.0,-192.0 L 4075.0,-160.0 L 4075.0,-131.0 L 4075.0,-102.0 L 4078.0,-73.0 L 4078.0,-65.0 L 4081.0,-54.0 L 4083.0,-44.0 L 4095.0,-39.0 L 4102.0,-40.0 L 4107.0,-44.0 L 4111.0,-47.0 L 4114.0,-52.0 L 4120.0,-60.0 L 4124.0,-70.0 L 4127.0,-81.0 L 4138.0,-87.0 M 4354.0,-61.0 L 4362.0,-66.0 L 4369.0,-74.0 L 4378.0,-80.0 L 4386.0,-85.0 L 4395.0,-90.0 L 4402.0,-85.0 L 4410.0,-80.0 L 4416.0,-66.0 L 4394.0,-34.0 L 4372.0,-17.0 L 4353.0,0.0 L 4321.0,0.0 L 4318.0,0.0 L 4315.0,0.0 L 4276.0,0.0 L 4246.0,-15.0 L 4217.0,-29.0 L 4199.0,-76.0 L 4192.0,-95.0 L 4192.0,-115.0 L 4192.0,-117.0 L 4192.0,-119.0 L 4192.0,-141.0 L 4198.0,-162.0 L 4208.0,-192.0 L 4231.0,-215.0 L 4253.0,-237.0 L 4280.0,-248.0 L 4295.0,-254.0 L 4310.0,-255.0 L 4316.0,-256.0 L 4321.0,-256.0 L 4331.0,-256.0 L 4340.0,-254.0 L 4358.0,-250.0 L 4370.0,-242.0 L 4383.0,-232.0 L 4386.0,-213.0 L 4390.0,-195.0 L 4388.0,-177.0 L 4385.0,-160.0 L 4372.0,-145.0 L 4347.0,-115.0 L 4316.0,-103.0 L 4285.0,-89.0 L 4244.0,-95.0 L 4260.0,-55.0 L 4292.0,-47.0 L 4324.0,-40.0 L 4354.0,-61.0 M 4240.0,-135.0 L 4254.0,-132.0 L 4267.0,-132.0 L 4279.0,-132.0 L 4290.0,-135.0 L 4314.0,-141.0 L 4333.0,-156.0 L 4342.0,-163.0 L 4348.0,-176.0 L 4349.0,-181.0 L 4349.0,-186.0 L 4349.0,-194.0 L 4342.0,-204.0 L 4331.0,-208.0 L 4320.0,-208.0 L 4316.0,-208.0 L 4311.0,-208.0 L 4295.0,-206.0 L 4280.0,-198.0 L 4259.0,-188.0 L 4245.0,-170.0 L 4237.0,-158.0 L 4237.0,-148.0 L 4237.0,-142.0 L 4240.0,-135.0 M 4610.0,-124.0 L 4617.0,-114.0 L 4627.0,-101.0 L 4636.0,-88.0 L 4646.0,-72.0 L 4661.0,-51.0 L 4673.0,-32.0 L 4684.0,-14.0 L 4684.0,-8.0 L 4684.0,-8.0 L 4684.0,-8.0 L 4678.0,0.0 L 4669.0,0.0 L 4665.0,1.0 L 4662.0,1.0 L 4658.0,1.0 L 4655.0,0.0 L 4648.0,-4.0 L 4640.0,-11.0 L 4633.0,-18.0 L 4627.0,-26.0 L 4616.0,-40.0 L 4602.0,-61.0 L 4589.0,-81.0 L 4575.0,-103.0 L 4564.0,-91.0 L 4554.0,-78.0 L 4544.0,-64.0 L 4535.0,-54.0 L 4525.0,-42.0 L 4514.0,-30.0 L 4503.0,-17.0 L 4493.0,-6.0 L 4483.0,3.0 L 4470.0,0.0 L 4456.0,-2.0 L 4456.0,-13.0 L 4473.0,-50.0 L 4497.0,-76.0 L 4520.0,-101.0 L 4539.0,-132.0 L 4523.0,-153.0 L 4503.0,-175.0 L 4483.0,-196.0 L 4472.0,-214.0 L 4467.0,-225.0 L 4466.0,-233.0 L 4465.0,-242.0 L 4470.0,-249.0 L 4482.0,-259.0 L 4498.0,-245.0 L 4514.0,-230.0 L 4531.0,-209.0 L 4543.0,-195.0 L 4554.0,-182.0 L 4566.0,-169.0 L 4576.0,-161.0 L 4584.0,-172.0 L 4596.0,-186.0 L 4608.0,-202.0 L 4619.0,-212.0 L 4628.0,-223.0 L 4643.0,-239.0 L 4658.0,-256.0 L 4670.0,-256.0 L 4677.0,-251.0 L 4679.0,-244.0 L 4681.0,-238.0 L 4680.0,-230.0 L 4678.0,-222.0 L 4672.0,-213.0 L 4667.0,-203.0 L 4660.0,-194.0 L 4647.0,-175.0 L 4631.0,-157.0 L 4616.0,-138.0 L 4610.0,-124.0 M 4882.0,-87.0 L 4896.0,-83.0 L 4896.0,-67.0 L 4896.0,-66.0 L 4896.0,-64.0 L 4896.0,-49.0 L 4889.0,-34.0 L 4884.0,-23.0 L 4875.0,-15.0 L 4866.0,-6.0 L 4856.0,-3.0 L 4848.0,0.0 L 4839.0,0.0 L 4824.0,0.0 L 4811.0,-7.0 L 4789.0,-19.0 L 4782.0,-42.0 L 4776.0,-56.0 L 4775.0,-70.0 L 4772.0,-85.0 L 4771.0,-99.0 L 4770.0,-106.0 L 4770.0,-114.0 L 4770.0,-121.0 L 4771.0,-128.0 L 4771.0,-151.0 L 4771.0,-165.0 L 4771.0,-180.0 L 4771.0,-192.0 L 4770.0,-205.0 L 4757.0,-204.0 L 4745.0,-201.0 L 4727.0,-210.0 L 4727.0,-210.0 L 4725.0,-209.0 L 4724.0,-209.0 L 4724.0,-209.0 L 4724.0,-209.0 L 4726.0,-210.0 L 4726.0,-218.0 L 4728.0,-223.0 L 4731.0,-228.0 L 4735.0,-231.0 L 4742.0,-236.0 L 4752.0,-238.0 L 4763.0,-240.0 L 4771.0,-246.0 L 4772.0,-254.0 L 4774.0,-264.0 L 4777.0,-274.0 L 4778.0,-285.0 L 4780.0,-294.0 L 4781.0,-308.0 L 4783.0,-322.0 L 4798.0,-324.0 L 4817.0,-317.0 L 4818.0,-301.0 L 4819.0,-286.0 L 4819.0,-270.0 L 4818.0,-261.0 L 4819.0,-254.0 L 4820.0,-246.0 L 4825.0,-240.0 L 4837.0,-237.0 L 4849.0,-235.0 L 4862.0,-232.0 L 4874.0,-228.0 L 4886.0,-211.0 L 4880.0,-201.0 L 4874.0,-192.0 L 4851.0,-192.0 L 4845.0,-192.0 L 4840.0,-192.0 L 4834.0,-192.0 L 4827.0,-192.0 L 4819.0,-160.0 L 4819.0,-131.0 L 4819.0,-102.0 L 4822.0,-73.0 L 4822.0,-65.0 L 4825.0,-54.0 L 4827.0,-44.0 L 4839.0,-39.0 L 4846.0,-40.0 L 4851.0,-44.0 L 4855.0,-47.0 L 4858.0,-52.0 L 4864.0,-60.0 L 4868.0,-70.0 L 4871.0,-81.0 L 4882.0,-87.0 M 5184.0,-74.0 L 5191.0,-86.0 L 5198.0,-98.0 L 5205.0,-108.0 L 5212.0,-120.0 L 5230.0,-151.0 L 5238.0,-151.0 L 5247.0,-151.0 L 5265.0,-122.0 L 5271.0,-114.0 L 5277.0,-105.0 L 5284.0,-96.0 L 5292.0,-84.0 L 5297.0,-95.0 L 5301.0,-103.0 L 5305.0,-111.0 L 5308.0,-120.0 L 5317.0,-146.0 L 5325.0,-171.0 L 5333.0,-195.0 L 5342.0,-222.0 L 5346.0,-233.0 L 5352.0,-243.0 L 5358.0,-253.0 L 5374.0,-251.0 L 5382.0,-237.0 L 5382.0,-225.0 L 5382.0,-224.0 L 5382.0,-222.0 L 5380.0,-210.0 L 5377.0,-195.0 L 5365.0,-151.0 L 5352.0,-106.0 L 5338.0,-62.0 L 5325.0,-19.0 L 5324.0,-14.0 L 5320.0,-10.0 L 5317.0,-6.0 L 5313.0,-1.0 L 5295.0,-7.0 L 5285.0,-20.0 L 5275.0,-34.0 L 5265.0,-49.0 L 5260.0,-57.0 L 5254.0,-64.0 L 5247.0,-72.0 L 5239.0,-78.0 L 5230.0,-62.0 L 5219.0,-46.0 L 5209.0,-31.0 L 5198.0,-16.0 L 5186.0,0.0 L 5172.0,0.0 L 5170.0,0.0 L 5169.0,0.0 L 5153.0,-2.0 L 5148.0,-22.0 L 5137.0,-69.0 L 5122.0,-122.0 L 5108.0,-177.0 L 5098.0,-223.0 L 5097.0,-227.0 L 5096.0,-241.0 L 5096.0,-243.0 L 5096.0,-244.0 L 5097.0,-256.0 L 5109.0,-256.0 L 5109.0,-256.0 L 5109.0,-256.0 L 5122.0,-256.0 L 5133.0,-227.0 L 5143.0,-197.0 L 5153.0,-160.0 L 5160.0,-136.0 L 5168.0,-113.0 L 5175.0,-89.0 L 5184.0,-74.0 M 5422.0,-290.0 L 5422.0,-289.0 L 5422.0,-288.0 L 5422.0,-279.0 L 5428.0,-272.0 L 5435.0,-264.0 L 5445.0,-264.0 L 5453.0,-264.0 L 5461.0,-272.0 L 5468.0,-279.0 L 5469.0,-288.0 L 5469.0,-288.0 L 5469.0,-289.0 L 5469.0,-298.0 L 5462.0,-305.0 L 5455.0,-312.0 L 5444.0,-312.0 L 5444.0,-312.0 L 5443.0,-312.0 L 5435.0,-312.0 L 5429.0,-306.0 L 5423.0,-300.0 L 5422.0,-290.0 M 5436.0,-223.0 L 5429.0,-217.0 L 5427.0,-208.0 L 5424.0,-200.0 L 5423.0,-193.0 L 5423.0,-149.0 L 5423.0,-110.0 L 5423.0,-90.0 L 5423.0,-67.0 L 5423.0,-49.0 L 5423.0,-29.0 L 5423.0,-6.0 L 5442.0,-2.0 L 5449.0,0.0 L 5455.0,0.0 L 5463.0,0.0 L 5469.0,-4.0 L 5471.0,-8.0 L 5471.0,-23.0 L 5471.0,-38.0 L 5471.0,-56.0 L 5471.0,-79.0 L 5471.0,-99.0 L 5471.0,-120.0 L 5471.0,-124.0 L 5471.0,-136.0 L 5474.0,-164.0 L 5475.0,-171.0 L 5475.0,-178.0 L 5475.0,-195.0 L 5469.0,-209.0 L 5464.0,-215.0 L 5457.0,-220.0 L 5450.0,-223.0 L 5441.0,-223.0 L 5440.0,-223.0 L 5436.0,-223.0 M 5673.0,-87.0 L 5687.0,-83.0 L 5687.0,-67.0 L 5687.0,-66.0 L 5687.0,-64.0 L 5687.0,-49.0 L 5680.0,-34.0 L 5675.0,-23.0 L 5666.0,-15.0 L 5657.0,-6.0 L 5647.0,-3.0 L 5639.0,0.0 L 5630.0,0.0 L 5615.0,0.0 L 5602.0,-7.0 L 5580.0,-19.0 L 5573.0,-42.0 L 5567.0,-56.0 L 5566.0,-70.0 L 5563.0,-85.0 L 5562.0,-99.0 L 5561.0,-106.0 L 5561.0,-114.0 L 5561.0,-121.0 L 5562.0,-128.0 L 5562.0,-151.0 L 5562.0,-165.0 L 5562.0,-180.0 L 5562.0,-192.0 L 5561.0,-205.0 L 5548.0,-204.0 L 5536.0,-201.0 L 5518.0,-210.0 L 5518.0,-210.0 L 5516.0,-209.0 L 5515.0,-209.0 L 5515.0,-209.0 L 5515.0,-209.0 L 5517.0,-210.0 L 5517.0,-218.0 L 5519.0,-223.0 L 5522.0,-228.0 L 5526.0,-231.0 L 5533.0,-236.0 L 5543.0,-238.0 L 5554.0,-240.0 L 5562.0,-246.0 L 5563.0,-254.0 L 5565.0,-264.0 L 5568.0,-274.0 L 5569.0,-285.0 L 5571.0,-294.0 L 5572.0,-308.0 L 5574.0,-322.0 L 5589.0,-324.0 L 5608.0,-317.0 L 5609.0,-301.0 L 5610.0,-286.0 L 5610.0,-270.0 L 5609.0,-261.0 L 5610.0,-254.0 L 5611.0,-246.0 L 5616.0,-240.0 L 5628.0,-237.0 L 5640.0,-235.0 L 5653.0,-232.0 L 5665.0,-228.0 L 5677.0,-211.0 L 5671.0,-201.0 L 5665.0,-192.0 L 5642.0,-192.0 L 5636.0,-192.0 L 5631.0,-192.0 L 5625.0,-192.0 L 5618.0,-192.0 L 5610.0,-160.0 L 5610.0,-131.0 L 5610.0,-102.0 L 5613.0,-73.0 L 5613.0,-65.0 L 5616.0,-54.0 L 5618.0,-44.0 L 5630.0,-39.0 L 5637.0,-40.0 L 5642.0,-44.0 L 5646.0,-47.0 L 5649.0,-52.0 L 5655.0,-60.0 L 5659.0,-70.0 L 5662.0,-81.0 L 5673.0,-87.0 M 5775.0,-319.0 L 5775.0,-289.0 L 5775.0,-259.0 L 5775.0,-229.0 L 5775.0,-199.0 L 5786.0,-213.0 L 5797.0,-225.0 L 5807.0,-237.0 L 5836.0,-243.0 L 5849.0,-246.0 L 5859.0,-243.0 L 5870.0,-238.0 L 5877.0,-226.0 L 5884.0,-213.0 L 5891.0,-200.0 L 5898.0,-186.0 L 5899.0,-172.0 L 5903.0,-133.0 L 5903.0,-96.0 L 5903.0,-57.0 L 5903.0,-19.0 L 5903.0,-19.0 L 5903.0,-18.0 L 5903.0,-13.0 L 5899.0,-6.0 L 5895.0,0.0 L 5892.0,0.0 L 5885.0,0.0 L 5878.0,-3.0 L 5870.0,-5.0 L 5868.0,-10.0 L 5863.0,-20.0 L 5860.0,-32.0 L 5858.0,-43.0 L 5857.0,-55.0 L 5855.0,-78.0 L 5855.0,-102.0 L 5855.0,-127.0 L 5855.0,-151.0 L 5853.0,-166.0 L 5850.0,-178.0 L 5847.0,-192.0 L 5835.0,-201.0 L 5810.0,-184.0 L 5795.0,-156.0 L 5780.0,-127.0 L 5776.0,-84.0 L 5775.0,-69.0 L 5775.0,-54.0 L 5775.0,-38.0 L 5775.0,-24.0 L 5775.0,-13.0 L 5770.0,-6.0 L 5764.0,0.0 L 5756.0,0.0 L 5754.0,0.0 L 5753.0,0.0 L 5743.0,0.0 L 5737.0,-5.0 L 5728.0,-10.0 L 5727.0,-22.0 L 5727.0,-27.0 L 5727.0,-33.0 L 5727.0,-35.0 L 5727.0,-37.0 L 5727.0,-44.0 L 5727.0,-51.0 L 5727.0,-104.0 L 5727.0,-159.0 L 5727.0,-212.0 L 5727.0,-266.0 L 5727.0,-294.0 L 5727.0,-327.0 L 5727.0,-360.0 L 5727.0,-389.0 L 5727.0,-401.0 L 5727.0,-414.0 L 5728.0,-428.0 L 5728.0,-442.0 L 5731.0,-447.0 L 5737.0,-448.0 L 5737.0,-448.0 L 5738.0,-448.0 L 5745.0,-448.0 L 5755.0,-443.0 L 5775.0,-417.0 L 5775.0,-384.0 L 5775.0,-350.0 L 5775.0,-319.0 M 6293.0,-51.0 L 6279.0,-22.0 L 6256.0,-10.0 L 6236.0,0.0 L 6209.0,0.0 L 6206.0,0.0 L 6202.0,0.0 L 6171.0,0.0 L 6150.0,-15.0 L 6129.0,-31.0 L 6116.0,-60.0 L 6107.0,-77.0 L 6105.0,-97.0 L 6103.0,-108.0 L 6103.0,-119.0 L 6103.0,-128.0 L 6104.0,-136.0 L 6108.0,-173.0 L 6130.0,-205.0 L 6152.0,-237.0 L 6190.0,-251.0 L 6202.0,-256.0 L 6214.0,-256.0 L 6218.0,-256.0 L 6223.0,-256.0 L 6239.0,-254.0 L 6253.0,-243.0 L 6284.0,-221.0 L 6298.0,-192.0 L 6312.0,-163.0 L 6312.0,-119.0 L 6312.0,-97.0 L 6306.0,-82.0 L 6300.0,-67.0 L 6293.0,-51.0 M 6262.0,-168.0 L 6253.0,-188.0 L 6238.0,-200.0 L 6226.0,-208.0 L 6213.0,-208.0 L 6210.0,-208.0 L 6207.0,-207.0 L 6187.0,-204.0 L 6172.0,-193.0 L 6156.0,-183.0 L 6150.0,-161.0 L 6148.0,-151.0 L 6146.0,-143.0 L 6143.0,-133.0 L 6143.0,-124.0 L 6143.0,-122.0 L 6143.0,-120.0 L 6143.0,-90.0 L 6161.0,-70.0 L 6180.0,-48.0 L 6211.0,-48.0 L 6211.0,-48.0 L 6211.0,-48.0 L 6237.0,-48.0 L 6254.0,-66.0 L 6271.0,-83.0 L 6271.0,-123.0 L 6270.0,-138.0 L 6268.0,-148.0 L 6266.0,-158.0 L 6262.0,-168.0 M 6512.0,-69.0 L 6512.0,-96.0 L 6512.0,-117.0 L 6512.0,-138.0 L 6506.0,-165.0 L 6503.0,-175.0 L 6498.0,-190.0 L 6493.0,-207.0 L 6479.0,-210.0 L 6460.0,-205.0 L 6449.0,-200.0 L 6437.0,-194.0 L 6431.0,-187.0 L 6417.0,-174.0 L 6412.0,-157.0 L 6409.0,-140.0 L 6404.0,-121.0 L 6399.0,-103.0 L 6398.0,-83.0 L 6398.0,-64.0 L 6397.0,-45.0 L 6397.0,-38.0 L 6397.0,-31.0 L 6398.0,-24.0 L 6396.0,-18.0 L 6394.0,-13.0 L 6389.0,-7.0 L 6385.0,-1.0 L 6380.0,0.0 L 6375.0,0.0 L 6368.0,-4.0 L 6362.0,-8.0 L 6358.0,-12.0 L 6354.0,-16.0 L 6353.0,-22.0 L 6352.0,-28.0 L 6352.0,-33.0 L 6352.0,-78.0 L 6352.0,-123.0 L 6352.0,-128.0 L 6352.0,-132.0 L 6352.0,-181.0 L 6352.0,-229.0 L 6373.0,-240.0 L 6379.0,-230.0 L 6385.0,-218.0 L 6393.0,-211.0 L 6407.0,-220.0 L 6419.0,-230.0 L 6433.0,-239.0 L 6447.0,-246.0 L 6466.0,-256.0 L 6485.0,-256.0 L 6491.0,-256.0 L 6498.0,-254.0 L 6521.0,-249.0 L 6536.0,-221.0 L 6560.0,-171.0 L 6560.0,-123.0 L 6560.0,-114.0 L 6560.0,-103.0 L 6560.0,-64.0 L 6551.0,-20.0 L 6551.0,-17.0 L 6547.0,-7.0 L 6543.0,2.0 L 6536.0,3.0 L 6513.0,2.0 L 6511.0,-12.0 L 6508.0,-27.0 L 6512.0,-69.0 M 6648.0,-410.0 L 6648.0,-378.0 L 6648.0,-347.0 L 6648.0,-316.0 L 6648.0,-285.0 L 6648.0,-254.0 L 6648.0,-224.0 L 6648.0,-194.0 L 6648.0,-163.0 L 6648.0,-130.0 L 6648.0,-96.0 L 6648.0,-78.0 L 6648.0,-61.0 L 6648.0,-44.0 L 6648.0,-29.0 L 6648.0,-20.0 L 6646.0,-11.0 L 6645.0,-1.0 L 6629.0,0.0 L 6615.0,0.0 L 6608.0,-7.0 L 6600.0,-15.0 L 6600.0,-27.0 L 6600.0,-71.0 L 6600.0,-113.0 L 6600.0,-140.0 L 6600.0,-165.0 L 6600.0,-183.0 L 6600.0,-201.0 L 6600.0,-249.0 L 6600.0,-299.0 L 6600.0,-347.0 L 6600.0,-396.0 L 6600.0,-403.0 L 6602.0,-415.0 L 6602.0,-427.0 L 6607.0,-436.0 L 6609.0,-441.0 L 6615.0,-445.0 L 6620.0,-448.0 L 6629.0,-448.0 L 6644.0,-442.0 L 6645.0,-431.0 L 6648.0,-420.0 L 6648.0,-410.0 M 6778.0,8.0 L 6751.0,13.0 L 6736.0,11.0 L 6720.0,8.0 L 6707.0,-13.0 L 6703.0,-21.0 L 6697.0,-31.0 L 6692.0,-41.0 L 6691.0,-51.0 L 6688.0,-78.0 L 6688.0,-122.0 L 6688.0,-166.0 L 6688.0,-193.0 L 6688.0,-193.0 L 6688.0,-194.0 L 6688.0,-199.0 L 6690.0,-207.0 L 6692.0,-216.0 L 6703.0,-222.0 L 6718.0,-219.0 L 6724.0,-210.0 L 6730.0,-199.0 L 6732.0,-192.0 L 6736.0,-179.0 L 6736.0,-157.0 L 6736.0,-135.0 L 6736.0,-114.0 L 6736.0,-103.0 L 6736.0,-93.0 L 6736.0,-83.0 L 6738.0,-76.0 L 6739.0,-65.0 L 6745.0,-50.0 L 6751.0,-34.0 L 6776.0,-38.0 L 6791.0,-47.0 L 6797.0,-53.0 L 6803.0,-59.0 L 6806.0,-78.0 L 6806.0,-78.0 L 6808.0,-85.0 L 6808.0,-93.0 L 6810.0,-103.0 L 6811.0,-119.0 L 6810.0,-142.0 L 6808.0,-164.0 L 6809.0,-186.0 L 6810.0,-196.0 L 6811.0,-207.0 L 6813.0,-216.0 L 6816.0,-224.0 L 6820.0,-229.0 L 6825.0,-230.0 L 6826.0,-230.0 L 6826.0,-230.0 L 6829.0,-230.0 L 6832.0,-227.0 L 6841.0,-219.0 L 6845.0,-193.0 L 6848.0,-168.0 L 6848.0,-158.0 L 6848.0,-105.0 L 6848.0,-43.0 L 6848.0,-20.0 L 6848.0,3.0 L 6848.0,39.0 L 6848.0,73.0 L 6848.0,105.0 L 6842.0,119.0 L 6836.0,132.0 L 6821.0,160.0 L 6813.0,175.0 L 6791.0,184.0 L 6770.0,192.0 L 6748.0,192.0 L 6746.0,192.0 L 6744.0,192.0 L 6731.0,192.0 L 6720.0,189.0 L 6708.0,186.0 L 6700.0,178.0 L 6690.0,168.0 L 6691.0,157.0 L 6693.0,145.0 L 6703.0,132.0 L 6712.0,131.0 L 6716.0,134.0 L 6720.0,137.0 L 6726.0,139.0 L 6758.0,149.0 L 6772.0,142.0 L 6786.0,135.0 L 6800.0,101.0 L 6809.0,78.0 L 6813.0,64.0 L 6816.0,50.0 L 6815.0,30.0 L 6814.0,22.0 L 6814.0,12.0 L 6812.0,2.0 L 6811.0,-12.0 L 6803.0,-5.0 L 6796.0,-1.0 L 6789.0,3.0 L 6778.0,8.0 M 250.0,1066.0 L 250.0,1075.0 L 247.0,1087.0 L 244.0,1101.0 L 243.0,1110.0 L 229.0,1172.0 L 186.0,1187.0 L 173.0,1192.0 L 158.0,1192.0 L 130.0,1192.0 L 97.0,1174.0 L 86.0,1168.0 L 77.0,1156.0 L 68.0,1145.0 L 62.0,1132.0 L 59.0,1124.0 L 59.0,1112.0 L 58.0,1100.0 L 67.0,1089.0 L 72.0,1086.0 L 81.0,1095.0 L 89.0,1105.0 L 98.0,1114.0 L 104.0,1122.0 L 110.0,1128.0 L 116.0,1133.0 L 122.0,1136.0 L 151.0,1145.0 L 167.0,1135.0 L 182.0,1124.0 L 191.0,1093.0 L 197.0,1071.0 L 198.0,1054.0 L 199.0,1037.0 L 199.0,1018.0 L 198.0,1001.0 L 198.0,994.0 L 199.0,987.0 L 198.0,975.0 L 185.0,978.0 L 169.0,981.0 L 153.0,984.0 L 142.0,984.0 L 103.0,984.0 L 83.0,966.0 L 63.0,947.0 L 53.0,899.0 L 50.0,884.0 L 50.0,869.0 L 50.0,856.0 L 52.0,845.0 L 57.0,818.0 L 68.0,795.0 L 82.0,762.0 L 108.0,751.0 L 126.0,744.0 L 150.0,744.0 L 162.0,744.0 L 176.0,746.0 L 193.0,750.0 L 209.0,760.0 L 226.0,770.0 L 248.0,782.0 L 250.0,810.0 L 250.0,830.0 L 250.0,853.0 L 250.0,870.0 L 250.0,898.0 L 250.0,922.0 L 250.0,926.0 L 250.0,931.0 L 250.0,958.0 L 250.0,989.0 L 250.0,1005.0 L 250.0,1023.0 L 250.0,1042.0 L 250.0,1066.0 M 106.0,822.0 L 99.0,840.0 L 98.0,863.0 L 97.0,870.0 L 97.0,876.0 L 97.0,892.0 L 100.0,906.0 L 103.0,916.0 L 106.0,925.0 L 110.0,933.0 L 115.0,936.0 L 126.0,936.0 L 151.0,936.0 L 159.0,936.0 L 165.0,936.0 L 182.0,936.0 L 194.0,928.0 L 202.0,896.0 L 202.0,865.0 L 202.0,835.0 L 196.0,805.0 L 164.0,792.0 L 145.0,792.0 L 140.0,792.0 L 137.0,793.0 L 117.0,796.0 L 106.0,822.0 M 302.0,956.0 L 297.0,913.0 L 297.0,871.0 L 297.0,828.0 L 297.0,785.0 L 297.0,774.0 L 290.0,759.0 L 290.0,756.0 L 290.0,755.0 L 290.0,743.0 L 296.0,737.0 L 317.0,741.0 L 320.0,756.0 L 322.0,772.0 L 329.0,786.0 L 337.0,776.0 L 347.0,769.0 L 357.0,761.0 L 369.0,755.0 L 392.0,744.0 L 415.0,744.0 L 438.0,744.0 L 448.0,756.0 L 448.0,775.0 L 431.0,780.0 L 414.0,784.0 L 395.0,792.0 L 374.0,803.0 L 367.0,814.0 L 360.0,825.0 L 356.0,846.0 L 351.0,871.0 L 349.0,895.0 L 346.0,921.0 L 344.0,945.0 L 342.0,959.0 L 340.0,972.0 L 339.0,985.0 L 323.0,994.0 L 310.0,988.0 L 306.0,977.0 L 302.0,967.0 L 302.0,956.0 M 659.0,949.0 L 649.0,959.0 L 639.0,966.0 L 629.0,975.0 L 618.0,984.0 L 596.0,1000.0 L 578.0,1000.0 L 576.0,1000.0 L 574.0,1000.0 L 552.0,998.0 L 530.0,978.0 L 521.0,969.0 L 513.0,960.0 L 505.0,951.0 L 498.0,942.0 L 493.0,935.0 L 491.0,914.0 L 488.0,898.0 L 488.0,889.0 L 488.0,887.0 L 488.0,886.0 L 488.0,838.0 L 501.0,815.0 L 512.0,792.0 L 548.0,763.0 L 566.0,749.0 L 587.0,745.0 L 592.0,744.0 L 599.0,744.0 L 613.0,744.0 L 626.0,751.0 L 646.0,761.0 L 661.0,779.0 L 678.0,795.0 L 679.0,823.0 L 679.0,837.0 L 681.0,851.0 L 683.0,865.0 L 684.0,880.0 L 684.0,902.0 L 693.0,922.0 L 700.0,943.0 L 717.0,958.0 L 721.0,961.0 L 721.0,969.0 L 722.0,977.0 L 724.0,983.0 L 709.0,992.0 L 698.0,986.0 L 688.0,981.0 L 679.0,971.0 L 674.0,965.0 L 669.0,960.0 L 665.0,953.0 L 659.0,949.0 M 638.0,821.0 L 636.0,804.0 L 629.0,797.0 L 624.0,792.0 L 613.0,792.0 L 610.0,792.0 L 606.0,792.0 L 598.0,793.0 L 588.0,796.0 L 579.0,798.0 L 573.0,802.0 L 551.0,821.0 L 543.0,843.0 L 536.0,860.0 L 536.0,891.0 L 536.0,896.0 L 536.0,901.0 L 536.0,919.0 L 547.0,929.0 L 558.0,941.0 L 570.0,948.0 L 577.0,952.0 L 584.0,952.0 L 589.0,952.0 L 594.0,950.0 L 608.0,945.0 L 616.0,938.0 L 636.0,920.0 L 639.0,902.0 L 641.0,885.0 L 641.0,867.0 L 641.0,850.0 L 640.0,839.0 L 639.0,828.0 L 638.0,821.0 M 899.0,887.0 L 895.0,869.0 L 894.0,847.0 L 894.0,824.0 L 891.0,806.0 L 890.0,800.0 L 885.0,795.0 L 880.0,790.0 L 874.0,786.0 L 856.0,783.0 L 847.0,789.0 L 838.0,795.0 L 831.0,806.0 L 812.0,838.0 L 812.0,877.0 L 812.0,918.0 L 809.0,957.0 L 808.0,963.0 L 808.0,970.0 L 809.0,977.0 L 807.0,985.0 L 805.0,989.0 L 802.0,995.0 L 798.0,1000.0 L 789.0,1000.0 L 775.0,998.0 L 770.0,986.0 L 764.0,974.0 L 764.0,963.0 L 764.0,918.0 L 764.0,868.0 L 764.0,841.0 L 764.0,815.0 L 764.0,794.0 L 764.0,773.0 L 764.0,768.0 L 766.0,757.0 L 768.0,748.0 L 777.0,744.0 L 799.0,744.0 L 801.0,757.0 L 803.0,771.0 L 802.0,783.0 L 804.0,778.0 L 805.0,776.0 L 805.0,775.0 L 810.0,771.0 L 835.0,744.0 L 866.0,744.0 L 895.0,744.0 L 924.0,766.0 L 930.0,763.0 L 936.0,759.0 L 942.0,756.0 L 948.0,753.0 L 967.0,744.0 L 989.0,744.0 L 993.0,744.0 L 997.0,744.0 L 1023.0,748.0 L 1041.0,774.0 L 1053.0,793.0 L 1060.0,816.0 L 1068.0,837.0 L 1068.0,860.0 L 1068.0,864.0 L 1068.0,868.0 L 1068.0,894.0 L 1066.0,919.0 L 1061.0,950.0 L 1059.0,978.0 L 1059.0,984.0 L 1055.0,992.0 L 1049.0,1000.0 L 1040.0,1000.0 L 1020.0,985.0 L 1020.0,963.0 L 1020.0,942.0 L 1020.0,922.0 L 1020.0,893.0 L 1020.0,864.0 L 1020.0,834.0 L 1012.0,806.0 L 1008.0,793.0 L 1004.0,787.0 L 1000.0,779.0 L 983.0,775.0 L 957.0,790.0 L 949.0,811.0 L 943.0,830.0 L 942.0,853.0 L 940.0,864.0 L 940.0,877.0 L 939.0,891.0 L 936.0,903.0 L 916.0,903.0 L 908.0,901.0 L 901.0,898.0 L 899.0,887.0 M 1243.0,887.0 L 1239.0,869.0 L 1238.0,847.0 L 1238.0,824.0 L 1235.0,806.0 L 1234.0,800.0 L 1229.0,795.0 L 1224.0,790.0 L 1218.0,786.0 L 1200.0,783.0 L 1191.0,789.0 L 1182.0,795.0 L 1175.0,806.0 L 1156.0,838.0 L 1156.0,877.0 L 1156.0,918.0 L 1153.0,957.0 L 1152.0,963.0 L 1152.0,970.0 L 1153.0,977.0 L 1151.0,985.0 L 1149.0,989.0 L 1146.0,995.0 L 1142.0,1000.0 L 1133.0,1000.0 L 1119.0,998.0 L 1114.0,986.0 L 1108.0,974.0 L 1108.0,963.0 L 1108.0,918.0 L 1108.0,868.0 L 1108.0,841.0 L 1108.0,815.0 L 1108.0,794.0 L 1108.0,773.0 L 1108.0,768.0 L 1110.0,757.0 L 1112.0,748.0 L 1121.0,744.0 L 1143.0,744.0 L 1145.0,757.0 L 1147.0,771.0 L 1146.0,783.0 L 1148.0,778.0 L 1149.0,776.0 L 1149.0,775.0 L 1154.0,771.0 L 1179.0,744.0 L 1210.0,744.0 L 1239.0,744.0 L 1268.0,766.0 L 1274.0,763.0 L 1280.0,759.0 L 1286.0,756.0 L 1292.0,753.0 L 1311.0,744.0 L 1333.0,744.0 L 1337.0,744.0 L 1341.0,744.0 L 1367.0,748.0 L 1385.0,774.0 L 1397.0,793.0 L 1404.0,816.0 L 1412.0,837.0 L 1412.0,860.0 L 1412.0,864.0 L 1412.0,868.0 L 1412.0,894.0 L 1410.0,919.0 L 1405.0,950.0 L 1403.0,978.0 L 1403.0,984.0 L 1399.0,992.0 L 1393.0,1000.0 L 1384.0,1000.0 L 1364.0,985.0 L 1364.0,963.0 L 1364.0,942.0 L 1364.0,922.0 L 1364.0,893.0 L 1364.0,864.0 L 1364.0,834.0 L 1356.0,806.0 L 1352.0,793.0 L 1348.0,787.0 L 1344.0,779.0 L 1327.0,775.0 L 1301.0,790.0 L 1293.0,811.0 L 1287.0,830.0 L 1286.0,853.0 L 1284.0,864.0 L 1284.0,877.0 L 1283.0,891.0 L 1280.0,903.0 L 1260.0,903.0 L 1252.0,901.0 L 1245.0,898.0 L 1243.0,887.0 M 1623.0,949.0 L 1613.0,959.0 L 1603.0,966.0 L 1593.0,975.0 L 1582.0,984.0 L 1560.0,1000.0 L 1542.0,1000.0 L 1540.0,1000.0 L 1538.0,1000.0 L 1516.0,998.0 L 1494.0,978.0 L 1485.0,969.0 L 1477.0,960.0 L 1469.0,951.0 L 1462.0,942.0 L 1457.0,935.0 L 1455.0,914.0 L 1452.0,898.0 L 1452.0,889.0 L 1452.0,887.0 L 1452.0,886.0 L 1452.0,838.0 L 1465.0,815.0 L 1476.0,792.0 L 1512.0,763.0 L 1530.0,749.0 L 1551.0,745.0 L 1556.0,744.0 L 1563.0,744.0 L 1577.0,744.0 L 1590.0,751.0 L 1610.0,761.0 L 1625.0,779.0 L 1642.0,795.0 L 1643.0,823.0 L 1643.0,837.0 L 1645.0,851.0 L 1647.0,865.0 L 1648.0,880.0 L 1648.0,902.0 L 1657.0,922.0 L 1664.0,943.0 L 1681.0,958.0 L 1685.0,961.0 L 1685.0,969.0 L 1686.0,977.0 L 1688.0,983.0 L 1673.0,992.0 L 1662.0,986.0 L 1652.0,981.0 L 1643.0,971.0 L 1638.0,965.0 L 1633.0,960.0 L 1629.0,953.0 L 1623.0,949.0 M 1602.0,821.0 L 1600.0,804.0 L 1593.0,797.0 L 1588.0,792.0 L 1577.0,792.0 L 1574.0,792.0 L 1570.0,792.0 L 1562.0,793.0 L 1552.0,796.0 L 1543.0,798.0 L 1537.0,802.0 L 1515.0,821.0 L 1507.0,843.0 L 1500.0,860.0 L 1500.0,891.0 L 1500.0,896.0 L 1500.0,901.0 L 1500.0,919.0 L 1511.0,929.0 L 1522.0,941.0 L 1534.0,948.0 L 1541.0,952.0 L 1548.0,952.0 L 1553.0,952.0 L 1558.0,950.0 L 1572.0,945.0 L 1580.0,938.0 L 1600.0,920.0 L 1603.0,902.0 L 1605.0,885.0 L 1605.0,867.0 L 1605.0,850.0 L 1604.0,839.0 L 1603.0,828.0 L 1602.0,821.0 M 1886.0,913.0 L 1900.0,917.0 L 1900.0,933.0 L 1900.0,934.0 L 1900.0,936.0 L 1900.0,951.0 L 1893.0,966.0 L 1888.0,977.0 L 1879.0,985.0 L 1870.0,994.0 L 1860.0,997.0 L 1852.0,1000.0 L 1843.0,1000.0 L 1828.0,1000.0 L 1815.0,993.0 L 1793.0,981.0 L 1786.0,958.0 L 1780.0,944.0 L 1779.0,930.0 L 1776.0,915.0 L 1775.0,901.0 L 1774.0,894.0 L 1774.0,886.0 L 1774.0,879.0 L 1775.0,872.0 L 1775.0,849.0 L 1775.0,835.0 L 1775.0,820.0 L 1775.0,808.0 L 1774.0,795.0 L 1761.0,796.0 L 1749.0,799.0 L 1731.0,790.0 L 1731.0,790.0 L 1729.0,791.0 L 1728.0,791.0 L 1728.0,791.0 L 1728.0,791.0 L 1730.0,790.0 L 1730.0,782.0 L 1732.0,777.0 L 1735.0,772.0 L 1739.0,769.0 L 1746.0,764.0 L 1756.0,762.0 L 1767.0,760.0 L 1775.0,754.0 L 1776.0,746.0 L 1778.0,736.0 L 1781.0,726.0 L 1782.0,715.0 L 1784.0,706.0 L 1785.0,692.0 L 1787.0,678.0 L 1802.0,676.0 L 1821.0,683.0 L 1822.0,699.0 L 1823.0,714.0 L 1823.0,730.0 L 1822.0,739.0 L 1823.0,746.0 L 1824.0,754.0 L 1829.0,760.0 L 1841.0,763.0 L 1853.0,765.0 L 1866.0,768.0 L 1878.0,772.0 L 1890.0,789.0 L 1884.0,799.0 L 1878.0,808.0 L 1855.0,808.0 L 1849.0,808.0 L 1844.0,808.0 L 1838.0,808.0 L 1831.0,808.0 L 1823.0,840.0 L 1823.0,869.0 L 1823.0,898.0 L 1826.0,927.0 L 1826.0,935.0 L 1829.0,946.0 L 1831.0,956.0 L 1843.0,961.0 L 1850.0,960.0 L 1855.0,956.0 L 1859.0,953.0 L 1862.0,948.0 L 1868.0,940.0 L 1872.0,930.0 L 1875.0,919.0 L 1886.0,913.0 M 1940.0,710.0 L 1940.0,711.0 L 1940.0,712.0 L 1940.0,721.0 L 1946.0,728.0 L 1953.0,736.0 L 1963.0,736.0 L 1971.0,736.0 L 1979.0,728.0 L 1986.0,721.0 L 1987.0,712.0 L 1987.0,712.0 L 1987.0,711.0 L 1987.0,702.0 L 1980.0,695.0 L 1973.0,688.0 L 1962.0,688.0 L 1962.0,688.0 L 1961.0,688.0 L 1953.0,688.0 L 1947.0,694.0 L 1941.0,700.0 L 1940.0,710.0 M 1954.0,777.0 L 1947.0,783.0 L 1945.0,792.0 L 1942.0,800.0 L 1941.0,807.0 L 1941.0,851.0 L 1941.0,890.0 L 1941.0,910.0 L 1941.0,933.0 L 1941.0,951.0 L 1941.0,971.0 L 1941.0,994.0 L 1960.0,998.0 L 1967.0,1000.0 L 1973.0,1000.0 L 1981.0,1000.0 L 1987.0,996.0 L 1989.0,992.0 L 1989.0,977.0 L 1989.0,962.0 L 1989.0,944.0 L 1989.0,921.0 L 1989.0,901.0 L 1989.0,880.0 L 1989.0,876.0 L 1989.0,864.0 L 1992.0,836.0 L 1993.0,829.0 L 1993.0,822.0 L 1993.0,805.0 L 1987.0,791.0 L 1982.0,785.0 L 1975.0,780.0 L 1968.0,777.0 L 1959.0,777.0 L 1958.0,777.0 L 1954.0,777.0 M 2143.0,788.0 L 2116.0,798.0 L 2106.0,814.0 L 2096.0,830.0 L 2086.0,846.0 L 2076.0,871.0 L 2079.0,890.0 L 2082.0,909.0 L 2097.0,929.0 L 2111.0,950.0 L 2128.0,950.0 L 2145.0,950.0 L 2164.0,947.0 L 2173.0,946.0 L 2181.0,943.0 L 2190.0,940.0 L 2197.0,937.0 L 2208.0,947.0 L 2208.0,957.0 L 2208.0,957.0 L 2208.0,958.0 L 2208.0,968.0 L 2202.0,974.0 L 2196.0,981.0 L 2188.0,988.0 L 2180.0,994.0 L 2173.0,996.0 L 2156.0,1000.0 L 2139.0,1000.0 L 2128.0,1000.0 L 2118.0,999.0 L 2091.0,995.0 L 2070.0,970.0 L 2049.0,945.0 L 2038.0,916.0 L 2033.0,902.0 L 2033.0,888.0 L 2033.0,870.0 L 2040.0,852.0 L 2052.0,817.0 L 2070.0,792.0 L 2088.0,766.0 L 2129.0,749.0 L 2137.0,745.0 L 2148.0,744.0 L 2150.0,744.0 L 2152.0,744.0 L 2160.0,744.0 L 2167.0,747.0 L 2176.0,751.0 L 2186.0,758.0 L 2195.0,767.0 L 2190.0,785.0 L 2180.0,789.0 L 2166.0,787.0 L 2152.0,785.0 L 2143.0,788.0 M 2419.0,949.0 L 2409.0,959.0 L 2399.0,966.0 L 2389.0,975.0 L 2378.0,984.0 L 2356.0,1000.0 L 2338.0,1000.0 L 2336.0,1000.0 L 2334.0,1000.0 L 2312.0,998.0 L 2290.0,978.0 L 2281.0,969.0 L 2273.0,960.0 L 2265.0,951.0 L 2258.0,942.0 L 2253.0,935.0 L 2251.0,914.0 L 2248.0,898.0 L 2248.0,889.0 L 2248.0,887.0 L 2248.0,886.0 L 2248.0,838.0 L 2261.0,815.0 L 2272.0,792.0 L 2308.0,763.0 L 2326.0,749.0 L 2347.0,745.0 L 2352.0,744.0 L 2359.0,744.0 L 2373.0,744.0 L 2386.0,751.0 L 2406.0,761.0 L 2421.0,779.0 L 2438.0,795.0 L 2439.0,823.0 L 2439.0,837.0 L 2441.0,851.0 L 2443.0,865.0 L 2444.0,880.0 L 2444.0,902.0 L 2453.0,922.0 L 2460.0,943.0 L 2477.0,958.0 L 2481.0,961.0 L 2481.0,969.0 L 2482.0,977.0 L 2484.0,983.0 L 2469.0,992.0 L 2458.0,986.0 L 2448.0,981.0 L 2439.0,971.0 L 2434.0,965.0 L 2429.0,960.0 L 2425.0,953.0 L 2419.0,949.0 M 2398.0,821.0 L 2396.0,804.0 L 2389.0,797.0 L 2384.0,792.0 L 2373.0,792.0 L 2370.0,792.0 L 2366.0,792.0 L 2358.0,793.0 L 2348.0,796.0 L 2339.0,798.0 L 2333.0,802.0 L 2311.0,821.0 L 2303.0,843.0 L 2296.0,860.0 L 2296.0,891.0 L 2296.0,896.0 L 2296.0,901.0 L 2296.0,919.0 L 2307.0,929.0 L 2318.0,941.0 L 2330.0,948.0 L 2337.0,952.0 L 2344.0,952.0 L 2349.0,952.0 L 2354.0,950.0 L 2368.0,945.0 L 2376.0,938.0 L 2396.0,920.0 L 2399.0,902.0 L 2401.0,885.0 L 2401.0,867.0 L 2401.0,850.0 L 2400.0,839.0 L 2399.0,828.0 L 2398.0,821.0 M 2572.0,590.0 L 2572.0,622.0 L 2572.0,653.0 L 2572.0,684.0 L 2572.0,715.0 L 2572.0,746.0 L 2572.0,776.0 L 2572.0,806.0 L 2572.0,837.0 L 2572.0,870.0 L 2572.0,904.0 L 2572.0,922.0 L 2572.0,939.0 L 2572.0,956.0 L 2572.0,971.0 L 2572.0,980.0 L 2570.0,989.0 L 2569.0,999.0 L 2553.0,1000.0 L 2539.0,1000.0 L 2532.0,993.0 L 2524.0,985.0 L 2524.0,973.0 L 2524.0,929.0 L 2524.0,887.0 L 2524.0,860.0 L 2524.0,835.0 L 2524.0,817.0 L 2524.0,799.0 L 2524.0,751.0 L 2524.0,701.0 L 2524.0,653.0 L 2524.0,604.0 L 2524.0,597.0 L 2526.0,585.0 L 2526.0,573.0 L 2531.0,564.0 L 2533.0,559.0 L 2539.0,555.0 L 2544.0,552.0 L 2553.0,552.0 L 2568.0,558.0 L 2569.0,569.0 L 2572.0,580.0 L 2572.0,590.0 M 2882.0,788.0 L 2855.0,798.0 L 2845.0,814.0 L 2835.0,830.0 L 2825.0,846.0 L 2815.0,871.0 L 2818.0,890.0 L 2821.0,909.0 L 2836.0,929.0 L 2850.0,950.0 L 2867.0,950.0 L 2884.0,950.0 L 2903.0,947.0 L 2912.0,946.0 L 2920.0,943.0 L 2929.0,940.0 L 2936.0,937.0 L 2947.0,947.0 L 2947.0,957.0 L 2947.0,957.0 L 2947.0,958.0 L 2947.0,968.0 L 2941.0,974.0 L 2935.0,981.0 L 2927.0,988.0 L 2919.0,994.0 L 2912.0,996.0 L 2895.0,1000.0 L 2878.0,1000.0 L 2867.0,1000.0 L 2857.0,999.0 L 2830.0,995.0 L 2809.0,970.0 L 2788.0,945.0 L 2777.0,916.0 L 2772.0,902.0 L 2772.0,888.0 L 2772.0,870.0 L 2779.0,852.0 L 2791.0,817.0 L 2809.0,792.0 L 2827.0,766.0 L 2868.0,749.0 L 2876.0,745.0 L 2887.0,744.0 L 2889.0,744.0 L 2891.0,744.0 L 2899.0,744.0 L 2906.0,747.0 L 2915.0,751.0 L 2925.0,758.0 L 2934.0,767.0 L 2929.0,785.0 L 2919.0,789.0 L 2905.0,787.0 L 2891.0,785.0 L 2882.0,788.0 M 3177.0,949.0 L 3163.0,978.0 L 3140.0,990.0 L 3120.0,1000.0 L 3093.0,1000.0 L 3090.0,1000.0 L 3086.0,1000.0 L 3055.0,1000.0 L 3034.0,985.0 L 3013.0,969.0 L 3000.0,940.0 L 2991.0,923.0 L 2989.0,903.0 L 2987.0,892.0 L 2987.0,881.0 L 2987.0,872.0 L 2988.0,864.0 L 2992.0,827.0 L 3014.0,795.0 L 3036.0,763.0 L 3074.0,749.0 L 3086.0,744.0 L 3098.0,744.0 L 3102.0,744.0 L 3107.0,744.0 L 3123.0,746.0 L 3137.0,757.0 L 3168.0,779.0 L 3182.0,808.0 L 3196.0,837.0 L 3196.0,881.0 L 3196.0,903.0 L 3190.0,918.0 L 3184.0,933.0 L 3177.0,949.0 M 3146.0,832.0 L 3137.0,812.0 L 3122.0,800.0 L 3110.0,792.0 L 3097.0,792.0 L 3094.0,792.0 L 3091.0,793.0 L 3071.0,796.0 L 3056.0,807.0 L 3040.0,817.0 L 3034.0,839.0 L 3032.0,849.0 L 3030.0,857.0 L 3027.0,867.0 L 3027.0,876.0 L 3027.0,878.0 L 3027.0,880.0 L 3027.0,910.0 L 3045.0,930.0 L 3064.0,952.0 L 3095.0,952.0 L 3095.0,952.0 L 3095.0,952.0 L 3121.0,952.0 L 3138.0,934.0 L 3155.0,917.0 L 3155.0,877.0 L 3154.0,862.0 L 3152.0,852.0 L 3150.0,842.0 L 3146.0,832.0 M 3248.0,956.0 L 3243.0,913.0 L 3243.0,871.0 L 3243.0,828.0 L 3243.0,785.0 L 3243.0,774.0 L 3236.0,759.0 L 3236.0,756.0 L 3236.0,755.0 L 3236.0,743.0 L 3242.0,737.0 L 3263.0,741.0 L 3266.0,756.0 L 3268.0,772.0 L 3275.0,786.0 L 3283.0,776.0 L 3293.0,769.0 L 3303.0,761.0 L 3315.0,755.0 L 3338.0,744.0 L 3361.0,744.0 L 3384.0,744.0 L 3394.0,756.0 L 3394.0,775.0 L 3377.0,780.0 L 3360.0,784.0 L 3341.0,792.0 L 3320.0,803.0 L 3313.0,814.0 L 3306.0,825.0 L 3302.0,846.0 L 3297.0,871.0 L 3295.0,895.0 L 3292.0,921.0 L 3290.0,945.0 L 3288.0,959.0 L 3286.0,972.0 L 3285.0,985.0 L 3269.0,994.0 L 3256.0,988.0 L 3252.0,977.0 L 3248.0,967.0 L 3248.0,956.0 M 3446.0,956.0 L 3441.0,913.0 L 3441.0,871.0 L 3441.0,828.0 L 3441.0,785.0 L 3441.0,774.0 L 3434.0,759.0 L 3434.0,756.0 L 3434.0,755.0 L 3434.0,743.0 L 3440.0,737.0 L 3461.0,741.0 L 3464.0,756.0 L 3466.0,772.0 L 3473.0,786.0 L 3481.0,776.0 L 3491.0,769.0 L 3501.0,761.0 L 3513.0,755.0 L 3536.0,744.0 L 3559.0,744.0 L 3582.0,744.0 L 3592.0,756.0 L 3592.0,775.0 L 3575.0,780.0 L 3558.0,784.0 L 3539.0,792.0 L 3518.0,803.0 L 3511.0,814.0 L 3504.0,825.0 L 3500.0,846.0 L 3495.0,871.0 L 3493.0,895.0 L 3490.0,921.0 L 3488.0,945.0 L 3486.0,959.0 L 3484.0,972.0 L 3483.0,985.0 L 3467.0,994.0 L 3454.0,988.0 L 3450.0,977.0 L 3446.0,967.0 L 3446.0,956.0 M 3794.0,939.0 L 3802.0,934.0 L 3809.0,926.0 L 3818.0,920.0 L 3826.0,915.0 L 3835.0,910.0 L 3842.0,915.0 L 3850.0,920.0 L 3856.0,934.0 L 3834.0,966.0 L 3812.0,983.0 L 3793.0,1000.0 L 3761.0,1000.0 L 3758.0,1000.0 L 3755.0,1000.0 L 3716.0,1000.0 L 3686.0,985.0 L 3657.0,971.0 L 3639.0,924.0 L 3632.0,905.0 L 3632.0,885.0 L 3632.0,883.0 L 3632.0,881.0 L 3632.0,859.0 L 3638.0,838.0 L 3648.0,808.0 L 3671.0,785.0 L 3693.0,763.0 L 3720.0,752.0 L 3735.0,746.0 L 3750.0,745.0 L 3756.0,744.0 L 3761.0,744.0 L 3771.0,744.0 L 3780.0,746.0 L 3798.0,750.0 L 3810.0,758.0 L 3823.0,768.0 L 3826.0,787.0 L 3830.0,805.0 L 3828.0,823.0 L 3825.0,840.0 L 3812.0,855.0 L 3787.0,885.0 L 3756.0,897.0 L 3725.0,911.0 L 3684.0,905.0 L 3700.0,945.0 L 3732.0,953.0 L 3764.0,960.0 L 3794.0,939.0 M 3680.0,865.0 L 3694.0,868.0 L 3707.0,868.0 L 3719.0,868.0 L 3730.0,865.0 L 3754.0,859.0 L 3773.0,844.0 L 3782.0,837.0 L 3788.0,824.0 L 3789.0,819.0 L 3789.0,814.0 L 3789.0,806.0 L 3782.0,796.0 L 3771.0,792.0 L 3760.0,792.0 L 3756.0,792.0 L 3751.0,792.0 L 3735.0,794.0 L 3720.0,802.0 L 3699.0,812.0 L 3685.0,830.0 L 3677.0,842.0 L 3677.0,852.0 L 3677.0,858.0 L 3680.0,865.0 M 4006.0,788.0 L 3979.0,798.0 L 3969.0,814.0 L 3959.0,830.0 L 3949.0,846.0 L 3939.0,871.0 L 3942.0,890.0 L 3945.0,909.0 L 3960.0,929.0 L 3974.0,950.0 L 3991.0,950.0 L 4008.0,950.0 L 4027.0,947.0 L 4036.0,946.0 L 4044.0,943.0 L 4053.0,940.0 L 4060.0,937.0 L 4071.0,947.0 L 4071.0,957.0 L 4071.0,957.0 L 4071.0,958.0 L 4071.0,968.0 L 4065.0,974.0 L 4059.0,981.0 L 4051.0,988.0 L 4043.0,994.0 L 4036.0,996.0 L 4019.0,1000.0 L 4002.0,1000.0 L 3991.0,1000.0 L 3981.0,999.0 L 3954.0,995.0 L 3933.0,970.0 L 3912.0,945.0 L 3901.0,916.0 L 3896.0,902.0 L 3896.0,888.0 L 3896.0,870.0 L 3903.0,852.0 L 3915.0,817.0 L 3933.0,792.0 L 3951.0,766.0 L 3992.0,749.0 L 4000.0,745.0 L 4011.0,744.0 L 4013.0,744.0 L 4015.0,744.0 L 4023.0,744.0 L 4030.0,747.0 L 4039.0,751.0 L 4049.0,758.0 L 4058.0,767.0 L 4053.0,785.0 L 4043.0,789.0 L 4029.0,787.0 L 4015.0,785.0 L 4006.0,788.0 M 4269.0,913.0 L 4283.0,917.0 L 4283.0,933.0 L 4283.0,934.0 L 4283.0,936.0 L 4283.0,951.0 L 4276.0,966.0 L 4271.0,977.0 L 4262.0,985.0 L 4253.0,994.0 L 4243.0,997.0 L 4235.0,1000.0 L 4226.0,1000.0 L 4211.0,1000.0 L 4198.0,993.0 L 4176.0,981.0 L 4169.0,958.0 L 4163.0,944.0 L 4162.0,930.0 L 4159.0,915.0 L 4158.0,901.0 L 4157.0,894.0 L 4157.0,886.0 L 4157.0,879.0 L 4158.0,872.0 L 4158.0,849.0 L 4158.0,835.0 L 4158.0,820.0 L 4158.0,808.0 L 4157.0,795.0 L 4144.0,796.0 L 4132.0,799.0 L 4114.0,790.0 L 4114.0,790.0 L 4112.0,791.0 L 4111.0,791.0 L 4111.0,791.0 L 4111.0,791.0 L 4113.0,790.0 L 4113.0,782.0 L 4115.0,777.0 L 4118.0,772.0 L 4122.0,769.0 L 4129.0,764.0 L 4139.0,762.0 L 4150.0,760.0 L 4158.0,754.0 L 4159.0,746.0 L 4161.0,736.0 L 4164.0,726.0 L 4165.0,715.0 L 4167.0,706.0 L 4168.0,692.0 L 4170.0,678.0 L 4185.0,676.0 L 4204.0,683.0 L 4205.0,699.0 L 4206.0,714.0 L 4206.0,730.0 L 4205.0,739.0 L 4206.0,746.0 L 4207.0,754.0 L 4212.0,760.0 L 4224.0,763.0 L 4236.0,765.0 L 4249.0,768.0 L 4261.0,772.0 L 4273.0,789.0 L 4267.0,799.0 L 4261.0,808.0 L 4238.0,808.0 L 4232.0,808.0 L 4227.0,808.0 L 4221.0,808.0 L 4214.0,808.0 L 4206.0,840.0 L 4206.0,869.0 L 4206.0,898.0 L 4209.0,927.0 L 4209.0,935.0 L 4212.0,946.0 L 4214.0,956.0 L 4226.0,961.0 L 4233.0,960.0 L 4238.0,956.0 L 4242.0,953.0 L 4245.0,948.0 L 4251.0,940.0 L 4255.0,930.0 L 4258.0,919.0 L 4269.0,913.0 M 4323.0,710.0 L 4323.0,711.0 L 4323.0,712.0 L 4323.0,721.0 L 4329.0,728.0 L 4336.0,736.0 L 4346.0,736.0 L 4354.0,736.0 L 4362.0,728.0 L 4369.0,721.0 L 4370.0,712.0 L 4370.0,712.0 L 4370.0,711.0 L 4370.0,702.0 L 4363.0,695.0 L 4356.0,688.0 L 4345.0,688.0 L 4345.0,688.0 L 4344.0,688.0 L 4336.0,688.0 L 4330.0,694.0 L 4324.0,700.0 L 4323.0,710.0 M 4337.0,777.0 L 4330.0,783.0 L 4328.0,792.0 L 4325.0,800.0 L 4324.0,807.0 L 4324.0,851.0 L 4324.0,890.0 L 4324.0,910.0 L 4324.0,933.0 L 4324.0,951.0 L 4324.0,971.0 L 4324.0,994.0 L 4343.0,998.0 L 4350.0,1000.0 L 4356.0,1000.0 L 4364.0,1000.0 L 4370.0,996.0 L 4372.0,992.0 L 4372.0,977.0 L 4372.0,962.0 L 4372.0,944.0 L 4372.0,921.0 L 4372.0,901.0 L 4372.0,880.0 L 4372.0,876.0 L 4372.0,864.0 L 4375.0,836.0 L 4376.0,829.0 L 4376.0,822.0 L 4376.0,805.0 L 4370.0,791.0 L 4365.0,785.0 L 4358.0,780.0 L 4351.0,777.0 L 4342.0,777.0 L 4341.0,777.0 L 4337.0,777.0 M 4606.0,949.0 L 4592.0,978.0 L 4569.0,990.0 L 4549.0,1000.0 L 4522.0,1000.0 L 4519.0,1000.0 L 4515.0,1000.0 L 4484.0,1000.0 L 4463.0,985.0 L 4442.0,969.0 L 4429.0,940.0 L 4420.0,923.0 L 4418.0,903.0 L 4416.0,892.0 L 4416.0,881.0 L 4416.0,872.0 L 4417.0,864.0 L 4421.0,827.0 L 4443.0,795.0 L 4465.0,763.0 L 4503.0,749.0 L 4515.0,744.0 L 4527.0,744.0 L 4531.0,744.0 L 4536.0,744.0 L 4552.0,746.0 L 4566.0,757.0 L 4597.0,779.0 L 4611.0,808.0 L 4625.0,837.0 L 4625.0,881.0 L 4625.0,903.0 L 4619.0,918.0 L 4613.0,933.0 L 4606.0,949.0 M 4575.0,832.0 L 4566.0,812.0 L 4551.0,800.0 L 4539.0,792.0 L 4526.0,792.0 L 4523.0,792.0 L 4520.0,793.0 L 4500.0,796.0 L 4485.0,807.0 L 4469.0,817.0 L 4463.0,839.0 L 4461.0,849.0 L 4459.0,857.0 L 4456.0,867.0 L 4456.0,876.0 L 4456.0,878.0 L 4456.0,880.0 L 4456.0,910.0 L 4474.0,930.0 L 4493.0,952.0 L 4524.0,952.0 L 4524.0,952.0 L 4524.0,952.0 L 4550.0,952.0 L 4567.0,934.0 L 4584.0,917.0 L 4584.0,877.0 L 4583.0,862.0 L 4581.0,852.0 L 4579.0,842.0 L 4575.0,832.0 M 4825.0,931.0 L 4825.0,904.0 L 4825.0,883.0 L 4825.0,862.0 L 4819.0,835.0 L 4816.0,825.0 L 4811.0,810.0 L 4806.0,793.0 L 4792.0,790.0 L 4773.0,795.0 L 4762.0,800.0 L 4750.0,806.0 L 4744.0,813.0 L 4730.0,826.0 L 4725.0,843.0 L 4722.0,860.0 L 4717.0,879.0 L 4712.0,897.0 L 4711.0,917.0 L 4711.0,936.0 L 4710.0,955.0 L 4710.0,962.0 L 4710.0,969.0 L 4711.0,976.0 L 4709.0,982.0 L 4707.0,987.0 L 4702.0,993.0 L 4698.0,999.0 L 4693.0,1000.0 L 4688.0,1000.0 L 4681.0,996.0 L 4675.0,992.0 L 4671.0,988.0 L 4667.0,984.0 L 4666.0,978.0 L 4665.0,972.0 L 4665.0,967.0 L 4665.0,922.0 L 4665.0,877.0 L 4665.0,872.0 L 4665.0,868.0 L 4665.0,819.0 L 4665.0,771.0 L 4686.0,760.0 L 4692.0,770.0 L 4698.0,782.0 L 4706.0,789.0 L 4720.0,780.0 L 4732.0,770.0 L 4746.0,761.0 L 4760.0,754.0 L 4779.0,744.0 L 4798.0,744.0 L 4804.0,744.0 L 4811.0,746.0 L 4834.0,751.0 L 4849.0,779.0 L 4873.0,829.0 L 4873.0,877.0 L 4873.0,886.0 L 4873.0,897.0 L 4873.0,936.0 L 4864.0,980.0 L 4864.0,983.0 L 4860.0,993.0 L 4856.0,1002.0 L 4849.0,1003.0 L 4826.0,1002.0 L 4824.0,988.0 L 4821.0,973.0 L 4825.0,931.0 M 5026.0,785.0 L 5010.0,783.0 L 4996.0,786.0 L 4983.0,788.0 L 4971.0,799.0 L 4966.0,803.0 L 4963.0,812.0 L 4960.0,819.0 L 4961.0,826.0 L 4961.0,830.0 L 4967.0,836.0 L 4973.0,840.0 L 4978.0,841.0 L 4992.0,845.0 L 5005.0,846.0 L 5019.0,848.0 L 5032.0,850.0 L 5060.0,855.0 L 5076.0,872.0 L 5092.0,888.0 L 5095.0,913.0 L 5096.0,919.0 L 5096.0,925.0 L 5096.0,938.0 L 5093.0,949.0 L 5087.0,964.0 L 5071.0,977.0 L 5059.0,988.0 L 5046.0,992.0 L 5032.0,998.0 L 5018.0,1000.0 L 5011.0,1000.0 L 5005.0,1000.0 L 4985.0,1000.0 L 4968.0,994.0 L 4944.0,986.0 L 4930.0,971.0 L 4926.0,968.0 L 4924.0,965.0 L 4920.0,961.0 L 4920.0,953.0 L 4928.0,936.0 L 4944.0,936.0 L 4960.0,936.0 L 4973.0,947.0 L 4990.0,955.0 L 5005.0,957.0 L 5020.0,959.0 L 5036.0,949.0 L 5055.0,937.0 L 5056.0,924.0 L 5056.0,912.0 L 5041.0,896.0 L 5033.0,892.0 L 5025.0,889.0 L 5017.0,887.0 L 5008.0,885.0 L 4996.0,882.0 L 4983.0,882.0 L 4970.0,882.0 L 4957.0,878.0 L 4928.0,867.0 L 4917.0,838.0 L 4913.0,827.0 L 4913.0,816.0 L 4913.0,799.0 L 4924.0,783.0 L 4931.0,773.0 L 4941.0,767.0 L 4950.0,759.0 L 4962.0,754.0 L 4985.0,744.0 L 5012.0,744.0 L 5015.0,744.0 L 5019.0,744.0 L 5042.0,744.0 L 5061.0,753.0 L 5066.0,755.0 L 5071.0,762.0 L 5075.0,769.0 L 5075.0,776.0 L 5074.0,790.0 L 5055.0,789.0 L 5037.0,787.0 L 5026.0,785.0 M 5170.0,928.0 L 5157.0,928.0 L 5147.0,921.0 L 5137.0,915.0 L 5137.0,907.0 L 5137.0,907.0 L 5137.0,907.0 L 5136.0,897.0 L 5148.0,889.0 L 5160.0,880.0 L 5172.0,880.0 L 5173.0,880.0 L 5173.0,880.0 L 5186.0,880.0 L 5193.0,887.0 L 5199.0,893.0 L 5199.0,904.0 L 5199.0,905.0 L 5199.0,905.0 L 5199.0,916.0 L 5192.0,922.0 L 5184.0,928.0 L 5171.0,928.0 L 5171.0,928.0 L 5170.0,928.0 M 5171.0,744.0 L 5183.0,744.0 L 5190.0,749.0 L 5198.0,755.0 L 5198.0,763.0 L 5198.0,763.0 L 5198.0,763.0 L 5197.0,776.0 L 5187.0,785.0 L 5178.0,792.0 L 5165.0,792.0 L 5164.0,792.0 L 5163.0,792.0 L 5152.0,791.0 L 5145.0,785.0 L 5138.0,780.0 L 5138.0,772.0 L 5138.0,772.0 L 5138.0,771.0 L 5139.0,760.0 L 5149.0,753.0 L 5158.0,744.0 L 5171.0,744.0 L 5171.0,744.0 L 5171.0,744.0 M 5510.0,591.0 L 5501.0,605.0 L 5491.0,619.0 L 5480.0,632.0 L 5472.0,647.0 L 5463.0,666.0 L 5455.0,689.0 L 5447.0,712.0 L 5443.0,737.0 L 5434.0,784.0 L 5440.0,834.0 L 5446.0,884.0 L 5477.0,924.0 L 5485.0,935.0 L 5496.0,944.0 L 5507.0,952.0 L 5517.0,961.0 L 5522.0,965.0 L 5527.0,969.0 L 5533.0,973.0 L 5538.0,978.0 L 5540.0,981.0 L 5542.0,987.0 L 5543.0,990.0 L 5543.0,993.0 L 5543.0,994.0 L 5542.0,996.0 L 5540.0,999.0 L 5536.0,1002.0 L 5532.0,1005.0 L 5528.0,1005.0 L 5528.0,1005.0 L 5527.0,1005.0 L 5519.0,1003.0 L 5511.0,1002.0 L 5503.0,999.0 L 5496.0,995.0 L 5478.0,985.0 L 5464.0,970.0 L 5450.0,955.0 L 5438.0,938.0 L 5399.0,879.0 L 5399.0,811.0 L 5399.0,798.0 L 5399.0,785.0 L 5399.0,732.0 L 5409.0,684.0 L 5420.0,653.0 L 5435.0,626.0 L 5450.0,599.0 L 5469.0,580.0 L 5482.0,568.0 L 5499.0,557.0 L 5508.0,552.0 L 5514.0,552.0 L 5521.0,552.0 L 5527.0,559.0 L 5533.0,568.0 L 5523.0,577.0 L 5513.0,586.0 L 5510.0,591.0 M 5783.0,1066.0 L 5783.0,1075.0 L 5780.0,1087.0 L 5777.0,1101.0 L 5776.0,1110.0 L 5762.0,1172.0 L 5719.0,1187.0 L 5706.0,1192.0 L 5691.0,1192.0 L 5663.0,1192.0 L 5630.0,1174.0 L 5619.0,1168.0 L 5610.0,1156.0 L 5601.0,1145.0 L 5595.0,1132.0 L 5592.0,1124.0 L 5592.0,1112.0 L 5591.0,1100.0 L 5600.0,1089.0 L 5605.0,1086.0 L 5614.0,1095.0 L 5622.0,1105.0 L 5631.0,1114.0 L 5637.0,1122.0 L 5643.0,1128.0 L 5649.0,1133.0 L 5655.0,1136.0 L 5684.0,1145.0 L 5700.0,1135.0 L 5715.0,1124.0 L 5724.0,1093.0 L 5730.0,1071.0 L 5731.0,1054.0 L 5732.0,1037.0 L 5732.0,1018.0 L 5731.0,1001.0 L 5731.0,994.0 L 5732.0,987.0 L 5731.0,975.0 L 5718.0,978.0 L 5702.0,981.0 L 5686.0,984.0 L 5675.0,984.0 L 5636.0,984.0 L 5616.0,966.0 L 5596.0,947.0 L 5586.0,899.0 L 5583.0,884.0 L 5583.0,869.0 L 5583.0,856.0 L 5585.0,845.0 L 5590.0,818.0 L 5601.0,795.0 L 5615.0,762.0 L 5641.0,751.0 L 5659.0,744.0 L 5683.0,744.0 L 5695.0,744.0 L 5709.0,746.0 L 5726.0,750.0 L 5742.0,760.0 L 5759.0,770.0 L 5781.0,782.0 L 5783.0,810.0 L 5783.0,830.0 L 5783.0,853.0 L 5783.0,870.0 L 5783.0,898.0 L 5783.0,922.0 L 5783.0,926.0 L 5783.0,931.0 L 5783.0,958.0 L 5783.0,989.0 L 5783.0,1005.0 L 5783.0,1023.0 L 5783.0,1042.0 L 5783.0,1066.0 M 5639.0,822.0 L 5632.0,840.0 L 5631.0,863.0 L 5630.0,870.0 L 5630.0,876.0 L 5630.0,892.0 L 5633.0,906.0 L 5636.0,916.0 L 5639.0,925.0 L 5643.0,933.0 L 5648.0,936.0 L 5659.0,936.0 L 5684.0,936.0 L 5692.0,936.0 L 5698.0,936.0 L 5715.0,936.0 L 5727.0,928.0 L 5735.0,896.0 L 5735.0,865.0 L 5735.0,835.0 L 5729.0,805.0 L 5697.0,792.0 L 5678.0,792.0 L 5673.0,792.0 L 5670.0,793.0 L 5650.0,796.0 L 5639.0,822.0 M 5944.0,966.0 L 5935.0,980.0 L 5925.0,992.0 L 5914.0,1003.0 L 5895.0,998.0 L 5875.0,992.0 L 5859.0,980.0 L 5843.0,968.0 L 5839.0,944.0 L 5834.0,915.0 L 5830.0,885.0 L 5827.0,855.0 L 5824.0,826.0 L 5823.0,816.0 L 5823.0,810.0 L 5823.0,806.0 L 5823.0,804.0 L 5824.0,798.0 L 5825.0,782.0 L 5825.0,777.0 L 5826.0,770.0 L 5827.0,763.0 L 5835.0,758.0 L 5854.0,769.0 L 5857.0,780.0 L 5861.0,790.0 L 5862.0,808.0 L 5865.0,835.0 L 5867.0,858.0 L 5868.0,881.0 L 5871.0,909.0 L 5873.0,927.0 L 5877.0,931.0 L 5881.0,937.0 L 5901.0,950.0 L 5930.0,930.0 L 5940.0,909.0 L 5949.0,887.0 L 5953.0,863.0 L 5954.0,850.0 L 5955.0,836.0 L 5956.0,822.0 L 5959.0,807.0 L 5960.0,798.0 L 5961.0,789.0 L 5962.0,780.0 L 5965.0,772.0 L 5966.0,767.0 L 5972.0,763.0 L 5977.0,759.0 L 5981.0,758.0 L 5984.0,758.0 L 5990.0,762.0 L 5995.0,766.0 L 5995.0,770.0 L 5998.0,782.0 L 5998.0,789.0 L 5998.0,796.0 L 5998.0,809.0 L 5998.0,839.0 L 5998.0,864.0 L 5998.0,890.0 L 6001.0,919.0 L 6003.0,938.0 L 6009.0,956.0 L 6015.0,975.0 L 6019.0,993.0 L 6006.0,1000.0 L 5996.0,1000.0 L 5990.0,1000.0 L 5985.0,997.0 L 5974.0,989.0 L 5957.0,947.0 L 5953.0,953.0 L 5950.0,957.0 L 5946.0,962.0 L 5944.0,966.0 M 6219.0,931.0 L 6219.0,904.0 L 6219.0,883.0 L 6219.0,862.0 L 6213.0,835.0 L 6210.0,825.0 L 6205.0,810.0 L 6200.0,793.0 L 6186.0,790.0 L 6167.0,795.0 L 6156.0,800.0 L 6144.0,806.0 L 6138.0,813.0 L 6124.0,826.0 L 6119.0,843.0 L 6116.0,860.0 L 6111.0,879.0 L 6106.0,897.0 L 6105.0,917.0 L 6105.0,936.0 L 6104.0,955.0 L 6104.0,962.0 L 6104.0,969.0 L 6105.0,976.0 L 6103.0,982.0 L 6101.0,987.0 L 6096.0,993.0 L 6092.0,999.0 L 6087.0,1000.0 L 6082.0,1000.0 L 6075.0,996.0 L 6069.0,992.0 L 6065.0,988.0 L 6061.0,984.0 L 6060.0,978.0 L 6059.0,972.0 L 6059.0,967.0 L 6059.0,922.0 L 6059.0,877.0 L 6059.0,872.0 L 6059.0,868.0 L 6059.0,819.0 L 6059.0,771.0 L 6080.0,760.0 L 6086.0,770.0 L 6092.0,782.0 L 6100.0,789.0 L 6114.0,780.0 L 6126.0,770.0 L 6140.0,761.0 L 6154.0,754.0 L 6173.0,744.0 L 6192.0,744.0 L 6198.0,744.0 L 6205.0,746.0 L 6228.0,751.0 L 6243.0,779.0 L 6267.0,829.0 L 6267.0,877.0 L 6267.0,886.0 L 6267.0,897.0 L 6267.0,936.0 L 6258.0,980.0 L 6258.0,983.0 L 6254.0,993.0 L 6250.0,1002.0 L 6243.0,1003.0 L 6220.0,1002.0 L 6218.0,988.0 L 6215.0,973.0 L 6219.0,931.0 M 6420.0,785.0 L 6404.0,783.0 L 6390.0,786.0 L 6377.0,788.0 L 6365.0,799.0 L 6360.0,803.0 L 6357.0,812.0 L 6354.0,819.0 L 6355.0,826.0 L 6355.0,830.0 L 6361.0,836.0 L 6367.0,840.0 L 6372.0,841.0 L 6386.0,845.0 L 6399.0,846.0 L 6413.0,848.0 L 6426.0,850.0 L 6454.0,855.0 L 6470.0,872.0 L 6486.0,888.0 L 6489.0,913.0 L 6490.0,919.0 L 6490.0,925.0 L 6490.0,938.0 L 6487.0,949.0 L 6481.0,964.0 L 6465.0,977.0 L 6453.0,988.0 L 6440.0,992.0 L 6426.0,998.0 L 6412.0,1000.0 L 6405.0,1000.0 L 6399.0,1000.0 L 6379.0,1000.0 L 6362.0,994.0 L 6338.0,986.0 L 6324.0,971.0 L 6320.0,968.0 L 6318.0,965.0 L 6314.0,961.0 L 6314.0,953.0 L 6322.0,936.0 L 6338.0,936.0 L 6354.0,936.0 L 6367.0,947.0 L 6384.0,955.0 L 6399.0,957.0 L 6414.0,959.0 L 6430.0,949.0 L 6449.0,937.0 L 6450.0,924.0 L 6450.0,912.0 L 6435.0,896.0 L 6427.0,892.0 L 6419.0,889.0 L 6411.0,887.0 L 6402.0,885.0 L 6390.0,882.0 L 6377.0,882.0 L 6364.0,882.0 L 6351.0,878.0 L 6322.0,867.0 L 6311.0,838.0 L 6307.0,827.0 L 6307.0,816.0 L 6307.0,799.0 L 6318.0,783.0 L 6325.0,773.0 L 6335.0,767.0 L 6344.0,759.0 L 6356.0,754.0 L 6379.0,744.0 L 6406.0,744.0 L 6409.0,744.0 L 6413.0,744.0 L 6436.0,744.0 L 6455.0,753.0 L 6460.0,755.0 L 6465.0,762.0 L 6469.0,769.0 L 6469.0,776.0 L 6468.0,790.0 L 6449.0,789.0 L 6431.0,787.0 L 6420.0,785.0 M 6578.0,681.0 L 6578.0,711.0 L 6578.0,741.0 L 6578.0,771.0 L 6578.0,801.0 L 6589.0,787.0 L 6600.0,775.0 L 6610.0,763.0 L 6639.0,757.0 L 6652.0,754.0 L 6662.0,757.0 L 6673.0,762.0 L 6680.0,774.0 L 6687.0,787.0 L 6694.0,800.0 L 6701.0,814.0 L 6702.0,828.0 L 6706.0,867.0 L 6706.0,904.0 L 6706.0,943.0 L 6706.0,981.0 L 6706.0,981.0 L 6706.0,982.0 L 6706.0,987.0 L 6702.0,994.0 L 6698.0,1000.0 L 6695.0,1000.0 L 6688.0,1000.0 L 6681.0,997.0 L 6673.0,995.0 L 6671.0,990.0 L 6666.0,980.0 L 6663.0,968.0 L 6661.0,957.0 L 6660.0,945.0 L 6658.0,922.0 L 6658.0,898.0 L 6658.0,873.0 L 6658.0,849.0 L 6656.0,834.0 L 6653.0,822.0 L 6650.0,808.0 L 6638.0,799.0 L 6613.0,816.0 L 6598.0,844.0 L 6583.0,873.0 L 6579.0,916.0 L 6578.0,931.0 L 6578.0,946.0 L 6578.0,962.0 L 6578.0,976.0 L 6578.0,987.0 L 6573.0,994.0 L 6567.0,1000.0 L 6559.0,1000.0 L 6557.0,1000.0 L 6556.0,1000.0 L 6546.0,1000.0 L 6540.0,995.0 L 6531.0,990.0 L 6530.0,978.0 L 6530.0,973.0 L 6530.0,967.0 L 6530.0,965.0 L 6530.0,963.0 L 6530.0,956.0 L 6530.0,949.0 L 6530.0,896.0 L 6530.0,841.0 L 6530.0,788.0 L 6530.0,734.0 L 6530.0,706.0 L 6530.0,673.0 L 6530.0,640.0 L 6530.0,611.0 L 6530.0,599.0 L 6530.0,586.0 L 6531.0,572.0 L 6531.0,558.0 L 6534.0,553.0 L 6540.0,552.0 L 6540.0,552.0 L 6541.0,552.0 L 6548.0,552.0 L 6558.0,557.0 L 6578.0,583.0 L 6578.0,616.0 L 6578.0,650.0 L 6578.0,681.0 M 6936.0,949.0 L 6922.0,978.0 L 6899.0,990.0 L 6879.0,1000.0 L 6852.0,1000.0 L 6849.0,1000.0 L 6845.0,1000.0 L 6814.0,1000.0 L 6793.0,985.0 L 6772.0,969.0 L 6759.0,940.0 L 6750.0,923.0 L 6748.0,903.0 L 6746.0,892.0 L 6746.0,881.0 L 6746.0,872.0 L 6747.0,864.0 L 6751.0,827.0 L 6773.0,795.0 L 6795.0,763.0 L 6833.0,749.0 L 6845.0,744.0 L 6857.0,744.0 L 6861.0,744.0 L 6866.0,744.0 L 6882.0,746.0 L 6896.0,757.0 L 6927.0,779.0 L 6941.0,808.0 L 6955.0,837.0 L 6955.0,881.0 L 6955.0,903.0 L 6949.0,918.0 L 6943.0,933.0 L 6936.0,949.0 M 6905.0,832.0 L 6896.0,812.0 L 6881.0,800.0 L 6869.0,792.0 L 6856.0,792.0 L 6853.0,792.0 L 6850.0,793.0 L 6830.0,796.0 L 6815.0,807.0 L 6799.0,817.0 L 6793.0,839.0 L 6791.0,849.0 L 6789.0,857.0 L 6786.0,867.0 L 6786.0,876.0 L 6786.0,878.0 L 6786.0,880.0 L 6786.0,910.0 L 6804.0,930.0 L 6823.0,952.0 L 6854.0,952.0 L 6854.0,952.0 L 6854.0,952.0 L 6880.0,952.0 L 6897.0,934.0 L 6914.0,917.0 L 6914.0,877.0 L 6913.0,862.0 L 6911.0,852.0 L 6909.0,842.0 L 6905.0,832.0 M 7153.0,913.0 L 7167.0,917.0 L 7167.0,933.0 L 7167.0,934.0 L 7167.0,936.0 L 7167.0,951.0 L 7160.0,966.0 L 7155.0,977.0 L 7146.0,985.0 L 7137.0,994.0 L 7127.0,997.0 L 7119.0,1000.0 L 7110.0,1000.0 L 7095.0,1000.0 L 7082.0,993.0 L 7060.0,981.0 L 7053.0,958.0 L 7047.0,944.0 L 7046.0,930.0 L 7043.0,915.0 L 7042.0,901.0 L 7041.0,894.0 L 7041.0,886.0 L 7041.0,879.0 L 7042.0,872.0 L 7042.0,849.0 L 7042.0,835.0 L 7042.0,820.0 L 7042.0,808.0 L 7041.0,795.0 L 7028.0,796.0 L 7016.0,799.0 L 6998.0,790.0 L 6998.0,790.0 L 6996.0,791.0 L 6995.0,791.0 L 6995.0,791.0 L 6995.0,791.0 L 6997.0,790.0 L 6997.0,782.0 L 6999.0,777.0 L 7002.0,772.0 L 7006.0,769.0 L 7013.0,764.0 L 7023.0,762.0 L 7034.0,760.0 L 7042.0,754.0 L 7043.0,746.0 L 7045.0,736.0 L 7048.0,726.0 L 7049.0,715.0 L 7051.0,706.0 L 7052.0,692.0 L 7054.0,678.0 L 7069.0,676.0 L 7088.0,683.0 L 7089.0,699.0 L 7090.0,714.0 L 7090.0,730.0 L 7089.0,739.0 L 7090.0,746.0 L 7091.0,754.0 L 7096.0,760.0 L 7108.0,763.0 L 7120.0,765.0 L 7133.0,768.0 L 7145.0,772.0 L 7157.0,789.0 L 7151.0,799.0 L 7145.0,808.0 L 7122.0,808.0 L 7116.0,808.0 L 7111.0,808.0 L 7105.0,808.0 L 7098.0,808.0 L 7090.0,840.0 L 7090.0,869.0 L 7090.0,898.0 L 7093.0,927.0 L 7093.0,935.0 L 7096.0,946.0 L 7098.0,956.0 L 7110.0,961.0 L 7117.0,960.0 L 7122.0,956.0 L 7126.0,953.0 L 7129.0,948.0 L 7135.0,940.0 L 7139.0,930.0 L 7142.0,919.0 L 7153.0,913.0 M 7233.0,945.0 L 7248.0,923.0 L 7259.0,891.0 L 7268.0,860.0 L 7272.0,826.0 L 7281.0,764.0 L 7268.0,699.0 L 7257.0,634.0 L 7220.0,591.0 L 7214.0,583.0 L 7210.0,575.0 L 7208.0,571.0 L 7208.0,567.0 L 7207.0,560.0 L 7210.0,553.0 L 7215.0,552.0 L 7219.0,552.0 L 7228.0,552.0 L 7236.0,558.0 L 7246.0,566.0 L 7255.0,576.0 L 7272.0,597.0 L 7285.0,621.0 L 7298.0,644.0 L 7304.0,671.0 L 7318.0,733.0 L 7318.0,792.0 L 7318.0,801.0 L 7318.0,811.0 L 7318.0,880.0 L 7286.0,945.0 L 7280.0,958.0 L 7271.0,970.0 L 7263.0,981.0 L 7254.0,993.0 L 7248.0,1000.0 L 7239.0,1000.0 L 7237.0,1000.0 L 7233.0,1000.0 L 7221.0,996.0 L 7210.0,987.0 L 7215.0,976.0 L 7221.0,965.0 L 7227.0,955.0 L 7233.0,945.0" fill="none" stroke="#000000" stroke-width="7.268"/>
</svg>
