<?xml version="1.0" ?>
<svg xmlns="http://www.w3.org/2000/svg" xmlns:ev="http://www.w3.org/2001/xml-events" xmlns:xlink="http://www.w3.org/1999/xlink" baseProfile="full" height="172px" version="1.1" viewBox="-528.3775 -618.1775 6911.755 1977.355" width="600px">
	<defs/>
	<path d="M 252.0,-263.0 L 252.0,-306.0 L 252.0,-354.0 L 252.0,-402.0 L 252.0,-443.0 L 264.0,-448.0 L 273.0,-443.0 L 281.0,-439.0 L 283.0,-428.0 L 285.0,-414.0 L 285.0,-396.0 L 285.0,-381.0 L 286.0,-366.0 L 290.0,-319.0 L 290.0,-272.0 L 290.0,-236.0 L 290.0,-200.0 L 290.0,-115.0 L 290.0,-33.0 L 289.0,-21.0 L 284.0,-11.0 L 278.0,0.0 L 255.0,0.0 L 242.0,-32.0 L 242.0,-67.0 L 242.0,-100.0 L 242.0,-135.0 L 244.0,-153.0 L 245.0,-171.0 L 246.0,-188.0 L 245.0,-207.0 L 212.0,-207.0 L 177.0,-207.0 L 144.0,-207.0 L 107.0,-207.0 L 98.0,-183.0 L 98.0,-156.0 L 98.0,-130.0 L 98.0,-103.0 L 98.0,-86.0 L 98.0,-67.0 L 98.0,-50.0 L 98.0,-31.0 L 97.0,-24.0 L 97.0,-18.0 L 95.0,-10.0 L 93.0,-4.0 L 89.0,0.0 L 83.0,4.0 L 75.0,8.0 L 70.0,9.0 L 69.0,9.0 L 68.0,9.0 L 66.0,9.0 L 62.0,6.0 L 57.0,1.0 L 56.0,-2.0 L 54.0,-13.0 L 52.0,-23.0 L 50.0,-34.0 L 50.0,-44.0 L 50.0,-45.0 L 50.0,-46.0 L 50.0,-127.0 L 50.0,-210.0 L 50.0,-294.0 L 50.0,-375.0 L 50.0,-390.0 L 52.0,-405.0 L 54.0,-421.0 L 59.0,-436.0 L 62.0,-448.0 L 72.0,-448.0 L 73.0,-448.0 L 75.0,-448.0 L 84.0,-448.0 L 91.0,-437.0 L 94.0,-430.0 L 96.0,-421.0 L 97.0,-412.0 L 98.0,-404.0 L 98.0,-374.0 L 98.0,-342.0 L 98.0,-309.0 L 98.0,-279.0 L 98.0,-274.0 L 98.0,-269.0 L 99.0,-263.0 L 99.0,-257.0 L 138.0,-252.0 L 175.0,-256.0 L 212.0,-260.0 L 252.0,-263.0 M 492.0,-61.0 L 500.0,-66.0 L 507.0,-74.0 L 516.0,-80.0 L 524.0,-85.0 L 533.0,-90.0 L 540.0,-85.0 L 548.0,-80.0 L 554.0,-66.0 L 532.0,-34.0 L 510.0,-17.0 L 491.0,0.0 L 459.0,0.0 L 456.0,0.0 L 453.0,0.0 L 414.0,0.0 L 384.0,-15.0 L 355.0,-29.0 L 337.0,-76.0 L 330.0,-95.0 L 330.0,-115.0 L 330.0,-117.0 L 330.0,-119.0 L 330.0,-141.0 L 336.0,-162.0 L 346.0,-192.0 L 369.0,-215.0 L 391.0,-237.0 L 418.0,-248.0 L 433.0,-254.0 L 448.0,-255.0 L 454.0,-256.0 L 459.0,-256.0 L 469.0,-256.0 L 478.0,-254.0 L 496.0,-250.0 L 508.0,-242.0 L 521.0,-232.0 L 524.0,-213.0 L 528.0,-195.0 L 526.0,-177.0 L 523.0,-160.0 L 510.0,-145.0 L 485.0,-115.0 L 454.0,-103.0 L 423.0,-89.0 L 382.0,-95.0 L 398.0,-55.0 L 430.0,-47.0 L 462.0,-40.0 L 492.0,-61.0 M 378.0,-135.0 L 392.0,-132.0 L 405.0,-132.0 L 417.0,-132.0 L 428.0,-135.0 L 452.0,-141.0 L 471.0,-156.0 L 480.0,-163.0 L 486.0,-176.0 L 487.0,-181.0 L 487.0,-186.0 L 487.0,-194.0 L 480.0,-204.0 L 469.0,-208.0 L 458.0,-208.0 L 454.0,-208.0 L 449.0,-208.0 L 433.0,-206.0 L 418.0,-198.0 L 397.0,-188.0 L 383.0,-170.0 L 375.0,-158.0 L 375.0,-148.0 L 375.0,-142.0 L 378.0,-135.0 M 642.0,-410.0 L 642.0,-378.0 L 642.0,-347.0 L 642.0,-316.0 L 642.0,-285.0 L 642.0,-254.0 L 642.0,-224.0 L 642.0,-194.0 L 642.0,-163.0 L 642.0,-130.0 L 642.0,-96.0 L 642.0,-78.0 L 642.0,-61.0 L 642.0,-44.0 L 642.0,-29.0 L 642.0,-20.0 L 640.0,-11.0 L 639.0,-1.0 L 623.0,0.0 L 609.0,0.0 L 602.0,-7.0 L 594.0,-15.0 L 594.0,-27.0 L 594.0,-71.0 L 594.0,-113.0 L 594.0,-140.0 L 594.0,-165.0 L 594.0,-183.0 L 594.0,-201.0 L 594.0,-249.0 L 594.0,-299.0 L 594.0,-347.0 L 594.0,-396.0 L 594.0,-403.0 L 596.0,-415.0 L 596.0,-427.0 L 601.0,-436.0 L 603.0,-441.0 L 609.0,-445.0 L 614.0,-448.0 L 623.0,-448.0 L 638.0,-442.0 L 639.0,-431.0 L 642.0,-420.0 L 642.0,-410.0 M 730.0,-410.0 L 730.0,-378.0 L 730.0,-347.0 L 730.0,-316.0 L 730.0,-285.0 L 730.0,-254.0 L 730.0,-224.0 L 730.0,-194.0 L 730.0,-163.0 L 730.0,-130.0 L 730.0,-96.0 L 730.0,-78.0 L 730.0,-61.0 L 730.0,-44.0 L 730.0,-29.0 L 730.0,-20.0 L 728.0,-11.0 L 727.0,-1.0 L 711.0,0.0 L 697.0,0.0 L 690.0,-7.0 L 682.0,-15.0 L 682.0,-27.0 L 682.0,-71.0 L 682.0,-113.0 L 682.0,-140.0 L 682.0,-165.0 L 682.0,-183.0 L 682.0,-201.0 L 682.0,-249.0 L 682.0,-299.0 L 682.0,-347.0 L 682.0,-396.0 L 682.0,-403.0 L 684.0,-415.0 L 684.0,-427.0 L 689.0,-436.0 L 691.0,-441.0 L 697.0,-445.0 L 702.0,-448.0 L 711.0,-448.0 L 726.0,-442.0 L 727.0,-431.0 L 730.0,-420.0 L 730.0,-410.0 M 960.0,-51.0 L 946.0,-22.0 L 923.0,-10.0 L 903.0,0.0 L 876.0,0.0 L 873.0,0.0 L 869.0,0.0 L 838.0,0.0 L 817.0,-15.0 L 796.0,-31.0 L 783.0,-60.0 L 774.0,-77.0 L 772.0,-97.0 L 770.0,-108.0 L 770.0,-119.0 L 770.0,-128.0 L 771.0,-136.0 L 775.0,-173.0 L 797.0,-205.0 L 819.0,-237.0 L 857.0,-251.0 L 869.0,-256.0 L 881.0,-256.0 L 885.0,-256.0 L 890.0,-256.0 L 906.0,-254.0 L 920.0,-243.0 L 951.0,-221.0 L 965.0,-192.0 L 979.0,-163.0 L 979.0,-119.0 L 979.0,-97.0 L 973.0,-82.0 L 967.0,-67.0 L 960.0,-51.0 M 929.0,-168.0 L 920.0,-188.0 L 905.0,-200.0 L 893.0,-208.0 L 880.0,-208.0 L 877.0,-208.0 L 874.0,-207.0 L 854.0,-204.0 L 839.0,-193.0 L 823.0,-183.0 L 817.0,-161.0 L 815.0,-151.0 L 813.0,-143.0 L 810.0,-133.0 L 810.0,-124.0 L 810.0,-122.0 L 810.0,-120.0 L 810.0,-90.0 L 828.0,-70.0 L 847.0,-48.0 L 878.0,-48.0 L 878.0,-48.0 L 878.0,-48.0 L 904.0,-48.0 L 921.0,-66.0 L 938.0,-83.0 L 938.0,-123.0 L 937.0,-138.0 L 935.0,-148.0 L 933.0,-158.0 L 929.0,-168.0 M 1436.0,-40.0 L 1435.0,-58.0 L 1435.0,-75.0 L 1435.0,-93.0 L 1435.0,-110.0 L 1435.0,-166.0 L 1435.0,-218.0 L 1435.0,-270.0 L 1435.0,-326.0 L 1435.0,-331.0 L 1435.0,-340.0 L 1435.0,-350.0 L 1433.0,-361.0 L 1425.0,-350.0 L 1422.0,-344.0 L 1419.0,-337.0 L 1415.0,-332.0 L 1397.0,-310.0 L 1381.0,-286.0 L 1366.0,-262.0 L 1346.0,-241.0 L 1330.0,-224.0 L 1321.0,-222.0 L 1312.0,-221.0 L 1300.0,-242.0 L 1284.0,-265.0 L 1267.0,-291.0 L 1248.0,-317.0 L 1233.0,-349.0 L 1227.0,-337.0 L 1227.0,-323.0 L 1233.0,-309.0 L 1227.0,-303.0 L 1227.0,-239.0 L 1227.0,-172.0 L 1227.0,-104.0 L 1227.0,-41.0 L 1227.0,-27.0 L 1222.0,-13.0 L 1219.0,1.0 L 1184.0,3.0 L 1183.0,-12.0 L 1181.0,-27.0 L 1179.0,-41.0 L 1179.0,-54.0 L 1179.0,-55.0 L 1179.0,-56.0 L 1179.0,-143.0 L 1179.0,-245.0 L 1179.0,-349.0 L 1179.0,-435.0 L 1179.0,-438.0 L 1180.0,-441.0 L 1181.0,-443.0 L 1183.0,-446.0 L 1190.0,-448.0 L 1195.0,-448.0 L 1201.0,-448.0 L 1206.0,-445.0 L 1214.0,-439.0 L 1220.0,-430.0 L 1240.0,-404.0 L 1257.0,-376.0 L 1275.0,-347.0 L 1295.0,-321.0 L 1300.0,-312.0 L 1309.0,-301.0 L 1318.0,-291.0 L 1324.0,-280.0 L 1342.0,-289.0 L 1350.0,-306.0 L 1358.0,-322.0 L 1367.0,-334.0 L 1381.0,-353.0 L 1393.0,-374.0 L 1406.0,-394.0 L 1419.0,-414.0 L 1427.0,-426.0 L 1436.0,-439.0 L 1446.0,-451.0 L 1464.0,-446.0 L 1478.0,-442.0 L 1481.0,-428.0 L 1483.0,-413.0 L 1483.0,-401.0 L 1483.0,-357.0 L 1483.0,-314.0 L 1483.0,-270.0 L 1483.0,-227.0 L 1483.0,-178.0 L 1483.0,-130.0 L 1483.0,-81.0 L 1483.0,-33.0 L 1483.0,-32.0 L 1483.0,-32.0 L 1483.0,-21.0 L 1480.0,-11.0 L 1476.0,0.0 L 1455.0,1.0 L 1451.0,-9.0 L 1444.0,-20.0 L 1438.0,-30.0 L 1436.0,-40.0 M 1523.0,-290.0 L 1523.0,-289.0 L 1523.0,-288.0 L 1523.0,-279.0 L 1529.0,-272.0 L 1536.0,-264.0 L 1546.0,-264.0 L 1554.0,-264.0 L 1562.0,-272.0 L 1569.0,-279.0 L 1570.0,-288.0 L 1570.0,-288.0 L 1570.0,-289.0 L 1570.0,-298.0 L 1563.0,-305.0 L 1556.0,-312.0 L 1545.0,-312.0 L 1545.0,-312.0 L 1544.0,-312.0 L 1536.0,-312.0 L 1530.0,-306.0 L 1524.0,-300.0 L 1523.0,-290.0 M 1537.0,-223.0 L 1530.0,-217.0 L 1528.0,-208.0 L 1525.0,-200.0 L 1524.0,-193.0 L 1524.0,-149.0 L 1524.0,-110.0 L 1524.0,-90.0 L 1524.0,-67.0 L 1524.0,-49.0 L 1524.0,-29.0 L 1524.0,-6.0 L 1543.0,-2.0 L 1550.0,0.0 L 1556.0,0.0 L 1564.0,0.0 L 1570.0,-4.0 L 1572.0,-8.0 L 1572.0,-23.0 L 1572.0,-38.0 L 1572.0,-56.0 L 1572.0,-79.0 L 1572.0,-99.0 L 1572.0,-120.0 L 1572.0,-124.0 L 1572.0,-136.0 L 1575.0,-164.0 L 1576.0,-171.0 L 1576.0,-178.0 L 1576.0,-195.0 L 1570.0,-209.0 L 1565.0,-215.0 L 1558.0,-220.0 L 1551.0,-223.0 L 1542.0,-223.0 L 1541.0,-223.0 L 1537.0,-223.0 M 1726.0,-212.0 L 1699.0,-202.0 L 1689.0,-186.0 L 1679.0,-170.0 L 1669.0,-154.0 L 1659.0,-129.0 L 1662.0,-110.0 L 1665.0,-91.0 L 1680.0,-71.0 L 1694.0,-50.0 L 1711.0,-50.0 L 1728.0,-50.0 L 1747.0,-53.0 L 1756.0,-54.0 L 1764.0,-57.0 L 1773.0,-60.0 L 1780.0,-63.0 L 1791.0,-53.0 L 1791.0,-43.0 L 1791.0,-43.0 L 1791.0,-42.0 L 1791.0,-32.0 L 1785.0,-26.0 L 1779.0,-19.0 L 1771.0,-12.0 L 1763.0,-6.0 L 1756.0,-4.0 L 1739.0,0.0 L 1722.0,0.0 L 1711.0,0.0 L 1701.0,-1.0 L 1674.0,-5.0 L 1653.0,-30.0 L 1632.0,-55.0 L 1621.0,-84.0 L 1616.0,-98.0 L 1616.0,-112.0 L 1616.0,-130.0 L 1623.0,-148.0 L 1635.0,-183.0 L 1653.0,-208.0 L 1671.0,-234.0 L 1712.0,-251.0 L 1720.0,-255.0 L 1731.0,-256.0 L 1733.0,-256.0 L 1735.0,-256.0 L 1743.0,-256.0 L 1750.0,-253.0 L 1759.0,-249.0 L 1769.0,-242.0 L 1778.0,-233.0 L 1773.0,-215.0 L 1763.0,-211.0 L 1749.0,-213.0 L 1735.0,-215.0 L 1726.0,-212.0 M 1879.0,-319.0 L 1879.0,-289.0 L 1879.0,-259.0 L 1879.0,-229.0 L 1879.0,-199.0 L 1890.0,-213.0 L 1901.0,-225.0 L 1911.0,-237.0 L 1940.0,-243.0 L 1953.0,-246.0 L 1963.0,-243.0 L 1974.0,-238.0 L 1981.0,-226.0 L 1988.0,-213.0 L 1995.0,-200.0 L 2002.0,-186.0 L 2003.0,-172.0 L 2007.0,-133.0 L 2007.0,-96.0 L 2007.0,-57.0 L 2007.0,-19.0 L 2007.0,-19.0 L 2007.0,-18.0 L 2007.0,-13.0 L 2003.0,-6.0 L 1999.0,0.0 L 1996.0,0.0 L 1989.0,0.0 L 1982.0,-3.0 L 1974.0,-5.0 L 1972.0,-10.0 L 1967.0,-20.0 L 1964.0,-32.0 L 1962.0,-43.0 L 1961.0,-55.0 L 1959.0,-78.0 L 1959.0,-102.0 L 1959.0,-127.0 L 1959.0,-151.0 L 1957.0,-166.0 L 1954.0,-178.0 L 1951.0,-192.0 L 1939.0,-201.0 L 1914.0,-184.0 L 1899.0,-156.0 L 1884.0,-127.0 L 1880.0,-84.0 L 1879.0,-69.0 L 1879.0,-54.0 L 1879.0,-38.0 L 1879.0,-24.0 L 1879.0,-13.0 L 1874.0,-6.0 L 1868.0,0.0 L 1860.0,0.0 L 1858.0,0.0 L 1857.0,0.0 L 1847.0,0.0 L 1841.0,-5.0 L 1832.0,-10.0 L 1831.0,-22.0 L 1831.0,-27.0 L 1831.0,-33.0 L 1831.0,-35.0 L 1831.0,-37.0 L 1831.0,-44.0 L 1831.0,-51.0 L 1831.0,-104.0 L 1831.0,-159.0 L 1831.0,-212.0 L 1831.0,-266.0 L 1831.0,-294.0 L 1831.0,-327.0 L 1831.0,-360.0 L 1831.0,-389.0 L 1831.0,-401.0 L 1831.0,-414.0 L 1832.0,-428.0 L 1832.0,-442.0 L 1835.0,-447.0 L 1841.0,-448.0 L 1841.0,-448.0 L 1842.0,-448.0 L 1849.0,-448.0 L 1859.0,-443.0 L 1879.0,-417.0 L 1879.0,-384.0 L 1879.0,-350.0 L 1879.0,-319.0 M 2218.0,-51.0 L 2208.0,-41.0 L 2198.0,-34.0 L 2188.0,-25.0 L 2177.0,-16.0 L 2155.0,0.0 L 2137.0,0.0 L 2135.0,0.0 L 2133.0,0.0 L 2111.0,-2.0 L 2089.0,-22.0 L 2080.0,-31.0 L 2072.0,-40.0 L 2064.0,-49.0 L 2057.0,-58.0 L 2052.0,-65.0 L 2050.0,-86.0 L 2047.0,-102.0 L 2047.0,-111.0 L 2047.0,-113.0 L 2047.0,-114.0 L 2047.0,-162.0 L 2060.0,-185.0 L 2071.0,-208.0 L 2107.0,-237.0 L 2125.0,-251.0 L 2146.0,-255.0 L 2151.0,-256.0 L 2158.0,-256.0 L 2172.0,-256.0 L 2185.0,-249.0 L 2205.0,-239.0 L 2220.0,-221.0 L 2237.0,-205.0 L 2238.0,-177.0 L 2238.0,-163.0 L 2240.0,-149.0 L 2242.0,-135.0 L 2243.0,-120.0 L 2243.0,-98.0 L 2252.0,-78.0 L 2259.0,-57.0 L 2276.0,-42.0 L 2280.0,-39.0 L 2280.0,-31.0 L 2281.0,-23.0 L 2283.0,-17.0 L 2268.0,-8.0 L 2257.0,-14.0 L 2247.0,-19.0 L 2238.0,-29.0 L 2233.0,-35.0 L 2228.0,-40.0 L 2224.0,-47.0 L 2218.0,-51.0 M 2197.0,-179.0 L 2195.0,-196.0 L 2188.0,-203.0 L 2183.0,-208.0 L 2172.0,-208.0 L 2169.0,-208.0 L 2165.0,-208.0 L 2157.0,-207.0 L 2147.0,-204.0 L 2138.0,-202.0 L 2132.0,-198.0 L 2110.0,-179.0 L 2102.0,-157.0 L 2095.0,-140.0 L 2095.0,-109.0 L 2095.0,-104.0 L 2095.0,-99.0 L 2095.0,-81.0 L 2106.0,-71.0 L 2117.0,-59.0 L 2129.0,-52.0 L 2136.0,-48.0 L 2143.0,-48.0 L 2148.0,-48.0 L 2153.0,-50.0 L 2167.0,-55.0 L 2175.0,-62.0 L 2195.0,-80.0 L 2198.0,-98.0 L 2200.0,-115.0 L 2200.0,-133.0 L 2200.0,-150.0 L 2199.0,-161.0 L 2198.0,-172.0 L 2197.0,-179.0 M 2485.0,-61.0 L 2493.0,-66.0 L 2500.0,-74.0 L 2509.0,-80.0 L 2517.0,-85.0 L 2526.0,-90.0 L 2533.0,-85.0 L 2541.0,-80.0 L 2547.0,-66.0 L 2525.0,-34.0 L 2503.0,-17.0 L 2484.0,0.0 L 2452.0,0.0 L 2449.0,0.0 L 2446.0,0.0 L 2407.0,0.0 L 2377.0,-15.0 L 2348.0,-29.0 L 2330.0,-76.0 L 2323.0,-95.0 L 2323.0,-115.0 L 2323.0,-117.0 L 2323.0,-119.0 L 2323.0,-141.0 L 2329.0,-162.0 L 2339.0,-192.0 L 2362.0,-215.0 L 2384.0,-237.0 L 2411.0,-248.0 L 2426.0,-254.0 L 2441.0,-255.0 L 2447.0,-256.0 L 2452.0,-256.0 L 2462.0,-256.0 L 2471.0,-254.0 L 2489.0,-250.0 L 2501.0,-242.0 L 2514.0,-232.0 L 2517.0,-213.0 L 2521.0,-195.0 L 2519.0,-177.0 L 2516.0,-160.0 L 2503.0,-145.0 L 2478.0,-115.0 L 2447.0,-103.0 L 2416.0,-89.0 L 2375.0,-95.0 L 2391.0,-55.0 L 2423.0,-47.0 L 2455.0,-40.0 L 2485.0,-61.0 M 2371.0,-135.0 L 2385.0,-132.0 L 2398.0,-132.0 L 2410.0,-132.0 L 2421.0,-135.0 L 2445.0,-141.0 L 2464.0,-156.0 L 2473.0,-163.0 L 2479.0,-176.0 L 2480.0,-181.0 L 2480.0,-186.0 L 2480.0,-194.0 L 2473.0,-204.0 L 2462.0,-208.0 L 2451.0,-208.0 L 2447.0,-208.0 L 2442.0,-208.0 L 2426.0,-206.0 L 2411.0,-198.0 L 2390.0,-188.0 L 2376.0,-170.0 L 2368.0,-158.0 L 2368.0,-148.0 L 2368.0,-142.0 L 2371.0,-135.0 M 2635.0,-410.0 L 2635.0,-378.0 L 2635.0,-347.0 L 2635.0,-316.0 L 2635.0,-285.0 L 2635.0,-254.0 L 2635.0,-224.0 L 2635.0,-194.0 L 2635.0,-163.0 L 2635.0,-130.0 L 2635.0,-96.0 L 2635.0,-78.0 L 2635.0,-61.0 L 2635.0,-44.0 L 2635.0,-29.0 L 2635.0,-20.0 L 2633.0,-11.0 L 2632.0,-1.0 L 2616.0,0.0 L 2602.0,0.0 L 2595.0,-7.0 L 2587.0,-15.0 L 2587.0,-27.0 L 2587.0,-71.0 L 2587.0,-113.0 L 2587.0,-140.0 L 2587.0,-165.0 L 2587.0,-183.0 L 2587.0,-201.0 L 2587.0,-249.0 L 2587.0,-299.0 L 2587.0,-347.0 L 2587.0,-396.0 L 2587.0,-403.0 L 2589.0,-415.0 L 2589.0,-427.0 L 2594.0,-436.0 L 2596.0,-441.0 L 2602.0,-445.0 L 2607.0,-448.0 L 2616.0,-448.0 L 2631.0,-442.0 L 2632.0,-431.0 L 2635.0,-420.0 L 2635.0,-410.0 M 2696.0,-53.0 L 2698.0,-58.0 L 2704.0,-61.0 L 2711.0,-64.0 L 2716.0,-64.0 L 2719.0,-64.0 L 2723.0,-60.0 L 2727.0,-55.0 L 2729.0,-50.0 L 2732.0,-40.0 L 2732.0,-28.0 L 2732.0,-9.0 L 2723.0,12.0 L 2709.0,47.0 L 2680.0,65.0 L 2675.0,43.0 L 2675.0,24.0 L 2675.0,12.0 L 2677.0,2.0 L 2681.0,-28.0 L 2696.0,-53.0 M 3019.0,-55.0 L 3042.0,-46.0 L 3064.0,-48.0 L 3087.0,-51.0 L 3109.0,-61.0 L 3122.0,-67.0 L 3128.0,-78.0 L 3134.0,-89.0 L 3135.0,-105.0 L 3137.0,-136.0 L 3121.0,-163.0 L 3107.0,-190.0 L 3080.0,-201.0 L 3061.0,-209.0 L 3042.0,-218.0 L 3022.0,-225.0 L 3003.0,-232.0 L 2973.0,-243.0 L 2958.0,-268.0 L 2944.0,-295.0 L 2935.0,-325.0 L 2932.0,-336.0 L 2932.0,-346.0 L 2932.0,-351.0 L 2933.0,-356.0 L 2936.0,-373.0 L 2944.0,-388.0 L 2952.0,-404.0 L 2966.0,-416.0 L 2980.0,-429.0 L 2996.0,-437.0 L 3022.0,-448.0 L 3050.0,-448.0 L 3056.0,-448.0 L 3061.0,-448.0 L 3096.0,-445.0 L 3120.0,-422.0 L 3121.0,-420.0 L 3122.0,-418.0 L 3123.0,-415.0 L 3125.0,-412.0 L 3120.0,-399.0 L 3112.0,-396.0 L 3104.0,-394.0 L 3093.0,-395.0 L 3078.0,-398.0 L 3063.0,-399.0 L 3047.0,-400.0 L 3033.0,-400.0 L 3026.0,-400.0 L 3019.0,-398.0 L 3012.0,-396.0 L 3006.0,-392.0 L 2993.0,-383.0 L 2982.0,-373.0 L 2972.0,-362.0 L 2975.0,-343.0 L 2977.0,-324.0 L 2984.0,-307.0 L 2991.0,-289.0 L 3009.0,-281.0 L 3028.0,-272.0 L 3047.0,-265.0 L 3067.0,-256.0 L 3086.0,-249.0 L 3109.0,-242.0 L 3126.0,-226.0 L 3143.0,-211.0 L 3155.0,-189.0 L 3176.0,-157.0 L 3176.0,-116.0 L 3176.0,-113.0 L 3176.0,-109.0 L 3176.0,-64.0 L 3151.0,-36.0 L 3147.0,-31.0 L 3141.0,-27.0 L 3137.0,-22.0 L 3131.0,-19.0 L 3096.0,0.0 L 3061.0,0.0 L 3051.0,0.0 L 3041.0,-1.0 L 2998.0,-9.0 L 2956.0,-34.0 L 2943.0,-42.0 L 2943.0,-53.0 L 2942.0,-64.0 L 2953.0,-83.0 L 2970.0,-76.0 L 2986.0,-69.0 L 3003.0,-63.0 L 3019.0,-55.0 M 3378.0,-61.0 L 3386.0,-66.0 L 3393.0,-74.0 L 3402.0,-80.0 L 3410.0,-85.0 L 3419.0,-90.0 L 3426.0,-85.0 L 3434.0,-80.0 L 3440.0,-66.0 L 3418.0,-34.0 L 3396.0,-17.0 L 3377.0,0.0 L 3345.0,0.0 L 3342.0,0.0 L 3339.0,0.0 L 3300.0,0.0 L 3270.0,-15.0 L 3241.0,-29.0 L 3223.0,-76.0 L 3216.0,-95.0 L 3216.0,-115.0 L 3216.0,-117.0 L 3216.0,-119.0 L 3216.0,-141.0 L 3222.0,-162.0 L 3232.0,-192.0 L 3255.0,-215.0 L 3277.0,-237.0 L 3304.0,-248.0 L 3319.0,-254.0 L 3334.0,-255.0 L 3340.0,-256.0 L 3345.0,-256.0 L 3355.0,-256.0 L 3364.0,-254.0 L 3382.0,-250.0 L 3394.0,-242.0 L 3407.0,-232.0 L 3410.0,-213.0 L 3414.0,-195.0 L 3412.0,-177.0 L 3409.0,-160.0 L 3396.0,-145.0 L 3371.0,-115.0 L 3340.0,-103.0 L 3309.0,-89.0 L 3268.0,-95.0 L 3284.0,-55.0 L 3316.0,-47.0 L 3348.0,-40.0 L 3378.0,-61.0 M 3264.0,-135.0 L 3278.0,-132.0 L 3291.0,-132.0 L 3303.0,-132.0 L 3314.0,-135.0 L 3338.0,-141.0 L 3357.0,-156.0 L 3366.0,-163.0 L 3372.0,-176.0 L 3373.0,-181.0 L 3373.0,-186.0 L 3373.0,-194.0 L 3366.0,-204.0 L 3355.0,-208.0 L 3344.0,-208.0 L 3340.0,-208.0 L 3335.0,-208.0 L 3319.0,-206.0 L 3304.0,-198.0 L 3283.0,-188.0 L 3269.0,-170.0 L 3261.0,-158.0 L 3261.0,-148.0 L 3261.0,-142.0 L 3264.0,-135.0 M 3651.0,-51.0 L 3641.0,-41.0 L 3631.0,-34.0 L 3621.0,-25.0 L 3610.0,-16.0 L 3588.0,0.0 L 3570.0,0.0 L 3568.0,0.0 L 3566.0,0.0 L 3544.0,-2.0 L 3522.0,-22.0 L 3513.0,-31.0 L 3505.0,-40.0 L 3497.0,-49.0 L 3490.0,-58.0 L 3485.0,-65.0 L 3483.0,-86.0 L 3480.0,-102.0 L 3480.0,-111.0 L 3480.0,-113.0 L 3480.0,-114.0 L 3480.0,-162.0 L 3493.0,-185.0 L 3504.0,-208.0 L 3540.0,-237.0 L 3558.0,-251.0 L 3579.0,-255.0 L 3584.0,-256.0 L 3591.0,-256.0 L 3605.0,-256.0 L 3618.0,-249.0 L 3638.0,-239.0 L 3653.0,-221.0 L 3670.0,-205.0 L 3671.0,-177.0 L 3671.0,-163.0 L 3673.0,-149.0 L 3675.0,-135.0 L 3676.0,-120.0 L 3676.0,-98.0 L 3685.0,-78.0 L 3692.0,-57.0 L 3709.0,-42.0 L 3713.0,-39.0 L 3713.0,-31.0 L 3714.0,-23.0 L 3716.0,-17.0 L 3701.0,-8.0 L 3690.0,-14.0 L 3680.0,-19.0 L 3671.0,-29.0 L 3666.0,-35.0 L 3661.0,-40.0 L 3657.0,-47.0 L 3651.0,-51.0 M 3630.0,-179.0 L 3628.0,-196.0 L 3621.0,-203.0 L 3616.0,-208.0 L 3605.0,-208.0 L 3602.0,-208.0 L 3598.0,-208.0 L 3590.0,-207.0 L 3580.0,-204.0 L 3571.0,-202.0 L 3565.0,-198.0 L 3543.0,-179.0 L 3535.0,-157.0 L 3528.0,-140.0 L 3528.0,-109.0 L 3528.0,-104.0 L 3528.0,-99.0 L 3528.0,-81.0 L 3539.0,-71.0 L 3550.0,-59.0 L 3562.0,-52.0 L 3569.0,-48.0 L 3576.0,-48.0 L 3581.0,-48.0 L 3586.0,-50.0 L 3600.0,-55.0 L 3608.0,-62.0 L 3628.0,-80.0 L 3631.0,-98.0 L 3633.0,-115.0 L 3633.0,-133.0 L 3633.0,-150.0 L 3632.0,-161.0 L 3631.0,-172.0 L 3630.0,-179.0 M 3916.0,-69.0 L 3916.0,-96.0 L 3916.0,-117.0 L 3916.0,-138.0 L 3910.0,-165.0 L 3907.0,-175.0 L 3902.0,-190.0 L 3897.0,-207.0 L 3883.0,-210.0 L 3864.0,-205.0 L 3853.0,-200.0 L 3841.0,-194.0 L 3835.0,-187.0 L 3821.0,-174.0 L 3816.0,-157.0 L 3813.0,-140.0 L 3808.0,-121.0 L 3803.0,-103.0 L 3802.0,-83.0 L 3802.0,-64.0 L 3801.0,-45.0 L 3801.0,-38.0 L 3801.0,-31.0 L 3802.0,-24.0 L 3800.0,-18.0 L 3798.0,-13.0 L 3793.0,-7.0 L 3789.0,-1.0 L 3784.0,0.0 L 3779.0,0.0 L 3772.0,-4.0 L 3766.0,-8.0 L 3762.0,-12.0 L 3758.0,-16.0 L 3757.0,-22.0 L 3756.0,-28.0 L 3756.0,-33.0 L 3756.0,-78.0 L 3756.0,-123.0 L 3756.0,-128.0 L 3756.0,-132.0 L 3756.0,-181.0 L 3756.0,-229.0 L 3777.0,-240.0 L 3783.0,-230.0 L 3789.0,-218.0 L 3797.0,-211.0 L 3811.0,-220.0 L 3823.0,-230.0 L 3837.0,-239.0 L 3851.0,-246.0 L 3870.0,-256.0 L 3889.0,-256.0 L 3895.0,-256.0 L 3902.0,-254.0 L 3925.0,-249.0 L 3940.0,-221.0 L 3964.0,-171.0 L 3964.0,-123.0 L 3964.0,-114.0 L 3964.0,-103.0 L 3964.0,-64.0 L 3955.0,-20.0 L 3955.0,-17.0 L 3951.0,-7.0 L 3947.0,2.0 L 3940.0,3.0 L 3917.0,2.0 L 3915.0,-12.0 L 3912.0,-27.0 L 3916.0,-69.0 M 4025.0,-53.0 L 4027.0,-58.0 L 4033.0,-61.0 L 4040.0,-64.0 L 4045.0,-64.0 L 4048.0,-64.0 L 4052.0,-60.0 L 4056.0,-55.0 L 4058.0,-50.0 L 4061.0,-40.0 L 4061.0,-28.0 L 4061.0,-9.0 L 4052.0,12.0 L 4038.0,47.0 L 4009.0,65.0 L 4004.0,43.0 L 4004.0,24.0 L 4004.0,12.0 L 4006.0,2.0 L 4010.0,-28.0 L 4025.0,-53.0 M 4432.0,-51.0 L 4422.0,-41.0 L 4412.0,-34.0 L 4402.0,-25.0 L 4391.0,-16.0 L 4369.0,0.0 L 4351.0,0.0 L 4349.0,0.0 L 4347.0,0.0 L 4325.0,-2.0 L 4303.0,-22.0 L 4294.0,-31.0 L 4286.0,-40.0 L 4278.0,-49.0 L 4271.0,-58.0 L 4266.0,-65.0 L 4264.0,-86.0 L 4261.0,-102.0 L 4261.0,-111.0 L 4261.0,-113.0 L 4261.0,-114.0 L 4261.0,-162.0 L 4274.0,-185.0 L 4285.0,-208.0 L 4321.0,-237.0 L 4339.0,-251.0 L 4360.0,-255.0 L 4365.0,-256.0 L 4372.0,-256.0 L 4386.0,-256.0 L 4399.0,-249.0 L 4419.0,-239.0 L 4434.0,-221.0 L 4451.0,-205.0 L 4452.0,-177.0 L 4452.0,-163.0 L 4454.0,-149.0 L 4456.0,-135.0 L 4457.0,-120.0 L 4457.0,-98.0 L 4466.0,-78.0 L 4473.0,-57.0 L 4490.0,-42.0 L 4494.0,-39.0 L 4494.0,-31.0 L 4495.0,-23.0 L 4497.0,-17.0 L 4482.0,-8.0 L 4471.0,-14.0 L 4461.0,-19.0 L 4452.0,-29.0 L 4447.0,-35.0 L 4442.0,-40.0 L 4438.0,-47.0 L 4432.0,-51.0 M 4411.0,-179.0 L 4409.0,-196.0 L 4402.0,-203.0 L 4397.0,-208.0 L 4386.0,-208.0 L 4383.0,-208.0 L 4379.0,-208.0 L 4371.0,-207.0 L 4361.0,-204.0 L 4352.0,-202.0 L 4346.0,-198.0 L 4324.0,-179.0 L 4316.0,-157.0 L 4309.0,-140.0 L 4309.0,-109.0 L 4309.0,-104.0 L 4309.0,-99.0 L 4309.0,-81.0 L 4320.0,-71.0 L 4331.0,-59.0 L 4343.0,-52.0 L 4350.0,-48.0 L 4357.0,-48.0 L 4362.0,-48.0 L 4367.0,-50.0 L 4381.0,-55.0 L 4389.0,-62.0 L 4409.0,-80.0 L 4412.0,-98.0 L 4414.0,-115.0 L 4414.0,-133.0 L 4414.0,-150.0 L 4413.0,-161.0 L 4412.0,-172.0 L 4411.0,-179.0 M 4697.0,-69.0 L 4697.0,-96.0 L 4697.0,-117.0 L 4697.0,-138.0 L 4691.0,-165.0 L 4688.0,-175.0 L 4683.0,-190.0 L 4678.0,-207.0 L 4664.0,-210.0 L 4645.0,-205.0 L 4634.0,-200.0 L 4622.0,-194.0 L 4616.0,-187.0 L 4602.0,-174.0 L 4597.0,-157.0 L 4594.0,-140.0 L 4589.0,-121.0 L 4584.0,-103.0 L 4583.0,-83.0 L 4583.0,-64.0 L 4582.0,-45.0 L 4582.0,-38.0 L 4582.0,-31.0 L 4583.0,-24.0 L 4581.0,-18.0 L 4579.0,-13.0 L 4574.0,-7.0 L 4570.0,-1.0 L 4565.0,0.0 L 4560.0,0.0 L 4553.0,-4.0 L 4547.0,-8.0 L 4543.0,-12.0 L 4539.0,-16.0 L 4538.0,-22.0 L 4537.0,-28.0 L 4537.0,-33.0 L 4537.0,-78.0 L 4537.0,-123.0 L 4537.0,-128.0 L 4537.0,-132.0 L 4537.0,-181.0 L 4537.0,-229.0 L 4558.0,-240.0 L 4564.0,-230.0 L 4570.0,-218.0 L 4578.0,-211.0 L 4592.0,-220.0 L 4604.0,-230.0 L 4618.0,-239.0 L 4632.0,-246.0 L 4651.0,-256.0 L 4670.0,-256.0 L 4676.0,-256.0 L 4683.0,-254.0 L 4706.0,-249.0 L 4721.0,-221.0 L 4745.0,-171.0 L 4745.0,-123.0 L 4745.0,-114.0 L 4745.0,-103.0 L 4745.0,-64.0 L 4736.0,-20.0 L 4736.0,-17.0 L 4732.0,-7.0 L 4728.0,2.0 L 4721.0,3.0 L 4698.0,2.0 L 4696.0,-12.0 L 4693.0,-27.0 L 4697.0,-69.0 M 4967.0,-44.0 L 4960.0,-35.0 L 4952.0,-31.0 L 4944.0,-26.0 L 4928.0,-11.0 L 4897.0,0.0 L 4864.0,0.0 L 4857.0,0.0 L 4850.0,0.0 L 4810.0,-3.0 L 4792.0,-48.0 L 4785.0,-72.0 L 4785.0,-105.0 L 4785.0,-114.0 L 4785.0,-124.0 L 4785.0,-170.0 L 4813.0,-211.0 L 4830.0,-234.0 L 4852.0,-250.0 L 4876.0,-265.0 L 4907.0,-258.0 L 4915.0,-256.0 L 4923.0,-256.0 L 4933.0,-256.0 L 4945.0,-253.0 L 4945.0,-281.0 L 4945.0,-304.0 L 4945.0,-327.0 L 4945.0,-353.0 L 4945.0,-372.0 L 4945.0,-387.0 L 4945.0,-402.0 L 4945.0,-422.0 L 4945.0,-429.0 L 4948.0,-436.0 L 4950.0,-444.0 L 4963.0,-448.0 L 4977.0,-448.0 L 4978.0,-443.0 L 4980.0,-440.0 L 4983.0,-432.0 L 4989.0,-407.0 L 4989.0,-391.0 L 4989.0,-374.0 L 4990.0,-351.0 L 4993.0,-318.0 L 4993.0,-284.0 L 4993.0,-251.0 L 4993.0,-217.0 L 4993.0,-200.0 L 4993.0,-181.0 L 4993.0,-162.0 L 4993.0,-142.0 L 4993.0,-106.0 L 4999.0,-70.0 L 5007.0,-33.0 L 5025.0,-6.0 L 5008.0,-1.0 L 4996.0,-5.0 L 4984.0,-9.0 L 4967.0,-44.0 M 4939.0,-140.0 L 4940.0,-147.0 L 4940.0,-153.0 L 4939.0,-168.0 L 4935.0,-178.0 L 4930.0,-194.0 L 4919.0,-201.0 L 4909.0,-206.0 L 4896.0,-206.0 L 4895.0,-206.0 L 4895.0,-206.0 L 4882.0,-206.0 L 4872.0,-202.0 L 4864.0,-200.0 L 4855.0,-189.0 L 4846.0,-179.0 L 4843.0,-168.0 L 4833.0,-134.0 L 4830.0,-102.0 L 4830.0,-99.0 L 4830.0,-97.0 L 4830.0,-67.0 L 4855.0,-51.0 L 4865.0,-48.0 L 4873.0,-48.0 L 4886.0,-48.0 L 4896.0,-56.0 L 4912.0,-69.0 L 4922.0,-89.0 L 4928.0,-101.0 L 4932.0,-114.0 L 4935.0,-128.0 L 4939.0,-140.0 M 5225.0,-290.0 L 5225.0,-289.0 L 5225.0,-288.0 L 5225.0,-279.0 L 5231.0,-272.0 L 5238.0,-264.0 L 5248.0,-264.0 L 5256.0,-264.0 L 5264.0,-272.0 L 5271.0,-279.0 L 5272.0,-288.0 L 5272.0,-288.0 L 5272.0,-289.0 L 5272.0,-298.0 L 5265.0,-305.0 L 5258.0,-312.0 L 5247.0,-312.0 L 5247.0,-312.0 L 5246.0,-312.0 L 5238.0,-312.0 L 5232.0,-306.0 L 5226.0,-300.0 L 5225.0,-290.0 M 5239.0,-223.0 L 5232.0,-217.0 L 5230.0,-208.0 L 5227.0,-200.0 L 5226.0,-193.0 L 5226.0,-149.0 L 5226.0,-110.0 L 5226.0,-90.0 L 5226.0,-67.0 L 5226.0,-49.0 L 5226.0,-29.0 L 5226.0,-6.0 L 5245.0,-2.0 L 5252.0,0.0 L 5258.0,0.0 L 5266.0,0.0 L 5272.0,-4.0 L 5274.0,-8.0 L 5274.0,-23.0 L 5274.0,-38.0 L 5274.0,-56.0 L 5274.0,-79.0 L 5274.0,-99.0 L 5274.0,-120.0 L 5274.0,-124.0 L 5274.0,-136.0 L 5277.0,-164.0 L 5278.0,-171.0 L 5278.0,-178.0 L 5278.0,-195.0 L 5272.0,-209.0 L 5267.0,-215.0 L 5260.0,-220.0 L 5253.0,-223.0 L 5244.0,-223.0 L 5243.0,-223.0 L 5239.0,-223.0 M 5476.0,-87.0 L 5490.0,-83.0 L 5490.0,-67.0 L 5490.0,-66.0 L 5490.0,-64.0 L 5490.0,-49.0 L 5483.0,-34.0 L 5478.0,-23.0 L 5469.0,-15.0 L 5460.0,-6.0 L 5450.0,-3.0 L 5442.0,0.0 L 5433.0,0.0 L 5418.0,0.0 L 5405.0,-7.0 L 5383.0,-19.0 L 5376.0,-42.0 L 5370.0,-56.0 L 5369.0,-70.0 L 5366.0,-85.0 L 5365.0,-99.0 L 5364.0,-106.0 L 5364.0,-114.0 L 5364.0,-121.0 L 5365.0,-128.0 L 5365.0,-151.0 L 5365.0,-165.0 L 5365.0,-180.0 L 5365.0,-192.0 L 5364.0,-205.0 L 5351.0,-204.0 L 5339.0,-201.0 L 5321.0,-210.0 L 5321.0,-210.0 L 5319.0,-209.0 L 5318.0,-209.0 L 5318.0,-209.0 L 5318.0,-209.0 L 5320.0,-210.0 L 5320.0,-218.0 L 5322.0,-223.0 L 5325.0,-228.0 L 5329.0,-231.0 L 5336.0,-236.0 L 5346.0,-238.0 L 5357.0,-240.0 L 5365.0,-246.0 L 5366.0,-254.0 L 5368.0,-264.0 L 5371.0,-274.0 L 5372.0,-285.0 L 5374.0,-294.0 L 5375.0,-308.0 L 5377.0,-322.0 L 5392.0,-324.0 L 5411.0,-317.0 L 5412.0,-301.0 L 5413.0,-286.0 L 5413.0,-270.0 L 5412.0,-261.0 L 5413.0,-254.0 L 5414.0,-246.0 L 5419.0,-240.0 L 5431.0,-237.0 L 5443.0,-235.0 L 5456.0,-232.0 L 5468.0,-228.0 L 5480.0,-211.0 L 5474.0,-201.0 L 5468.0,-192.0 L 5445.0,-192.0 L 5439.0,-192.0 L 5434.0,-192.0 L 5428.0,-192.0 L 5421.0,-192.0 L 5413.0,-160.0 L 5413.0,-131.0 L 5413.0,-102.0 L 5416.0,-73.0 L 5416.0,-65.0 L 5419.0,-54.0 L 5421.0,-44.0 L 5433.0,-39.0 L 5440.0,-40.0 L 5445.0,-44.0 L 5449.0,-47.0 L 5452.0,-52.0 L 5458.0,-60.0 L 5462.0,-70.0 L 5465.0,-81.0 L 5476.0,-87.0 M 5571.0,-338.0 L 5566.0,-341.0 L 5561.0,-343.0 L 5555.0,-346.0 L 5551.0,-349.0 L 5534.0,-366.0 L 5531.0,-388.0 L 5530.0,-393.0 L 5530.0,-398.0 L 5530.0,-415.0 L 5539.0,-432.0 L 5542.0,-439.0 L 5549.0,-445.0 L 5552.0,-448.0 L 5557.0,-448.0 L 5560.0,-448.0 L 5564.0,-446.0 L 5573.0,-443.0 L 5577.0,-436.0 L 5582.0,-429.0 L 5579.0,-419.0 L 5576.0,-409.0 L 5571.0,-400.0 L 5567.0,-390.0 L 5561.0,-378.0 L 5563.0,-372.0 L 5567.0,-362.0 L 5570.0,-352.0 L 5573.0,-341.0 L 5573.0,-340.0 L 5572.0,-340.0 L 5571.0,-338.0 L 5571.0,-338.0 M 5735.0,-215.0 L 5719.0,-217.0 L 5705.0,-214.0 L 5692.0,-212.0 L 5680.0,-201.0 L 5675.0,-197.0 L 5672.0,-188.0 L 5669.0,-181.0 L 5670.0,-174.0 L 5670.0,-170.0 L 5676.0,-164.0 L 5682.0,-160.0 L 5687.0,-159.0 L 5701.0,-155.0 L 5714.0,-154.0 L 5728.0,-152.0 L 5741.0,-150.0 L 5769.0,-145.0 L 5785.0,-128.0 L 5801.0,-112.0 L 5804.0,-87.0 L 5805.0,-81.0 L 5805.0,-75.0 L 5805.0,-62.0 L 5802.0,-51.0 L 5796.0,-36.0 L 5780.0,-23.0 L 5768.0,-12.0 L 5755.0,-8.0 L 5741.0,-2.0 L 5727.0,0.0 L 5720.0,0.0 L 5714.0,0.0 L 5694.0,0.0 L 5677.0,-6.0 L 5653.0,-14.0 L 5639.0,-29.0 L 5635.0,-32.0 L 5633.0,-35.0 L 5629.0,-39.0 L 5629.0,-47.0 L 5637.0,-64.0 L 5653.0,-64.0 L 5669.0,-64.0 L 5682.0,-53.0 L 5699.0,-45.0 L 5714.0,-43.0 L 5729.0,-41.0 L 5745.0,-51.0 L 5764.0,-63.0 L 5765.0,-76.0 L 5765.0,-88.0 L 5750.0,-104.0 L 5742.0,-108.0 L 5734.0,-111.0 L 5726.0,-113.0 L 5717.0,-115.0 L 5705.0,-118.0 L 5692.0,-118.0 L 5679.0,-118.0 L 5666.0,-122.0 L 5637.0,-133.0 L 5626.0,-162.0 L 5622.0,-173.0 L 5622.0,-184.0 L 5622.0,-201.0 L 5633.0,-217.0 L 5640.0,-227.0 L 5650.0,-233.0 L 5659.0,-241.0 L 5671.0,-246.0 L 5694.0,-256.0 L 5721.0,-256.0 L 5724.0,-256.0 L 5728.0,-256.0 L 5751.0,-256.0 L 5770.0,-247.0 L 5775.0,-245.0 L 5780.0,-238.0 L 5784.0,-231.0 L 5784.0,-224.0 L 5783.0,-210.0 L 5764.0,-211.0 L 5746.0,-213.0 L 5735.0,-215.0 M 314.0,600.0 L 298.0,600.0 L 290.0,600.0 L 282.0,600.0 L 265.0,600.0 L 255.0,600.0 L 244.0,600.0 L 234.0,600.0 L 224.0,600.0 L 224.0,696.0 L 224.0,786.0 L 224.0,875.0 L 224.0,967.0 L 224.0,972.0 L 224.0,978.0 L 224.0,985.0 L 222.0,988.0 L 219.0,993.0 L 213.0,996.0 L 209.0,1000.0 L 204.0,1000.0 L 204.0,1000.0 L 204.0,1000.0 L 198.0,1000.0 L 193.0,997.0 L 187.0,993.0 L 186.0,989.0 L 183.0,973.0 L 179.0,958.0 L 176.0,942.0 L 176.0,927.0 L 176.0,867.0 L 176.0,811.0 L 176.0,753.0 L 176.0,693.0 L 176.0,672.0 L 176.0,648.0 L 176.0,626.0 L 176.0,606.0 L 164.0,604.0 L 154.0,602.0 L 144.0,600.0 L 137.0,600.0 L 118.0,600.0 L 102.0,600.0 L 86.0,600.0 L 61.0,596.0 L 59.0,595.0 L 55.0,589.0 L 52.0,584.0 L 50.0,580.0 L 55.0,565.0 L 62.0,559.0 L 69.0,552.0 L 80.0,552.0 L 125.0,552.0 L 158.0,552.0 L 190.0,552.0 L 226.0,552.0 L 245.0,552.0 L 266.0,552.0 L 286.0,552.0 L 311.0,552.0 L 319.0,553.0 L 326.0,554.0 L 333.0,555.0 L 340.0,557.0 L 349.0,558.0 L 350.0,567.0 L 350.0,568.0 L 350.0,569.0 L 350.0,576.0 L 348.0,585.0 L 338.0,597.0 L 333.0,599.0 L 327.0,600.0 L 314.0,600.0 M 511.0,966.0 L 502.0,980.0 L 492.0,992.0 L 481.0,1003.0 L 462.0,998.0 L 442.0,992.0 L 426.0,980.0 L 410.0,968.0 L 406.0,944.0 L 401.0,915.0 L 397.0,885.0 L 394.0,855.0 L 391.0,826.0 L 390.0,816.0 L 390.0,810.0 L 390.0,806.0 L 390.0,804.0 L 391.0,798.0 L 392.0,782.0 L 392.0,777.0 L 393.0,770.0 L 394.0,763.0 L 402.0,758.0 L 421.0,769.0 L 424.0,780.0 L 428.0,790.0 L 429.0,808.0 L 432.0,835.0 L 434.0,858.0 L 435.0,881.0 L 438.0,909.0 L 440.0,927.0 L 444.0,931.0 L 448.0,937.0 L 468.0,950.0 L 497.0,930.0 L 507.0,909.0 L 516.0,887.0 L 520.0,863.0 L 521.0,850.0 L 522.0,836.0 L 523.0,822.0 L 526.0,807.0 L 527.0,798.0 L 528.0,789.0 L 529.0,780.0 L 532.0,772.0 L 533.0,767.0 L 539.0,763.0 L 544.0,759.0 L 548.0,758.0 L 551.0,758.0 L 557.0,762.0 L 562.0,766.0 L 562.0,770.0 L 565.0,782.0 L 565.0,789.0 L 565.0,796.0 L 565.0,809.0 L 565.0,839.0 L 565.0,864.0 L 565.0,890.0 L 568.0,919.0 L 570.0,938.0 L 576.0,956.0 L 582.0,975.0 L 586.0,993.0 L 573.0,1000.0 L 563.0,1000.0 L 557.0,1000.0 L 552.0,997.0 L 541.0,989.0 L 524.0,947.0 L 520.0,953.0 L 517.0,957.0 L 513.0,962.0 L 511.0,966.0 M 788.0,939.0 L 796.0,934.0 L 803.0,926.0 L 812.0,920.0 L 820.0,915.0 L 829.0,910.0 L 836.0,915.0 L 844.0,920.0 L 850.0,934.0 L 828.0,966.0 L 806.0,983.0 L 787.0,1000.0 L 755.0,1000.0 L 752.0,1000.0 L 749.0,1000.0 L 710.0,1000.0 L 680.0,985.0 L 651.0,971.0 L 633.0,924.0 L 626.0,905.0 L 626.0,885.0 L 626.0,883.0 L 626.0,881.0 L 626.0,859.0 L 632.0,838.0 L 642.0,808.0 L 665.0,785.0 L 687.0,763.0 L 714.0,752.0 L 729.0,746.0 L 744.0,745.0 L 750.0,744.0 L 755.0,744.0 L 765.0,744.0 L 774.0,746.0 L 792.0,750.0 L 804.0,758.0 L 817.0,768.0 L 820.0,787.0 L 824.0,805.0 L 822.0,823.0 L 819.0,840.0 L 806.0,855.0 L 781.0,885.0 L 750.0,897.0 L 719.0,911.0 L 678.0,905.0 L 694.0,945.0 L 726.0,953.0 L 758.0,960.0 L 788.0,939.0 M 674.0,865.0 L 688.0,868.0 L 701.0,868.0 L 713.0,868.0 L 724.0,865.0 L 748.0,859.0 L 767.0,844.0 L 776.0,837.0 L 782.0,824.0 L 783.0,819.0 L 783.0,814.0 L 783.0,806.0 L 776.0,796.0 L 765.0,792.0 L 754.0,792.0 L 750.0,792.0 L 745.0,792.0 L 729.0,794.0 L 714.0,802.0 L 693.0,812.0 L 679.0,830.0 L 671.0,842.0 L 671.0,852.0 L 671.0,858.0 L 674.0,865.0 M 1003.0,785.0 L 987.0,783.0 L 973.0,786.0 L 960.0,788.0 L 948.0,799.0 L 943.0,803.0 L 940.0,812.0 L 937.0,819.0 L 938.0,826.0 L 938.0,830.0 L 944.0,836.0 L 950.0,840.0 L 955.0,841.0 L 969.0,845.0 L 982.0,846.0 L 996.0,848.0 L 1009.0,850.0 L 1037.0,855.0 L 1053.0,872.0 L 1069.0,888.0 L 1072.0,913.0 L 1073.0,919.0 L 1073.0,925.0 L 1073.0,938.0 L 1070.0,949.0 L 1064.0,964.0 L 1048.0,977.0 L 1036.0,988.0 L 1023.0,992.0 L 1009.0,998.0 L 995.0,1000.0 L 988.0,1000.0 L 982.0,1000.0 L 962.0,1000.0 L 945.0,994.0 L 921.0,986.0 L 907.0,971.0 L 903.0,968.0 L 901.0,965.0 L 897.0,961.0 L 897.0,953.0 L 905.0,936.0 L 921.0,936.0 L 937.0,936.0 L 950.0,947.0 L 967.0,955.0 L 982.0,957.0 L 997.0,959.0 L 1013.0,949.0 L 1032.0,937.0 L 1033.0,924.0 L 1033.0,912.0 L 1018.0,896.0 L 1010.0,892.0 L 1002.0,889.0 L 994.0,887.0 L 985.0,885.0 L 973.0,882.0 L 960.0,882.0 L 947.0,882.0 L 934.0,878.0 L 905.0,867.0 L 894.0,838.0 L 890.0,827.0 L 890.0,816.0 L 890.0,799.0 L 901.0,783.0 L 908.0,773.0 L 918.0,767.0 L 927.0,759.0 L 939.0,754.0 L 962.0,744.0 L 989.0,744.0 L 992.0,744.0 L 996.0,744.0 L 1019.0,744.0 L 1038.0,753.0 L 1043.0,755.0 L 1048.0,762.0 L 1052.0,769.0 L 1052.0,776.0 L 1051.0,790.0 L 1032.0,789.0 L 1014.0,787.0 L 1003.0,785.0 M 1295.0,956.0 L 1288.0,965.0 L 1280.0,969.0 L 1272.0,974.0 L 1256.0,989.0 L 1225.0,1000.0 L 1192.0,1000.0 L 1185.0,1000.0 L 1178.0,1000.0 L 1138.0,997.0 L 1120.0,952.0 L 1113.0,928.0 L 1113.0,895.0 L 1113.0,886.0 L 1113.0,876.0 L 1113.0,830.0 L 1141.0,789.0 L 1158.0,766.0 L 1180.0,750.0 L 1204.0,735.0 L 1235.0,742.0 L 1243.0,744.0 L 1251.0,744.0 L 1261.0,744.0 L 1273.0,747.0 L 1273.0,719.0 L 1273.0,696.0 L 1273.0,673.0 L 1273.0,647.0 L 1273.0,628.0 L 1273.0,613.0 L 1273.0,598.0 L 1273.0,578.0 L 1273.0,571.0 L 1276.0,564.0 L 1278.0,556.0 L 1291.0,552.0 L 1305.0,552.0 L 1306.0,557.0 L 1308.0,560.0 L 1311.0,568.0 L 1317.0,593.0 L 1317.0,609.0 L 1317.0,626.0 L 1318.0,649.0 L 1321.0,682.0 L 1321.0,716.0 L 1321.0,749.0 L 1321.0,783.0 L 1321.0,800.0 L 1321.0,819.0 L 1321.0,838.0 L 1321.0,858.0 L 1321.0,894.0 L 1327.0,930.0 L 1335.0,967.0 L 1353.0,994.0 L 1336.0,999.0 L 1324.0,995.0 L 1312.0,991.0 L 1295.0,956.0 M 1267.0,860.0 L 1268.0,853.0 L 1268.0,847.0 L 1267.0,832.0 L 1263.0,822.0 L 1258.0,806.0 L 1247.0,799.0 L 1237.0,794.0 L 1224.0,794.0 L 1223.0,794.0 L 1223.0,794.0 L 1210.0,794.0 L 1200.0,798.0 L 1192.0,800.0 L 1183.0,811.0 L 1174.0,821.0 L 1171.0,832.0 L 1161.0,866.0 L 1158.0,898.0 L 1158.0,901.0 L 1158.0,903.0 L 1158.0,933.0 L 1183.0,949.0 L 1193.0,952.0 L 1201.0,952.0 L 1214.0,952.0 L 1224.0,944.0 L 1240.0,931.0 L 1250.0,911.0 L 1256.0,899.0 L 1260.0,886.0 L 1263.0,872.0 L 1267.0,860.0 M 1564.0,949.0 L 1554.0,959.0 L 1544.0,966.0 L 1534.0,975.0 L 1523.0,984.0 L 1501.0,1000.0 L 1483.0,1000.0 L 1481.0,1000.0 L 1479.0,1000.0 L 1457.0,998.0 L 1435.0,978.0 L 1426.0,969.0 L 1418.0,960.0 L 1410.0,951.0 L 1403.0,942.0 L 1398.0,935.0 L 1396.0,914.0 L 1393.0,898.0 L 1393.0,889.0 L 1393.0,887.0 L 1393.0,886.0 L 1393.0,838.0 L 1406.0,815.0 L 1417.0,792.0 L 1453.0,763.0 L 1471.0,749.0 L 1492.0,745.0 L 1497.0,744.0 L 1504.0,744.0 L 1518.0,744.0 L 1531.0,751.0 L 1551.0,761.0 L 1566.0,779.0 L 1583.0,795.0 L 1584.0,823.0 L 1584.0,837.0 L 1586.0,851.0 L 1588.0,865.0 L 1589.0,880.0 L 1589.0,902.0 L 1598.0,922.0 L 1605.0,943.0 L 1622.0,958.0 L 1626.0,961.0 L 1626.0,969.0 L 1627.0,977.0 L 1629.0,983.0 L 1614.0,992.0 L 1603.0,986.0 L 1593.0,981.0 L 1584.0,971.0 L 1579.0,965.0 L 1574.0,960.0 L 1570.0,953.0 L 1564.0,949.0 M 1543.0,821.0 L 1541.0,804.0 L 1534.0,797.0 L 1529.0,792.0 L 1518.0,792.0 L 1515.0,792.0 L 1511.0,792.0 L 1503.0,793.0 L 1493.0,796.0 L 1484.0,798.0 L 1478.0,802.0 L 1456.0,821.0 L 1448.0,843.0 L 1441.0,860.0 L 1441.0,891.0 L 1441.0,896.0 L 1441.0,901.0 L 1441.0,919.0 L 1452.0,929.0 L 1463.0,941.0 L 1475.0,948.0 L 1482.0,952.0 L 1489.0,952.0 L 1494.0,952.0 L 1499.0,950.0 L 1513.0,945.0 L 1521.0,938.0 L 1541.0,920.0 L 1544.0,902.0 L 1546.0,885.0 L 1546.0,867.0 L 1546.0,850.0 L 1545.0,839.0 L 1544.0,828.0 L 1543.0,821.0 M 1759.0,1008.0 L 1732.0,1013.0 L 1717.0,1011.0 L 1701.0,1008.0 L 1688.0,987.0 L 1684.0,979.0 L 1678.0,969.0 L 1673.0,959.0 L 1672.0,949.0 L 1669.0,922.0 L 1669.0,878.0 L 1669.0,834.0 L 1669.0,807.0 L 1669.0,807.0 L 1669.0,806.0 L 1669.0,801.0 L 1671.0,793.0 L 1673.0,784.0 L 1684.0,778.0 L 1699.0,781.0 L 1705.0,790.0 L 1711.0,801.0 L 1713.0,808.0 L 1717.0,821.0 L 1717.0,843.0 L 1717.0,865.0 L 1717.0,886.0 L 1717.0,897.0 L 1717.0,907.0 L 1717.0,917.0 L 1719.0,924.0 L 1720.0,935.0 L 1726.0,950.0 L 1732.0,966.0 L 1757.0,962.0 L 1772.0,953.0 L 1778.0,947.0 L 1784.0,941.0 L 1787.0,922.0 L 1787.0,922.0 L 1789.0,915.0 L 1789.0,907.0 L 1791.0,897.0 L 1792.0,881.0 L 1791.0,858.0 L 1789.0,836.0 L 1790.0,814.0 L 1791.0,804.0 L 1792.0,793.0 L 1794.0,784.0 L 1797.0,776.0 L 1801.0,771.0 L 1806.0,770.0 L 1807.0,770.0 L 1807.0,770.0 L 1810.0,770.0 L 1813.0,773.0 L 1822.0,781.0 L 1826.0,807.0 L 1829.0,832.0 L 1829.0,842.0 L 1829.0,895.0 L 1829.0,957.0 L 1829.0,980.0 L 1829.0,1003.0 L 1829.0,1039.0 L 1829.0,1073.0 L 1829.0,1105.0 L 1823.0,1119.0 L 1817.0,1132.0 L 1802.0,1160.0 L 1794.0,1175.0 L 1772.0,1184.0 L 1751.0,1192.0 L 1729.0,1192.0 L 1727.0,1192.0 L 1725.0,1192.0 L 1712.0,1192.0 L 1701.0,1189.0 L 1689.0,1186.0 L 1681.0,1178.0 L 1671.0,1168.0 L 1672.0,1157.0 L 1674.0,1145.0 L 1684.0,1132.0 L 1693.0,1131.0 L 1697.0,1134.0 L 1701.0,1137.0 L 1707.0,1139.0 L 1739.0,1149.0 L 1753.0,1142.0 L 1767.0,1135.0 L 1781.0,1101.0 L 1790.0,1078.0 L 1794.0,1064.0 L 1797.0,1050.0 L 1796.0,1030.0 L 1795.0,1022.0 L 1795.0,1012.0 L 1793.0,1002.0 L 1792.0,988.0 L 1784.0,995.0 L 1777.0,999.0 L 1770.0,1003.0 L 1759.0,1008.0 M 1890.0,947.0 L 1892.0,942.0 L 1898.0,939.0 L 1905.0,936.0 L 1910.0,936.0 L 1913.0,936.0 L 1917.0,940.0 L 1921.0,945.0 L 1923.0,950.0 L 1926.0,960.0 L 1926.0,972.0 L 1926.0,991.0 L 1917.0,1012.0 L 1903.0,1047.0 L 1874.0,1065.0 L 1869.0,1043.0 L 1869.0,1024.0 L 1869.0,1012.0 L 1871.0,1002.0 L 1875.0,972.0 L 1890.0,947.0 M 2383.0,960.0 L 2382.0,942.0 L 2382.0,925.0 L 2382.0,907.0 L 2382.0,890.0 L 2382.0,834.0 L 2382.0,782.0 L 2382.0,730.0 L 2382.0,674.0 L 2382.0,669.0 L 2382.0,660.0 L 2382.0,650.0 L 2380.0,639.0 L 2372.0,650.0 L 2369.0,656.0 L 2366.0,663.0 L 2362.0,668.0 L 2344.0,690.0 L 2328.0,714.0 L 2313.0,738.0 L 2293.0,759.0 L 2277.0,776.0 L 2268.0,778.0 L 2259.0,779.0 L 2247.0,758.0 L 2231.0,735.0 L 2214.0,709.0 L 2195.0,683.0 L 2180.0,651.0 L 2174.0,663.0 L 2174.0,677.0 L 2180.0,691.0 L 2174.0,697.0 L 2174.0,761.0 L 2174.0,828.0 L 2174.0,896.0 L 2174.0,959.0 L 2174.0,973.0 L 2169.0,987.0 L 2166.0,1001.0 L 2131.0,1003.0 L 2130.0,988.0 L 2128.0,973.0 L 2126.0,959.0 L 2126.0,946.0 L 2126.0,945.0 L 2126.0,944.0 L 2126.0,857.0 L 2126.0,755.0 L 2126.0,651.0 L 2126.0,565.0 L 2126.0,562.0 L 2127.0,559.0 L 2128.0,557.0 L 2130.0,554.0 L 2137.0,552.0 L 2142.0,552.0 L 2148.0,552.0 L 2153.0,555.0 L 2161.0,561.0 L 2167.0,570.0 L 2187.0,596.0 L 2204.0,624.0 L 2222.0,653.0 L 2242.0,679.0 L 2247.0,688.0 L 2256.0,699.0 L 2265.0,709.0 L 2271.0,720.0 L 2289.0,711.0 L 2297.0,694.0 L 2305.0,678.0 L 2314.0,666.0 L 2328.0,647.0 L 2340.0,626.0 L 2353.0,606.0 L 2366.0,586.0 L 2374.0,574.0 L 2383.0,561.0 L 2393.0,549.0 L 2411.0,554.0 L 2425.0,558.0 L 2428.0,572.0 L 2430.0,587.0 L 2430.0,599.0 L 2430.0,643.0 L 2430.0,686.0 L 2430.0,730.0 L 2430.0,773.0 L 2430.0,822.0 L 2430.0,870.0 L 2430.0,919.0 L 2430.0,967.0 L 2430.0,968.0 L 2430.0,968.0 L 2430.0,979.0 L 2427.0,989.0 L 2423.0,1000.0 L 2402.0,1001.0 L 2398.0,991.0 L 2391.0,980.0 L 2385.0,970.0 L 2383.0,960.0 M 2641.0,949.0 L 2631.0,959.0 L 2621.0,966.0 L 2611.0,975.0 L 2600.0,984.0 L 2578.0,1000.0 L 2560.0,1000.0 L 2558.0,1000.0 L 2556.0,1000.0 L 2534.0,998.0 L 2512.0,978.0 L 2503.0,969.0 L 2495.0,960.0 L 2487.0,951.0 L 2480.0,942.0 L 2475.0,935.0 L 2473.0,914.0 L 2470.0,898.0 L 2470.0,889.0 L 2470.0,887.0 L 2470.0,886.0 L 2470.0,838.0 L 2483.0,815.0 L 2494.0,792.0 L 2530.0,763.0 L 2548.0,749.0 L 2569.0,745.0 L 2574.0,744.0 L 2581.0,744.0 L 2595.0,744.0 L 2608.0,751.0 L 2628.0,761.0 L 2643.0,779.0 L 2660.0,795.0 L 2661.0,823.0 L 2661.0,837.0 L 2663.0,851.0 L 2665.0,865.0 L 2666.0,880.0 L 2666.0,902.0 L 2675.0,922.0 L 2682.0,943.0 L 2699.0,958.0 L 2703.0,961.0 L 2703.0,969.0 L 2704.0,977.0 L 2706.0,983.0 L 2691.0,992.0 L 2680.0,986.0 L 2670.0,981.0 L 2661.0,971.0 L 2656.0,965.0 L 2651.0,960.0 L 2647.0,953.0 L 2641.0,949.0 M 2620.0,821.0 L 2618.0,804.0 L 2611.0,797.0 L 2606.0,792.0 L 2595.0,792.0 L 2592.0,792.0 L 2588.0,792.0 L 2580.0,793.0 L 2570.0,796.0 L 2561.0,798.0 L 2555.0,802.0 L 2533.0,821.0 L 2525.0,843.0 L 2518.0,860.0 L 2518.0,891.0 L 2518.0,896.0 L 2518.0,901.0 L 2518.0,919.0 L 2529.0,929.0 L 2540.0,941.0 L 2552.0,948.0 L 2559.0,952.0 L 2566.0,952.0 L 2571.0,952.0 L 2576.0,950.0 L 2590.0,945.0 L 2598.0,938.0 L 2618.0,920.0 L 2621.0,902.0 L 2623.0,885.0 L 2623.0,867.0 L 2623.0,850.0 L 2622.0,839.0 L 2621.0,828.0 L 2620.0,821.0 M 2758.0,956.0 L 2753.0,913.0 L 2753.0,871.0 L 2753.0,828.0 L 2753.0,785.0 L 2753.0,774.0 L 2746.0,759.0 L 2746.0,756.0 L 2746.0,755.0 L 2746.0,743.0 L 2752.0,737.0 L 2773.0,741.0 L 2776.0,756.0 L 2778.0,772.0 L 2785.0,786.0 L 2793.0,776.0 L 2803.0,769.0 L 2813.0,761.0 L 2825.0,755.0 L 2848.0,744.0 L 2871.0,744.0 L 2894.0,744.0 L 2904.0,756.0 L 2904.0,775.0 L 2887.0,780.0 L 2870.0,784.0 L 2851.0,792.0 L 2830.0,803.0 L 2823.0,814.0 L 2816.0,825.0 L 2812.0,846.0 L 2807.0,871.0 L 2805.0,895.0 L 2802.0,921.0 L 2800.0,945.0 L 2798.0,959.0 L 2796.0,972.0 L 2795.0,985.0 L 2779.0,994.0 L 2766.0,988.0 L 2762.0,977.0 L 2758.0,967.0 L 2758.0,956.0 M 3054.0,788.0 L 3027.0,798.0 L 3017.0,814.0 L 3007.0,830.0 L 2997.0,846.0 L 2987.0,871.0 L 2990.0,890.0 L 2993.0,909.0 L 3008.0,929.0 L 3022.0,950.0 L 3039.0,950.0 L 3056.0,950.0 L 3075.0,947.0 L 3084.0,946.0 L 3092.0,943.0 L 3101.0,940.0 L 3108.0,937.0 L 3119.0,947.0 L 3119.0,957.0 L 3119.0,957.0 L 3119.0,958.0 L 3119.0,968.0 L 3113.0,974.0 L 3107.0,981.0 L 3099.0,988.0 L 3091.0,994.0 L 3084.0,996.0 L 3067.0,1000.0 L 3050.0,1000.0 L 3039.0,1000.0 L 3029.0,999.0 L 3002.0,995.0 L 2981.0,970.0 L 2960.0,945.0 L 2949.0,916.0 L 2944.0,902.0 L 2944.0,888.0 L 2944.0,870.0 L 2951.0,852.0 L 2963.0,817.0 L 2981.0,792.0 L 2999.0,766.0 L 3040.0,749.0 L 3048.0,745.0 L 3059.0,744.0 L 3061.0,744.0 L 3063.0,744.0 L 3071.0,744.0 L 3078.0,747.0 L 3087.0,751.0 L 3097.0,758.0 L 3106.0,767.0 L 3101.0,785.0 L 3091.0,789.0 L 3077.0,787.0 L 3063.0,785.0 L 3054.0,788.0 M 3207.0,681.0 L 3207.0,711.0 L 3207.0,741.0 L 3207.0,771.0 L 3207.0,801.0 L 3218.0,787.0 L 3229.0,775.0 L 3239.0,763.0 L 3268.0,757.0 L 3281.0,754.0 L 3291.0,757.0 L 3302.0,762.0 L 3309.0,774.0 L 3316.0,787.0 L 3323.0,800.0 L 3330.0,814.0 L 3331.0,828.0 L 3335.0,867.0 L 3335.0,904.0 L 3335.0,943.0 L 3335.0,981.0 L 3335.0,981.0 L 3335.0,982.0 L 3335.0,987.0 L 3331.0,994.0 L 3327.0,1000.0 L 3324.0,1000.0 L 3317.0,1000.0 L 3310.0,997.0 L 3302.0,995.0 L 3300.0,990.0 L 3295.0,980.0 L 3292.0,968.0 L 3290.0,957.0 L 3289.0,945.0 L 3287.0,922.0 L 3287.0,898.0 L 3287.0,873.0 L 3287.0,849.0 L 3285.0,834.0 L 3282.0,822.0 L 3279.0,808.0 L 3267.0,799.0 L 3242.0,816.0 L 3227.0,844.0 L 3212.0,873.0 L 3208.0,916.0 L 3207.0,931.0 L 3207.0,946.0 L 3207.0,962.0 L 3207.0,976.0 L 3207.0,987.0 L 3202.0,994.0 L 3196.0,1000.0 L 3188.0,1000.0 L 3186.0,1000.0 L 3185.0,1000.0 L 3175.0,1000.0 L 3169.0,995.0 L 3160.0,990.0 L 3159.0,978.0 L 3159.0,973.0 L 3159.0,967.0 L 3159.0,965.0 L 3159.0,963.0 L 3159.0,956.0 L 3159.0,949.0 L 3159.0,896.0 L 3159.0,841.0 L 3159.0,788.0 L 3159.0,734.0 L 3159.0,706.0 L 3159.0,673.0 L 3159.0,640.0 L 3159.0,611.0 L 3159.0,599.0 L 3159.0,586.0 L 3160.0,572.0 L 3160.0,558.0 L 3163.0,553.0 L 3169.0,552.0 L 3169.0,552.0 L 3170.0,552.0 L 3177.0,552.0 L 3187.0,557.0 L 3207.0,583.0 L 3207.0,616.0 L 3207.0,650.0 L 3207.0,681.0 M 3671.0,816.0 L 3674.0,809.0 L 3675.0,801.0 L 3676.0,795.0 L 3676.0,787.0 L 3677.0,774.0 L 3677.0,761.0 L 3678.0,748.0 L 3689.0,736.0 L 3702.0,739.0 L 3706.0,751.0 L 3709.0,765.0 L 3711.0,781.0 L 3712.0,791.0 L 3714.0,800.0 L 3715.0,808.0 L 3718.0,816.0 L 3731.0,817.0 L 3746.0,816.0 L 3761.0,815.0 L 3776.0,816.0 L 3782.0,816.0 L 3788.0,816.0 L 3794.0,816.0 L 3800.0,817.0 L 3804.0,819.0 L 3806.0,822.0 L 3810.0,827.0 L 3810.0,830.0 L 3810.0,831.0 L 3810.0,832.0 L 3810.0,836.0 L 3808.0,841.0 L 3807.0,848.0 L 3804.0,849.0 L 3795.0,853.0 L 3785.0,857.0 L 3776.0,860.0 L 3766.0,862.0 L 3755.0,864.0 L 3744.0,864.0 L 3734.0,864.0 L 3724.0,864.0 L 3720.0,874.0 L 3720.0,884.0 L 3720.0,893.0 L 3720.0,902.0 L 3720.0,919.0 L 3720.0,935.0 L 3720.0,950.0 L 3711.0,965.0 L 3710.0,967.0 L 3707.0,968.0 L 3703.0,969.0 L 3700.0,970.0 L 3687.0,957.0 L 3684.0,939.0 L 3682.0,922.0 L 3682.0,904.0 L 3682.0,894.0 L 3680.0,884.0 L 3679.0,874.0 L 3676.0,864.0 L 3665.0,864.0 L 3653.0,864.0 L 3642.0,864.0 L 3630.0,864.0 L 3612.0,864.0 L 3593.0,864.0 L 3575.0,864.0 L 3556.0,862.0 L 3542.0,861.0 L 3537.0,853.0 L 3535.0,849.0 L 3535.0,845.0 L 3535.0,838.0 L 3538.0,831.0 L 3544.0,815.0 L 3552.0,799.0 L 3560.0,783.0 L 3567.0,768.0 L 3591.0,718.0 L 3615.0,668.0 L 3639.0,618.0 L 3663.0,568.0 L 3665.0,564.0 L 3668.0,560.0 L 3670.0,557.0 L 3672.0,552.0 L 3673.0,552.0 L 3674.0,552.0 L 3686.0,552.0 L 3693.0,559.0 L 3699.0,567.0 L 3698.0,575.0 L 3697.0,588.0 L 3691.0,600.0 L 3687.0,613.0 L 3681.0,623.0 L 3664.0,661.0 L 3648.0,696.0 L 3632.0,731.0 L 3614.0,768.0 L 3609.0,779.0 L 3604.0,789.0 L 3599.0,800.0 L 3591.0,816.0 L 3615.0,816.0 L 3633.0,816.0 L 3651.0,816.0 L 3671.0,816.0 M 4008.0,913.0 L 4022.0,917.0 L 4022.0,933.0 L 4022.0,934.0 L 4022.0,936.0 L 4022.0,951.0 L 4015.0,966.0 L 4010.0,977.0 L 4001.0,985.0 L 3992.0,994.0 L 3982.0,997.0 L 3974.0,1000.0 L 3965.0,1000.0 L 3950.0,1000.0 L 3937.0,993.0 L 3915.0,981.0 L 3908.0,958.0 L 3902.0,944.0 L 3901.0,930.0 L 3898.0,915.0 L 3897.0,901.0 L 3896.0,894.0 L 3896.0,886.0 L 3896.0,879.0 L 3897.0,872.0 L 3897.0,849.0 L 3897.0,835.0 L 3897.0,820.0 L 3897.0,808.0 L 3896.0,795.0 L 3883.0,796.0 L 3871.0,799.0 L 3853.0,790.0 L 3853.0,790.0 L 3851.0,791.0 L 3850.0,791.0 L 3850.0,791.0 L 3850.0,791.0 L 3852.0,790.0 L 3852.0,782.0 L 3854.0,777.0 L 3857.0,772.0 L 3861.0,769.0 L 3868.0,764.0 L 3878.0,762.0 L 3889.0,760.0 L 3897.0,754.0 L 3898.0,746.0 L 3900.0,736.0 L 3903.0,726.0 L 3904.0,715.0 L 3906.0,706.0 L 3907.0,692.0 L 3909.0,678.0 L 3924.0,676.0 L 3943.0,683.0 L 3944.0,699.0 L 3945.0,714.0 L 3945.0,730.0 L 3944.0,739.0 L 3945.0,746.0 L 3946.0,754.0 L 3951.0,760.0 L 3963.0,763.0 L 3975.0,765.0 L 3988.0,768.0 L 4000.0,772.0 L 4012.0,789.0 L 4006.0,799.0 L 4000.0,808.0 L 3977.0,808.0 L 3971.0,808.0 L 3966.0,808.0 L 3960.0,808.0 L 3953.0,808.0 L 3945.0,840.0 L 3945.0,869.0 L 3945.0,898.0 L 3948.0,927.0 L 3948.0,935.0 L 3951.0,946.0 L 3953.0,956.0 L 3965.0,961.0 L 3972.0,960.0 L 3977.0,956.0 L 3981.0,953.0 L 3984.0,948.0 L 3990.0,940.0 L 3994.0,930.0 L 3997.0,919.0 L 4008.0,913.0 M 4110.0,681.0 L 4110.0,711.0 L 4110.0,741.0 L 4110.0,771.0 L 4110.0,801.0 L 4121.0,787.0 L 4132.0,775.0 L 4142.0,763.0 L 4171.0,757.0 L 4184.0,754.0 L 4194.0,757.0 L 4205.0,762.0 L 4212.0,774.0 L 4219.0,787.0 L 4226.0,800.0 L 4233.0,814.0 L 4234.0,828.0 L 4238.0,867.0 L 4238.0,904.0 L 4238.0,943.0 L 4238.0,981.0 L 4238.0,981.0 L 4238.0,982.0 L 4238.0,987.0 L 4234.0,994.0 L 4230.0,1000.0 L 4227.0,1000.0 L 4220.0,1000.0 L 4213.0,997.0 L 4205.0,995.0 L 4203.0,990.0 L 4198.0,980.0 L 4195.0,968.0 L 4193.0,957.0 L 4192.0,945.0 L 4190.0,922.0 L 4190.0,898.0 L 4190.0,873.0 L 4190.0,849.0 L 4188.0,834.0 L 4185.0,822.0 L 4182.0,808.0 L 4170.0,799.0 L 4145.0,816.0 L 4130.0,844.0 L 4115.0,873.0 L 4111.0,916.0 L 4110.0,931.0 L 4110.0,946.0 L 4110.0,962.0 L 4110.0,976.0 L 4110.0,987.0 L 4105.0,994.0 L 4099.0,1000.0 L 4091.0,1000.0 L 4089.0,1000.0 L 4088.0,1000.0 L 4078.0,1000.0 L 4072.0,995.0 L 4063.0,990.0 L 4062.0,978.0 L 4062.0,973.0 L 4062.0,967.0 L 4062.0,965.0 L 4062.0,963.0 L 4062.0,956.0 L 4062.0,949.0 L 4062.0,896.0 L 4062.0,841.0 L 4062.0,788.0 L 4062.0,734.0 L 4062.0,706.0 L 4062.0,673.0 L 4062.0,640.0 L 4062.0,611.0 L 4062.0,599.0 L 4062.0,586.0 L 4063.0,572.0 L 4063.0,558.0 L 4066.0,553.0 L 4072.0,552.0 L 4072.0,552.0 L 4073.0,552.0 L 4080.0,552.0 L 4090.0,557.0 L 4110.0,583.0 L 4110.0,616.0 L 4110.0,650.0 L 4110.0,681.0 M 4337.0,945.0 L 4343.0,954.0 L 4344.0,965.0 L 4344.0,967.0 L 4343.0,968.0 L 4342.0,981.0 L 4333.0,988.0 L 4325.0,995.0 L 4314.0,997.0 L 4303.0,1000.0 L 4293.0,1000.0 L 4289.0,1001.0 L 4283.0,993.0 L 4278.0,985.0 L 4278.0,980.0 L 4278.0,980.0 L 4278.0,979.0 L 4282.0,962.0 L 4282.0,950.0 L 4282.0,939.0 L 4303.0,925.0 L 4322.0,927.0 L 4327.0,932.0 L 4332.0,936.0 L 4337.0,945.0" fill="none" stroke="#000000" stroke-width="5.755"/>
</svg>
