<?xml version="1.0" ?>
<svg xmlns="http://www.w3.org/2000/svg" xmlns:ev="http://www.w3.org/2001/xml-events" xmlns:xlink="http://www.w3.org/1999/xlink" baseProfile="full" height="600px" version="1.1" viewBox="-545.4359999999999 -3618.236 6394.871999999999 7292.472" width="527px">
	<defs/>
	<path d="M -10.0,0.0 L 10.0,0.0 M 0.0,-10.0 L 0.0,10.0 M 1418.0,-2602.0 L 870.0,-1088.0 L 1968.0,-1088.0 L 1418.0,-2602.0 M 1190.0,-3008.0 L 1648.0,-3008.0 L 2786.0,0.0 L 2366.0,0.0 L 2094.0,-768.0 L 748.0,-768.0 L 476.0,0.0 L 50.0,0.0 L 1190.0,-3008.0 M 2776.0,0.0 L 2796.0,0.0 M 2786.0,-10.0 L 2786.0,10.0 M 2976.0,-20.0 L 2996.0,-20.0 M 2986.0,-30.0 L 2986.0,-10.0 M 3390.0,-1408.0 L 3390.0,-320.0 L 4038.0,-320.0 L 4364.0,-320.0 L 4678.0,-589.0 L 4678.0,-865.0 L 4678.0,-1143.0 L 4364.0,-1408.0 L 4038.0,-1408.0 L 3390.0,-1408.0 M 3390.0,-2688.0 L 3390.0,-1728.0 L 3988.0,-1728.0 L 4284.0,-1728.0 L 4574.0,-1965.0 L 4574.0,-2208.0 L 4574.0,-2449.0 L 4284.0,-2688.0 L 3988.0,-2688.0 L 3390.0,-2688.0 M 2986.0,-3008.0 L 4018.0,-3008.0 L 4480.0,-3008.0 L 4980.0,-2612.0 L 4980.0,-2246.0 L 4980.0,-1964.0 L 4724.0,-1629.0 L 4476.0,-1588.0 L 4774.0,-1525.0 L 5104.0,-1124.0 L 5104.0,-825.0 L 5104.0,-430.0 L 4560.0,0.0 L 4058.0,0.0 L 2986.0,0.0 L 2986.0,-3008.0 M 5094.0,0.0 L 5114.0,0.0 M 5104.0,-10.0 L 5104.0,10.0 M 5294.0,-40.0 L 5314.0,-40.0 M 5304.0,-50.0 L 5304.0,-30.0 M 0.0,1500.0 L 50.0,1500.0 M -10.0,3000.0 L 10.0,3000.0 M 0.0,2990.0 L 0.0,3010.0 M 2458.0,184.0 L 2458.0,632.0 L 2254.0,439.0 L 1792.0,248.0 L 1532.0,248.0 L 1020.0,248.0 L 476.0,890.0 L 476.0,1497.0 L 476.0,2102.0 L 1020.0,2744.0 L 1532.0,2744.0 L 1792.0,2744.0 L 2254.0,2553.0 L 2458.0,2360.0 L 2458.0,2808.0 L 2246.0,2936.0 L 1772.0,3064.0 L 1508.0,3064.0 L 830.0,3064.0 L 50.0,2224.0 L 50.0,1497.0 L 50.0,768.0 L 830.0,-72.0 L 1508.0,-72.0 L 1776.0,-72.0 L 2250.0,56.0 L 2458.0,184.0 M 2448.0,3000.0 L 2468.0,3000.0 M 2458.0,2990.0 L 2458.0,3010.0 M 2648.0,2980.0 L 2668.0,2980.0 M 2658.0,2970.0 L 2658.0,2990.0 M 3062.0,312.0 L 3062.0,2680.0 L 3550.0,2680.0 L 4168.0,2680.0 L 4742.0,2109.0 L 4742.0,1493.0 L 4742.0,881.0 L 4168.0,312.0 L 3550.0,312.0 L 3062.0,312.0 M 2658.0,-8.0 L 3488.0,-8.0 L 4356.0,-8.0 L 5168.0,719.0 L 5168.0,1493.0 L 5168.0,2271.0 L 4352.0,3000.0 L 3488.0,3000.0 L 2658.0,3000.0 L 2658.0,-8.0 M 5158.0,3000.0 L 5178.0,3000.0 M 5168.0,2990.0 L 5168.0,3010.0" fill="none" stroke="#000000" stroke-width="6.072"/>
</svg>
