<?xml version="1.0" ?>
<svg xmlns="http://www.w3.org/2000/svg" xmlns:ev="http://www.w3.org/2001/xml-events" xmlns:xlink="http://www.w3.org/1999/xlink" baseProfile="full" height="155px" version="1.1" viewBox="-590.0845 -679.1845000000001 7649.169 1974.3690000000001" width="600px">
	<defs/>
	<path d="M 50.0,-448.0 L 315.0,-448.0 L 315.0,-384.0 L 106.0,-384.0 L 106.0,-256.0 L 306.0,-256.0 L 306.0,-192.0 L 106.0,-192.0 L 106.0,-64.0 L 320.0,-64.0 L 320.0,0.0 L 50.0,0.0 L 50.0,-448.0 M 659.0,-320.0 L 545.0,-164.0 L 665.0,0.0 L 604.0,0.0 L 512.0,-126.0 L 421.0,0.0 L 360.0,0.0 L 482.0,-167.0 L 370.0,-320.0 L 431.0,-320.0 L 515.0,-206.0 L 598.0,-320.0 L 659.0,-320.0 M 795.0,-384.0 L 795.0,-320.0 L 902.0,-320.0 L 902.0,-256.0 L 795.0,-256.0 L 795.0,-114.0 L 795.0,-82.0 L 816.0,-64.0 L 849.0,-64.0 L 902.0,-64.0 L 902.0,0.0 L 849.0,0.0 L 789.0,0.0 L 743.0,-49.0 L 743.0,-114.0 L 743.0,-256.0 L 705.0,-256.0 L 705.0,-320.0 L 743.0,-320.0 L 743.0,-384.0 L 795.0,-384.0 M 1127.0,-256.0 L 1118.0,-256.0 L 1098.0,-256.0 L 1085.0,-256.0 L 1041.0,-256.0 L 994.0,-206.0 L 994.0,-160.0 L 994.0,0.0 L 942.0,0.0 L 942.0,-320.0 L 994.0,-320.0 L 994.0,-256.0 L 1010.0,-288.0 L 1063.0,-320.0 L 1100.0,-320.0 L 1106.0,-320.0 L 1119.0,-320.0 L 1127.0,-320.0 L 1127.0,-256.0 M 1459.0,-168.0 L 1459.0,-128.0 L 1221.0,-128.0 L 1224.0,-97.0 L 1282.0,-64.0 L 1334.0,-64.0 L 1363.0,-64.0 L 1419.0,-64.0 L 1447.0,-64.0 L 1447.0,0.0 L 1419.0,0.0 L 1361.0,0.0 L 1330.0,0.0 L 1255.0,0.0 L 1167.0,-85.0 L 1167.0,-157.0 L 1167.0,-232.0 L 1251.0,-320.0 L 1321.0,-320.0 L 1385.0,-320.0 L 1459.0,-238.0 L 1459.0,-168.0 M 1407.0,-192.0 L 1406.0,-221.0 L 1360.0,-256.0 L 1322.0,-256.0 L 1278.0,-256.0 L 1226.0,-222.0 L 1222.0,-191.0 L 1407.0,-192.0 M 1747.0,-245.0 L 1766.0,-283.0 L 1820.0,-320.0 L 1857.0,-320.0 L 1906.0,-320.0 L 1959.0,-249.0 L 1959.0,-183.0 L 1959.0,0.0 L 1907.0,0.0 L 1907.0,-181.0 L 1907.0,-219.0 L 1875.0,-256.0 L 1842.0,-256.0 L 1802.0,-256.0 L 1755.0,-210.0 L 1755.0,-171.0 L 1755.0,0.0 L 1703.0,0.0 L 1703.0,-181.0 L 1703.0,-219.0 L 1671.0,-256.0 L 1637.0,-256.0 L 1598.0,-256.0 L 1551.0,-210.0 L 1551.0,-171.0 L 1551.0,0.0 L 1499.0,0.0 L 1499.0,-320.0 L 1551.0,-320.0 L 1551.0,-256.0 L 1569.0,-289.0 L 1618.0,-320.0 L 1653.0,-320.0 L 1687.0,-320.0 L 1735.0,-282.0 L 1747.0,-245.0 M 2291.0,-168.0 L 2291.0,-128.0 L 2053.0,-128.0 L 2056.0,-97.0 L 2114.0,-64.0 L 2166.0,-64.0 L 2195.0,-64.0 L 2251.0,-64.0 L 2279.0,-64.0 L 2279.0,0.0 L 2251.0,0.0 L 2193.0,0.0 L 2162.0,0.0 L 2087.0,0.0 L 1999.0,-85.0 L 1999.0,-157.0 L 1999.0,-232.0 L 2083.0,-320.0 L 2153.0,-320.0 L 2217.0,-320.0 L 2291.0,-238.0 L 2291.0,-168.0 M 2239.0,-192.0 L 2238.0,-221.0 L 2192.0,-256.0 L 2154.0,-256.0 L 2110.0,-256.0 L 2058.0,-222.0 L 2054.0,-191.0 L 2239.0,-192.0 M 2761.0,-384.0 L 2761.0,-320.0 L 2729.0,-352.0 L 2671.0,-384.0 L 2645.0,-384.0 L 2598.0,-384.0 L 2548.0,-347.0 L 2548.0,-313.0 L 2548.0,-285.0 L 2581.0,-256.0 L 2628.0,-247.0 L 2663.0,-242.0 L 2727.0,-230.0 L 2787.0,-171.0 L 2787.0,-121.0 L 2787.0,-61.0 L 2705.0,0.0 L 2626.0,0.0 L 2596.0,0.0 L 2529.0,-32.0 L 2493.0,-64.0 L 2493.0,-128.0 L 2528.0,-96.0 L 2594.0,-64.0 L 2626.0,-64.0 L 2674.0,-64.0 L 2727.0,-100.0 L 2727.0,-134.0 L 2727.0,-164.0 L 2689.0,-197.0 L 2646.0,-205.0 L 2611.0,-209.0 L 2548.0,-222.0 L 2491.0,-277.0 L 2491.0,-326.0 L 2491.0,-383.0 L 2569.0,-448.0 L 2638.0,-448.0 L 2668.0,-448.0 L 2729.0,-416.0 L 2761.0,-384.0 M 2879.0,-64.0 L 2879.0,128.0 L 2827.0,128.0 L 2827.0,-320.0 L 2879.0,-320.0 L 2879.0,-256.0 L 2895.0,-288.0 L 2945.0,-320.0 L 2980.0,-320.0 L 3037.0,-320.0 L 3109.0,-232.0 L 3109.0,-160.0 L 3109.0,-88.0 L 3037.0,0.0 L 2980.0,0.0 L 2945.0,0.0 L 2895.0,-32.0 L 2879.0,-64.0 M 3055.0,-160.0 L 3055.0,-205.0 L 3008.0,-256.0 L 2967.0,-256.0 L 2926.0,-256.0 L 2879.0,-205.0 L 2879.0,-160.0 L 2879.0,-115.0 L 2926.0,-64.0 L 2967.0,-64.0 L 3008.0,-64.0 L 3055.0,-115.0 L 3055.0,-160.0 M 3311.0,-128.0 L 3248.0,-128.0 L 3200.0,-113.0 L 3200.0,-95.0 L 3200.0,-81.0 L 3236.0,-64.0 L 3268.0,-64.0 L 3311.0,-64.0 L 3363.0,-95.0 L 3363.0,-121.0 L 3363.0,-128.0 L 3311.0,-128.0 M 3415.0,-162.0 L 3415.0,0.0 L 3363.0,0.0 L 3363.0,-64.0 L 3345.0,-31.0 L 3293.0,0.0 L 3254.0,0.0 L 3206.0,0.0 L 3149.0,-50.0 L 3149.0,-93.0 L 3149.0,-142.0 L 3220.0,-192.0 L 3290.0,-192.0 L 3363.0,-192.0 L 3363.0,-198.0 L 3363.0,-226.0 L 3316.0,-256.0 L 3274.0,-256.0 L 3247.0,-256.0 L 3196.0,-256.0 L 3172.0,-256.0 L 3172.0,-320.0 L 3200.0,-320.0 L 3254.0,-320.0 L 3279.0,-320.0 L 3348.0,-320.0 L 3415.0,-242.0 L 3415.0,-162.0 M 3704.0,-320.0 L 3704.0,-256.0 L 3682.0,-256.0 L 3638.0,-256.0 L 3615.0,-256.0 L 3565.0,-256.0 L 3509.0,-206.0 L 3509.0,-160.0 L 3509.0,-114.0 L 3565.0,-64.0 L 3615.0,-64.0 L 3638.0,-64.0 L 3682.0,-64.0 L 3704.0,-64.0 L 3704.0,0.0 L 3682.0,0.0 L 3636.0,0.0 L 3610.0,0.0 L 3539.0,0.0 L 3455.0,-87.0 L 3455.0,-160.0 L 3455.0,-235.0 L 3540.0,-320.0 L 3613.0,-320.0 L 3637.0,-320.0 L 3683.0,-320.0 L 3704.0,-320.0 M 3744.0,-320.0 L 3796.0,-320.0 L 3796.0,0.0 L 3744.0,0.0 L 3744.0,-320.0 M 3744.0,-448.0 L 3796.0,-448.0 L 3796.0,-384.0 L 3744.0,-384.0 L 3744.0,-448.0 M 4100.0,-183.0 L 4100.0,0.0 L 4048.0,0.0 L 4048.0,-181.0 L 4048.0,-219.0 L 4013.0,-256.0 L 3978.0,-256.0 L 3936.0,-256.0 L 3888.0,-210.0 L 3888.0,-171.0 L 3888.0,0.0 L 3836.0,0.0 L 3836.0,-320.0 L 3888.0,-320.0 L 3888.0,-256.0 L 3907.0,-288.0 L 3957.0,-320.0 L 3990.0,-320.0 L 4044.0,-320.0 L 4100.0,-250.0 L 4100.0,-183.0 M 4370.0,-160.0 L 4370.0,-206.0 L 4323.0,-256.0 L 4281.0,-256.0 L 4240.0,-256.0 L 4193.0,-206.0 L 4193.0,-160.0 L 4193.0,-114.0 L 4240.0,-64.0 L 4281.0,-64.0 L 4323.0,-64.0 L 4370.0,-114.0 L 4370.0,-160.0 M 4421.0,-58.0 L 4421.0,36.0 L 4350.0,128.0 L 4276.0,128.0 L 4249.0,128.0 L 4201.0,128.0 L 4178.0,128.0 L 4178.0,64.0 L 4201.0,64.0 L 4245.0,64.0 L 4268.0,64.0 L 4319.0,64.0 L 4370.0,10.0 L 4370.0,-44.0 L 4370.0,-64.0 L 4354.0,-32.0 L 4304.0,0.0 L 4269.0,0.0 L 4211.0,0.0 L 4140.0,-88.0 L 4140.0,-160.0 L 4140.0,-232.0 L 4211.0,-320.0 L 4269.0,-320.0 L 4304.0,-320.0 L 4354.0,-288.0 L 4370.0,-256.0 L 4370.0,-320.0 L 4421.0,-320.0 L 4421.0,-58.0 M 4781.0,0.0 L 4621.0,-448.0 L 4680.0,-448.0 L 4813.0,-71.0 L 4946.0,-448.0 L 5005.0,-448.0 L 4845.0,0.0 L 4781.0,0.0 M 5207.0,-128.0 L 5144.0,-128.0 L 5096.0,-113.0 L 5096.0,-95.0 L 5096.0,-81.0 L 5132.0,-64.0 L 5164.0,-64.0 L 5207.0,-64.0 L 5259.0,-95.0 L 5259.0,-121.0 L 5259.0,-128.0 L 5207.0,-128.0 M 5311.0,-162.0 L 5311.0,0.0 L 5259.0,0.0 L 5259.0,-64.0 L 5241.0,-31.0 L 5189.0,0.0 L 5150.0,0.0 L 5102.0,0.0 L 5045.0,-50.0 L 5045.0,-93.0 L 5045.0,-142.0 L 5116.0,-192.0 L 5186.0,-192.0 L 5259.0,-192.0 L 5259.0,-198.0 L 5259.0,-226.0 L 5212.0,-256.0 L 5170.0,-256.0 L 5143.0,-256.0 L 5092.0,-256.0 L 5068.0,-256.0 L 5068.0,-320.0 L 5096.0,-320.0 L 5150.0,-320.0 L 5175.0,-320.0 L 5244.0,-320.0 L 5311.0,-242.0 L 5311.0,-162.0 M 5351.0,-512.0 L 5403.0,-512.0 L 5403.0,0.0 L 5351.0,0.0 L 5351.0,-512.0 M 5443.0,-137.0 L 5443.0,-320.0 L 5495.0,-320.0 L 5495.0,-139.0 L 5495.0,-102.0 L 5530.0,-64.0 L 5565.0,-64.0 L 5606.0,-64.0 L 5655.0,-110.0 L 5655.0,-149.0 L 5655.0,-320.0 L 5707.0,-320.0 L 5707.0,0.0 L 5655.0,0.0 L 5655.0,-64.0 L 5636.0,-32.0 L 5586.0,0.0 L 5554.0,0.0 L 5499.0,0.0 L 5443.0,-70.0 L 5443.0,-137.0 M 6039.0,-168.0 L 6039.0,-128.0 L 5801.0,-128.0 L 5804.0,-97.0 L 5862.0,-64.0 L 5914.0,-64.0 L 5943.0,-64.0 L 5999.0,-64.0 L 6027.0,-64.0 L 6027.0,0.0 L 5999.0,0.0 L 5941.0,0.0 L 5910.0,0.0 L 5835.0,0.0 L 5747.0,-85.0 L 5747.0,-157.0 L 5747.0,-232.0 L 5831.0,-320.0 L 5901.0,-320.0 L 5965.0,-320.0 L 6039.0,-238.0 L 6039.0,-168.0 M 5987.0,-192.0 L 5986.0,-221.0 L 5940.0,-256.0 L 5902.0,-256.0 L 5858.0,-256.0 L 5806.0,-222.0 L 5802.0,-191.0 L 5987.0,-192.0 M 6303.0,-320.0 L 6303.0,-256.0 L 6281.0,-256.0 L 6234.0,-256.0 L 6209.0,-256.0 L 6170.0,-256.0 L 6132.0,-238.0 L 6132.0,-220.0 L 6132.0,-206.0 L 6159.0,-190.0 L 6201.0,-183.0 L 6218.0,-179.0 L 6273.0,-168.0 L 6320.0,-127.0 L 6320.0,-90.0 L 6320.0,-49.0 L 6250.0,0.0 L 6190.0,0.0 L 6164.0,0.0 L 6109.0,0.0 L 6079.0,0.0 L 6079.0,-64.0 L 6108.0,-64.0 L 6164.0,-64.0 L 6191.0,-64.0 L 6228.0,-64.0 L 6267.0,-82.0 L 6267.0,-98.0 L 6267.0,-113.0 L 6238.0,-129.0 L 6190.0,-136.0 L 6172.0,-140.0 L 6124.0,-150.0 L 6081.0,-192.0 L 6081.0,-228.0 L 6081.0,-272.0 L 6144.0,-320.0 L 6202.0,-320.0 L 6231.0,-320.0 L 6282.0,-320.0 L 6303.0,-320.0 M 6360.0,-64.0 L 6419.0,-64.0 L 6419.0,0.0 L 6360.0,0.0 L 6360.0,-64.0 M 6360.0,-320.0 L 6419.0,-320.0 L 6419.0,-256.0 L 6360.0,-256.0 L 6360.0,-320.0 M 50.0,552.0 L 107.0,552.0 L 107.0,808.0 L 107.0,876.0 L 156.0,936.0 L 211.0,936.0 L 265.0,936.0 L 314.0,876.0 L 314.0,808.0 L 314.0,552.0 L 372.0,552.0 L 372.0,816.0 L 372.0,907.0 L 291.0,1000.0 L 211.0,1000.0 L 131.0,1000.0 L 50.0,907.0 L 50.0,816.0 L 50.0,552.0 M 636.0,680.0 L 636.0,744.0 L 614.0,744.0 L 567.0,744.0 L 542.0,744.0 L 503.0,744.0 L 465.0,762.0 L 465.0,780.0 L 465.0,794.0 L 492.0,810.0 L 534.0,817.0 L 551.0,821.0 L 606.0,832.0 L 653.0,873.0 L 653.0,910.0 L 653.0,951.0 L 583.0,1000.0 L 523.0,1000.0 L 497.0,1000.0 L 442.0,1000.0 L 412.0,1000.0 L 412.0,936.0 L 441.0,936.0 L 497.0,936.0 L 524.0,936.0 L 561.0,936.0 L 600.0,918.0 L 600.0,902.0 L 600.0,887.0 L 571.0,871.0 L 523.0,864.0 L 505.0,860.0 L 457.0,850.0 L 414.0,808.0 L 414.0,772.0 L 414.0,728.0 L 477.0,680.0 L 535.0,680.0 L 564.0,680.0 L 615.0,680.0 L 636.0,680.0 M 693.0,680.0 L 745.0,680.0 L 745.0,1000.0 L 693.0,1000.0 L 693.0,680.0 M 693.0,552.0 L 745.0,552.0 L 745.0,616.0 L 693.0,616.0 L 693.0,552.0 M 1049.0,817.0 L 1049.0,1000.0 L 997.0,1000.0 L 997.0,819.0 L 997.0,781.0 L 962.0,744.0 L 927.0,744.0 L 885.0,744.0 L 837.0,790.0 L 837.0,829.0 L 837.0,1000.0 L 785.0,1000.0 L 785.0,680.0 L 837.0,680.0 L 837.0,744.0 L 856.0,712.0 L 906.0,680.0 L 939.0,680.0 L 993.0,680.0 L 1049.0,750.0 L 1049.0,817.0 M 1319.0,840.0 L 1319.0,794.0 L 1272.0,744.0 L 1230.0,744.0 L 1189.0,744.0 L 1142.0,794.0 L 1142.0,840.0 L 1142.0,886.0 L 1189.0,936.0 L 1230.0,936.0 L 1272.0,936.0 L 1319.0,886.0 L 1319.0,840.0 M 1370.0,942.0 L 1370.0,1036.0 L 1299.0,1128.0 L 1225.0,1128.0 L 1198.0,1128.0 L 1150.0,1128.0 L 1127.0,1128.0 L 1127.0,1064.0 L 1150.0,1064.0 L 1194.0,1064.0 L 1217.0,1064.0 L 1268.0,1064.0 L 1319.0,1010.0 L 1319.0,956.0 L 1319.0,936.0 L 1303.0,968.0 L 1253.0,1000.0 L 1218.0,1000.0 L 1160.0,1000.0 L 1089.0,912.0 L 1089.0,840.0 L 1089.0,768.0 L 1160.0,680.0 L 1218.0,680.0 L 1253.0,680.0 L 1303.0,712.0 L 1319.0,744.0 L 1319.0,680.0 L 1370.0,680.0 L 1370.0,942.0 M 1818.0,755.0 L 1837.0,717.0 L 1891.0,680.0 L 1928.0,680.0 L 1977.0,680.0 L 2030.0,751.0 L 2030.0,817.0 L 2030.0,1000.0 L 1978.0,1000.0 L 1978.0,819.0 L 1978.0,781.0 L 1946.0,744.0 L 1913.0,744.0 L 1873.0,744.0 L 1826.0,790.0 L 1826.0,829.0 L 1826.0,1000.0 L 1774.0,1000.0 L 1774.0,819.0 L 1774.0,781.0 L 1742.0,744.0 L 1708.0,744.0 L 1669.0,744.0 L 1622.0,790.0 L 1622.0,829.0 L 1622.0,1000.0 L 1570.0,1000.0 L 1570.0,680.0 L 1622.0,680.0 L 1622.0,744.0 L 1640.0,711.0 L 1689.0,680.0 L 1724.0,680.0 L 1758.0,680.0 L 1806.0,718.0 L 1818.0,755.0 M 2070.0,863.0 L 2070.0,680.0 L 2122.0,680.0 L 2122.0,861.0 L 2122.0,898.0 L 2157.0,936.0 L 2192.0,936.0 L 2233.0,936.0 L 2282.0,890.0 L 2282.0,851.0 L 2282.0,680.0 L 2334.0,680.0 L 2334.0,1000.0 L 2282.0,1000.0 L 2282.0,936.0 L 2263.0,968.0 L 2213.0,1000.0 L 2181.0,1000.0 L 2126.0,1000.0 L 2070.0,930.0 L 2070.0,863.0 M 2623.0,680.0 L 2623.0,744.0 L 2601.0,744.0 L 2557.0,744.0 L 2534.0,744.0 L 2484.0,744.0 L 2428.0,794.0 L 2428.0,840.0 L 2428.0,886.0 L 2484.0,936.0 L 2534.0,936.0 L 2557.0,936.0 L 2601.0,936.0 L 2623.0,936.0 L 2623.0,1000.0 L 2601.0,1000.0 L 2555.0,1000.0 L 2529.0,1000.0 L 2458.0,1000.0 L 2374.0,913.0 L 2374.0,840.0 L 2374.0,765.0 L 2459.0,680.0 L 2532.0,680.0 L 2556.0,680.0 L 2602.0,680.0 L 2623.0,680.0 M 2927.0,817.0 L 2927.0,1000.0 L 2875.0,1000.0 L 2875.0,819.0 L 2875.0,781.0 L 2840.0,744.0 L 2805.0,744.0 L 2763.0,744.0 L 2715.0,790.0 L 2715.0,829.0 L 2715.0,1000.0 L 2663.0,1000.0 L 2663.0,488.0 L 2715.0,488.0 L 2715.0,744.0 L 2734.0,712.0 L 2784.0,680.0 L 2817.0,680.0 L 2871.0,680.0 L 2927.0,750.0 L 2927.0,817.0 M 3127.0,488.0 L 3179.0,488.0 L 3179.0,1000.0 L 3127.0,1000.0 L 3127.0,488.0 M 3381.0,872.0 L 3318.0,872.0 L 3270.0,887.0 L 3270.0,905.0 L 3270.0,919.0 L 3306.0,936.0 L 3338.0,936.0 L 3381.0,936.0 L 3433.0,905.0 L 3433.0,879.0 L 3433.0,872.0 L 3381.0,872.0 M 3485.0,838.0 L 3485.0,1000.0 L 3433.0,1000.0 L 3433.0,936.0 L 3415.0,969.0 L 3363.0,1000.0 L 3324.0,1000.0 L 3276.0,1000.0 L 3219.0,950.0 L 3219.0,907.0 L 3219.0,858.0 L 3290.0,808.0 L 3360.0,808.0 L 3433.0,808.0 L 3433.0,802.0 L 3433.0,774.0 L 3386.0,744.0 L 3344.0,744.0 L 3317.0,744.0 L 3266.0,744.0 L 3242.0,744.0 L 3242.0,680.0 L 3270.0,680.0 L 3324.0,680.0 L 3349.0,680.0 L 3418.0,680.0 L 3485.0,758.0 L 3485.0,838.0 M 3710.0,744.0 L 3701.0,744.0 L 3681.0,744.0 L 3668.0,744.0 L 3624.0,744.0 L 3577.0,794.0 L 3577.0,840.0 L 3577.0,1000.0 L 3525.0,1000.0 L 3525.0,680.0 L 3577.0,680.0 L 3577.0,744.0 L 3593.0,712.0 L 3646.0,680.0 L 3683.0,680.0 L 3689.0,680.0 L 3702.0,680.0 L 3710.0,680.0 L 3710.0,744.0 M 3980.0,840.0 L 3980.0,794.0 L 3933.0,744.0 L 3891.0,744.0 L 3850.0,744.0 L 3803.0,794.0 L 3803.0,840.0 L 3803.0,886.0 L 3850.0,936.0 L 3891.0,936.0 L 3933.0,936.0 L 3980.0,886.0 L 3980.0,840.0 M 4031.0,942.0 L 4031.0,1036.0 L 3960.0,1128.0 L 3886.0,1128.0 L 3859.0,1128.0 L 3811.0,1128.0 L 3788.0,1128.0 L 3788.0,1064.0 L 3811.0,1064.0 L 3855.0,1064.0 L 3878.0,1064.0 L 3929.0,1064.0 L 3980.0,1010.0 L 3980.0,956.0 L 3980.0,936.0 L 3964.0,968.0 L 3914.0,1000.0 L 3879.0,1000.0 L 3821.0,1000.0 L 3750.0,912.0 L 3750.0,840.0 L 3750.0,768.0 L 3821.0,680.0 L 3879.0,680.0 L 3914.0,680.0 L 3964.0,712.0 L 3980.0,744.0 L 3980.0,680.0 L 4031.0,680.0 L 4031.0,942.0 M 4363.0,832.0 L 4363.0,872.0 L 4125.0,872.0 L 4128.0,903.0 L 4186.0,936.0 L 4238.0,936.0 L 4267.0,936.0 L 4323.0,936.0 L 4351.0,936.0 L 4351.0,1000.0 L 4323.0,1000.0 L 4265.0,1000.0 L 4234.0,1000.0 L 4159.0,1000.0 L 4071.0,915.0 L 4071.0,843.0 L 4071.0,768.0 L 4155.0,680.0 L 4225.0,680.0 L 4289.0,680.0 L 4363.0,762.0 L 4363.0,832.0 M 4311.0,808.0 L 4310.0,779.0 L 4264.0,744.0 L 4226.0,744.0 L 4182.0,744.0 L 4130.0,778.0 L 4126.0,809.0 L 4311.0,808.0 M 4588.0,744.0 L 4579.0,744.0 L 4559.0,744.0 L 4546.0,744.0 L 4502.0,744.0 L 4455.0,794.0 L 4455.0,840.0 L 4455.0,1000.0 L 4403.0,1000.0 L 4403.0,680.0 L 4455.0,680.0 L 4455.0,744.0 L 4471.0,712.0 L 4524.0,680.0 L 4561.0,680.0 L 4567.0,680.0 L 4580.0,680.0 L 4588.0,680.0 L 4588.0,744.0 M 4788.0,680.0 L 4843.0,680.0 L 4941.0,949.0 L 5040.0,680.0 L 5095.0,680.0 L 4977.0,1000.0 L 4906.0,1000.0 L 4788.0,680.0 M 5297.0,872.0 L 5234.0,872.0 L 5186.0,887.0 L 5186.0,905.0 L 5186.0,919.0 L 5222.0,936.0 L 5254.0,936.0 L 5297.0,936.0 L 5349.0,905.0 L 5349.0,879.0 L 5349.0,872.0 L 5297.0,872.0 M 5401.0,838.0 L 5401.0,1000.0 L 5349.0,1000.0 L 5349.0,936.0 L 5331.0,969.0 L 5279.0,1000.0 L 5240.0,1000.0 L 5192.0,1000.0 L 5135.0,950.0 L 5135.0,907.0 L 5135.0,858.0 L 5206.0,808.0 L 5276.0,808.0 L 5349.0,808.0 L 5349.0,802.0 L 5349.0,774.0 L 5302.0,744.0 L 5260.0,744.0 L 5233.0,744.0 L 5182.0,744.0 L 5158.0,744.0 L 5158.0,680.0 L 5186.0,680.0 L 5240.0,680.0 L 5265.0,680.0 L 5334.0,680.0 L 5401.0,758.0 L 5401.0,838.0 M 5441.0,488.0 L 5493.0,488.0 L 5493.0,1000.0 L 5441.0,1000.0 L 5441.0,488.0 M 5533.0,863.0 L 5533.0,680.0 L 5585.0,680.0 L 5585.0,861.0 L 5585.0,898.0 L 5620.0,936.0 L 5655.0,936.0 L 5696.0,936.0 L 5745.0,890.0 L 5745.0,851.0 L 5745.0,680.0 L 5797.0,680.0 L 5797.0,1000.0 L 5745.0,1000.0 L 5745.0,936.0 L 5726.0,968.0 L 5676.0,1000.0 L 5644.0,1000.0 L 5589.0,1000.0 L 5533.0,930.0 L 5533.0,863.0 M 6129.0,832.0 L 6129.0,872.0 L 5891.0,872.0 L 5894.0,903.0 L 5952.0,936.0 L 6004.0,936.0 L 6033.0,936.0 L 6089.0,936.0 L 6117.0,936.0 L 6117.0,1000.0 L 6089.0,1000.0 L 6031.0,1000.0 L 6000.0,1000.0 L 5925.0,1000.0 L 5837.0,915.0 L 5837.0,843.0 L 5837.0,768.0 L 5921.0,680.0 L 5991.0,680.0 L 6055.0,680.0 L 6129.0,762.0 L 6129.0,832.0 M 6077.0,808.0 L 6076.0,779.0 L 6030.0,744.0 L 5992.0,744.0 L 5948.0,744.0 L 5896.0,778.0 L 5892.0,809.0 L 6077.0,808.0 M 6393.0,680.0 L 6393.0,744.0 L 6371.0,744.0 L 6324.0,744.0 L 6299.0,744.0 L 6260.0,744.0 L 6222.0,762.0 L 6222.0,780.0 L 6222.0,794.0 L 6249.0,810.0 L 6291.0,817.0 L 6308.0,821.0 L 6363.0,832.0 L 6410.0,873.0 L 6410.0,910.0 L 6410.0,951.0 L 6340.0,1000.0 L 6280.0,1000.0 L 6254.0,1000.0 L 6199.0,1000.0 L 6169.0,1000.0 L 6169.0,936.0 L 6198.0,936.0 L 6254.0,936.0 L 6281.0,936.0 L 6318.0,936.0 L 6357.0,918.0 L 6357.0,902.0 L 6357.0,887.0 L 6328.0,871.0 L 6280.0,864.0 L 6262.0,860.0 L 6214.0,850.0 L 6171.0,808.0 L 6171.0,772.0 L 6171.0,728.0 L 6234.0,680.0 L 6292.0,680.0 L 6321.0,680.0 L 6372.0,680.0 L 6393.0,680.0" fill="none" stroke="#000000" stroke-width="6.369"/>
</svg>
