<?xml version="1.0" ?>
<svg xmlns="http://www.w3.org/2000/svg" xmlns:ev="http://www.w3.org/2001/xml-events" xmlns:xlink="http://www.w3.org/1999/xlink" baseProfile="full" height="368px" version="1.1" viewBox="-367.83 -225.83 4395.66 2691.66" width="600px">
	<defs/>
	<path d="M 1026.0,297.0 L 615.0,1408.0 L 1439.0,1408.0 L 1026.0,297.0 M 855.0,0.0 L 1199.0,0.0 L 2052.0,2240.0 L 1737.0,2240.0 L 1533.0,1664.0 L 524.0,1664.0 L 320.0,2240.0 L 0.0,2240.0 L 855.0,0.0 M 2375.0,1152.0 L 2375.0,1984.0 L 2861.0,1984.0 L 3106.0,1984.0 L 3341.0,1779.0 L 3341.0,1567.0 L 3341.0,1354.0 L 3106.0,1152.0 L 2861.0,1152.0 L 2375.0,1152.0 M 2375.0,256.0 L 2375.0,896.0 L 2823.0,896.0 L 3045.0,896.0 L 3263.0,738.0 L 3263.0,576.0 L 3263.0,415.0 L 3045.0,256.0 L 2823.0,256.0 L 2375.0,256.0 M 2072.0,0.0 L 2846.0,0.0 L 3192.0,0.0 L 3567.0,281.0 L 3567.0,541.0 L 3567.0,741.0 L 3375.0,979.0 L 3189.0,1008.0 L 3413.0,1057.0 L 3660.0,1368.0 L 3660.0,1600.0 L 3660.0,1906.0 L 3252.0,2240.0 L 2876.0,2240.0 L 2072.0,2240.0 L 2072.0,0.0" fill="none" stroke="#000000" stroke-width="3.66"/>
</svg>
