<?xml version="1.0" ?>
<svg xmlns="http://www.w3.org/2000/svg" xmlns:ev="http://www.w3.org/2001/xml-events" xmlns:xlink="http://www.w3.org/1999/xlink" baseProfile="full" height="525px" version="1.1" viewBox="-713.398 -1179.798 9122.796 7975.596" width="600px">
	<defs/>
	<path d="M 50.0,-448.0 L 126.0,-448.0 L 312.0,-73.0 L 312.0,-448.0 L 367.0,-448.0 L 367.0,0.0 L 291.0,0.0 L 105.0,-375.0 L 105.0,0.0 L 50.0,0.0 L 50.0,-448.0 M 551.0,-256.0 L 509.0,-256.0 L 461.0,-205.0 L 461.0,-160.0 L 461.0,-115.0 L 509.0,-64.0 L 551.0,-64.0 L 593.0,-64.0 L 641.0,-116.0 L 641.0,-160.0 L 641.0,-204.0 L 593.0,-256.0 L 551.0,-256.0 M 551.0,-320.0 L 619.0,-320.0 L 696.0,-235.0 L 696.0,-160.0 L 696.0,-85.0 L 619.0,0.0 L 551.0,0.0 L 484.0,0.0 L 407.0,-85.0 L 407.0,-160.0 L 407.0,-235.0 L 484.0,-320.0 L 551.0,-320.0 M 826.0,-384.0 L 826.0,-320.0 L 933.0,-320.0 L 933.0,-256.0 L 826.0,-256.0 L 826.0,-114.0 L 826.0,-82.0 L 847.0,-64.0 L 880.0,-64.0 L 933.0,-64.0 L 933.0,0.0 L 880.0,0.0 L 820.0,0.0 L 774.0,-49.0 L 774.0,-114.0 L 774.0,-256.0 L 736.0,-256.0 L 736.0,-320.0 L 774.0,-320.0 L 774.0,-384.0 L 826.0,-384.0 M 1265.0,-168.0 L 1265.0,-128.0 L 1027.0,-128.0 L 1030.0,-97.0 L 1088.0,-64.0 L 1140.0,-64.0 L 1169.0,-64.0 L 1225.0,-64.0 L 1253.0,-64.0 L 1253.0,0.0 L 1225.0,0.0 L 1167.0,0.0 L 1136.0,0.0 L 1061.0,0.0 L 973.0,-85.0 L 973.0,-157.0 L 973.0,-232.0 L 1057.0,-320.0 L 1127.0,-320.0 L 1191.0,-320.0 L 1265.0,-238.0 L 1265.0,-168.0 M 1213.0,-192.0 L 1212.0,-221.0 L 1166.0,-256.0 L 1128.0,-256.0 L 1084.0,-256.0 L 1032.0,-222.0 L 1028.0,-191.0 L 1213.0,-192.0 M 1555.0,-384.0 L 1555.0,-320.0 L 1662.0,-320.0 L 1662.0,-256.0 L 1555.0,-256.0 L 1555.0,-114.0 L 1555.0,-82.0 L 1576.0,-64.0 L 1609.0,-64.0 L 1662.0,-64.0 L 1662.0,0.0 L 1609.0,0.0 L 1549.0,0.0 L 1503.0,-49.0 L 1503.0,-114.0 L 1503.0,-256.0 L 1465.0,-256.0 L 1465.0,-320.0 L 1503.0,-320.0 L 1503.0,-384.0 L 1555.0,-384.0 M 1966.0,-183.0 L 1966.0,0.0 L 1914.0,0.0 L 1914.0,-181.0 L 1914.0,-219.0 L 1879.0,-256.0 L 1844.0,-256.0 L 1802.0,-256.0 L 1754.0,-210.0 L 1754.0,-171.0 L 1754.0,0.0 L 1702.0,0.0 L 1702.0,-512.0 L 1754.0,-512.0 L 1754.0,-256.0 L 1773.0,-288.0 L 1823.0,-320.0 L 1856.0,-320.0 L 1910.0,-320.0 L 1966.0,-250.0 L 1966.0,-183.0 M 2168.0,-128.0 L 2105.0,-128.0 L 2057.0,-113.0 L 2057.0,-95.0 L 2057.0,-81.0 L 2093.0,-64.0 L 2125.0,-64.0 L 2168.0,-64.0 L 2220.0,-95.0 L 2220.0,-121.0 L 2220.0,-128.0 L 2168.0,-128.0 M 2272.0,-162.0 L 2272.0,0.0 L 2220.0,0.0 L 2220.0,-64.0 L 2202.0,-31.0 L 2150.0,0.0 L 2111.0,0.0 L 2063.0,0.0 L 2006.0,-50.0 L 2006.0,-93.0 L 2006.0,-142.0 L 2077.0,-192.0 L 2147.0,-192.0 L 2220.0,-192.0 L 2220.0,-198.0 L 2220.0,-226.0 L 2173.0,-256.0 L 2131.0,-256.0 L 2104.0,-256.0 L 2053.0,-256.0 L 2029.0,-256.0 L 2029.0,-320.0 L 2057.0,-320.0 L 2111.0,-320.0 L 2136.0,-320.0 L 2205.0,-320.0 L 2272.0,-242.0 L 2272.0,-162.0 M 2402.0,-384.0 L 2402.0,-320.0 L 2509.0,-320.0 L 2509.0,-256.0 L 2402.0,-256.0 L 2402.0,-114.0 L 2402.0,-82.0 L 2423.0,-64.0 L 2456.0,-64.0 L 2509.0,-64.0 L 2509.0,0.0 L 2456.0,0.0 L 2396.0,0.0 L 2350.0,-49.0 L 2350.0,-114.0 L 2350.0,-256.0 L 2312.0,-256.0 L 2312.0,-320.0 L 2350.0,-320.0 L 2350.0,-384.0 L 2402.0,-384.0 M 2799.0,-384.0 L 2799.0,-320.0 L 2906.0,-320.0 L 2906.0,-256.0 L 2799.0,-256.0 L 2799.0,-114.0 L 2799.0,-82.0 L 2820.0,-64.0 L 2853.0,-64.0 L 2906.0,-64.0 L 2906.0,0.0 L 2853.0,0.0 L 2793.0,0.0 L 2747.0,-49.0 L 2747.0,-114.0 L 2747.0,-256.0 L 2709.0,-256.0 L 2709.0,-320.0 L 2747.0,-320.0 L 2747.0,-384.0 L 2799.0,-384.0 M 3210.0,-183.0 L 3210.0,0.0 L 3158.0,0.0 L 3158.0,-181.0 L 3158.0,-219.0 L 3123.0,-256.0 L 3088.0,-256.0 L 3046.0,-256.0 L 2998.0,-210.0 L 2998.0,-171.0 L 2998.0,0.0 L 2946.0,0.0 L 2946.0,-512.0 L 2998.0,-512.0 L 2998.0,-256.0 L 3017.0,-288.0 L 3067.0,-320.0 L 3100.0,-320.0 L 3154.0,-320.0 L 3210.0,-250.0 L 3210.0,-183.0 M 3542.0,-168.0 L 3542.0,-128.0 L 3304.0,-128.0 L 3307.0,-97.0 L 3365.0,-64.0 L 3417.0,-64.0 L 3446.0,-64.0 L 3502.0,-64.0 L 3530.0,-64.0 L 3530.0,0.0 L 3502.0,0.0 L 3444.0,0.0 L 3413.0,0.0 L 3338.0,0.0 L 3250.0,-85.0 L 3250.0,-157.0 L 3250.0,-232.0 L 3334.0,-320.0 L 3404.0,-320.0 L 3468.0,-320.0 L 3542.0,-238.0 L 3542.0,-168.0 M 3490.0,-192.0 L 3489.0,-221.0 L 3443.0,-256.0 L 3405.0,-256.0 L 3361.0,-256.0 L 3309.0,-222.0 L 3305.0,-191.0 L 3490.0,-192.0 M 3806.0,-320.0 L 3806.0,-256.0 L 3784.0,-256.0 L 3737.0,-256.0 L 3712.0,-256.0 L 3673.0,-256.0 L 3635.0,-238.0 L 3635.0,-220.0 L 3635.0,-206.0 L 3662.0,-190.0 L 3704.0,-183.0 L 3721.0,-179.0 L 3776.0,-168.0 L 3823.0,-127.0 L 3823.0,-90.0 L 3823.0,-49.0 L 3753.0,0.0 L 3693.0,0.0 L 3667.0,0.0 L 3612.0,0.0 L 3582.0,0.0 L 3582.0,-64.0 L 3611.0,-64.0 L 3667.0,-64.0 L 3694.0,-64.0 L 3731.0,-64.0 L 3770.0,-82.0 L 3770.0,-98.0 L 3770.0,-113.0 L 3741.0,-129.0 L 3693.0,-136.0 L 3675.0,-140.0 L 3627.0,-150.0 L 3584.0,-192.0 L 3584.0,-228.0 L 3584.0,-272.0 L 3647.0,-320.0 L 3705.0,-320.0 L 3734.0,-320.0 L 3785.0,-320.0 L 3806.0,-320.0 M 4155.0,-168.0 L 4155.0,-128.0 L 3917.0,-128.0 L 3920.0,-97.0 L 3978.0,-64.0 L 4030.0,-64.0 L 4059.0,-64.0 L 4115.0,-64.0 L 4143.0,-64.0 L 4143.0,0.0 L 4115.0,0.0 L 4057.0,0.0 L 4026.0,0.0 L 3951.0,0.0 L 3863.0,-85.0 L 3863.0,-157.0 L 3863.0,-232.0 L 3947.0,-320.0 L 4017.0,-320.0 L 4081.0,-320.0 L 4155.0,-238.0 L 4155.0,-168.0 M 4103.0,-192.0 L 4102.0,-221.0 L 4056.0,-256.0 L 4018.0,-256.0 L 3974.0,-256.0 L 3922.0,-222.0 L 3918.0,-191.0 L 4103.0,-192.0 M 4355.0,-320.0 L 4407.0,-320.0 L 4472.0,-70.0 L 4536.0,-320.0 L 4597.0,-320.0 L 4662.0,-70.0 L 4726.0,-320.0 L 4778.0,-320.0 L 4696.0,0.0 L 4634.0,0.0 L 4567.0,-262.0 L 4499.0,0.0 L 4438.0,0.0 L 4355.0,-320.0 M 4818.0,-320.0 L 4870.0,-320.0 L 4870.0,0.0 L 4818.0,0.0 L 4818.0,-320.0 M 4818.0,-448.0 L 4870.0,-448.0 L 4870.0,-384.0 L 4818.0,-384.0 L 4818.0,-448.0 M 5140.0,-256.0 L 5140.0,-512.0 L 5191.0,-512.0 L 5191.0,0.0 L 5140.0,0.0 L 5140.0,-64.0 L 5124.0,-32.0 L 5074.0,0.0 L 5039.0,0.0 L 4982.0,0.0 L 4910.0,-88.0 L 4910.0,-160.0 L 4910.0,-232.0 L 4982.0,-320.0 L 5039.0,-320.0 L 5074.0,-320.0 L 5124.0,-288.0 L 5140.0,-256.0 M 4963.0,-160.0 L 4963.0,-115.0 L 5010.0,-64.0 L 5051.0,-64.0 L 5093.0,-64.0 L 5140.0,-115.0 L 5140.0,-160.0 L 5140.0,-205.0 L 5093.0,-256.0 L 5051.0,-256.0 L 5010.0,-256.0 L 4963.0,-205.0 L 4963.0,-160.0 M 5321.0,-384.0 L 5321.0,-320.0 L 5428.0,-320.0 L 5428.0,-256.0 L 5321.0,-256.0 L 5321.0,-114.0 L 5321.0,-82.0 L 5342.0,-64.0 L 5375.0,-64.0 L 5428.0,-64.0 L 5428.0,0.0 L 5375.0,0.0 L 5315.0,0.0 L 5269.0,-49.0 L 5269.0,-114.0 L 5269.0,-256.0 L 5231.0,-256.0 L 5231.0,-320.0 L 5269.0,-320.0 L 5269.0,-384.0 L 5321.0,-384.0 M 5732.0,-183.0 L 5732.0,0.0 L 5680.0,0.0 L 5680.0,-181.0 L 5680.0,-219.0 L 5645.0,-256.0 L 5610.0,-256.0 L 5568.0,-256.0 L 5520.0,-210.0 L 5520.0,-171.0 L 5520.0,0.0 L 5468.0,0.0 L 5468.0,-512.0 L 5520.0,-512.0 L 5520.0,-256.0 L 5539.0,-288.0 L 5589.0,-320.0 L 5622.0,-320.0 L 5676.0,-320.0 L 5732.0,-250.0 L 5732.0,-183.0 M 5996.0,-320.0 L 5996.0,-256.0 L 5974.0,-256.0 L 5927.0,-256.0 L 5902.0,-256.0 L 5863.0,-256.0 L 5825.0,-238.0 L 5825.0,-220.0 L 5825.0,-206.0 L 5852.0,-190.0 L 5894.0,-183.0 L 5911.0,-179.0 L 5966.0,-168.0 L 6013.0,-127.0 L 6013.0,-90.0 L 6013.0,-49.0 L 5943.0,0.0 L 5883.0,0.0 L 5857.0,0.0 L 5802.0,0.0 L 5772.0,0.0 L 5772.0,-64.0 L 5801.0,-64.0 L 5857.0,-64.0 L 5884.0,-64.0 L 5921.0,-64.0 L 5960.0,-82.0 L 5960.0,-98.0 L 5960.0,-113.0 L 5931.0,-129.0 L 5883.0,-136.0 L 5865.0,-140.0 L 5817.0,-150.0 L 5774.0,-192.0 L 5774.0,-228.0 L 5774.0,-272.0 L 5837.0,-320.0 L 5895.0,-320.0 L 5924.0,-320.0 L 5975.0,-320.0 L 5996.0,-320.0 M 6375.0,-128.0 L 6312.0,-128.0 L 6264.0,-113.0 L 6264.0,-95.0 L 6264.0,-81.0 L 6300.0,-64.0 L 6332.0,-64.0 L 6375.0,-64.0 L 6427.0,-95.0 L 6427.0,-121.0 L 6427.0,-128.0 L 6375.0,-128.0 M 6479.0,-162.0 L 6479.0,0.0 L 6427.0,0.0 L 6427.0,-64.0 L 6409.0,-31.0 L 6357.0,0.0 L 6318.0,0.0 L 6270.0,0.0 L 6213.0,-50.0 L 6213.0,-93.0 L 6213.0,-142.0 L 6284.0,-192.0 L 6354.0,-192.0 L 6427.0,-192.0 L 6427.0,-198.0 L 6427.0,-226.0 L 6380.0,-256.0 L 6338.0,-256.0 L 6311.0,-256.0 L 6260.0,-256.0 L 6236.0,-256.0 L 6236.0,-320.0 L 6264.0,-320.0 L 6318.0,-320.0 L 6343.0,-320.0 L 6412.0,-320.0 L 6479.0,-242.0 L 6479.0,-162.0 M 6704.0,-256.0 L 6695.0,-256.0 L 6675.0,-256.0 L 6662.0,-256.0 L 6618.0,-256.0 L 6571.0,-206.0 L 6571.0,-160.0 L 6571.0,0.0 L 6519.0,0.0 L 6519.0,-320.0 L 6571.0,-320.0 L 6571.0,-256.0 L 6587.0,-288.0 L 6640.0,-320.0 L 6677.0,-320.0 L 6683.0,-320.0 L 6696.0,-320.0 L 6704.0,-320.0 L 6704.0,-256.0 M 7036.0,-168.0 L 7036.0,-128.0 L 6798.0,-128.0 L 6801.0,-97.0 L 6859.0,-64.0 L 6911.0,-64.0 L 6940.0,-64.0 L 6996.0,-64.0 L 7024.0,-64.0 L 7024.0,0.0 L 6996.0,0.0 L 6938.0,0.0 L 6907.0,0.0 L 6832.0,0.0 L 6744.0,-85.0 L 6744.0,-157.0 L 6744.0,-232.0 L 6828.0,-320.0 L 6898.0,-320.0 L 6962.0,-320.0 L 7036.0,-238.0 L 7036.0,-168.0 M 6984.0,-192.0 L 6983.0,-221.0 L 6937.0,-256.0 L 6899.0,-256.0 L 6855.0,-256.0 L 6803.0,-222.0 L 6799.0,-191.0 L 6984.0,-192.0 M 7236.0,-320.0 L 7288.0,-320.0 L 7288.0,0.0 L 7236.0,0.0 L 7236.0,-320.0 M 7236.0,-448.0 L 7288.0,-448.0 L 7288.0,-384.0 L 7236.0,-384.0 L 7236.0,-448.0 M 7592.0,-183.0 L 7592.0,0.0 L 7540.0,0.0 L 7540.0,-181.0 L 7540.0,-219.0 L 7505.0,-256.0 L 7470.0,-256.0 L 7428.0,-256.0 L 7380.0,-210.0 L 7380.0,-171.0 L 7380.0,0.0 L 7328.0,0.0 L 7328.0,-320.0 L 7380.0,-320.0 L 7380.0,-256.0 L 7399.0,-288.0 L 7449.0,-320.0 L 7482.0,-320.0 L 7536.0,-320.0 L 7592.0,-250.0 L 7592.0,-183.0 M 251.0,488.0 L 251.0,552.0 L 201.0,552.0 L 173.0,552.0 L 152.0,588.0 L 152.0,635.0 L 152.0,680.0 L 237.0,680.0 L 237.0,744.0 L 152.0,744.0 L 152.0,1000.0 L 100.0,1000.0 L 100.0,744.0 L 50.0,744.0 L 50.0,680.0 L 100.0,680.0 L 100.0,645.0 L 100.0,563.0 L 149.0,488.0 L 202.0,488.0 L 251.0,488.0 M 435.0,744.0 L 393.0,744.0 L 345.0,795.0 L 345.0,840.0 L 345.0,885.0 L 393.0,936.0 L 435.0,936.0 L 477.0,936.0 L 525.0,884.0 L 525.0,840.0 L 525.0,796.0 L 477.0,744.0 L 435.0,744.0 M 435.0,680.0 L 503.0,680.0 L 580.0,765.0 L 580.0,840.0 L 580.0,915.0 L 503.0,1000.0 L 435.0,1000.0 L 368.0,1000.0 L 291.0,915.0 L 291.0,840.0 L 291.0,765.0 L 368.0,680.0 L 435.0,680.0 M 884.0,817.0 L 884.0,1000.0 L 832.0,1000.0 L 832.0,819.0 L 832.0,781.0 L 797.0,744.0 L 762.0,744.0 L 720.0,744.0 L 672.0,790.0 L 672.0,829.0 L 672.0,1000.0 L 620.0,1000.0 L 620.0,680.0 L 672.0,680.0 L 672.0,744.0 L 691.0,712.0 L 741.0,680.0 L 774.0,680.0 L 828.0,680.0 L 884.0,750.0 L 884.0,817.0 M 1014.0,616.0 L 1014.0,680.0 L 1121.0,680.0 L 1121.0,744.0 L 1014.0,744.0 L 1014.0,886.0 L 1014.0,918.0 L 1035.0,936.0 L 1068.0,936.0 L 1121.0,936.0 L 1121.0,1000.0 L 1068.0,1000.0 L 1008.0,1000.0 L 962.0,951.0 L 962.0,886.0 L 962.0,744.0 L 924.0,744.0 L 924.0,680.0 L 962.0,680.0 L 962.0,616.0 L 1014.0,616.0 M 1321.0,863.0 L 1321.0,680.0 L 1373.0,680.0 L 1373.0,861.0 L 1373.0,898.0 L 1408.0,936.0 L 1443.0,936.0 L 1484.0,936.0 L 1533.0,890.0 L 1533.0,851.0 L 1533.0,680.0 L 1585.0,680.0 L 1585.0,1000.0 L 1533.0,1000.0 L 1533.0,936.0 L 1514.0,968.0 L 1464.0,1000.0 L 1432.0,1000.0 L 1377.0,1000.0 L 1321.0,930.0 L 1321.0,863.0 M 1889.0,817.0 L 1889.0,1000.0 L 1837.0,1000.0 L 1837.0,819.0 L 1837.0,781.0 L 1802.0,744.0 L 1767.0,744.0 L 1725.0,744.0 L 1677.0,790.0 L 1677.0,829.0 L 1677.0,1000.0 L 1625.0,1000.0 L 1625.0,680.0 L 1677.0,680.0 L 1677.0,744.0 L 1696.0,712.0 L 1746.0,680.0 L 1779.0,680.0 L 1833.0,680.0 L 1889.0,750.0 L 1889.0,817.0 M 1929.0,680.0 L 1981.0,680.0 L 1981.0,1000.0 L 1929.0,1000.0 L 1929.0,680.0 M 1929.0,552.0 L 1981.0,552.0 L 1981.0,616.0 L 1929.0,616.0 L 1929.0,552.0 M 2111.0,616.0 L 2111.0,680.0 L 2218.0,680.0 L 2218.0,744.0 L 2111.0,744.0 L 2111.0,886.0 L 2111.0,918.0 L 2132.0,936.0 L 2165.0,936.0 L 2218.0,936.0 L 2218.0,1000.0 L 2165.0,1000.0 L 2105.0,1000.0 L 2059.0,951.0 L 2059.0,886.0 L 2059.0,744.0 L 2021.0,744.0 L 2021.0,680.0 L 2059.0,680.0 L 2059.0,616.0 L 2111.0,616.0 M 2482.0,680.0 L 2482.0,744.0 L 2460.0,744.0 L 2413.0,744.0 L 2388.0,744.0 L 2349.0,744.0 L 2311.0,762.0 L 2311.0,780.0 L 2311.0,794.0 L 2338.0,810.0 L 2380.0,817.0 L 2397.0,821.0 L 2452.0,832.0 L 2499.0,873.0 L 2499.0,910.0 L 2499.0,951.0 L 2429.0,1000.0 L 2369.0,1000.0 L 2343.0,1000.0 L 2288.0,1000.0 L 2258.0,1000.0 L 2258.0,936.0 L 2287.0,936.0 L 2343.0,936.0 L 2370.0,936.0 L 2407.0,936.0 L 2446.0,918.0 L 2446.0,902.0 L 2446.0,887.0 L 2417.0,871.0 L 2369.0,864.0 L 2351.0,860.0 L 2303.0,850.0 L 2260.0,808.0 L 2260.0,772.0 L 2260.0,728.0 L 2323.0,680.0 L 2381.0,680.0 L 2410.0,680.0 L 2461.0,680.0 L 2482.0,680.0 M 2563.0,936.0 L 2622.0,936.0 L 2622.0,981.0 L 2576.0,1064.0 L 2539.0,1064.0 L 2563.0,981.0 L 2563.0,936.0 M 2822.0,680.0 L 2874.0,680.0 L 2939.0,930.0 L 3003.0,680.0 L 3064.0,680.0 L 3129.0,930.0 L 3193.0,680.0 L 3245.0,680.0 L 3163.0,1000.0 L 3101.0,1000.0 L 3034.0,738.0 L 2966.0,1000.0 L 2905.0,1000.0 L 2822.0,680.0 M 3549.0,817.0 L 3549.0,1000.0 L 3497.0,1000.0 L 3497.0,819.0 L 3497.0,781.0 L 3462.0,744.0 L 3427.0,744.0 L 3385.0,744.0 L 3337.0,790.0 L 3337.0,829.0 L 3337.0,1000.0 L 3285.0,1000.0 L 3285.0,488.0 L 3337.0,488.0 L 3337.0,744.0 L 3356.0,712.0 L 3406.0,680.0 L 3439.0,680.0 L 3493.0,680.0 L 3549.0,750.0 L 3549.0,817.0 M 3589.0,680.0 L 3641.0,680.0 L 3641.0,1000.0 L 3589.0,1000.0 L 3589.0,680.0 M 3589.0,552.0 L 3641.0,552.0 L 3641.0,616.0 L 3589.0,616.0 L 3589.0,552.0 M 3930.0,680.0 L 3930.0,744.0 L 3908.0,744.0 L 3864.0,744.0 L 3841.0,744.0 L 3791.0,744.0 L 3735.0,794.0 L 3735.0,840.0 L 3735.0,886.0 L 3791.0,936.0 L 3841.0,936.0 L 3864.0,936.0 L 3908.0,936.0 L 3930.0,936.0 L 3930.0,1000.0 L 3908.0,1000.0 L 3862.0,1000.0 L 3836.0,1000.0 L 3765.0,1000.0 L 3681.0,913.0 L 3681.0,840.0 L 3681.0,765.0 L 3766.0,680.0 L 3839.0,680.0 L 3863.0,680.0 L 3909.0,680.0 L 3930.0,680.0 M 4234.0,817.0 L 4234.0,1000.0 L 4182.0,1000.0 L 4182.0,819.0 L 4182.0,781.0 L 4147.0,744.0 L 4112.0,744.0 L 4070.0,744.0 L 4022.0,790.0 L 4022.0,829.0 L 4022.0,1000.0 L 3970.0,1000.0 L 3970.0,488.0 L 4022.0,488.0 L 4022.0,744.0 L 4041.0,712.0 L 4091.0,680.0 L 4124.0,680.0 L 4178.0,680.0 L 4234.0,750.0 L 4234.0,817.0 M 4664.0,744.0 L 4664.0,488.0 L 4715.0,488.0 L 4715.0,1000.0 L 4664.0,1000.0 L 4664.0,936.0 L 4648.0,968.0 L 4598.0,1000.0 L 4563.0,1000.0 L 4506.0,1000.0 L 4434.0,912.0 L 4434.0,840.0 L 4434.0,768.0 L 4506.0,680.0 L 4563.0,680.0 L 4598.0,680.0 L 4648.0,712.0 L 4664.0,744.0 M 4487.0,840.0 L 4487.0,885.0 L 4534.0,936.0 L 4575.0,936.0 L 4617.0,936.0 L 4664.0,885.0 L 4664.0,840.0 L 4664.0,795.0 L 4617.0,744.0 L 4575.0,744.0 L 4534.0,744.0 L 4487.0,795.0 L 4487.0,840.0 M 5047.0,832.0 L 5047.0,872.0 L 4809.0,872.0 L 4812.0,903.0 L 4870.0,936.0 L 4922.0,936.0 L 4951.0,936.0 L 5007.0,936.0 L 5035.0,936.0 L 5035.0,1000.0 L 5007.0,1000.0 L 4949.0,1000.0 L 4918.0,1000.0 L 4843.0,1000.0 L 4755.0,915.0 L 4755.0,843.0 L 4755.0,768.0 L 4839.0,680.0 L 4909.0,680.0 L 4973.0,680.0 L 5047.0,762.0 L 5047.0,832.0 M 4995.0,808.0 L 4994.0,779.0 L 4948.0,744.0 L 4910.0,744.0 L 4866.0,744.0 L 4814.0,778.0 L 4810.0,809.0 L 4995.0,808.0 M 5139.0,936.0 L 5139.0,1128.0 L 5087.0,1128.0 L 5087.0,680.0 L 5139.0,680.0 L 5139.0,744.0 L 5155.0,712.0 L 5205.0,680.0 L 5240.0,680.0 L 5297.0,680.0 L 5369.0,768.0 L 5369.0,840.0 L 5369.0,912.0 L 5297.0,1000.0 L 5240.0,1000.0 L 5205.0,1000.0 L 5155.0,968.0 L 5139.0,936.0 M 5315.0,840.0 L 5315.0,795.0 L 5268.0,744.0 L 5227.0,744.0 L 5186.0,744.0 L 5139.0,795.0 L 5139.0,840.0 L 5139.0,885.0 L 5186.0,936.0 L 5227.0,936.0 L 5268.0,936.0 L 5315.0,885.0 L 5315.0,840.0 M 5701.0,832.0 L 5701.0,872.0 L 5463.0,872.0 L 5466.0,903.0 L 5524.0,936.0 L 5576.0,936.0 L 5605.0,936.0 L 5661.0,936.0 L 5689.0,936.0 L 5689.0,1000.0 L 5661.0,1000.0 L 5603.0,1000.0 L 5572.0,1000.0 L 5497.0,1000.0 L 5409.0,915.0 L 5409.0,843.0 L 5409.0,768.0 L 5493.0,680.0 L 5563.0,680.0 L 5627.0,680.0 L 5701.0,762.0 L 5701.0,832.0 M 5649.0,808.0 L 5648.0,779.0 L 5602.0,744.0 L 5564.0,744.0 L 5520.0,744.0 L 5468.0,778.0 L 5464.0,809.0 L 5649.0,808.0 M 6005.0,817.0 L 6005.0,1000.0 L 5953.0,1000.0 L 5953.0,819.0 L 5953.0,781.0 L 5918.0,744.0 L 5883.0,744.0 L 5841.0,744.0 L 5793.0,790.0 L 5793.0,829.0 L 5793.0,1000.0 L 5741.0,1000.0 L 5741.0,680.0 L 5793.0,680.0 L 5793.0,744.0 L 5812.0,712.0 L 5862.0,680.0 L 5895.0,680.0 L 5949.0,680.0 L 6005.0,750.0 L 6005.0,817.0 M 6275.0,744.0 L 6275.0,488.0 L 6326.0,488.0 L 6326.0,1000.0 L 6275.0,1000.0 L 6275.0,936.0 L 6259.0,968.0 L 6209.0,1000.0 L 6174.0,1000.0 L 6117.0,1000.0 L 6045.0,912.0 L 6045.0,840.0 L 6045.0,768.0 L 6117.0,680.0 L 6174.0,680.0 L 6209.0,680.0 L 6259.0,712.0 L 6275.0,744.0 M 6098.0,840.0 L 6098.0,885.0 L 6145.0,936.0 L 6186.0,936.0 L 6228.0,936.0 L 6275.0,885.0 L 6275.0,840.0 L 6275.0,795.0 L 6228.0,744.0 L 6186.0,744.0 L 6145.0,744.0 L 6098.0,795.0 L 6098.0,840.0 M 6670.0,744.0 L 6628.0,744.0 L 6580.0,795.0 L 6580.0,840.0 L 6580.0,885.0 L 6628.0,936.0 L 6670.0,936.0 L 6712.0,936.0 L 6760.0,884.0 L 6760.0,840.0 L 6760.0,796.0 L 6712.0,744.0 L 6670.0,744.0 M 6670.0,680.0 L 6738.0,680.0 L 6815.0,765.0 L 6815.0,840.0 L 6815.0,915.0 L 6738.0,1000.0 L 6670.0,1000.0 L 6603.0,1000.0 L 6526.0,915.0 L 6526.0,840.0 L 6526.0,765.0 L 6603.0,680.0 L 6670.0,680.0 M 7119.0,817.0 L 7119.0,1000.0 L 7067.0,1000.0 L 7067.0,819.0 L 7067.0,781.0 L 7032.0,744.0 L 6997.0,744.0 L 6955.0,744.0 L 6907.0,790.0 L 6907.0,829.0 L 6907.0,1000.0 L 6855.0,1000.0 L 6855.0,680.0 L 6907.0,680.0 L 6907.0,744.0 L 6926.0,712.0 L 6976.0,680.0 L 7009.0,680.0 L 7063.0,680.0 L 7119.0,750.0 L 7119.0,817.0 M 140.0,1616.0 L 140.0,1680.0 L 247.0,1680.0 L 247.0,1744.0 L 140.0,1744.0 L 140.0,1886.0 L 140.0,1918.0 L 161.0,1936.0 L 194.0,1936.0 L 247.0,1936.0 L 247.0,2000.0 L 194.0,2000.0 L 134.0,2000.0 L 88.0,1951.0 L 88.0,1886.0 L 88.0,1744.0 L 50.0,1744.0 L 50.0,1680.0 L 88.0,1680.0 L 88.0,1616.0 L 140.0,1616.0 M 551.0,1817.0 L 551.0,2000.0 L 499.0,2000.0 L 499.0,1819.0 L 499.0,1781.0 L 464.0,1744.0 L 429.0,1744.0 L 387.0,1744.0 L 339.0,1790.0 L 339.0,1829.0 L 339.0,2000.0 L 287.0,2000.0 L 287.0,1488.0 L 339.0,1488.0 L 339.0,1744.0 L 358.0,1712.0 L 408.0,1680.0 L 441.0,1680.0 L 495.0,1680.0 L 551.0,1750.0 L 551.0,1817.0 M 883.0,1832.0 L 883.0,1872.0 L 645.0,1872.0 L 648.0,1903.0 L 706.0,1936.0 L 758.0,1936.0 L 787.0,1936.0 L 843.0,1936.0 L 871.0,1936.0 L 871.0,2000.0 L 843.0,2000.0 L 785.0,2000.0 L 754.0,2000.0 L 679.0,2000.0 L 591.0,1915.0 L 591.0,1843.0 L 591.0,1768.0 L 675.0,1680.0 L 745.0,1680.0 L 809.0,1680.0 L 883.0,1762.0 L 883.0,1832.0 M 831.0,1808.0 L 830.0,1779.0 L 784.0,1744.0 L 746.0,1744.0 L 702.0,1744.0 L 650.0,1778.0 L 646.0,1809.0 L 831.0,1808.0 M 1284.0,1488.0 L 1284.0,1552.0 L 1234.0,1552.0 L 1206.0,1552.0 L 1185.0,1588.0 L 1185.0,1635.0 L 1185.0,1680.0 L 1270.0,1680.0 L 1270.0,1744.0 L 1185.0,1744.0 L 1185.0,2000.0 L 1133.0,2000.0 L 1133.0,1744.0 L 1083.0,1744.0 L 1083.0,1680.0 L 1133.0,1680.0 L 1133.0,1645.0 L 1133.0,1563.0 L 1182.0,1488.0 L 1235.0,1488.0 L 1284.0,1488.0 M 1468.0,1744.0 L 1426.0,1744.0 L 1378.0,1795.0 L 1378.0,1840.0 L 1378.0,1885.0 L 1426.0,1936.0 L 1468.0,1936.0 L 1510.0,1936.0 L 1558.0,1884.0 L 1558.0,1840.0 L 1558.0,1796.0 L 1510.0,1744.0 L 1468.0,1744.0 M 1468.0,1680.0 L 1536.0,1680.0 L 1613.0,1765.0 L 1613.0,1840.0 L 1613.0,1915.0 L 1536.0,2000.0 L 1468.0,2000.0 L 1401.0,2000.0 L 1324.0,1915.0 L 1324.0,1840.0 L 1324.0,1765.0 L 1401.0,1680.0 L 1468.0,1680.0 M 1917.0,1817.0 L 1917.0,2000.0 L 1865.0,2000.0 L 1865.0,1819.0 L 1865.0,1781.0 L 1830.0,1744.0 L 1795.0,1744.0 L 1753.0,1744.0 L 1705.0,1790.0 L 1705.0,1829.0 L 1705.0,2000.0 L 1653.0,2000.0 L 1653.0,1680.0 L 1705.0,1680.0 L 1705.0,1744.0 L 1724.0,1712.0 L 1774.0,1680.0 L 1807.0,1680.0 L 1861.0,1680.0 L 1917.0,1750.0 L 1917.0,1817.0 M 2047.0,1616.0 L 2047.0,1680.0 L 2154.0,1680.0 L 2154.0,1744.0 L 2047.0,1744.0 L 2047.0,1886.0 L 2047.0,1918.0 L 2068.0,1936.0 L 2101.0,1936.0 L 2154.0,1936.0 L 2154.0,2000.0 L 2101.0,2000.0 L 2041.0,2000.0 L 1995.0,1951.0 L 1995.0,1886.0 L 1995.0,1744.0 L 1957.0,1744.0 L 1957.0,1680.0 L 1995.0,1680.0 L 1995.0,1616.0 L 2047.0,1616.0 M 2578.0,1680.0 L 2578.0,1744.0 L 2556.0,1744.0 L 2509.0,1744.0 L 2484.0,1744.0 L 2445.0,1744.0 L 2407.0,1762.0 L 2407.0,1780.0 L 2407.0,1794.0 L 2434.0,1810.0 L 2476.0,1817.0 L 2493.0,1821.0 L 2548.0,1832.0 L 2595.0,1873.0 L 2595.0,1910.0 L 2595.0,1951.0 L 2525.0,2000.0 L 2465.0,2000.0 L 2439.0,2000.0 L 2384.0,2000.0 L 2354.0,2000.0 L 2354.0,1936.0 L 2383.0,1936.0 L 2439.0,1936.0 L 2466.0,1936.0 L 2503.0,1936.0 L 2542.0,1918.0 L 2542.0,1902.0 L 2542.0,1887.0 L 2513.0,1871.0 L 2465.0,1864.0 L 2447.0,1860.0 L 2399.0,1850.0 L 2356.0,1808.0 L 2356.0,1772.0 L 2356.0,1728.0 L 2419.0,1680.0 L 2477.0,1680.0 L 2506.0,1680.0 L 2557.0,1680.0 L 2578.0,1680.0 M 2635.0,1680.0 L 2687.0,1680.0 L 2687.0,2000.0 L 2635.0,2000.0 L 2635.0,1680.0 M 2635.0,1552.0 L 2687.0,1552.0 L 2687.0,1616.0 L 2635.0,1616.0 L 2635.0,1552.0 M 2734.0,1680.0 L 2980.0,1680.0 L 2980.0,1724.0 L 2785.0,1936.0 L 2980.0,1936.0 L 2980.0,2000.0 L 2727.0,2000.0 L 2727.0,1956.0 L 2921.0,1744.0 L 2734.0,1744.0 L 2734.0,1680.0 M 3312.0,1832.0 L 3312.0,1872.0 L 3074.0,1872.0 L 3077.0,1903.0 L 3135.0,1936.0 L 3187.0,1936.0 L 3216.0,1936.0 L 3272.0,1936.0 L 3300.0,1936.0 L 3300.0,2000.0 L 3272.0,2000.0 L 3214.0,2000.0 L 3183.0,2000.0 L 3108.0,2000.0 L 3020.0,1915.0 L 3020.0,1843.0 L 3020.0,1768.0 L 3104.0,1680.0 L 3174.0,1680.0 L 3238.0,1680.0 L 3312.0,1762.0 L 3312.0,1832.0 M 3260.0,1808.0 L 3259.0,1779.0 L 3213.0,1744.0 L 3175.0,1744.0 L 3131.0,1744.0 L 3079.0,1778.0 L 3075.0,1809.0 L 3260.0,1808.0 M 3674.0,1872.0 L 3611.0,1872.0 L 3563.0,1887.0 L 3563.0,1905.0 L 3563.0,1919.0 L 3599.0,1936.0 L 3631.0,1936.0 L 3674.0,1936.0 L 3726.0,1905.0 L 3726.0,1879.0 L 3726.0,1872.0 L 3674.0,1872.0 M 3778.0,1838.0 L 3778.0,2000.0 L 3726.0,2000.0 L 3726.0,1936.0 L 3708.0,1969.0 L 3656.0,2000.0 L 3617.0,2000.0 L 3569.0,2000.0 L 3512.0,1950.0 L 3512.0,1907.0 L 3512.0,1858.0 L 3583.0,1808.0 L 3653.0,1808.0 L 3726.0,1808.0 L 3726.0,1802.0 L 3726.0,1774.0 L 3679.0,1744.0 L 3637.0,1744.0 L 3610.0,1744.0 L 3559.0,1744.0 L 3535.0,1744.0 L 3535.0,1680.0 L 3563.0,1680.0 L 3617.0,1680.0 L 3642.0,1680.0 L 3711.0,1680.0 L 3778.0,1758.0 L 3778.0,1838.0 M 4082.0,1817.0 L 4082.0,2000.0 L 4030.0,2000.0 L 4030.0,1819.0 L 4030.0,1781.0 L 3995.0,1744.0 L 3960.0,1744.0 L 3918.0,1744.0 L 3870.0,1790.0 L 3870.0,1829.0 L 3870.0,2000.0 L 3818.0,2000.0 L 3818.0,1680.0 L 3870.0,1680.0 L 3870.0,1744.0 L 3889.0,1712.0 L 3939.0,1680.0 L 3972.0,1680.0 L 4026.0,1680.0 L 4082.0,1750.0 L 4082.0,1817.0 M 4352.0,1744.0 L 4352.0,1488.0 L 4403.0,1488.0 L 4403.0,2000.0 L 4352.0,2000.0 L 4352.0,1936.0 L 4336.0,1968.0 L 4286.0,2000.0 L 4251.0,2000.0 L 4194.0,2000.0 L 4122.0,1912.0 L 4122.0,1840.0 L 4122.0,1768.0 L 4194.0,1680.0 L 4251.0,1680.0 L 4286.0,1680.0 L 4336.0,1712.0 L 4352.0,1744.0 M 4175.0,1840.0 L 4175.0,1885.0 L 4222.0,1936.0 L 4263.0,1936.0 L 4305.0,1936.0 L 4352.0,1885.0 L 4352.0,1840.0 L 4352.0,1795.0 L 4305.0,1744.0 L 4263.0,1744.0 L 4222.0,1744.0 L 4175.0,1795.0 L 4175.0,1840.0 M 4747.0,1744.0 L 4705.0,1744.0 L 4657.0,1795.0 L 4657.0,1840.0 L 4657.0,1885.0 L 4705.0,1936.0 L 4747.0,1936.0 L 4789.0,1936.0 L 4837.0,1884.0 L 4837.0,1840.0 L 4837.0,1796.0 L 4789.0,1744.0 L 4747.0,1744.0 M 4747.0,1680.0 L 4815.0,1680.0 L 4892.0,1765.0 L 4892.0,1840.0 L 4892.0,1915.0 L 4815.0,2000.0 L 4747.0,2000.0 L 4680.0,2000.0 L 4603.0,1915.0 L 4603.0,1840.0 L 4603.0,1765.0 L 4680.0,1680.0 L 4747.0,1680.0 M 5022.0,1616.0 L 5022.0,1680.0 L 5129.0,1680.0 L 5129.0,1744.0 L 5022.0,1744.0 L 5022.0,1886.0 L 5022.0,1918.0 L 5043.0,1936.0 L 5076.0,1936.0 L 5129.0,1936.0 L 5129.0,2000.0 L 5076.0,2000.0 L 5016.0,2000.0 L 4970.0,1951.0 L 4970.0,1886.0 L 4970.0,1744.0 L 4932.0,1744.0 L 4932.0,1680.0 L 4970.0,1680.0 L 4970.0,1616.0 L 5022.0,1616.0 M 5433.0,1817.0 L 5433.0,2000.0 L 5381.0,2000.0 L 5381.0,1819.0 L 5381.0,1781.0 L 5346.0,1744.0 L 5311.0,1744.0 L 5269.0,1744.0 L 5221.0,1790.0 L 5221.0,1829.0 L 5221.0,2000.0 L 5169.0,2000.0 L 5169.0,1488.0 L 5221.0,1488.0 L 5221.0,1744.0 L 5240.0,1712.0 L 5290.0,1680.0 L 5323.0,1680.0 L 5377.0,1680.0 L 5433.0,1750.0 L 5433.0,1817.0 M 5765.0,1832.0 L 5765.0,1872.0 L 5527.0,1872.0 L 5530.0,1903.0 L 5588.0,1936.0 L 5640.0,1936.0 L 5669.0,1936.0 L 5725.0,1936.0 L 5753.0,1936.0 L 5753.0,2000.0 L 5725.0,2000.0 L 5667.0,2000.0 L 5636.0,2000.0 L 5561.0,2000.0 L 5473.0,1915.0 L 5473.0,1843.0 L 5473.0,1768.0 L 5557.0,1680.0 L 5627.0,1680.0 L 5691.0,1680.0 L 5765.0,1762.0 L 5765.0,1832.0 M 5713.0,1808.0 L 5712.0,1779.0 L 5666.0,1744.0 L 5628.0,1744.0 L 5584.0,1744.0 L 5532.0,1778.0 L 5528.0,1809.0 L 5713.0,1808.0 M 5990.0,1744.0 L 5981.0,1744.0 L 5961.0,1744.0 L 5948.0,1744.0 L 5904.0,1744.0 L 5857.0,1794.0 L 5857.0,1840.0 L 5857.0,2000.0 L 5805.0,2000.0 L 5805.0,1680.0 L 5857.0,1680.0 L 5857.0,1744.0 L 5873.0,1712.0 L 5926.0,1680.0 L 5963.0,1680.0 L 5969.0,1680.0 L 5982.0,1680.0 L 5990.0,1680.0 L 5990.0,1744.0 M 212.0,2872.0 L 149.0,2872.0 L 101.0,2887.0 L 101.0,2905.0 L 101.0,2919.0 L 137.0,2936.0 L 169.0,2936.0 L 212.0,2936.0 L 264.0,2905.0 L 264.0,2879.0 L 264.0,2872.0 L 212.0,2872.0 M 316.0,2838.0 L 316.0,3000.0 L 264.0,3000.0 L 264.0,2936.0 L 246.0,2969.0 L 194.0,3000.0 L 155.0,3000.0 L 107.0,3000.0 L 50.0,2950.0 L 50.0,2907.0 L 50.0,2858.0 L 121.0,2808.0 L 191.0,2808.0 L 264.0,2808.0 L 264.0,2802.0 L 264.0,2774.0 L 217.0,2744.0 L 175.0,2744.0 L 148.0,2744.0 L 97.0,2744.0 L 73.0,2744.0 L 73.0,2680.0 L 101.0,2680.0 L 155.0,2680.0 L 180.0,2680.0 L 249.0,2680.0 L 316.0,2758.0 L 316.0,2838.0 M 446.0,2616.0 L 446.0,2680.0 L 553.0,2680.0 L 553.0,2744.0 L 446.0,2744.0 L 446.0,2886.0 L 446.0,2918.0 L 467.0,2936.0 L 500.0,2936.0 L 553.0,2936.0 L 553.0,3000.0 L 500.0,3000.0 L 440.0,3000.0 L 394.0,2951.0 L 394.0,2886.0 L 394.0,2744.0 L 356.0,2744.0 L 356.0,2680.0 L 394.0,2680.0 L 394.0,2616.0 L 446.0,2616.0 M 683.0,2616.0 L 683.0,2680.0 L 790.0,2680.0 L 790.0,2744.0 L 683.0,2744.0 L 683.0,2886.0 L 683.0,2918.0 L 704.0,2936.0 L 737.0,2936.0 L 790.0,2936.0 L 790.0,3000.0 L 737.0,3000.0 L 677.0,3000.0 L 631.0,2951.0 L 631.0,2886.0 L 631.0,2744.0 L 593.0,2744.0 L 593.0,2680.0 L 631.0,2680.0 L 631.0,2616.0 L 683.0,2616.0 M 1015.0,2744.0 L 1006.0,2744.0 L 986.0,2744.0 L 973.0,2744.0 L 929.0,2744.0 L 882.0,2794.0 L 882.0,2840.0 L 882.0,3000.0 L 830.0,3000.0 L 830.0,2680.0 L 882.0,2680.0 L 882.0,2744.0 L 898.0,2712.0 L 951.0,2680.0 L 988.0,2680.0 L 994.0,2680.0 L 1007.0,2680.0 L 1015.0,2680.0 L 1015.0,2744.0 M 1055.0,2680.0 L 1107.0,2680.0 L 1107.0,3000.0 L 1055.0,3000.0 L 1055.0,2680.0 M 1055.0,2552.0 L 1107.0,2552.0 L 1107.0,2616.0 L 1055.0,2616.0 L 1055.0,2552.0 M 1375.0,2840.0 L 1375.0,2795.0 L 1328.0,2744.0 L 1287.0,2744.0 L 1246.0,2744.0 L 1199.0,2795.0 L 1199.0,2840.0 L 1199.0,2885.0 L 1246.0,2936.0 L 1287.0,2936.0 L 1328.0,2936.0 L 1375.0,2885.0 L 1375.0,2840.0 M 1199.0,2744.0 L 1215.0,2712.0 L 1265.0,2680.0 L 1300.0,2680.0 L 1357.0,2680.0 L 1429.0,2768.0 L 1429.0,2840.0 L 1429.0,2912.0 L 1357.0,3000.0 L 1300.0,3000.0 L 1265.0,3000.0 L 1215.0,2968.0 L 1199.0,2936.0 L 1199.0,3000.0 L 1147.0,3000.0 L 1147.0,2488.0 L 1199.0,2488.0 L 1199.0,2744.0 M 1469.0,2863.0 L 1469.0,2680.0 L 1521.0,2680.0 L 1521.0,2861.0 L 1521.0,2898.0 L 1556.0,2936.0 L 1591.0,2936.0 L 1632.0,2936.0 L 1681.0,2890.0 L 1681.0,2851.0 L 1681.0,2680.0 L 1733.0,2680.0 L 1733.0,3000.0 L 1681.0,3000.0 L 1681.0,2936.0 L 1662.0,2968.0 L 1612.0,3000.0 L 1580.0,3000.0 L 1525.0,3000.0 L 1469.0,2930.0 L 1469.0,2863.0 M 1863.0,2616.0 L 1863.0,2680.0 L 1970.0,2680.0 L 1970.0,2744.0 L 1863.0,2744.0 L 1863.0,2886.0 L 1863.0,2918.0 L 1884.0,2936.0 L 1917.0,2936.0 L 1970.0,2936.0 L 1970.0,3000.0 L 1917.0,3000.0 L 1857.0,3000.0 L 1811.0,2951.0 L 1811.0,2886.0 L 1811.0,2744.0 L 1773.0,2744.0 L 1773.0,2680.0 L 1811.0,2680.0 L 1811.0,2616.0 L 1863.0,2616.0 M 2302.0,2832.0 L 2302.0,2872.0 L 2064.0,2872.0 L 2067.0,2903.0 L 2125.0,2936.0 L 2177.0,2936.0 L 2206.0,2936.0 L 2262.0,2936.0 L 2290.0,2936.0 L 2290.0,3000.0 L 2262.0,3000.0 L 2204.0,3000.0 L 2173.0,3000.0 L 2098.0,3000.0 L 2010.0,2915.0 L 2010.0,2843.0 L 2010.0,2768.0 L 2094.0,2680.0 L 2164.0,2680.0 L 2228.0,2680.0 L 2302.0,2762.0 L 2302.0,2832.0 M 2250.0,2808.0 L 2249.0,2779.0 L 2203.0,2744.0 L 2165.0,2744.0 L 2121.0,2744.0 L 2069.0,2778.0 L 2065.0,2809.0 L 2250.0,2808.0 M 2566.0,2680.0 L 2566.0,2744.0 L 2544.0,2744.0 L 2497.0,2744.0 L 2472.0,2744.0 L 2433.0,2744.0 L 2395.0,2762.0 L 2395.0,2780.0 L 2395.0,2794.0 L 2422.0,2810.0 L 2464.0,2817.0 L 2481.0,2821.0 L 2536.0,2832.0 L 2583.0,2873.0 L 2583.0,2910.0 L 2583.0,2951.0 L 2513.0,3000.0 L 2453.0,3000.0 L 2427.0,3000.0 L 2372.0,3000.0 L 2342.0,3000.0 L 2342.0,2936.0 L 2371.0,2936.0 L 2427.0,2936.0 L 2454.0,2936.0 L 2491.0,2936.0 L 2530.0,2918.0 L 2530.0,2902.0 L 2530.0,2887.0 L 2501.0,2871.0 L 2453.0,2864.0 L 2435.0,2860.0 L 2387.0,2850.0 L 2344.0,2808.0 L 2344.0,2772.0 L 2344.0,2728.0 L 2407.0,2680.0 L 2465.0,2680.0 L 2494.0,2680.0 L 2545.0,2680.0 L 2566.0,2680.0 M 2623.0,2936.0 L 2682.0,2936.0 L 2682.0,3000.0 L 2623.0,3000.0 L 2623.0,2936.0 M 2882.0,2552.0 L 2940.0,2552.0 L 3028.0,2931.0 L 3116.0,2552.0 L 3180.0,2552.0 L 3268.0,2931.0 L 3356.0,2552.0 L 3414.0,2552.0 L 3308.0,3000.0 L 3237.0,3000.0 L 3148.0,2611.0 L 3059.0,3000.0 L 2987.0,3000.0 L 2882.0,2552.0 M 3598.0,2744.0 L 3556.0,2744.0 L 3508.0,2795.0 L 3508.0,2840.0 L 3508.0,2885.0 L 3556.0,2936.0 L 3598.0,2936.0 L 3640.0,2936.0 L 3688.0,2884.0 L 3688.0,2840.0 L 3688.0,2796.0 L 3640.0,2744.0 L 3598.0,2744.0 M 3598.0,2680.0 L 3666.0,2680.0 L 3743.0,2765.0 L 3743.0,2840.0 L 3743.0,2915.0 L 3666.0,3000.0 L 3598.0,3000.0 L 3531.0,3000.0 L 3454.0,2915.0 L 3454.0,2840.0 L 3454.0,2765.0 L 3531.0,2680.0 L 3598.0,2680.0 M 3968.0,2744.0 L 3959.0,2744.0 L 3939.0,2744.0 L 3926.0,2744.0 L 3882.0,2744.0 L 3835.0,2794.0 L 3835.0,2840.0 L 3835.0,3000.0 L 3783.0,3000.0 L 3783.0,2680.0 L 3835.0,2680.0 L 3835.0,2744.0 L 3851.0,2712.0 L 3904.0,2680.0 L 3941.0,2680.0 L 3947.0,2680.0 L 3960.0,2680.0 L 3968.0,2680.0 L 3968.0,2744.0 M 4238.0,2744.0 L 4238.0,2488.0 L 4289.0,2488.0 L 4289.0,3000.0 L 4238.0,3000.0 L 4238.0,2936.0 L 4222.0,2968.0 L 4172.0,3000.0 L 4137.0,3000.0 L 4080.0,3000.0 L 4008.0,2912.0 L 4008.0,2840.0 L 4008.0,2768.0 L 4080.0,2680.0 L 4137.0,2680.0 L 4172.0,2680.0 L 4222.0,2712.0 L 4238.0,2744.0 M 4061.0,2840.0 L 4061.0,2885.0 L 4108.0,2936.0 L 4149.0,2936.0 L 4191.0,2936.0 L 4238.0,2885.0 L 4238.0,2840.0 L 4238.0,2795.0 L 4191.0,2744.0 L 4149.0,2744.0 L 4108.0,2744.0 L 4061.0,2795.0 L 4061.0,2840.0 M 4553.0,2680.0 L 4553.0,2744.0 L 4531.0,2744.0 L 4484.0,2744.0 L 4459.0,2744.0 L 4420.0,2744.0 L 4382.0,2762.0 L 4382.0,2780.0 L 4382.0,2794.0 L 4409.0,2810.0 L 4451.0,2817.0 L 4468.0,2821.0 L 4523.0,2832.0 L 4570.0,2873.0 L 4570.0,2910.0 L 4570.0,2951.0 L 4500.0,3000.0 L 4440.0,3000.0 L 4414.0,3000.0 L 4359.0,3000.0 L 4329.0,3000.0 L 4329.0,2936.0 L 4358.0,2936.0 L 4414.0,2936.0 L 4441.0,2936.0 L 4478.0,2936.0 L 4517.0,2918.0 L 4517.0,2902.0 L 4517.0,2887.0 L 4488.0,2871.0 L 4440.0,2864.0 L 4422.0,2860.0 L 4374.0,2850.0 L 4331.0,2808.0 L 4331.0,2772.0 L 4331.0,2728.0 L 4394.0,2680.0 L 4452.0,2680.0 L 4481.0,2680.0 L 4532.0,2680.0 L 4553.0,2680.0 M 4994.0,2680.0 L 4994.0,2744.0 L 4972.0,2744.0 L 4925.0,2744.0 L 4900.0,2744.0 L 4861.0,2744.0 L 4823.0,2762.0 L 4823.0,2780.0 L 4823.0,2794.0 L 4850.0,2810.0 L 4892.0,2817.0 L 4909.0,2821.0 L 4964.0,2832.0 L 5011.0,2873.0 L 5011.0,2910.0 L 5011.0,2951.0 L 4941.0,3000.0 L 4881.0,3000.0 L 4855.0,3000.0 L 4800.0,3000.0 L 4770.0,3000.0 L 4770.0,2936.0 L 4799.0,2936.0 L 4855.0,2936.0 L 4882.0,2936.0 L 4919.0,2936.0 L 4958.0,2918.0 L 4958.0,2902.0 L 4958.0,2887.0 L 4929.0,2871.0 L 4881.0,2864.0 L 4863.0,2860.0 L 4815.0,2850.0 L 4772.0,2808.0 L 4772.0,2772.0 L 4772.0,2728.0 L 4835.0,2680.0 L 4893.0,2680.0 L 4922.0,2680.0 L 4973.0,2680.0 L 4994.0,2680.0 M 5315.0,2817.0 L 5315.0,3000.0 L 5263.0,3000.0 L 5263.0,2819.0 L 5263.0,2781.0 L 5228.0,2744.0 L 5193.0,2744.0 L 5151.0,2744.0 L 5103.0,2790.0 L 5103.0,2829.0 L 5103.0,3000.0 L 5051.0,3000.0 L 5051.0,2488.0 L 5103.0,2488.0 L 5103.0,2744.0 L 5122.0,2712.0 L 5172.0,2680.0 L 5205.0,2680.0 L 5259.0,2680.0 L 5315.0,2750.0 L 5315.0,2817.0 M 5499.0,2744.0 L 5457.0,2744.0 L 5409.0,2795.0 L 5409.0,2840.0 L 5409.0,2885.0 L 5457.0,2936.0 L 5499.0,2936.0 L 5541.0,2936.0 L 5589.0,2884.0 L 5589.0,2840.0 L 5589.0,2796.0 L 5541.0,2744.0 L 5499.0,2744.0 M 5499.0,2680.0 L 5567.0,2680.0 L 5644.0,2765.0 L 5644.0,2840.0 L 5644.0,2915.0 L 5567.0,3000.0 L 5499.0,3000.0 L 5432.0,3000.0 L 5355.0,2915.0 L 5355.0,2840.0 L 5355.0,2765.0 L 5432.0,2680.0 L 5499.0,2680.0 M 5684.0,2863.0 L 5684.0,2680.0 L 5736.0,2680.0 L 5736.0,2861.0 L 5736.0,2898.0 L 5771.0,2936.0 L 5806.0,2936.0 L 5847.0,2936.0 L 5896.0,2890.0 L 5896.0,2851.0 L 5896.0,2680.0 L 5948.0,2680.0 L 5948.0,3000.0 L 5896.0,3000.0 L 5896.0,2936.0 L 5877.0,2968.0 L 5827.0,3000.0 L 5795.0,3000.0 L 5740.0,3000.0 L 5684.0,2930.0 L 5684.0,2863.0 M 5988.0,2488.0 L 6040.0,2488.0 L 6040.0,3000.0 L 5988.0,3000.0 L 5988.0,2488.0 M 6310.0,2744.0 L 6310.0,2488.0 L 6361.0,2488.0 L 6361.0,3000.0 L 6310.0,3000.0 L 6310.0,2936.0 L 6294.0,2968.0 L 6244.0,3000.0 L 6209.0,3000.0 L 6152.0,3000.0 L 6080.0,2912.0 L 6080.0,2840.0 L 6080.0,2768.0 L 6152.0,2680.0 L 6209.0,2680.0 L 6244.0,2680.0 L 6294.0,2712.0 L 6310.0,2744.0 M 6133.0,2840.0 L 6133.0,2885.0 L 6180.0,2936.0 L 6221.0,2936.0 L 6263.0,2936.0 L 6310.0,2885.0 L 6310.0,2840.0 L 6310.0,2795.0 L 6263.0,2744.0 L 6221.0,2744.0 L 6180.0,2744.0 L 6133.0,2795.0 L 6133.0,2840.0 M 6762.0,2488.0 L 6762.0,2552.0 L 6712.0,2552.0 L 6684.0,2552.0 L 6663.0,2588.0 L 6663.0,2635.0 L 6663.0,2680.0 L 6748.0,2680.0 L 6748.0,2744.0 L 6663.0,2744.0 L 6663.0,3000.0 L 6611.0,3000.0 L 6611.0,2744.0 L 6561.0,2744.0 L 6561.0,2680.0 L 6611.0,2680.0 L 6611.0,2645.0 L 6611.0,2563.0 L 6660.0,2488.0 L 6713.0,2488.0 L 6762.0,2488.0 M 6802.0,2488.0 L 6854.0,2488.0 L 6854.0,3000.0 L 6802.0,3000.0 L 6802.0,2488.0 M 7038.0,2744.0 L 6996.0,2744.0 L 6948.0,2795.0 L 6948.0,2840.0 L 6948.0,2885.0 L 6996.0,2936.0 L 7038.0,2936.0 L 7080.0,2936.0 L 7128.0,2884.0 L 7128.0,2840.0 L 7128.0,2796.0 L 7080.0,2744.0 L 7038.0,2744.0 M 7038.0,2680.0 L 7106.0,2680.0 L 7183.0,2765.0 L 7183.0,2840.0 L 7183.0,2915.0 L 7106.0,3000.0 L 7038.0,3000.0 L 6971.0,3000.0 L 6894.0,2915.0 L 6894.0,2840.0 L 6894.0,2765.0 L 6971.0,2680.0 L 7038.0,2680.0 M 7223.0,2680.0 L 7275.0,2680.0 L 7340.0,2930.0 L 7404.0,2680.0 L 7465.0,2680.0 L 7530.0,2930.0 L 7594.0,2680.0 L 7646.0,2680.0 L 7564.0,3000.0 L 7502.0,3000.0 L 7435.0,2738.0 L 7367.0,3000.0 L 7306.0,3000.0 L 7223.0,2680.0 M 314.0,3817.0 L 314.0,4000.0 L 262.0,4000.0 L 262.0,3819.0 L 262.0,3781.0 L 227.0,3744.0 L 192.0,3744.0 L 150.0,3744.0 L 102.0,3790.0 L 102.0,3829.0 L 102.0,4000.0 L 50.0,4000.0 L 50.0,3680.0 L 102.0,3680.0 L 102.0,3744.0 L 121.0,3712.0 L 171.0,3680.0 L 204.0,3680.0 L 258.0,3680.0 L 314.0,3750.0 L 314.0,3817.0 M 516.0,3872.0 L 453.0,3872.0 L 405.0,3887.0 L 405.0,3905.0 L 405.0,3919.0 L 441.0,3936.0 L 473.0,3936.0 L 516.0,3936.0 L 568.0,3905.0 L 568.0,3879.0 L 568.0,3872.0 L 516.0,3872.0 M 620.0,3838.0 L 620.0,4000.0 L 568.0,4000.0 L 568.0,3936.0 L 550.0,3969.0 L 498.0,4000.0 L 459.0,4000.0 L 411.0,4000.0 L 354.0,3950.0 L 354.0,3907.0 L 354.0,3858.0 L 425.0,3808.0 L 495.0,3808.0 L 568.0,3808.0 L 568.0,3802.0 L 568.0,3774.0 L 521.0,3744.0 L 479.0,3744.0 L 452.0,3744.0 L 401.0,3744.0 L 377.0,3744.0 L 377.0,3680.0 L 405.0,3680.0 L 459.0,3680.0 L 484.0,3680.0 L 553.0,3680.0 L 620.0,3758.0 L 620.0,3838.0 M 750.0,3616.0 L 750.0,3680.0 L 857.0,3680.0 L 857.0,3744.0 L 750.0,3744.0 L 750.0,3886.0 L 750.0,3918.0 L 771.0,3936.0 L 804.0,3936.0 L 857.0,3936.0 L 857.0,4000.0 L 804.0,4000.0 L 744.0,4000.0 L 698.0,3951.0 L 698.0,3886.0 L 698.0,3744.0 L 660.0,3744.0 L 660.0,3680.0 L 698.0,3680.0 L 698.0,3616.0 L 750.0,3616.0 M 897.0,3863.0 L 897.0,3680.0 L 949.0,3680.0 L 949.0,3861.0 L 949.0,3898.0 L 984.0,3936.0 L 1019.0,3936.0 L 1060.0,3936.0 L 1109.0,3890.0 L 1109.0,3851.0 L 1109.0,3680.0 L 1161.0,3680.0 L 1161.0,4000.0 L 1109.0,4000.0 L 1109.0,3936.0 L 1090.0,3968.0 L 1040.0,4000.0 L 1008.0,4000.0 L 953.0,4000.0 L 897.0,3930.0 L 897.0,3863.0 M 1386.0,3744.0 L 1377.0,3744.0 L 1357.0,3744.0 L 1344.0,3744.0 L 1300.0,3744.0 L 1253.0,3794.0 L 1253.0,3840.0 L 1253.0,4000.0 L 1201.0,4000.0 L 1201.0,3680.0 L 1253.0,3680.0 L 1253.0,3744.0 L 1269.0,3712.0 L 1322.0,3680.0 L 1359.0,3680.0 L 1365.0,3680.0 L 1378.0,3680.0 L 1386.0,3680.0 L 1386.0,3744.0 M 1588.0,3872.0 L 1525.0,3872.0 L 1477.0,3887.0 L 1477.0,3905.0 L 1477.0,3919.0 L 1513.0,3936.0 L 1545.0,3936.0 L 1588.0,3936.0 L 1640.0,3905.0 L 1640.0,3879.0 L 1640.0,3872.0 L 1588.0,3872.0 M 1692.0,3838.0 L 1692.0,4000.0 L 1640.0,4000.0 L 1640.0,3936.0 L 1622.0,3969.0 L 1570.0,4000.0 L 1531.0,4000.0 L 1483.0,4000.0 L 1426.0,3950.0 L 1426.0,3907.0 L 1426.0,3858.0 L 1497.0,3808.0 L 1567.0,3808.0 L 1640.0,3808.0 L 1640.0,3802.0 L 1640.0,3774.0 L 1593.0,3744.0 L 1551.0,3744.0 L 1524.0,3744.0 L 1473.0,3744.0 L 1449.0,3744.0 L 1449.0,3680.0 L 1477.0,3680.0 L 1531.0,3680.0 L 1556.0,3680.0 L 1625.0,3680.0 L 1692.0,3758.0 L 1692.0,3838.0 M 1732.0,3488.0 L 1784.0,3488.0 L 1784.0,4000.0 L 1732.0,4000.0 L 1732.0,3488.0 M 1824.0,3488.0 L 1876.0,3488.0 L 1876.0,4000.0 L 1824.0,4000.0 L 1824.0,3488.0 M 2084.0,4018.0 L 2062.0,4086.0 L 2021.0,4128.0 L 1986.0,4128.0 L 1945.0,4128.0 L 1945.0,4064.0 L 1975.0,4064.0 L 1996.0,4064.0 L 2020.0,4047.0 L 2034.0,4016.0 L 2044.0,3992.0 L 1916.0,3680.0 L 1971.0,3680.0 L 2069.0,3930.0 L 2168.0,3680.0 L 2223.0,3680.0 L 2084.0,4018.0 M 2513.0,3616.0 L 2513.0,3680.0 L 2620.0,3680.0 L 2620.0,3744.0 L 2513.0,3744.0 L 2513.0,3886.0 L 2513.0,3918.0 L 2534.0,3936.0 L 2567.0,3936.0 L 2620.0,3936.0 L 2620.0,4000.0 L 2567.0,4000.0 L 2507.0,4000.0 L 2461.0,3951.0 L 2461.0,3886.0 L 2461.0,3744.0 L 2423.0,3744.0 L 2423.0,3680.0 L 2461.0,3680.0 L 2461.0,3616.0 L 2513.0,3616.0 M 2804.0,3744.0 L 2762.0,3744.0 L 2714.0,3795.0 L 2714.0,3840.0 L 2714.0,3885.0 L 2762.0,3936.0 L 2804.0,3936.0 L 2846.0,3936.0 L 2894.0,3884.0 L 2894.0,3840.0 L 2894.0,3796.0 L 2846.0,3744.0 L 2804.0,3744.0 M 2804.0,3680.0 L 2872.0,3680.0 L 2949.0,3765.0 L 2949.0,3840.0 L 2949.0,3915.0 L 2872.0,4000.0 L 2804.0,4000.0 L 2737.0,4000.0 L 2660.0,3915.0 L 2660.0,3840.0 L 2660.0,3765.0 L 2737.0,3680.0 L 2804.0,3680.0 M 3239.0,3616.0 L 3239.0,3680.0 L 3346.0,3680.0 L 3346.0,3744.0 L 3239.0,3744.0 L 3239.0,3886.0 L 3239.0,3918.0 L 3260.0,3936.0 L 3293.0,3936.0 L 3346.0,3936.0 L 3346.0,4000.0 L 3293.0,4000.0 L 3233.0,4000.0 L 3187.0,3951.0 L 3187.0,3886.0 L 3187.0,3744.0 L 3149.0,3744.0 L 3149.0,3680.0 L 3187.0,3680.0 L 3187.0,3616.0 L 3239.0,3616.0 M 3650.0,3817.0 L 3650.0,4000.0 L 3598.0,4000.0 L 3598.0,3819.0 L 3598.0,3781.0 L 3563.0,3744.0 L 3528.0,3744.0 L 3486.0,3744.0 L 3438.0,3790.0 L 3438.0,3829.0 L 3438.0,4000.0 L 3386.0,4000.0 L 3386.0,3488.0 L 3438.0,3488.0 L 3438.0,3744.0 L 3457.0,3712.0 L 3507.0,3680.0 L 3540.0,3680.0 L 3594.0,3680.0 L 3650.0,3750.0 L 3650.0,3817.0 M 3982.0,3832.0 L 3982.0,3872.0 L 3744.0,3872.0 L 3747.0,3903.0 L 3805.0,3936.0 L 3857.0,3936.0 L 3886.0,3936.0 L 3942.0,3936.0 L 3970.0,3936.0 L 3970.0,4000.0 L 3942.0,4000.0 L 3884.0,4000.0 L 3853.0,4000.0 L 3778.0,4000.0 L 3690.0,3915.0 L 3690.0,3843.0 L 3690.0,3768.0 L 3774.0,3680.0 L 3844.0,3680.0 L 3908.0,3680.0 L 3982.0,3762.0 L 3982.0,3832.0 M 3930.0,3808.0 L 3929.0,3779.0 L 3883.0,3744.0 L 3845.0,3744.0 L 3801.0,3744.0 L 3749.0,3778.0 L 3745.0,3809.0 L 3930.0,3808.0 M 4446.0,3817.0 L 4446.0,4000.0 L 4394.0,4000.0 L 4394.0,3819.0 L 4394.0,3781.0 L 4359.0,3744.0 L 4324.0,3744.0 L 4282.0,3744.0 L 4234.0,3790.0 L 4234.0,3829.0 L 4234.0,4000.0 L 4182.0,4000.0 L 4182.0,3680.0 L 4234.0,3680.0 L 4234.0,3744.0 L 4253.0,3712.0 L 4303.0,3680.0 L 4336.0,3680.0 L 4390.0,3680.0 L 4446.0,3750.0 L 4446.0,3817.0 M 4778.0,3832.0 L 4778.0,3872.0 L 4540.0,3872.0 L 4543.0,3903.0 L 4601.0,3936.0 L 4653.0,3936.0 L 4682.0,3936.0 L 4738.0,3936.0 L 4766.0,3936.0 L 4766.0,4000.0 L 4738.0,4000.0 L 4680.0,4000.0 L 4649.0,4000.0 L 4574.0,4000.0 L 4486.0,3915.0 L 4486.0,3843.0 L 4486.0,3768.0 L 4570.0,3680.0 L 4640.0,3680.0 L 4704.0,3680.0 L 4778.0,3762.0 L 4778.0,3832.0 M 4726.0,3808.0 L 4725.0,3779.0 L 4679.0,3744.0 L 4641.0,3744.0 L 4597.0,3744.0 L 4545.0,3778.0 L 4541.0,3809.0 L 4726.0,3808.0 M 5117.0,3680.0 L 5003.0,3836.0 L 5123.0,4000.0 L 5062.0,4000.0 L 4970.0,3874.0 L 4879.0,4000.0 L 4818.0,4000.0 L 4940.0,3833.0 L 4828.0,3680.0 L 4889.0,3680.0 L 4973.0,3794.0 L 5056.0,3680.0 L 5117.0,3680.0 M 5253.0,3616.0 L 5253.0,3680.0 L 5360.0,3680.0 L 5360.0,3744.0 L 5253.0,3744.0 L 5253.0,3886.0 L 5253.0,3918.0 L 5274.0,3936.0 L 5307.0,3936.0 L 5360.0,3936.0 L 5360.0,4000.0 L 5307.0,4000.0 L 5247.0,4000.0 L 5201.0,3951.0 L 5201.0,3886.0 L 5201.0,3744.0 L 5163.0,3744.0 L 5163.0,3680.0 L 5201.0,3680.0 L 5201.0,3616.0 L 5253.0,3616.0 M 5560.0,3488.0 L 5612.0,3488.0 L 5612.0,4000.0 L 5560.0,4000.0 L 5560.0,3488.0 M 5652.0,3680.0 L 5704.0,3680.0 L 5704.0,4000.0 L 5652.0,4000.0 L 5652.0,3680.0 M 5652.0,3552.0 L 5704.0,3552.0 L 5704.0,3616.0 L 5652.0,3616.0 L 5652.0,3552.0 M 6008.0,3817.0 L 6008.0,4000.0 L 5956.0,4000.0 L 5956.0,3819.0 L 5956.0,3781.0 L 5921.0,3744.0 L 5886.0,3744.0 L 5844.0,3744.0 L 5796.0,3790.0 L 5796.0,3829.0 L 5796.0,4000.0 L 5744.0,4000.0 L 5744.0,3680.0 L 5796.0,3680.0 L 5796.0,3744.0 L 5815.0,3712.0 L 5865.0,3680.0 L 5898.0,3680.0 L 5952.0,3680.0 L 6008.0,3750.0 L 6008.0,3817.0 M 6340.0,3832.0 L 6340.0,3872.0 L 6102.0,3872.0 L 6105.0,3903.0 L 6163.0,3936.0 L 6215.0,3936.0 L 6244.0,3936.0 L 6300.0,3936.0 L 6328.0,3936.0 L 6328.0,4000.0 L 6300.0,4000.0 L 6242.0,4000.0 L 6211.0,4000.0 L 6136.0,4000.0 L 6048.0,3915.0 L 6048.0,3843.0 L 6048.0,3768.0 L 6132.0,3680.0 L 6202.0,3680.0 L 6266.0,3680.0 L 6340.0,3762.0 L 6340.0,3832.0 M 6288.0,3808.0 L 6287.0,3779.0 L 6241.0,3744.0 L 6203.0,3744.0 L 6159.0,3744.0 L 6107.0,3778.0 L 6103.0,3809.0 L 6288.0,3808.0 M 50.0,4680.0 L 102.0,4680.0 L 167.0,4930.0 L 231.0,4680.0 L 292.0,4680.0 L 357.0,4930.0 L 421.0,4680.0 L 473.0,4680.0 L 391.0,5000.0 L 329.0,5000.0 L 262.0,4738.0 L 194.0,5000.0 L 133.0,5000.0 L 50.0,4680.0 M 777.0,4817.0 L 777.0,5000.0 L 725.0,5000.0 L 725.0,4819.0 L 725.0,4781.0 L 690.0,4744.0 L 655.0,4744.0 L 613.0,4744.0 L 565.0,4790.0 L 565.0,4829.0 L 565.0,5000.0 L 513.0,5000.0 L 513.0,4488.0 L 565.0,4488.0 L 565.0,4744.0 L 584.0,4712.0 L 634.0,4680.0 L 667.0,4680.0 L 721.0,4680.0 L 777.0,4750.0 L 777.0,4817.0 M 1109.0,4832.0 L 1109.0,4872.0 L 871.0,4872.0 L 874.0,4903.0 L 932.0,4936.0 L 984.0,4936.0 L 1013.0,4936.0 L 1069.0,4936.0 L 1097.0,4936.0 L 1097.0,5000.0 L 1069.0,5000.0 L 1011.0,5000.0 L 980.0,5000.0 L 905.0,5000.0 L 817.0,4915.0 L 817.0,4843.0 L 817.0,4768.0 L 901.0,4680.0 L 971.0,4680.0 L 1035.0,4680.0 L 1109.0,4762.0 L 1109.0,4832.0 M 1057.0,4808.0 L 1056.0,4779.0 L 1010.0,4744.0 L 972.0,4744.0 L 928.0,4744.0 L 876.0,4778.0 L 872.0,4809.0 L 1057.0,4808.0 M 1413.0,4817.0 L 1413.0,5000.0 L 1361.0,5000.0 L 1361.0,4819.0 L 1361.0,4781.0 L 1326.0,4744.0 L 1291.0,4744.0 L 1249.0,4744.0 L 1201.0,4790.0 L 1201.0,4829.0 L 1201.0,5000.0 L 1149.0,5000.0 L 1149.0,4680.0 L 1201.0,4680.0 L 1201.0,4744.0 L 1220.0,4712.0 L 1270.0,4680.0 L 1303.0,4680.0 L 1357.0,4680.0 L 1413.0,4750.0 L 1413.0,4817.0 M 1703.0,4616.0 L 1703.0,4680.0 L 1810.0,4680.0 L 1810.0,4744.0 L 1703.0,4744.0 L 1703.0,4886.0 L 1703.0,4918.0 L 1724.0,4936.0 L 1757.0,4936.0 L 1810.0,4936.0 L 1810.0,5000.0 L 1757.0,5000.0 L 1697.0,5000.0 L 1651.0,4951.0 L 1651.0,4886.0 L 1651.0,4744.0 L 1613.0,4744.0 L 1613.0,4680.0 L 1651.0,4680.0 L 1651.0,4616.0 L 1703.0,4616.0 M 2114.0,4817.0 L 2114.0,5000.0 L 2062.0,5000.0 L 2062.0,4819.0 L 2062.0,4781.0 L 2027.0,4744.0 L 1992.0,4744.0 L 1950.0,4744.0 L 1902.0,4790.0 L 1902.0,4829.0 L 1902.0,5000.0 L 1850.0,5000.0 L 1850.0,4488.0 L 1902.0,4488.0 L 1902.0,4744.0 L 1921.0,4712.0 L 1971.0,4680.0 L 2004.0,4680.0 L 2058.0,4680.0 L 2114.0,4750.0 L 2114.0,4817.0 M 2446.0,4832.0 L 2446.0,4872.0 L 2208.0,4872.0 L 2211.0,4903.0 L 2269.0,4936.0 L 2321.0,4936.0 L 2350.0,4936.0 L 2406.0,4936.0 L 2434.0,4936.0 L 2434.0,5000.0 L 2406.0,5000.0 L 2348.0,5000.0 L 2317.0,5000.0 L 2242.0,5000.0 L 2154.0,4915.0 L 2154.0,4843.0 L 2154.0,4768.0 L 2238.0,4680.0 L 2308.0,4680.0 L 2372.0,4680.0 L 2446.0,4762.0 L 2446.0,4832.0 M 2394.0,4808.0 L 2393.0,4779.0 L 2347.0,4744.0 L 2309.0,4744.0 L 2265.0,4744.0 L 2213.0,4778.0 L 2209.0,4809.0 L 2394.0,4808.0 M 2654.0,5018.0 L 2632.0,5086.0 L 2591.0,5128.0 L 2556.0,5128.0 L 2515.0,5128.0 L 2515.0,5064.0 L 2545.0,5064.0 L 2566.0,5064.0 L 2590.0,5047.0 L 2604.0,5016.0 L 2614.0,4992.0 L 2486.0,4680.0 L 2541.0,4680.0 L 2639.0,4930.0 L 2738.0,4680.0 L 2793.0,4680.0 L 2654.0,5018.0 M 3178.0,4744.0 L 3169.0,4744.0 L 3149.0,4744.0 L 3136.0,4744.0 L 3092.0,4744.0 L 3045.0,4794.0 L 3045.0,4840.0 L 3045.0,5000.0 L 2993.0,5000.0 L 2993.0,4680.0 L 3045.0,4680.0 L 3045.0,4744.0 L 3061.0,4712.0 L 3114.0,4680.0 L 3151.0,4680.0 L 3157.0,4680.0 L 3170.0,4680.0 L 3178.0,4680.0 L 3178.0,4744.0 M 3510.0,4832.0 L 3510.0,4872.0 L 3272.0,4872.0 L 3275.0,4903.0 L 3333.0,4936.0 L 3385.0,4936.0 L 3414.0,4936.0 L 3470.0,4936.0 L 3498.0,4936.0 L 3498.0,5000.0 L 3470.0,5000.0 L 3412.0,5000.0 L 3381.0,5000.0 L 3306.0,5000.0 L 3218.0,4915.0 L 3218.0,4843.0 L 3218.0,4768.0 L 3302.0,4680.0 L 3372.0,4680.0 L 3436.0,4680.0 L 3510.0,4762.0 L 3510.0,4832.0 M 3458.0,4808.0 L 3457.0,4779.0 L 3411.0,4744.0 L 3373.0,4744.0 L 3329.0,4744.0 L 3277.0,4778.0 L 3273.0,4809.0 L 3458.0,4808.0 M 3712.0,4872.0 L 3649.0,4872.0 L 3601.0,4887.0 L 3601.0,4905.0 L 3601.0,4919.0 L 3637.0,4936.0 L 3669.0,4936.0 L 3712.0,4936.0 L 3764.0,4905.0 L 3764.0,4879.0 L 3764.0,4872.0 L 3712.0,4872.0 M 3816.0,4838.0 L 3816.0,5000.0 L 3764.0,5000.0 L 3764.0,4936.0 L 3746.0,4969.0 L 3694.0,5000.0 L 3655.0,5000.0 L 3607.0,5000.0 L 3550.0,4950.0 L 3550.0,4907.0 L 3550.0,4858.0 L 3621.0,4808.0 L 3691.0,4808.0 L 3764.0,4808.0 L 3764.0,4802.0 L 3764.0,4774.0 L 3717.0,4744.0 L 3675.0,4744.0 L 3648.0,4744.0 L 3597.0,4744.0 L 3573.0,4744.0 L 3573.0,4680.0 L 3601.0,4680.0 L 3655.0,4680.0 L 3680.0,4680.0 L 3749.0,4680.0 L 3816.0,4758.0 L 3816.0,4838.0 M 4105.0,4680.0 L 4105.0,4744.0 L 4083.0,4744.0 L 4039.0,4744.0 L 4016.0,4744.0 L 3966.0,4744.0 L 3910.0,4794.0 L 3910.0,4840.0 L 3910.0,4886.0 L 3966.0,4936.0 L 4016.0,4936.0 L 4039.0,4936.0 L 4083.0,4936.0 L 4105.0,4936.0 L 4105.0,5000.0 L 4083.0,5000.0 L 4037.0,5000.0 L 4011.0,5000.0 L 3940.0,5000.0 L 3856.0,4913.0 L 3856.0,4840.0 L 3856.0,4765.0 L 3941.0,4680.0 L 4014.0,4680.0 L 4038.0,4680.0 L 4084.0,4680.0 L 4105.0,4680.0 M 4409.0,4817.0 L 4409.0,5000.0 L 4357.0,5000.0 L 4357.0,4819.0 L 4357.0,4781.0 L 4322.0,4744.0 L 4287.0,4744.0 L 4245.0,4744.0 L 4197.0,4790.0 L 4197.0,4829.0 L 4197.0,5000.0 L 4145.0,5000.0 L 4145.0,4488.0 L 4197.0,4488.0 L 4197.0,4744.0 L 4216.0,4712.0 L 4266.0,4680.0 L 4299.0,4680.0 L 4353.0,4680.0 L 4409.0,4750.0 L 4409.0,4817.0 M 4699.0,4616.0 L 4699.0,4680.0 L 4806.0,4680.0 L 4806.0,4744.0 L 4699.0,4744.0 L 4699.0,4886.0 L 4699.0,4918.0 L 4720.0,4936.0 L 4753.0,4936.0 L 4806.0,4936.0 L 4806.0,5000.0 L 4753.0,5000.0 L 4693.0,5000.0 L 4647.0,4951.0 L 4647.0,4886.0 L 4647.0,4744.0 L 4609.0,4744.0 L 4609.0,4680.0 L 4647.0,4680.0 L 4647.0,4616.0 L 4699.0,4616.0 M 5110.0,4817.0 L 5110.0,5000.0 L 5058.0,5000.0 L 5058.0,4819.0 L 5058.0,4781.0 L 5023.0,4744.0 L 4988.0,4744.0 L 4946.0,4744.0 L 4898.0,4790.0 L 4898.0,4829.0 L 4898.0,5000.0 L 4846.0,5000.0 L 4846.0,4488.0 L 4898.0,4488.0 L 4898.0,4744.0 L 4917.0,4712.0 L 4967.0,4680.0 L 5000.0,4680.0 L 5054.0,4680.0 L 5110.0,4750.0 L 5110.0,4817.0 M 5442.0,4832.0 L 5442.0,4872.0 L 5204.0,4872.0 L 5207.0,4903.0 L 5265.0,4936.0 L 5317.0,4936.0 L 5346.0,4936.0 L 5402.0,4936.0 L 5430.0,4936.0 L 5430.0,5000.0 L 5402.0,5000.0 L 5344.0,5000.0 L 5313.0,5000.0 L 5238.0,5000.0 L 5150.0,4915.0 L 5150.0,4843.0 L 5150.0,4768.0 L 5234.0,4680.0 L 5304.0,4680.0 L 5368.0,4680.0 L 5442.0,4762.0 L 5442.0,4832.0 M 5390.0,4808.0 L 5389.0,4779.0 L 5343.0,4744.0 L 5305.0,4744.0 L 5261.0,4744.0 L 5209.0,4778.0 L 5205.0,4809.0 L 5390.0,4808.0 M 278.0,5840.0 L 278.0,5795.0 L 231.0,5744.0 L 190.0,5744.0 L 149.0,5744.0 L 102.0,5795.0 L 102.0,5840.0 L 102.0,5885.0 L 149.0,5936.0 L 190.0,5936.0 L 231.0,5936.0 L 278.0,5885.0 L 278.0,5840.0 M 102.0,5744.0 L 118.0,5712.0 L 168.0,5680.0 L 203.0,5680.0 L 260.0,5680.0 L 332.0,5768.0 L 332.0,5840.0 L 332.0,5912.0 L 260.0,6000.0 L 203.0,6000.0 L 168.0,6000.0 L 118.0,5968.0 L 102.0,5936.0 L 102.0,6000.0 L 50.0,6000.0 L 50.0,5488.0 L 102.0,5488.0 L 102.0,5744.0 M 516.0,5744.0 L 474.0,5744.0 L 426.0,5795.0 L 426.0,5840.0 L 426.0,5885.0 L 474.0,5936.0 L 516.0,5936.0 L 558.0,5936.0 L 606.0,5884.0 L 606.0,5840.0 L 606.0,5796.0 L 558.0,5744.0 L 516.0,5744.0 M 516.0,5680.0 L 584.0,5680.0 L 661.0,5765.0 L 661.0,5840.0 L 661.0,5915.0 L 584.0,6000.0 L 516.0,6000.0 L 449.0,6000.0 L 372.0,5915.0 L 372.0,5840.0 L 372.0,5765.0 L 449.0,5680.0 L 516.0,5680.0 M 701.0,5863.0 L 701.0,5680.0 L 753.0,5680.0 L 753.0,5861.0 L 753.0,5898.0 L 788.0,5936.0 L 823.0,5936.0 L 864.0,5936.0 L 913.0,5890.0 L 913.0,5851.0 L 913.0,5680.0 L 965.0,5680.0 L 965.0,6000.0 L 913.0,6000.0 L 913.0,5936.0 L 894.0,5968.0 L 844.0,6000.0 L 812.0,6000.0 L 757.0,6000.0 L 701.0,5930.0 L 701.0,5863.0 M 1269.0,5817.0 L 1269.0,6000.0 L 1217.0,6000.0 L 1217.0,5819.0 L 1217.0,5781.0 L 1182.0,5744.0 L 1147.0,5744.0 L 1105.0,5744.0 L 1057.0,5790.0 L 1057.0,5829.0 L 1057.0,6000.0 L 1005.0,6000.0 L 1005.0,5680.0 L 1057.0,5680.0 L 1057.0,5744.0 L 1076.0,5712.0 L 1126.0,5680.0 L 1159.0,5680.0 L 1213.0,5680.0 L 1269.0,5750.0 L 1269.0,5817.0 M 1539.0,5744.0 L 1539.0,5488.0 L 1590.0,5488.0 L 1590.0,6000.0 L 1539.0,6000.0 L 1539.0,5936.0 L 1523.0,5968.0 L 1473.0,6000.0 L 1438.0,6000.0 L 1381.0,6000.0 L 1309.0,5912.0 L 1309.0,5840.0 L 1309.0,5768.0 L 1381.0,5680.0 L 1438.0,5680.0 L 1473.0,5680.0 L 1523.0,5712.0 L 1539.0,5744.0 M 1362.0,5840.0 L 1362.0,5885.0 L 1409.0,5936.0 L 1450.0,5936.0 L 1492.0,5936.0 L 1539.0,5885.0 L 1539.0,5840.0 L 1539.0,5795.0 L 1492.0,5744.0 L 1450.0,5744.0 L 1409.0,5744.0 L 1362.0,5795.0 L 1362.0,5840.0 M 1792.0,5872.0 L 1729.0,5872.0 L 1681.0,5887.0 L 1681.0,5905.0 L 1681.0,5919.0 L 1717.0,5936.0 L 1749.0,5936.0 L 1792.0,5936.0 L 1844.0,5905.0 L 1844.0,5879.0 L 1844.0,5872.0 L 1792.0,5872.0 M 1896.0,5838.0 L 1896.0,6000.0 L 1844.0,6000.0 L 1844.0,5936.0 L 1826.0,5969.0 L 1774.0,6000.0 L 1735.0,6000.0 L 1687.0,6000.0 L 1630.0,5950.0 L 1630.0,5907.0 L 1630.0,5858.0 L 1701.0,5808.0 L 1771.0,5808.0 L 1844.0,5808.0 L 1844.0,5802.0 L 1844.0,5774.0 L 1797.0,5744.0 L 1755.0,5744.0 L 1728.0,5744.0 L 1677.0,5744.0 L 1653.0,5744.0 L 1653.0,5680.0 L 1681.0,5680.0 L 1735.0,5680.0 L 1760.0,5680.0 L 1829.0,5680.0 L 1896.0,5758.0 L 1896.0,5838.0 M 2121.0,5744.0 L 2112.0,5744.0 L 2092.0,5744.0 L 2079.0,5744.0 L 2035.0,5744.0 L 1988.0,5794.0 L 1988.0,5840.0 L 1988.0,6000.0 L 1936.0,6000.0 L 1936.0,5680.0 L 1988.0,5680.0 L 1988.0,5744.0 L 2004.0,5712.0 L 2057.0,5680.0 L 2094.0,5680.0 L 2100.0,5680.0 L 2113.0,5680.0 L 2121.0,5680.0 L 2121.0,5744.0 M 2329.0,6018.0 L 2307.0,6086.0 L 2266.0,6128.0 L 2231.0,6128.0 L 2190.0,6128.0 L 2190.0,6064.0 L 2220.0,6064.0 L 2241.0,6064.0 L 2265.0,6047.0 L 2279.0,6016.0 L 2289.0,5992.0 L 2161.0,5680.0 L 2216.0,5680.0 L 2314.0,5930.0 L 2413.0,5680.0 L 2468.0,5680.0 L 2329.0,6018.0 M 2508.0,5936.0 L 2567.0,5936.0 L 2567.0,6000.0 L 2508.0,6000.0 L 2508.0,5936.0" fill="none" stroke="#000000" stroke-width="7.596"/>
</svg>
